<svg width="987" height="1220" viewBox="0 0 987 1220" fill="none" xmlns="http://www.w3.org/2000/svg">
<rect width="987" height="1220" fill="white"/>
<rect width="987" height="1220" fill="white" fill-opacity="0.2"/>
<path d="M862.932 771.824C842.96 738.085 806.516 693.764 768.71 683.651L758.123 708.908C757.431 710.463 756.254 711.753 754.768 712.585C753.283 713.416 751.568 713.744 749.88 713.521L720.918 709.437C719.154 709.188 717.527 708.348 716.302 707.055C715.077 705.762 714.326 704.092 714.172 702.317C714.066 701.141 714.226 699.956 714.641 698.851L720.918 680.248C700.783 685.358 670.63 670.338 652.633 659.831L684.091 586.121C678.058 579.125 670.546 573.556 662.099 569.815C653.652 566.075 644.479 564.258 635.244 564.494L598.417 645.483C593.813 655.636 593.03 667.11 596.211 677.794C599.393 688.478 606.326 697.655 615.734 703.635C637.843 718.063 662.233 728.648 687.872 734.941C687.405 756.374 692.072 777.608 701.483 796.87C724.65 803.143 749.058 803.221 772.264 797.097C770.847 783.418 776.944 765.878 781.867 753.014L810.754 783.637L750.656 835.588C752.646 855.798 768.733 873 787.408 878.842L854.272 822.505C861.469 816.441 866.287 808.025 867.872 798.749C869.457 789.472 867.707 779.934 862.932 771.824Z" fill="#FECFC4"/>
<path d="M206.333 493.467C202.262 495.804 197.884 497.561 193.326 498.684C151.659 509.195 129.2 563.717 118.482 603.116C115.697 613.332 116.936 624.227 121.945 633.557C126.953 642.886 135.349 649.94 145.403 653.264C174.896 662.753 205.577 668.048 236.545 668.992C245.173 654.532 247.78 637.262 243.804 620.898C220.318 618.865 197.06 614.736 174.31 608.56C178.621 596.541 184.026 584.942 190.457 573.91C196.116 592.971 193.951 585.627 200.009 606.367C224.963 610.451 254.379 612.266 282.132 605.233C286.588 588.652 289.25 571.641 290.072 554.492C303.583 565.2 318.72 573.676 334.911 579.598C341.143 582.033 347.801 583.193 354.49 583.012C361.179 582.83 367.764 581.309 373.855 578.539C401.17 566.098 418.244 556.76 451.441 531.881C451.668 512.145 442.896 498.382 424.898 490.744C403.725 506.549 378.619 522.731 355.555 531.881C339.57 519.929 322.683 509.235 305.045 499.894C285.614 490.426 258.312 487.341 254.304 486.812C241.886 501.379 230.125 500.451 206.333 493.467Z" fill="#FECFC4"/>
<path d="M228.565 626.784C227.727 626.782 226.907 627.03 226.21 627.495C225.513 627.96 224.97 628.622 224.649 629.396C224.328 630.17 224.245 631.022 224.409 631.844C224.573 632.666 224.978 633.42 225.572 634.011C226.013 634.456 226.548 634.797 227.138 635.009C227.728 635.222 228.358 635.3 228.982 635.239C229.605 635.177 230.208 634.978 230.745 634.655C231.282 634.332 231.74 633.893 232.087 633.371C232.553 632.674 232.799 631.854 232.799 631.019C232.78 629.901 232.328 628.836 231.538 628.046C230.748 627.256 229.682 626.803 228.565 626.784Z" fill="#FECFC4"/>
<path d="M167.086 649.924C168.209 649.924 169.286 649.478 170.08 648.684C170.874 647.89 171.321 646.812 171.321 645.689C171.321 644.566 170.874 643.489 170.08 642.695C169.286 641.901 168.209 641.455 167.086 641.455C165.963 641.455 164.886 641.901 164.091 642.695C163.297 643.489 162.851 644.566 162.851 645.689C162.851 646.812 163.297 647.89 164.091 648.684C164.886 649.478 165.963 649.924 167.086 649.924Z" fill="#FECFC4"/>
<path d="M137.14 593.284C138.263 593.284 139.34 592.838 140.134 592.044C140.929 591.249 141.375 590.172 141.375 589.049C141.375 587.926 140.929 586.849 140.134 586.055C139.34 585.261 138.263 584.814 137.14 584.814C136.017 584.814 134.94 585.261 134.146 586.055C133.351 586.849 132.905 587.926 132.905 589.049C132.905 590.172 133.351 591.249 134.146 592.044C134.94 592.838 136.017 593.284 137.14 593.284Z" fill="#FECFC4"/>
<path d="M188.183 557.366C189.307 557.366 190.384 556.919 191.178 556.125C191.972 555.331 192.418 554.254 192.418 553.131C192.418 552.008 191.972 550.931 191.178 550.136C190.384 549.342 189.307 548.896 188.183 548.896C187.06 548.896 185.983 549.342 185.189 550.136C184.395 550.931 183.949 552.008 183.949 553.131C183.949 554.254 184.395 555.331 185.189 556.125C185.983 556.919 187.06 557.366 188.183 557.366Z" fill="#FECFC4"/>
<path d="M207.693 499.667C206.856 499.667 206.037 499.916 205.341 500.381C204.644 500.846 204.101 501.508 203.781 502.281C203.46 503.055 203.376 503.907 203.54 504.728C203.703 505.55 204.107 506.304 204.699 506.896C205.291 507.489 206.046 507.892 206.867 508.055C207.689 508.219 208.54 508.135 209.314 507.814C210.088 507.494 210.749 506.951 211.214 506.255C211.68 505.558 211.928 504.739 211.928 503.902C211.91 502.784 211.459 501.717 210.668 500.927C209.878 500.136 208.811 499.685 207.693 499.667Z" fill="#FECFC4"/>
<path d="M250.116 542.166C249.279 542.166 248.46 542.415 247.763 542.88C247.067 543.345 246.524 544.007 246.204 544.78C245.883 545.554 245.799 546.406 245.963 547.227C246.126 548.049 246.529 548.803 247.122 549.395C247.714 549.988 248.468 550.391 249.29 550.554C250.111 550.718 250.963 550.634 251.737 550.313C252.51 549.993 253.172 549.45 253.637 548.754C254.102 548.057 254.351 547.239 254.351 546.401C254.333 545.283 253.882 544.216 253.091 543.426C252.301 542.635 251.234 542.184 250.116 542.166Z" fill="#FECFC4"/>
<path d="M215.709 580.58C215.142 580.562 214.578 580.659 214.049 580.864C213.521 581.069 213.038 581.378 212.631 581.773C212.224 582.167 211.901 582.64 211.68 583.162C211.459 583.684 211.345 584.246 211.345 584.813C211.345 585.38 211.459 585.941 211.68 586.463C211.901 586.985 212.224 587.458 212.631 587.853C213.038 588.247 213.521 588.556 214.049 588.761C214.578 588.966 215.142 589.063 215.709 589.045C216.809 589.012 217.853 588.551 218.619 587.761C219.386 586.971 219.814 585.913 219.814 584.813C219.814 583.712 219.386 582.655 218.619 581.864C217.853 581.074 216.809 580.614 215.709 580.58Z" fill="#FECFC4"/>
<path d="M312.045 557.366C313.168 557.366 314.246 556.919 315.04 556.125C315.834 555.331 316.28 554.254 316.28 553.131C316.28 552.008 315.834 550.931 315.04 550.136C314.246 549.342 313.168 548.896 312.045 548.896C310.922 548.896 309.845 549.342 309.051 550.136C308.257 550.931 307.811 552.008 307.811 553.131C307.811 554.254 308.257 555.331 309.051 556.125C309.845 556.919 310.922 557.366 312.045 557.366Z" fill="#FECFC4"/>
<path d="M352.805 537.166C351.967 537.166 351.148 537.414 350.452 537.88C349.755 538.345 349.213 539.006 348.892 539.78C348.572 540.554 348.488 541.405 348.651 542.227C348.815 543.048 349.218 543.803 349.81 544.395C350.402 544.987 351.157 545.391 351.978 545.554C352.8 545.717 353.651 545.634 354.425 545.313C355.199 544.993 355.86 544.45 356.326 543.753C356.791 543.057 357.039 542.238 357.039 541.401C357.022 540.283 356.57 539.216 355.78 538.426C354.989 537.635 353.922 537.183 352.805 537.166Z" fill="#FECFC4"/>
<path d="M404.151 554.87C405.274 554.87 406.351 554.424 407.145 553.629C407.939 552.835 408.385 551.758 408.385 550.635C408.385 549.512 407.939 548.435 407.145 547.641C406.351 546.847 405.274 546.4 404.151 546.4C403.028 546.4 401.95 546.847 401.156 547.641C400.362 548.435 399.916 549.512 399.916 550.635C399.916 551.758 400.362 552.835 401.156 553.629C401.95 554.424 403.028 554.87 404.151 554.87Z" fill="#FECFC4"/>
<path d="M426.609 509.271C427.732 509.271 428.809 508.825 429.604 508.03C430.398 507.236 430.844 506.159 430.844 505.036C430.844 503.913 430.398 502.836 429.604 502.042C428.809 501.247 427.732 500.801 426.609 500.801C425.486 500.801 424.409 501.247 423.615 502.042C422.821 502.836 422.375 503.913 422.375 505.036C422.375 506.159 422.821 507.236 423.615 508.03C424.409 508.825 425.486 509.271 426.609 509.271Z" fill="#FECFC4"/>
<path d="M270.836 588.975C269.999 588.975 269.18 589.224 268.484 589.689C267.787 590.154 267.244 590.816 266.924 591.589C266.603 592.363 266.52 593.215 266.683 594.036C266.846 594.858 267.25 595.612 267.842 596.204C268.434 596.797 269.189 597.2 270.01 597.363C270.832 597.527 271.683 597.443 272.457 597.122C273.231 596.802 273.892 596.259 274.357 595.563C274.823 594.866 275.071 594.047 275.071 593.21C275.054 592.092 274.602 591.025 273.811 590.235C273.021 589.444 271.954 588.993 270.836 588.975Z" fill="#FECFC4"/>
<path d="M279.23 506.625C280.353 506.625 281.43 506.178 282.224 505.384C283.018 504.59 283.465 503.513 283.465 502.39C283.465 501.267 283.018 500.19 282.224 499.395C281.43 498.601 280.353 498.155 279.23 498.155C278.107 498.155 277.03 498.601 276.235 499.395C275.441 500.19 274.995 501.267 274.995 502.39C274.995 503.513 275.441 504.59 276.235 505.384C277.03 506.178 278.107 506.625 279.23 506.625Z" fill="#FECFC4"/>
<path fill-rule="evenodd" clip-rule="evenodd" d="M448.615 315.082L455.874 295.95C451.193 289.393 448.657 281.547 448.615 273.491C448.615 250.502 469.032 231.9 494.214 231.9C519.395 231.9 539.737 250.502 539.737 273.491C539.737 296.479 519.319 315.082 494.138 315.082C484.743 315.133 475.541 312.424 467.671 307.293L448.615 315.082ZM478.413 275.97C478.739 275.483 478.965 274.936 479.079 274.361C479.194 273.787 479.194 273.195 479.079 272.62C478.965 272.045 478.738 271.498 478.413 271.011C478.087 270.524 477.669 270.105 477.181 269.78C476.694 269.454 476.147 269.228 475.572 269.113C474.997 268.999 474.406 268.999 473.831 269.113C473.256 269.228 472.709 269.454 472.222 269.78C471.734 270.106 471.316 270.524 470.99 271.011C470.333 271.996 470.093 273.201 470.324 274.362C470.555 275.523 471.238 276.545 472.222 277.202C473.206 277.86 474.412 278.1 475.573 277.869C476.734 277.638 477.755 276.955 478.413 275.97ZM498.6 273.491C498.598 274.373 498.336 275.235 497.845 275.968C497.355 276.701 496.658 277.272 495.843 277.609C495.028 277.947 494.132 278.036 493.267 277.865C492.402 277.693 491.607 277.27 490.982 276.647C490.463 276.128 490.081 275.489 489.868 274.787C489.655 274.085 489.619 273.342 489.762 272.622C489.905 271.903 490.224 271.23 490.689 270.663C491.155 270.096 491.753 269.653 492.43 269.372C493.108 269.091 493.844 268.982 494.574 269.053C495.304 269.125 496.005 269.376 496.615 269.783C497.225 270.19 497.726 270.742 498.072 271.389C498.418 272.035 498.599 272.757 498.6 273.491ZM517.357 275.97C517.805 275.298 518.062 274.518 518.101 273.711C518.14 272.904 517.96 272.102 517.579 271.39C517.199 270.678 516.632 270.082 515.94 269.667C515.247 269.251 514.455 269.031 513.648 269.029C512.766 269.03 511.903 269.292 511.169 269.782C510.436 270.272 509.863 270.969 509.525 271.784C509.275 272.393 509.163 273.05 509.196 273.708C509.23 274.366 509.408 275.009 509.719 275.59C510.03 276.171 510.465 276.676 510.993 277.069C511.522 277.463 512.131 277.734 512.776 277.865C513.642 278.036 514.538 277.948 515.354 277.611C516.169 277.274 516.866 276.703 517.357 275.97Z" fill="#FECFC4"/>
<path d="M746.705 493.467C746.703 494.652 746.439 495.822 745.932 496.892C745.424 497.963 744.686 498.908 743.771 499.659C742.855 500.411 741.784 500.95 740.635 501.239C739.486 501.527 738.287 501.557 737.125 501.328C735.637 501.031 734.264 500.317 733.165 499.271C732.067 498.224 731.289 496.887 730.921 495.415C730.552 493.943 730.61 492.397 731.086 490.956C731.562 489.515 732.438 488.24 733.611 487.277C734.784 486.315 736.206 485.705 737.712 485.519C739.218 485.334 740.745 485.579 742.117 486.228C743.489 486.876 744.648 487.901 745.46 489.182C746.272 490.464 746.704 491.95 746.705 493.467Z" fill="#FECFC4"/>
<path d="M442.943 940.15L372.844 938.351C371.915 938.266 370.987 938.517 370.228 939.059C369.468 939.6 368.928 940.395 368.704 941.3C368.553 941.899 368.547 942.525 368.684 943.127L371.868 956.133C386.286 956.468 400.709 955.862 415.048 954.318C401.91 959.695 388.25 963.696 374.288 966.258L380.792 985.163C380.933 985.762 381.216 986.318 381.617 986.785C382.018 987.251 382.525 987.615 383.095 987.845C383.666 988.074 384.284 988.164 384.896 988.105C385.508 988.046 386.098 987.842 386.614 987.508C407.817 977.016 427.36 963.461 444.615 947.278C445.302 946.852 445.837 946.22 446.146 945.473C446.454 944.726 446.52 943.901 446.334 943.115C446.149 942.328 445.723 941.62 445.115 941.088C444.507 940.556 443.747 940.228 442.943 940.15Z" fill="#FECFC4"/>
<path d="M582.765 368.315H388.573C382.534 368.312 376.553 369.499 370.973 371.809C365.394 374.119 360.324 377.506 356.054 381.776C351.784 386.046 348.397 391.117 346.088 396.697C343.779 402.277 342.592 408.257 342.596 414.296V445.523H363.005V418.754C363.028 414.526 363.898 410.347 365.563 406.461C367.229 402.576 369.657 399.063 372.703 396.132C375.749 393.201 379.352 390.91 383.299 389.395C387.245 387.88 391.456 387.172 395.681 387.312H577.018C581.241 387.179 585.448 387.892 589.391 389.41C593.334 390.928 596.933 393.219 599.977 396.149C603.021 399.079 605.449 402.588 607.116 406.47C608.783 410.352 609.657 414.529 609.686 418.754V620.659L628.742 578.766V414.296C628.745 408.257 627.558 402.277 625.248 396.697C622.939 391.118 619.553 386.048 615.283 381.777C611.013 377.507 605.943 374.12 600.363 371.81C594.784 369.5 588.804 368.313 582.765 368.315Z" fill="#6153BD"/>
<path d="M609.614 827.4V853.27C609.615 857.56 608.77 861.809 607.129 865.772C605.487 869.736 603.081 873.337 600.047 876.371C597.014 879.405 593.412 881.811 589.449 883.452C585.485 885.094 581.237 885.939 576.946 885.938H395.606C386.942 885.937 378.633 882.495 372.507 876.369C366.381 870.243 362.939 861.934 362.938 853.27V649.494H342.521V858.958C342.518 868.05 345.213 876.939 350.266 884.499C355.318 892.058 362.5 897.949 370.902 901.424C376.482 903.733 382.46 904.923 388.497 904.919H582.765C591.859 904.921 600.75 902.226 608.312 897.175C615.874 892.124 621.768 884.943 625.248 876.541C627.557 870.961 628.745 864.981 628.742 858.942V827.408L609.614 827.4Z" fill="#6153BD"/>
<path d="M745.117 654.084L737.933 662.477C738.465 659.967 738.718 657.406 738.689 654.84C740.85 654.76 742.999 654.505 745.117 654.084Z" fill="#6153BD"/>
<path d="M243.764 481.216C241.515 478.76 240.273 475.547 240.286 472.217C241.937 473.292 243.661 474.247 245.444 475.079C244.259 476.9 243.671 479.045 243.764 481.216Z" fill="#6153BD"/>
<path d="M196.199 564.399L194.898 588.975L190.436 573.7C192.112 570.826 194.006 567.814 196.199 564.399Z" fill="#6153BD"/>
<path d="M290.044 554.492C290.462 545.616 290.235 536.717 289.363 527.873L299.711 561.6C296.405 559.346 293.181 556.975 290.044 554.492Z" fill="#6153BD"/>
<path d="M261.761 413.389C261.639 412.112 261.092 410.913 260.21 409.981C259.327 409.05 258.159 408.441 256.89 408.249C255.622 408.058 254.325 408.297 253.208 408.926C252.09 409.556 251.215 410.541 250.721 411.726H249.965C249.577 410.497 248.79 409.433 247.728 408.703C246.666 407.972 245.391 407.618 244.105 407.696C242.818 407.774 241.595 408.279 240.629 409.132C239.663 409.984 239.01 411.136 238.773 412.402H238.47C238.081 410.979 237.162 409.759 235.901 408.993C234.641 408.227 233.134 407.972 231.692 408.282C230.25 408.592 228.981 409.442 228.146 410.659C227.311 411.875 226.974 413.365 227.203 414.822C226.752 413.358 225.737 412.133 224.383 411.417C223.029 410.701 221.445 410.552 219.981 411.003C218.517 411.454 217.292 412.469 216.576 413.823C215.86 415.178 215.711 416.761 216.163 418.225C219.141 427.192 221.665 436.303 223.725 445.524C226.22 457.623 227.506 470.63 223.725 477.364C231.211 466.399 233.101 455.358 231.891 454.148C220.246 442.658 230.53 431.916 235.899 440.159C238.47 444.091 239.983 444.091 240.815 441.826C244.293 430.026 260.854 413.696 266.685 438.571L261.761 413.389Z" fill="#6153BD"/>
<path d="M755.25 479.854C755.222 480.568 754.919 481.242 754.405 481.737C753.891 482.233 753.206 482.511 752.492 482.513C751.777 482.514 751.09 482.237 750.575 481.741C750.06 481.245 749.757 480.569 749.73 479.854C749.759 479.141 750.062 478.465 750.577 477.97C751.091 477.475 751.778 477.197 752.492 477.196C753.206 477.196 753.893 477.473 754.407 477.969C754.921 478.465 755.223 479.141 755.25 479.854Z" fill="#6153BD"/>
<path d="M784.893 636.464C786.194 632.218 786.959 627.82 787.162 623.382C788.069 595.92 760.165 589.58 740.655 605.687C751.318 598.881 757.443 615.518 756.384 625.726C756.384 627.525 756.997 629.205 761.602 626.124C769.693 620.529 775.062 634.367 759.938 640.568C757.065 641.702 753.968 655.919 757.518 673.463C758.88 680.416 762.131 681.423 768.71 683.52C786.803 688.798 804.881 701.541 817.939 713.919C852.497 646.295 784.817 636.464 784.893 636.464Z" fill="#6153BD"/>
<path d="M755.25 479.854C755.221 480.568 754.918 481.242 754.404 481.737C753.891 482.233 753.205 482.511 752.492 482.513C751.777 482.514 751.089 482.237 750.574 481.741C750.059 481.245 749.756 480.569 749.729 479.854C749.758 479.141 750.062 478.465 750.576 477.97C751.091 477.475 751.777 477.197 752.492 477.196C753.206 477.196 753.892 477.473 754.406 477.969C754.921 478.465 755.223 479.141 755.25 479.854Z" stroke="#120071" stroke-width="0.769171"/>
<path d="M701.485 796.851L689.007 827.401" stroke="#120071" stroke-width="0.769171" stroke-linecap="round" stroke-linejoin="round"/>
<path d="M363.005 445.523V418.682C363.025 414.453 363.893 410.271 365.557 406.383C367.222 402.495 369.649 398.981 372.696 396.047C375.742 393.114 379.346 390.821 383.294 389.305C387.242 387.789 391.454 387.08 395.681 387.22H577.017C581.242 387.087 585.451 387.801 589.395 389.32C593.339 390.839 596.94 393.132 599.984 396.064C603.028 398.996 605.455 402.508 607.121 406.392C608.787 410.276 609.659 414.455 609.685 418.682V620.659" stroke="#120071" stroke-width="0.769171" stroke-linecap="round" stroke-linejoin="round"/>
<path d="M628.718 578.69V414.221C628.714 408.183 627.524 402.201 625.211 396.629C621.722 388.232 615.822 381.057 608.256 376.012C600.69 370.966 591.799 368.277 582.705 368.284H388.497C382.457 368.285 376.476 369.477 370.896 371.79C365.316 374.103 360.247 377.493 355.977 381.766C351.708 386.039 348.322 391.111 346.013 396.693C343.704 402.274 342.517 408.256 342.52 414.296V445.524" stroke="#120071" stroke-width="0.769171" stroke-linecap="round" stroke-linejoin="round"/>
<path d="M727.422 623.457H668.136" stroke="#120071" stroke-width="0.769171" stroke-linecap="round" stroke-linejoin="round"/>
<path d="M787.086 623.417H825.123C827.415 623.413 829.684 623.862 831.802 624.738C833.922 625.611 835.848 626.895 837.469 628.515C839.094 630.132 840.383 632.054 841.262 634.171C842.141 636.288 842.593 638.557 842.591 640.849V741.046" stroke="#120071" stroke-width="0.769171" stroke-linecap="round" stroke-linejoin="round"/>
<path d="M608.42 623.457H596.679L546.332 607.955L562.363 657.108V809.94C562.367 814.571 564.209 819.012 567.484 822.287C570.759 825.562 575.2 827.404 579.831 827.408H759.938" stroke="#120071" stroke-width="0.769171" stroke-linecap="round" stroke-linejoin="round"/>
<path d="M410.729 500.948V462.991C410.728 458.359 408.888 453.916 405.612 450.64C402.336 447.365 397.894 445.524 393.261 445.523H267.812" stroke="#120071" stroke-width="0.769171" stroke-linecap="round" stroke-linejoin="round"/>
<path d="M609.686 827.4V853.27C609.687 857.56 608.842 861.809 607.2 865.772C605.559 869.736 603.153 873.337 600.119 876.371C597.085 879.405 593.484 881.811 589.52 883.452C585.557 885.094 581.308 885.939 577.018 885.938H395.606C386.942 885.937 378.634 882.495 372.507 876.369C366.381 870.243 362.939 861.934 362.938 853.27V649.494" stroke="#120071" stroke-width="0.769171" stroke-linecap="round" stroke-linejoin="round"/>
<path d="M342.52 649.47V858.934C342.517 864.973 343.704 870.953 346.013 876.533C348.323 882.113 351.709 887.183 355.979 891.454C360.249 895.725 365.318 899.112 370.898 901.422C376.478 903.732 382.458 904.921 388.497 904.919H582.765C591.859 904.921 600.749 902.226 608.311 897.175C615.873 892.124 621.767 884.943 625.247 876.541C627.557 870.961 628.744 864.981 628.742 858.942V827.408" stroke="#120071" stroke-width="0.769171" stroke-linecap="round" stroke-linejoin="round"/>
<path d="M223.574 445.523H147.878C143.248 445.528 138.809 447.371 135.536 450.646C132.263 453.921 130.424 458.361 130.422 462.991V567.665" stroke="#120071" stroke-width="0.769171" stroke-linecap="round" stroke-linejoin="round"/>
<path d="M320.746 649.47H376.398L426.685 664.897L410.729 615.82V559.71" stroke="#120071" stroke-width="0.769171" stroke-linecap="round" stroke-linejoin="round"/>
<path d="M495.65 904.919C480.206 921.92 461.475 935.612 440.589 945.168C419.703 954.724 397.095 959.945 374.134 960.516C351.172 961.086 328.334 956.994 306.999 948.488C285.664 939.981 266.275 927.235 250.006 911.022C233.737 894.809 220.925 875.465 212.344 854.16C203.763 832.854 199.592 810.03 200.083 787.067C200.574 764.104 205.716 741.478 215.2 720.559C224.684 699.64 238.311 680.861 255.258 665.358" stroke="#120071" stroke-width="0.769171" stroke-linecap="round" stroke-linejoin="round"/>
<path d="M442.943 940.15L372.844 938.351C371.915 938.266 370.987 938.517 370.228 939.059C369.468 939.6 368.928 940.395 368.704 941.3C368.553 941.899 368.547 942.525 368.684 943.127L371.868 956.133C386.286 956.468 400.709 955.862 415.048 954.318C401.91 959.695 388.25 963.696 374.288 966.258L380.792 985.163C380.933 985.762 381.216 986.318 381.617 986.785C382.018 987.251 382.525 987.615 383.095 987.845C383.666 988.074 384.284 988.164 384.896 988.105C385.508 988.046 386.098 987.842 386.614 987.508C407.817 977.016 427.36 963.461 444.615 947.278C445.302 946.852 445.837 946.22 446.146 945.473C446.454 944.726 446.52 943.901 446.334 943.115C446.149 942.328 445.723 941.62 445.115 941.088C444.507 940.556 443.747 940.228 442.943 940.15Z" stroke="#120071" stroke-width="0.769171" stroke-linecap="round" stroke-linejoin="round"/>
<path d="M738.689 654.764C740.847 654.723 742.998 654.495 745.117 654.084L737.933 662.402" stroke="#120071" stroke-width="0.769171" stroke-linecap="round" stroke-linejoin="round"/>
<path d="M687.872 734.77C662.162 728.768 637.731 718.217 615.735 703.615C606.332 697.63 599.404 688.454 596.223 677.771C593.042 667.089 593.821 655.617 598.418 645.463L635.241 564.403C654.401 565.696 669.907 569.441 684.091 586.026L652.649 659.831C666.79 668.074 684.259 676.778 700.441 679.946C722.634 684.288 738.705 677.351 738.705 654.764C728.648 655.067 712.011 651.362 729.404 619.677C746.796 587.992 758.366 612.513 756.929 625.878C757.005 628.222 758.215 628.827 762.147 626.105C770.239 620.505 775.647 634.463 760.484 640.548C757.618 641.702 754.514 655.903 758.064 673.443C760.774 686.752 770.095 678.35 797.537 697.323C828.02 718.417 850.045 748.951 863.478 771.653C868.283 779.762 870.054 789.313 868.476 798.605C866.897 807.897 862.071 816.328 854.857 822.394L787.48 878.807C777.862 875.848 769.288 870.206 762.765 862.544C756.242 854.882 752.04 845.519 750.653 835.552L810.751 783.601L775.361 746.022" stroke="#120071" stroke-width="0.769171" stroke-linecap="round" stroke-linejoin="round"/>
<path d="M243.765 481.216C241.515 478.76 240.273 475.547 240.286 472.217C241.938 473.292 243.661 474.247 245.444 475.079" stroke="#120071" stroke-width="0.769171" stroke-linecap="round" stroke-linejoin="round"/>
<path d="M240.739 441.819C244.218 430.022 260.854 413.688 266.609 438.567L267.895 446.583C271.903 483.199 254.51 479.326 245.436 475.091C245.436 475.091 239.092 484.472 250.709 486.418C252.572 486.729 253.838 486.757 254.291 486.816C245.217 500.126 228.421 500.957 206.348 493.471C226.873 481.841 234.26 456.724 231.756 454.224C220.214 442.714 230.387 431.996 235.764 440.235C238.331 444.171 239.697 444.091 240.68 441.974L240.739 441.819Z" stroke="#120071" stroke-width="0.769171" stroke-linecap="round" stroke-linejoin="round"/>
<path d="M190.417 573.911C192.307 570.718 194.234 567.547 196.199 564.399L194.898 589.051" stroke="#120071" stroke-width="0.769171" stroke-linecap="round" stroke-linejoin="round"/>
<path d="M290.044 554.492C290.462 545.616 290.235 536.717 289.363 527.873L299.711 561.6" stroke="#120071" stroke-width="0.769171" stroke-linecap="round" stroke-linejoin="round"/>
<path d="M206.333 493.467C202.262 495.804 197.884 497.561 193.326 498.684C151.659 509.195 129.2 563.717 118.482 603.116C115.697 613.332 116.936 624.227 121.945 633.557C126.953 642.886 135.349 649.94 145.403 653.264C174.896 662.753 205.577 668.048 236.545 668.992C245.173 654.532 247.78 637.262 243.804 620.898C220.318 618.865 197.06 614.736 174.31 608.56C178.621 596.541 184.026 584.942 190.457 573.91C196.116 592.971 193.951 585.627 200.009 606.367C224.963 610.451 254.379 612.266 282.132 605.233C286.588 588.652 289.25 571.641 290.072 554.492C303.583 565.2 318.72 573.676 334.911 579.598C341.143 582.033 347.801 583.193 354.49 583.012C361.179 582.83 367.764 581.309 373.855 578.539C401.17 566.098 418.244 556.76 451.441 531.881C451.668 512.145 442.896 498.382 424.898 490.744C403.725 506.549 378.619 522.731 355.555 531.881C339.57 519.929 322.683 509.235 305.045 499.894C285.614 490.426 258.312 487.341 254.304 486.812" stroke="#120071" stroke-width="0.769171" stroke-linecap="round" stroke-linejoin="round"/>
<path d="M659.141 529.111C659.46 528.205 659.99 527.387 660.687 526.725C661.384 526.063 662.227 525.575 663.149 525.302C667.153 524.244 673.051 532.637 671.161 543.451C670.186 549.322 666.058 551.972 663.71 543.121" stroke="#120071" stroke-width="0.769171" stroke-linecap="round" stroke-linejoin="round"/>
<path d="M667.304 527.117C667.972 526.456 668.808 525.983 669.724 525.756C673.739 524.725 679.857 530.822 678.42 541.787C677.672 547.483 674.249 548.872 671.391 541.831" stroke="#120071" stroke-width="0.769171" stroke-linecap="round" stroke-linejoin="round"/>
<path d="M639.328 564.629C648.327 548.446 647.638 543.909 649.991 536.196C651.121 532.49 652.705 529.223 655.961 528.407C659.941 527.404 665.007 534.15 663.523 544.725C662.91 549.103 657.023 548.203 655.961 537.087" stroke="#120071" stroke-width="0.769171" stroke-linecap="round" stroke-linejoin="round"/>
<path d="M681.369 583.076C684.243 576.799 704.29 540.187 702.014 539.141C699.526 537.994 685.982 550.03 685.982 550.03C685.982 550.03 670.102 552.223 671.161 562.368" stroke="#120071" stroke-width="0.769171" stroke-linecap="round" stroke-linejoin="round"/>
<path d="M685.906 550.03C692.561 523.639 687.498 501.474 686.133 505.414C683.554 512.897 680.386 532.876 678.42 541.712" stroke="#120071" stroke-width="0.769171" stroke-linecap="round" stroke-linejoin="round"/>
<path d="M652.335 541.712C653.845 541.306 655.446 541.402 656.897 541.987" stroke="#120071" stroke-width="0.769171" stroke-linecap="round" stroke-linejoin="round"/>
<path d="M434.096 495.508C448.615 491.802 522.117 501.557 518.941 508.741C500.717 511.527 473.362 508.773 457.614 517.816C456.555 518.425 452.838 521 450.808 522.429" stroke="#120071" stroke-width="0.769171" stroke-linecap="round" stroke-linejoin="round"/>
<path d="M436.138 495.129C464.42 488.474 495.726 451.42 469.411 488.928C466.915 493.087 465.705 495.431 469.259 496.263" stroke="#120071" stroke-width="0.769171" stroke-linecap="round" stroke-linejoin="round"/>
<path d="M458.672 517.212C473.04 511.54 548.433 530.521 496.104 510.406" stroke="#120071" stroke-width="0.769171" stroke-linecap="round" stroke-linejoin="round"/>
<path d="M458.748 517.135C464.718 513.951 521.891 537.035 491.643 517.967" stroke="#120071" stroke-width="0.769171" stroke-linecap="round" stroke-linejoin="round"/>
<path d="M283.253 649.47C294.899 655.838 298.99 667.253 295.05 670.341C293.052 671.383 290.772 671.755 288.547 671.4" stroke="#120071" stroke-width="0.769171" stroke-linecap="round" stroke-linejoin="round"/>
<path d="M287.632 642.74C299.277 649.108 303.349 660.495 299.429 663.611C298.488 664.218 297.433 664.625 296.328 664.805" stroke="#120071" stroke-width="0.769171" stroke-linecap="round" stroke-linejoin="round"/>
<path d="M238.093 666.258C251.355 663.873 265.025 665.424 277.415 670.72" stroke="#120071" stroke-width="0.769171" stroke-linecap="round" stroke-linejoin="round"/>
<path d="M276.659 656.05C287.7 662.553 290.633 671.687 286.944 675.03C282.617 678.942 268.114 676.921 264.031 666.561" stroke="#120071" stroke-width="0.769171" stroke-linecap="round" stroke-linejoin="round"/>
<path d="M244.143 623.307C253.974 623.004 291.943 624.744 292.086 627.617C292.249 630.944 283.239 632.835 283.239 632.835" stroke="#120071" stroke-width="0.769171" stroke-linecap="round" stroke-linejoin="round"/>
<path d="M244.218 623.382C256.568 624.273 268.707 627.055 280.213 631.624C280.213 631.624 311.385 643.564 325.506 646.673C330.202 647.703 316.75 653.251 293.523 646.975" stroke="#120071" stroke-width="0.769171" stroke-linecap="round" stroke-linejoin="round"/>
<path d="M199.98 606.367C197.074 608.104 194.511 610.359 192.418 613.021" stroke="#120071" stroke-width="0.769171" stroke-linecap="round" stroke-linejoin="round"/>
<path d="M282.104 605.234L284.901 625.5" stroke="#120071" stroke-width="0.769171" stroke-linecap="round" stroke-linejoin="round"/>
<path d="M781.415 752.536C776.349 765.543 770.299 784.524 772.261 797.077C749.055 803.201 724.647 803.123 701.481 796.85C681.442 752.461 685.676 720.553 698.532 698.942" stroke="#120071" stroke-width="0.769171" stroke-linecap="round" stroke-linejoin="round"/>
<path d="M740.242 606.022C762.573 587.244 796.216 598.018 784.818 636.485C784.818 636.485 852.478 646.315 817.939 713.919" stroke="#120071" stroke-width="0.769171" stroke-linecap="round" stroke-linejoin="round"/>
<path d="M772.264 797.061C776.896 799.33 781.054 802.461 784.515 806.286" stroke="#120071" stroke-width="0.769171" stroke-linecap="round" stroke-linejoin="round"/>
<path d="M769.164 683.65L758.123 708.832C757.432 710.388 756.256 711.678 754.77 712.51C753.284 713.341 751.569 713.669 749.881 713.444L720.918 709.437C719.155 709.187 717.528 708.347 716.303 707.054C715.077 705.761 714.327 704.091 714.172 702.316C714.066 701.14 714.227 699.955 714.642 698.85L721.826 680.02" stroke="#120071" stroke-width="0.769171" stroke-linecap="round" stroke-linejoin="round"/>
<path d="M266.677 438.566L261.611 413.309C261.425 412.022 260.826 410.831 259.904 409.914C258.982 408.996 257.787 408.403 256.5 408.224C255.212 408.044 253.9 408.288 252.763 408.918C251.625 409.548 250.723 410.53 250.192 411.717C249.743 410.477 248.905 409.414 247.803 408.688C246.702 407.962 245.395 407.611 244.078 407.688C242.761 407.764 241.504 408.264 240.493 409.113C239.483 409.961 238.774 411.114 238.471 412.398C238.075 410.961 237.146 409.73 235.873 408.956C234.6 408.181 233.08 407.922 231.622 408.231C230.165 408.54 228.88 409.394 228.031 410.618C227.181 411.842 226.832 413.344 227.053 414.818C226.568 413.394 225.548 412.216 224.209 411.532C222.869 410.849 221.316 410.714 219.88 411.157C218.443 411.6 217.235 412.585 216.513 413.904C215.791 415.223 215.611 416.771 216.012 418.221C218.99 427.187 221.514 436.298 223.574 445.519C226.034 457.459 227.319 470.267 223.729 477.073" stroke="#120071" stroke-width="0.769171" stroke-linecap="round" stroke-linejoin="round"/>
<path d="M479.165 273.492C479.165 274.676 478.695 275.811 477.858 276.648C477.021 277.485 475.885 277.955 474.701 277.955C473.518 277.955 472.382 277.485 471.545 276.648C470.708 275.811 470.238 274.676 470.238 273.492C470.238 272.308 470.708 271.173 471.545 270.336C472.382 269.499 473.518 269.028 474.701 269.028C475.885 269.028 477.021 269.499 477.858 270.336C478.695 271.173 479.165 272.308 479.165 273.492Z" stroke="#120071" stroke-width="0.769171" stroke-linecap="round" stroke-linejoin="round"/>
<path d="M498.599 273.492C498.598 274.374 498.336 275.236 497.845 275.969C497.355 276.702 496.658 277.273 495.843 277.611C495.028 277.948 494.132 278.037 493.267 277.866C492.401 277.695 491.606 277.271 490.982 276.648C490.463 276.129 490.081 275.491 489.868 274.789C489.655 274.087 489.619 273.343 489.762 272.624C489.905 271.904 490.224 271.231 490.689 270.664C491.154 270.097 491.752 269.654 492.43 269.373C493.108 269.092 493.844 268.983 494.574 269.055C495.304 269.126 496.005 269.377 496.615 269.784C497.225 270.192 497.726 270.743 498.072 271.39C498.418 272.037 498.599 272.759 498.599 273.492Z" stroke="#120071" stroke-width="0.769171" stroke-linecap="round" stroke-linejoin="round"/>
<path d="M518.11 273.492C518.108 274.374 517.846 275.236 517.355 275.969C516.865 276.702 516.168 277.273 515.353 277.61C514.538 277.948 513.642 278.037 512.777 277.866C511.912 277.694 511.117 277.271 510.492 276.648C510.027 276.18 509.672 275.616 509.451 274.995C509.229 274.374 509.148 273.712 509.213 273.056C509.278 272.4 509.486 271.766 509.824 271.2C510.163 270.635 510.621 270.15 511.168 269.783C512.027 269.211 513.057 268.955 514.084 269.056C515.11 269.158 516.07 269.611 516.8 270.34C517.636 271.176 518.106 272.31 518.11 273.492Z" stroke="#120071" stroke-width="0.769171" stroke-linecap="round" stroke-linejoin="round"/>
<path d="M753.435 470.63H723.867C721.741 470.63 719.703 471.475 718.199 472.978C716.696 474.481 715.852 476.52 715.852 478.646V508.213C715.852 512.639 719.442 516.229 723.867 516.229H753.435C755.561 516.229 757.599 515.385 759.103 513.881C760.606 512.378 761.45 510.339 761.45 508.213V478.646C761.45 476.52 760.606 474.481 759.103 472.978C757.599 471.475 755.561 470.63 753.435 470.63Z" stroke="#120071" stroke-width="0.769171" stroke-linecap="round" stroke-linejoin="round"/>
<path d="M746.705 493.467C746.703 494.652 746.439 495.822 745.932 496.892C745.424 497.963 744.686 498.908 743.771 499.659C742.855 500.411 741.784 500.95 740.635 501.239C739.486 501.527 738.287 501.557 737.125 501.328C735.637 501.031 734.264 500.317 733.165 499.271C732.067 498.224 731.289 496.887 730.921 495.415C730.552 493.943 730.61 492.397 731.086 490.956C731.562 489.515 732.438 488.24 733.611 487.277C734.784 486.315 736.206 485.705 737.712 485.519C739.218 485.334 740.745 485.579 742.117 486.228C743.489 486.876 744.648 487.901 745.46 489.182C746.272 490.464 746.704 491.95 746.705 493.467Z" stroke="#120071" stroke-width="0.769171" stroke-linecap="round" stroke-linejoin="round"/>
<path d="M673.883 866.193C673.883 867.495 673.497 868.768 672.773 869.847C672.053 870.931 671.026 871.776 669.824 872.274C668.622 872.773 667.298 872.902 666.023 872.645C664.747 872.39 663.575 871.763 662.655 870.843C661.734 869.923 661.107 868.751 660.853 867.475C660.679 866.577 660.695 865.652 660.899 864.76C661.103 863.869 661.491 863.029 662.038 862.296C662.585 861.563 663.279 860.952 664.076 860.502C664.873 860.053 665.754 859.774 666.665 859.685C667.575 859.595 668.494 859.696 669.363 859.982C670.232 860.268 671.032 860.732 671.711 861.345C672.391 861.957 672.935 862.705 673.309 863.54C673.683 864.375 673.878 865.278 673.883 866.193Z" stroke="#120071" stroke-width="0.769171" stroke-linecap="round" stroke-linejoin="round"/>
<path d="M299.608 371.647V404.315" stroke="#120071" stroke-width="0.769171" stroke-linecap="round" stroke-linejoin="round"/>
<path d="M315.906 387.98H283.238" stroke="#120071" stroke-width="0.769171" stroke-linecap="round" stroke-linejoin="round"/>
<path d="M755.175 866.571C747.947 875.125 741.778 884.52 736.799 894.551C733.801 899.491 731.342 904.739 729.464 910.204C724.142 925.622 728.616 925.24 736.723 913.153C757.328 882.428 767.047 879.427 774.533 872.772" stroke="#120071" stroke-width="0.769171" stroke-linecap="round" stroke-linejoin="round"/>
<path d="M731.127 905.667C726.288 909.015 721.027 911.707 715.482 913.675C713.89 914.105 711.402 912.847 719.112 906.189C720.775 904.752 727.653 898.543 730.001 896.207C734.911 891.71 739.562 886.938 743.931 881.915" stroke="#120071" stroke-width="0.769171" stroke-linecap="round" stroke-linejoin="round"/>
<path d="M749.655 873.604C752.906 866.799 737.177 871.32 730.296 872.411C724.095 873.382 716.764 872.196 732.338 864.546C740.469 860.643 747.883 855.395 754.267 849.024" stroke="#120071" stroke-width="0.769171" stroke-linecap="round" stroke-linejoin="round"/>
<path d="M455.874 295.95L448.615 315.082L467.671 307.293C475.541 312.424 484.743 315.133 494.138 315.082C519.319 315.082 539.737 296.479 539.737 273.491C539.737 250.502 519.395 231.9 494.214 231.9C469.032 231.9 448.615 250.502 448.615 273.491C448.657 281.547 451.193 289.393 455.874 295.95Z" stroke="#120071" stroke-width="0.769171" stroke-linecap="round" stroke-linejoin="round"/>
<path d="M810.755 783.616L816.502 779.154" stroke="#120071" stroke-width="0.769171" stroke-linecap="round" stroke-linejoin="round"/>
<path d="M355.527 531.881L361.576 536.192" stroke="#120071" stroke-width="0.769171" stroke-linecap="round" stroke-linejoin="round"/>
<path d="M174.193 608.484L171.32 615.366" stroke="#120071" stroke-width="0.769171" stroke-linecap="round" stroke-linejoin="round"/>
<path d="M228.565 626.784C227.727 626.782 226.907 627.03 226.21 627.495C225.513 627.96 224.97 628.622 224.649 629.396C224.328 630.17 224.245 631.022 224.409 631.844C224.573 632.666 224.978 633.42 225.572 634.011C226.013 634.456 226.548 634.797 227.138 635.009C227.728 635.222 228.358 635.3 228.982 635.239C229.605 635.177 230.208 634.978 230.745 634.655C231.282 634.332 231.74 633.893 232.087 633.371C232.553 632.674 232.799 631.854 232.799 631.019C232.78 629.901 232.328 628.836 231.538 628.046C230.748 627.256 229.682 626.803 228.565 626.784Z" stroke="#120071" stroke-width="0.769171"/>
<path d="M167.086 649.924C168.209 649.924 169.286 649.478 170.08 648.684C170.874 647.89 171.321 646.812 171.321 645.689C171.321 644.566 170.874 643.489 170.08 642.695C169.286 641.901 168.209 641.455 167.086 641.455C165.963 641.455 164.886 641.901 164.091 642.695C163.297 643.489 162.851 644.566 162.851 645.689C162.851 646.812 163.297 647.89 164.091 648.684C164.886 649.478 165.963 649.924 167.086 649.924Z" stroke="#120071" stroke-width="0.769171"/>
<path d="M137.14 593.284C138.263 593.284 139.34 592.838 140.134 592.044C140.929 591.249 141.375 590.172 141.375 589.049C141.375 587.926 140.929 586.849 140.134 586.055C139.34 585.261 138.263 584.814 137.14 584.814C136.017 584.814 134.94 585.261 134.146 586.055C133.351 586.849 132.905 587.926 132.905 589.049C132.905 590.172 133.351 591.249 134.146 592.044C134.94 592.838 136.017 593.284 137.14 593.284Z" stroke="#120071" stroke-width="0.769171"/>
<path d="M188.183 557.366C189.307 557.366 190.384 556.919 191.178 556.125C191.972 555.331 192.418 554.254 192.418 553.131C192.418 552.008 191.972 550.931 191.178 550.136C190.384 549.342 189.307 548.896 188.183 548.896C187.06 548.896 185.983 549.342 185.189 550.136C184.395 550.931 183.949 552.008 183.949 553.131C183.949 554.254 184.395 555.331 185.189 556.125C185.983 556.919 187.06 557.366 188.183 557.366Z" stroke="#120071" stroke-width="0.769171"/>
<path d="M207.693 499.667C206.856 499.667 206.037 499.916 205.341 500.381C204.644 500.846 204.101 501.508 203.781 502.281C203.46 503.055 203.376 503.907 203.54 504.728C203.703 505.55 204.107 506.304 204.699 506.896C205.291 507.489 206.046 507.892 206.867 508.055C207.689 508.219 208.54 508.135 209.314 507.814C210.088 507.494 210.749 506.951 211.214 506.255C211.68 505.558 211.928 504.739 211.928 503.902C211.91 502.784 211.459 501.717 210.668 500.927C209.878 500.136 208.811 499.685 207.693 499.667Z" stroke="#120071" stroke-width="0.769171"/>
<path d="M250.116 542.166C249.279 542.166 248.46 542.415 247.763 542.88C247.067 543.345 246.524 544.007 246.204 544.78C245.883 545.554 245.799 546.406 245.963 547.227C246.126 548.049 246.529 548.803 247.122 549.395C247.714 549.988 248.468 550.391 249.29 550.554C250.111 550.718 250.963 550.634 251.737 550.313C252.51 549.993 253.172 549.45 253.637 548.754C254.102 548.057 254.351 547.239 254.351 546.401C254.333 545.283 253.882 544.216 253.091 543.426C252.301 542.635 251.234 542.184 250.116 542.166Z" stroke="#120071" stroke-width="0.769171"/>
<path d="M215.709 580.58C215.142 580.562 214.578 580.659 214.049 580.864C213.521 581.069 213.038 581.378 212.631 581.773C212.224 582.167 211.901 582.64 211.68 583.162C211.459 583.684 211.345 584.246 211.345 584.813C211.345 585.38 211.459 585.941 211.68 586.463C211.901 586.985 212.224 587.458 212.631 587.853C213.038 588.247 213.521 588.556 214.049 588.761C214.578 588.966 215.142 589.063 215.709 589.045C216.809 589.012 217.853 588.551 218.619 587.761C219.386 586.971 219.814 585.913 219.814 584.813C219.814 583.712 219.386 582.655 218.619 581.864C217.853 581.074 216.809 580.614 215.709 580.58Z" stroke="#120071" stroke-width="0.769171"/>
<path d="M312.045 557.366C313.168 557.366 314.246 556.919 315.04 556.125C315.834 555.331 316.28 554.254 316.28 553.131C316.28 552.008 315.834 550.931 315.04 550.136C314.246 549.342 313.168 548.896 312.045 548.896C310.922 548.896 309.845 549.342 309.051 550.136C308.257 550.931 307.811 552.008 307.811 553.131C307.811 554.254 308.257 555.331 309.051 556.125C309.845 556.919 310.922 557.366 312.045 557.366Z" stroke="#120071" stroke-width="0.769171"/>
<path d="M352.805 537.166C351.967 537.166 351.148 537.414 350.452 537.88C349.755 538.345 349.213 539.006 348.892 539.78C348.572 540.554 348.488 541.405 348.651 542.227C348.815 543.048 349.218 543.803 349.81 544.395C350.402 544.987 351.157 545.391 351.978 545.554C352.8 545.717 353.651 545.634 354.425 545.313C355.199 544.993 355.86 544.45 356.326 543.753C356.791 543.057 357.039 542.238 357.039 541.401C357.022 540.283 356.57 539.216 355.78 538.426C354.989 537.635 353.922 537.183 352.805 537.166Z" stroke="#120071" stroke-width="0.769171"/>
<path d="M404.151 554.87C405.274 554.87 406.351 554.424 407.145 553.629C407.939 552.835 408.385 551.758 408.385 550.635C408.385 549.512 407.939 548.435 407.145 547.641C406.351 546.847 405.274 546.4 404.151 546.4C403.028 546.4 401.95 546.847 401.156 547.641C400.362 548.435 399.916 549.512 399.916 550.635C399.916 551.758 400.362 552.835 401.156 553.629C401.95 554.424 403.028 554.87 404.151 554.87Z" stroke="#120071" stroke-width="0.769171"/>
<path d="M426.609 509.271C427.732 509.271 428.809 508.825 429.604 508.03C430.398 507.236 430.844 506.159 430.844 505.036C430.844 503.913 430.398 502.836 429.604 502.042C428.809 501.247 427.732 500.801 426.609 500.801C425.486 500.801 424.409 501.247 423.615 502.042C422.821 502.836 422.375 503.913 422.375 505.036C422.375 506.159 422.821 507.236 423.615 508.03C424.409 508.825 425.486 509.271 426.609 509.271Z" stroke="#120071" stroke-width="0.769171"/>
<path d="M270.836 588.975C269.999 588.975 269.18 589.224 268.484 589.689C267.787 590.154 267.244 590.816 266.924 591.589C266.603 592.363 266.52 593.215 266.683 594.036C266.846 594.858 267.25 595.612 267.842 596.204C268.434 596.797 269.189 597.2 270.01 597.363C270.832 597.527 271.683 597.443 272.457 597.122C273.231 596.802 273.892 596.259 274.357 595.563C274.823 594.866 275.071 594.047 275.071 593.21C275.054 592.092 274.602 591.025 273.811 590.235C273.021 589.444 271.954 588.993 270.836 588.975Z" stroke="#120071" stroke-width="0.769171"/>
<path d="M279.23 506.625C280.353 506.625 281.43 506.178 282.224 505.384C283.018 504.59 283.465 503.513 283.465 502.39C283.465 501.267 283.018 500.19 282.224 499.395C281.43 498.601 280.353 498.155 279.23 498.155C278.107 498.155 277.03 498.601 276.235 499.395C275.441 500.19 274.995 501.267 274.995 502.39C274.995 503.513 275.441 504.59 276.235 505.384C277.03 506.178 278.107 506.625 279.23 506.625Z" stroke="#120071" stroke-width="0.769171"/>
</svg>
