<svg width="1200" height="360" viewBox="0 0 1200 360" fill="none" xmlns="http://www.w3.org/2000/svg">
<rect x="0.5" y="0.5" width="1199" height="359" rx="15.5" fill="white"/>
<rect x="0.5" y="0.5" width="1199" height="359" rx="15.5" stroke="black"/>
<path d="M543.157 91.9916C605.54 61.2755 669.703 21.111 742.175 37.5475C764.646 42.6438 785.095 55.3836 798.918 73.9065C835.88 123.434 832.875 199.295 812.793 255.047C810.172 262.323 806.9 269.379 802.689 275.877C782.307 307.336 747.96 308.819 714.832 299.723C686.797 292.027 661.959 284.108 632.998 291.934C616.958 296.269 601.415 302.227 585.434 306.761C563.676 312.934 541.244 317.128 518.584 317.553C458.637 318.676 390.158 288.095 384.847 221.149C384.503 216.81 384.442 212.451 384.637 208.103C385.834 181.377 394.667 154.612 419.149 140.737C443.763 126.786 472.966 121.27 499.295 111.376C514.267 105.749 528.794 99.0636 543.157 91.9916Z" fill="#5AE4A8"/>
<g opacity="0.7">
<path d="M543.157 91.9916C605.54 61.2755 669.703 21.111 742.175 37.5475C764.646 42.6438 785.095 55.3836 798.918 73.9065C835.88 123.434 832.875 199.295 812.793 255.047C810.172 262.323 806.9 269.379 802.689 275.877C782.307 307.336 747.96 308.819 714.832 299.723C686.797 292.027 661.959 284.108 632.998 291.934C616.958 296.269 601.415 302.227 585.434 306.761C563.676 312.934 541.244 317.128 518.584 317.553C458.637 318.676 390.158 288.095 384.847 221.149C384.503 216.81 384.442 212.451 384.637 208.103C385.834 181.377 394.667 154.612 419.149 140.737C443.763 126.786 472.966 121.27 499.295 111.376C514.267 105.749 528.794 99.0636 543.157 91.9916Z" fill="white"/>
</g>
<path d="M378.887 303.42H823.184" stroke="#1A2E35" stroke-miterlimit="10" stroke-linecap="round" stroke-linejoin="round"/>
<path d="M721.911 222.014V223.614H720.311" stroke="#1A2E35" stroke-miterlimit="10"/>
<path d="M717.059 223.615H543.123" stroke="#1A2E35" stroke-miterlimit="10" stroke-dasharray="5.08 5.08"/>
<path d="M541.498 223.614H539.898V222.014" stroke="#1A2E35" stroke-miterlimit="10"/>
<path d="M539.897 218.811V60.2045" stroke="#1A2E35" stroke-miterlimit="10" stroke-dasharray="5.01 5.01"/>
<path d="M539.898 58.6039V57.0039H541.498" stroke="#1A2E35" stroke-miterlimit="10"/>
<path d="M544.749 57.0039H718.684" stroke="#1A2E35" stroke-miterlimit="10" stroke-dasharray="5.08 5.08"/>
<path d="M720.311 57.0039H721.911V58.6039" stroke="#1A2E35" stroke-miterlimit="10"/>
<path d="M721.91 61.8086V220.413" stroke="#1A2E35" stroke-miterlimit="10" stroke-dasharray="5.01 5.01"/>
<path d="M517.159 273.352V274.952H515.559" stroke="#1A2E35" stroke-miterlimit="10"/>
<path d="M512.31 274.951H377.445" stroke="#1A2E35" stroke-miterlimit="10" stroke-dasharray="5.08 5.08"/>
<path d="M375.82 274.952H374.22V273.352" stroke="#1A2E35" stroke-miterlimit="10"/>
<path d="M374.22 270.195V145.521" stroke="#1A2E35" stroke-miterlimit="10" stroke-dasharray="4.93 4.93"/>
<path d="M374.22 143.944V142.344H375.82" stroke="#1A2E35" stroke-miterlimit="10"/>
<path d="M379.07 142.344H513.934" stroke="#1A2E35" stroke-miterlimit="10" stroke-dasharray="5.08 5.08"/>
<path d="M515.559 142.344H517.159V143.944" stroke="#1A2E35" stroke-miterlimit="10"/>
<path d="M517.159 147.1V271.774" stroke="#1A2E35" stroke-miterlimit="10" stroke-dasharray="4.93 4.93"/>
<path d="M820.046 273.352V274.952H818.446" stroke="#1A2E35" stroke-miterlimit="10"/>
<path d="M815.196 274.951H680.332" stroke="#1A2E35" stroke-miterlimit="10" stroke-dasharray="5.08 5.08"/>
<path d="M678.707 274.952H677.107V273.352" stroke="#1A2E35" stroke-miterlimit="10"/>
<path d="M677.107 270.195V145.521" stroke="#1A2E35" stroke-miterlimit="10" stroke-dasharray="4.93 4.93"/>
<path d="M677.107 143.944V142.344H678.707" stroke="#1A2E35" stroke-miterlimit="10"/>
<path d="M681.958 142.344H816.822" stroke="#1A2E35" stroke-miterlimit="10" stroke-dasharray="5.08 5.08"/>
<path d="M818.446 142.344H820.046V143.944" stroke="#1A2E35" stroke-miterlimit="10"/>
<path d="M820.046 147.1V271.774" stroke="#1A2E35" stroke-miterlimit="10" stroke-dasharray="4.93 4.93"/>
<path d="M606.161 213.437C606.161 213.437 604.666 217.551 601.486 218.112C598.308 218.673 592.698 212.502 596.25 209.323C599.804 206.144 604.666 211.193 606.161 213.437Z" fill="#5AE4A8" stroke="#1A2E35" stroke-miterlimit="10" stroke-linecap="round" stroke-linejoin="round"/>
<path d="M611.023 193.242C611.023 193.242 606.349 204.648 608.218 210.259C610.089 215.868 621.683 219.982 625.048 212.69C628.414 205.397 620.934 195.112 618.129 192.867C615.324 190.624 611.958 191.372 611.023 193.242Z" fill="#5AE4A8" stroke="#1A2E35" stroke-miterlimit="10" stroke-linecap="round" stroke-linejoin="round"/>
<path d="M638.325 198.103C638.325 198.103 630.284 205.397 629.349 212.689C628.414 219.983 633.837 222.6 639.447 221.665C645.057 220.73 647.861 206.518 646.179 199.973C644.496 193.429 638.325 198.103 638.325 198.103Z" fill="#5AE4A8" stroke="#1A2E35" stroke-miterlimit="10" stroke-linecap="round" stroke-linejoin="round"/>
<path d="M639.821 238.494C639.821 238.494 630.845 238.869 630.471 243.169C630.097 247.47 634.397 248.405 638.699 244.666C643 240.926 643.561 238.681 639.821 238.494Z" fill="#5AE4A8" stroke="#1A2E35" stroke-miterlimit="10" stroke-linecap="round" stroke-linejoin="round"/>
<path d="M630.62 244.195C630.62 244.195 637.693 240.959 640.879 240.396" stroke="#1A2E35" stroke-miterlimit="10"/>
<path d="M641.821 266.637C641.821 266.637 635.228 260.535 631.915 263.302C628.6 266.068 630.97 269.778 636.654 270.192C642.339 270.605 644.326 269.421 641.821 266.637Z" fill="#5AE4A8" stroke="#1A2E35" stroke-miterlimit="10" stroke-linecap="round" stroke-linejoin="round"/>
<path d="M631.293 264.13C631.293 264.13 638.574 266.865 641.219 268.729" stroke="#1A2E35" stroke-miterlimit="10"/>
<path d="M607.043 264.84C607.043 264.84 616.132 256.428 620.7 260.242C625.269 264.057 622.003 269.17 614.167 269.74C606.331 270.311 603.591 268.678 607.043 264.84Z" fill="#5AE4A8" stroke="#1A2E35" stroke-miterlimit="10" stroke-linecap="round" stroke-linejoin="round"/>
<path d="M621.558 261.384C621.558 261.384 611.52 265.155 607.875 267.723" stroke="#1A2E35" stroke-miterlimit="10"/>
<path d="M617.568 247.471C617.568 247.471 616.633 251.959 613.268 253.642C609.902 255.325 603.917 251.772 607.097 246.349C610.276 240.926 615.886 245.227 617.568 247.471Z" fill="#5AE4A8" stroke="#1A2E35" stroke-miterlimit="10" stroke-linecap="round" stroke-linejoin="round"/>
<path d="M609.714 233.447C609.714 233.447 608.031 229.707 601.486 232.138C594.941 234.569 592.323 238.309 596.437 239.618C600.551 240.927 609.714 233.447 609.714 233.447Z" fill="#5AE4A8" stroke="#1A2E35" stroke-miterlimit="10" stroke-linecap="round" stroke-linejoin="round"/>
<path d="M608.46 233.277C608.46 233.277 601.527 234.026 597.78 237.211" stroke="#1A2E35" stroke-miterlimit="10"/>
<path d="M628.414 188.566C628.414 188.566 629.536 191.185 631.78 190.623C634.024 190.063 634.585 186.696 638.138 187.631C641.691 188.566 644.683 192.68 644.683 190.81C644.683 188.94 640.195 184.078 635.146 184.078C630.097 184.078 628.601 186.135 628.414 188.566Z" fill="#5AE4A8" stroke="#1A2E35" stroke-miterlimit="10" stroke-linecap="round" stroke-linejoin="round"/>
<path d="M609.714 233.446C609.714 233.446 617.766 231.9 621.119 240.842C621.448 241.719 621.727 242.636 621.959 243.578" stroke="#1A2E35" stroke-miterlimit="10"/>
<path d="M643.319 224.785C643.319 224.785 645.002 221.045 651.547 223.475C658.092 225.907 660.71 229.647 656.595 230.956C652.482 232.265 643.319 224.785 643.319 224.785Z" fill="#5AE4A8" stroke="#1A2E35" stroke-miterlimit="10" stroke-linecap="round" stroke-linejoin="round"/>
<path d="M644.814 225.029C644.814 225.029 651.56 224.655 654.746 228.59" stroke="#1A2E35" stroke-miterlimit="10"/>
<path d="M643.319 224.785C643.319 224.785 640.65 224.272 637.745 225.544" stroke="#1A2E35" stroke-miterlimit="10"/>
<path d="M614.007 218.075C610.06 214.045 606.162 213.437 606.162 213.437C606.162 213.437 600.404 211.913 598.155 213.974" stroke="#1A2E35" stroke-miterlimit="10"/>
<path d="M614.808 197.361L614.457 195.798" stroke="#1A2E35" stroke-miterlimit="10"/>
<path d="M623.913 280.031C623.913 280.031 624.751 247.828 623.913 238.047C623.075 228.268 619.163 216.812 619.163 216.812L615.178 199.018" stroke="#1A2E35" stroke-miterlimit="10"/>
<path d="M640.534 204.275L641.254 202.732" stroke="#1A2E35" stroke-miterlimit="10"/>
<path d="M625.869 279.995C625.869 279.995 626.149 250.621 627.266 242.239C628.384 233.855 632.855 220.723 632.855 220.723L639.716 206.025" stroke="#1A2E35" stroke-miterlimit="10"/>
<path d="M630.619 244.195C630.619 244.195 628.664 261.035 627.545 280.036" stroke="#1A2E35" stroke-miterlimit="10"/>
<path d="M621.12 279.994C621.12 279.994 621.678 253.135 620.561 249.503C619.443 245.87 617.568 247.47 617.568 247.47C617.568 247.47 612.396 248.078 610.522 251.076" stroke="#1A2E35" stroke-miterlimit="10"/>
<path d="M622.404 245.67C623.865 253.862 622.517 280.023 622.517 280.023" stroke="#1A2E35" stroke-miterlimit="10"/>
<path d="M636.161 226.422C634.542 227.529 632.987 229.317 631.914 232.18C628.561 241.121 628.943 280.035 628.943 280.035" stroke="#1A2E35" stroke-miterlimit="10"/>
<path d="M614.979 219.141C616.726 221.192 618.42 223.965 619.722 227.708C624.193 240.561 625.869 273.847 625.031 279.994" stroke="#1A2E35" stroke-miterlimit="10"/>
<path d="M626.334 231.17C626.062 247.393 625.869 279.995 625.869 279.995" stroke="#1A2E35" stroke-miterlimit="10"/>
<path d="M626.368 229.152C626.552 218.425 626.769 207.927 626.987 202.281C627.546 187.751 628.414 188.566 628.414 188.566C628.414 188.566 629.448 185.304 635.257 185.678" stroke="#1A2E35" stroke-miterlimit="10"/>
<path d="M619.213 241.402C619.213 241.402 614.538 237.233 616.407 235.183C618.278 233.133 629.871 231.628 633.237 234.295C636.603 236.96 629.124 240.719 626.318 241.539C623.514 242.359 620.148 242.086 619.213 241.402Z" fill="#5AE4A8" stroke="#1A2E35" stroke-miterlimit="10" stroke-linecap="round" stroke-linejoin="round"/>
<path d="M623.53 237.986C623.465 238.409 623.426 238.828 623.427 239.231" stroke="#1A2E35" stroke-miterlimit="10"/>
<path d="M625.137 233.121C625.137 233.121 624.441 234.513 623.937 236.218" stroke="#1A2E35" stroke-miterlimit="10"/>
<path d="M619.213 268.66C619.213 268.66 614.538 264.491 616.407 262.44C618.278 260.39 629.871 258.886 633.237 261.553C636.603 264.218 629.124 267.977 626.318 268.797C623.514 269.617 620.148 269.343 619.213 268.66Z" fill="#5AE4A8" stroke="#1A2E35" stroke-miterlimit="10" stroke-linecap="round" stroke-linejoin="round"/>
<path d="M625.137 260.378C625.137 260.378 623.426 263.8 623.426 266.489" stroke="#1A2E35" stroke-miterlimit="10"/>
<path d="M622.693 257.131C622.693 257.131 619.519 254.301 620.789 252.908C622.058 251.517 629.93 250.496 632.215 252.305C634.501 254.115 629.422 256.667 627.518 257.224C625.613 257.781 623.328 257.595 622.693 257.131Z" fill="#5AE4A8" stroke="#1A2E35" stroke-miterlimit="10" stroke-linecap="round" stroke-linejoin="round"/>
<path d="M626.716 251.508C626.716 251.508 625.554 253.832 625.554 255.658" stroke="#1A2E35" stroke-miterlimit="10"/>
<path d="M618.302 275.357H630.957V303.419H618.302V275.357Z" fill="#1A2E35" stroke="#1A2E35" stroke-miterlimit="10" stroke-linecap="round" stroke-linejoin="round"/>
<path d="M465.401 75.8541C471.522 75.8541 476.485 80.816 476.485 86.9376C476.485 93.0585 471.522 98.0205 465.401 98.0205C459.28 98.0205 454.319 93.0585 454.319 86.9376C454.319 80.816 459.28 75.8541 465.401 75.8541ZM445.331 84.6067V89.1782L449.709 89.8041C450.116 92.0441 450.987 94.1209 452.224 95.9302L449.561 99.4809L452.794 102.714L456.333 100.061C458.135 101.309 460.206 102.193 462.442 102.613L463.071 107.008H467.642L468.269 102.629C470.508 102.223 472.585 101.352 474.394 100.115L477.945 102.778L481.178 99.5449L478.525 96.0064C479.773 94.2041 480.657 92.1331 481.077 89.8963L485.472 89.2678V84.6963L481.094 84.0704C480.687 81.8304 479.816 79.7536 478.579 77.9449L481.241 74.3936L478.009 71.1609L474.47 73.8137C472.668 72.5664 470.597 71.6813 468.361 71.2621L467.732 66.8672H463.161L462.535 71.2454C460.295 71.6525 458.217 72.5229 456.409 73.76L452.857 71.0976L449.625 74.3302L452.278 77.8688C451.03 79.671 450.146 81.7421 449.726 83.9782L445.331 84.6067Z" stroke="#1A2E35" stroke-miterlimit="10"/>
<path d="M500.084 72.7261C505.319 72.7261 509.563 76.9693 509.563 82.2045C509.563 87.4391 505.319 91.6823 500.084 91.6823C494.85 91.6823 490.606 87.4391 490.606 82.2045C490.606 76.9693 494.85 72.7261 500.084 72.7261ZM482.921 80.2109V84.1207L486.666 84.6564C487.013 86.5713 487.758 88.3479 488.815 89.8948L486.539 92.9316L489.303 95.6957L492.329 93.4269C493.871 94.4945 495.642 95.2509 497.554 95.6093L498.091 99.3681H502.001L502.536 95.6234C504.452 95.2759 506.228 94.5309 507.775 93.473L510.811 95.7501L513.576 92.986L511.307 89.9594C512.374 88.4183 513.131 86.6474 513.49 84.7351L517.248 84.1975V80.2877L513.504 79.7527C513.156 77.8372 512.411 76.0612 511.354 74.5137L513.631 71.4769L510.866 68.7127L507.84 70.9815C506.299 69.9146 504.527 69.1581 502.615 68.7991L502.077 65.041H498.168L497.633 68.785C495.718 69.1325 493.941 69.8775 492.394 70.9354L489.357 68.6583L486.593 71.4231L488.862 74.449C487.794 75.9901 487.038 77.7617 486.68 79.6733L482.921 80.2109Z" stroke="#1A2E35" stroke-miterlimit="10"/>
<path d="M698.716 237.777C704.837 237.777 709.8 242.739 709.8 248.859C709.8 254.981 704.837 259.943 698.716 259.943C692.595 259.943 687.633 254.981 687.633 248.859C687.633 242.739 692.595 237.777 698.716 237.777ZM678.646 246.529V251.1L683.024 251.727C683.431 253.966 684.302 256.043 685.539 257.852L682.876 261.403L686.109 264.636L689.647 261.983C691.45 263.231 693.521 264.115 695.757 264.536L696.385 268.931H700.958L701.583 264.552C703.823 264.145 705.9 263.274 707.71 262.037L711.26 264.699L714.493 261.467L711.84 257.928C713.087 256.126 713.973 254.056 714.392 251.819L718.787 251.19V246.619L714.408 245.993C714.002 243.753 713.13 241.676 711.894 239.867L714.556 236.316L711.324 233.083L707.785 235.736C705.983 234.488 703.912 233.604 701.676 233.184L701.047 228.789H696.476L695.85 233.168C693.61 233.574 691.532 234.445 689.724 235.683L686.172 233.019L682.94 236.252L685.593 239.791C684.345 241.593 683.461 243.664 683.041 245.9L678.646 246.529Z" stroke="#1A2E35" stroke-miterlimit="10"/>
<path d="M733.399 234.649C738.634 234.649 742.877 238.892 742.877 244.127C742.877 249.361 738.634 253.605 733.399 253.605C728.164 253.605 723.92 249.361 723.92 244.127C723.92 238.892 728.164 234.649 733.399 234.649ZM716.235 242.133V246.043L719.979 246.579C720.328 248.494 721.072 250.27 722.13 251.817L719.853 254.853L722.617 257.618L725.644 255.349C727.185 256.416 728.956 257.173 730.868 257.532L731.406 261.29H735.315L735.851 257.546C737.766 257.198 739.542 256.453 741.09 255.396L744.126 257.673L746.891 254.908L744.621 251.882C745.689 250.341 746.445 248.569 746.804 246.658L750.562 246.12V242.21L746.818 241.675C746.471 239.759 745.726 237.983 744.668 236.436L746.945 233.399L744.18 230.635L741.154 232.903C739.613 231.836 737.842 231.081 735.929 230.721L735.392 226.963H731.483L730.947 230.708C729.032 231.055 727.256 231.8 725.709 232.857L722.672 230.581L719.908 233.345L722.176 236.371C721.109 237.913 720.352 239.684 719.994 241.596L716.235 242.133Z" stroke="#1A2E35" stroke-miterlimit="10"/>
<path d="M779.135 62.4371C784.37 62.4371 788.613 66.6809 788.613 71.9155C788.613 77.15 784.37 81.3932 779.135 81.3932C773.9 81.3932 769.657 77.15 769.657 71.9155C769.657 66.6809 773.9 62.4371 779.135 62.4371ZM761.972 69.9219V73.8316L765.716 74.3673C766.064 76.2822 766.809 78.0588 767.867 79.6057L765.589 82.6425L768.354 85.4067L771.38 83.1379C772.921 84.2054 774.693 84.9619 776.604 85.3203L777.142 89.079H781.051L781.587 85.3344C783.502 84.9868 785.279 84.2419 786.826 83.184L789.863 85.4611L792.627 82.6969L790.358 79.6704C791.425 78.1299 792.181 76.3584 792.54 74.446L796.299 73.9084V69.9987L792.555 69.4636C792.207 67.5481 791.462 65.7721 790.404 64.2252L792.681 61.1884L789.917 58.4236L786.891 60.6924C785.349 59.6256 783.578 58.8691 781.666 58.51L781.128 54.752H777.219L776.683 58.496C774.768 58.8435 772.992 59.5884 771.445 60.6464L768.408 58.3699L765.644 61.134L767.913 64.16C766.846 65.7011 766.089 67.4726 765.73 69.3843L761.972 69.9219Z" stroke="#1A2E35" stroke-miterlimit="10"/>
<path d="M772.624 213.356H629.096V75.7659C629.096 72.7541 631.538 70.3125 634.55 70.3125H767.17C770.182 70.3125 772.624 72.7541 772.624 75.7659V213.356Z" fill="#1A2E35" stroke="#1A2E35" stroke-miterlimit="10" stroke-linecap="round" stroke-linejoin="round"/>
<path d="M775.89 210.089H632.363V72.4984C632.363 69.4865 634.804 67.0449 637.816 67.0449H770.437C773.449 67.0449 775.89 69.4865 775.89 72.4984V210.089Z" fill="white" stroke="#1A2E35" stroke-miterlimit="10" stroke-linecap="round" stroke-linejoin="round"/>
<path d="M775.89 80.7172H632.363V72.4984C632.363 69.4865 634.804 67.0449 637.816 67.0449H770.437C773.449 67.0449 775.89 69.4865 775.89 72.4984V80.7172Z" fill="#5AE4A8" stroke="#1A2E35" stroke-miterlimit="10" stroke-linecap="round" stroke-linejoin="round"/>
<path d="M752.806 74.3151C752.806 73.0844 751.808 72.0866 750.578 72.0866C749.347 72.0866 748.349 73.0844 748.349 74.3151C748.349 75.5458 749.347 76.543 750.578 76.543C751.808 76.543 752.806 75.5458 752.806 74.3151Z" fill="white"/>
<path d="M748.35 74.3151C748.35 73.0847 749.347 72.0873 750.578 72.0873C751.808 72.0873 752.806 73.0847 752.806 74.3151C752.806 75.5455 751.808 76.543 750.578 76.543C749.347 76.543 748.35 75.5455 748.35 74.3151Z" stroke="#1A2E35" stroke-miterlimit="10" stroke-linecap="round" stroke-linejoin="round"/>
<path d="M759.49 74.3151C759.49 73.0844 758.492 72.0866 757.262 72.0866C756.032 72.0866 755.034 73.0844 755.034 74.3151C755.034 75.5458 756.032 76.543 757.262 76.543C758.492 76.543 759.49 75.5458 759.49 74.3151Z" fill="white"/>
<path d="M755.035 74.3151C755.035 73.0847 756.032 72.0873 757.262 72.0873C758.493 72.0873 759.49 73.0847 759.49 74.3151C759.49 75.5455 758.493 76.543 757.262 76.543C756.032 76.543 755.035 75.5455 755.035 74.3151Z" stroke="#1A2E35" stroke-miterlimit="10" stroke-linecap="round" stroke-linejoin="round"/>
<path d="M766.176 74.3145C766.176 73.0838 765.178 72.086 763.948 72.086C762.717 72.086 761.719 73.0838 761.719 74.3145C761.719 75.5452 762.717 76.543 763.948 76.543C765.178 76.543 766.176 75.5452 766.176 74.3145Z" fill="#1A2E35"/>
<path d="M761.719 74.3145C761.719 73.0837 762.717 72.086 763.947 72.086C765.178 72.086 766.176 73.0837 766.176 74.3145C766.176 75.5452 765.178 76.543 763.947 76.543C762.717 76.543 761.719 75.5452 761.719 74.3145Z" stroke="#1A2E35" stroke-miterlimit="10" stroke-linecap="round" stroke-linejoin="round"/>
<path d="M647.088 88.8906H657.643" stroke="#1A2E35" stroke-width="3" stroke-miterlimit="10" stroke-linecap="round" stroke-linejoin="round"/>
<path d="M647.088 95.0898H686.737" stroke="#C6C6C6" stroke-width="3" stroke-miterlimit="10" stroke-linecap="round" stroke-linejoin="round"/>
<path d="M708.415 95.0898H748.063" stroke="#C6C6C6" stroke-width="3" stroke-miterlimit="10" stroke-linecap="round" stroke-linejoin="round"/>
<path d="M689.304 95.0898H704.993" stroke="#1A2E35" stroke-width="3" stroke-miterlimit="10" stroke-linecap="round" stroke-linejoin="round"/>
<path d="M647.088 101.289H669.908" stroke="#1A2E35" stroke-width="3" stroke-miterlimit="10" stroke-linecap="round" stroke-linejoin="round"/>
<path d="M672.761 101.289H695.579" stroke="#1A2E35" stroke-width="3" stroke-miterlimit="10" stroke-linecap="round" stroke-linejoin="round"/>
<path d="M698.432 101.289H721.251" stroke="#1A2E35" stroke-width="3" stroke-miterlimit="10" stroke-linecap="round" stroke-linejoin="round"/>
<path d="M724.104 101.289H733.801" stroke="#1A2E35" stroke-width="3" stroke-miterlimit="10" stroke-linecap="round" stroke-linejoin="round"/>
<path d="M660.495 88.8906H671.049" stroke="#1A2E35" stroke-width="3" stroke-miterlimit="10" stroke-linecap="round" stroke-linejoin="round"/>
<path d="M723.247 88.8906H733.801" stroke="#1A2E35" stroke-width="3" stroke-miterlimit="10" stroke-linecap="round" stroke-linejoin="round"/>
<path d="M709.271 88.8906H719.825" stroke="#C6C6C6" stroke-width="3" stroke-miterlimit="10" stroke-linecap="round" stroke-linejoin="round"/>
<path d="M673.901 88.8906H704.708" stroke="#1A2E35" stroke-width="3" stroke-miterlimit="10" stroke-linecap="round" stroke-linejoin="round"/>
<path d="M647.088 126.74H657.643" stroke="#1A2E35" stroke-width="3" stroke-miterlimit="10" stroke-linecap="round" stroke-linejoin="round"/>
<path d="M647.088 132.938H686.737" stroke="#C6C6C6" stroke-width="3" stroke-miterlimit="10" stroke-linecap="round" stroke-linejoin="round"/>
<path d="M708.415 132.938H748.063" stroke="#1A2E35" stroke-width="3" stroke-miterlimit="10" stroke-linecap="round" stroke-linejoin="round"/>
<path d="M689.304 132.938H704.993" stroke="#1A2E35" stroke-width="3" stroke-miterlimit="10" stroke-linecap="round" stroke-linejoin="round"/>
<path d="M647.088 139.139H669.908" stroke="#1A2E35" stroke-width="3" stroke-miterlimit="10" stroke-linecap="round" stroke-linejoin="round"/>
<path d="M672.761 139.139H695.579" stroke="#1A2E35" stroke-width="3" stroke-miterlimit="10" stroke-linecap="round" stroke-linejoin="round"/>
<path d="M698.432 139.139H721.251" stroke="#C6C6C6" stroke-width="3" stroke-miterlimit="10" stroke-linecap="round" stroke-linejoin="round"/>
<path d="M724.104 139.139H733.801" stroke="#1A2E35" stroke-width="3" stroke-miterlimit="10" stroke-linecap="round" stroke-linejoin="round"/>
<path d="M660.495 126.74H671.049" stroke="#1A2E35" stroke-width="3" stroke-miterlimit="10" stroke-linecap="round" stroke-linejoin="round"/>
<path d="M723.247 126.74H733.801" stroke="#1A2E35" stroke-width="3" stroke-miterlimit="10" stroke-linecap="round" stroke-linejoin="round"/>
<path d="M709.271 126.74H719.825" stroke="#C6C6C6" stroke-width="3" stroke-miterlimit="10" stroke-linecap="round" stroke-linejoin="round"/>
<path d="M673.901 126.74H704.708" stroke="#1A2E35" stroke-width="3" stroke-miterlimit="10" stroke-linecap="round" stroke-linejoin="round"/>
<path d="M647.088 182.533H657.643" stroke="#1A2E35" stroke-width="3" stroke-miterlimit="10" stroke-linecap="round" stroke-linejoin="round"/>
<path d="M647.088 188.734H686.737" stroke="#C6C6C6" stroke-width="3" stroke-miterlimit="10" stroke-linecap="round" stroke-linejoin="round"/>
<path d="M708.415 188.734H748.063" stroke="#1A2E35" stroke-width="3" stroke-miterlimit="10" stroke-linecap="round" stroke-linejoin="round"/>
<path d="M689.304 188.734H704.993" stroke="#1A2E35" stroke-width="3" stroke-miterlimit="10" stroke-linecap="round" stroke-linejoin="round"/>
<path d="M647.088 194.932H669.908" stroke="#1A2E35" stroke-width="3" stroke-miterlimit="10" stroke-linecap="round" stroke-linejoin="round"/>
<path d="M672.761 194.932H695.579" stroke="#1A2E35" stroke-width="3" stroke-miterlimit="10" stroke-linecap="round" stroke-linejoin="round"/>
<path d="M698.432 194.932H721.251" stroke="#C6C6C6" stroke-width="3" stroke-miterlimit="10" stroke-linecap="round" stroke-linejoin="round"/>
<path d="M724.104 194.932H733.801" stroke="#1A2E35" stroke-width="3" stroke-miterlimit="10" stroke-linecap="round" stroke-linejoin="round"/>
<path d="M660.495 182.533H671.049" stroke="#1A2E35" stroke-width="3" stroke-miterlimit="10" stroke-linecap="round" stroke-linejoin="round"/>
<path d="M723.247 182.533H733.801" stroke="#1A2E35" stroke-width="3" stroke-miterlimit="10" stroke-linecap="round" stroke-linejoin="round"/>
<path d="M709.271 182.533H719.825" stroke="#C6C6C6" stroke-width="3" stroke-miterlimit="10" stroke-linecap="round" stroke-linejoin="round"/>
<path d="M673.901 182.533H704.708" stroke="#1A2E35" stroke-width="3" stroke-miterlimit="10" stroke-linecap="round" stroke-linejoin="round"/>
<path d="M706.418 107.814H716.972" stroke="#1A2E35" stroke-width="3" stroke-miterlimit="10" stroke-linecap="round" stroke-linejoin="round"/>
<path d="M692.442 107.814H702.995" stroke="#1A2E35" stroke-width="3" stroke-miterlimit="10" stroke-linecap="round" stroke-linejoin="round"/>
<path d="M657.073 107.814H687.879" stroke="#1A2E35" stroke-width="3" stroke-miterlimit="10" stroke-linecap="round" stroke-linejoin="round"/>
<path d="M706.418 118.908H716.972" stroke="#1A2E35" stroke-width="3" stroke-miterlimit="10" stroke-linecap="round" stroke-linejoin="round"/>
<path d="M692.442 118.908H702.995" stroke="#1A2E35" stroke-width="3" stroke-miterlimit="10" stroke-linecap="round" stroke-linejoin="round"/>
<path d="M657.073 118.908H687.879" stroke="#C6C6C6" stroke-width="3" stroke-miterlimit="10" stroke-linecap="round" stroke-linejoin="round"/>
<path d="M667.626 113.361H657.072" stroke="#1A2E35" stroke-width="3" stroke-miterlimit="10" stroke-linecap="round" stroke-linejoin="round"/>
<path d="M681.603 113.361H671.049" stroke="#1A2E35" stroke-width="3" stroke-miterlimit="10" stroke-linecap="round" stroke-linejoin="round"/>
<path d="M716.973 113.361H686.167" stroke="#C6C6C6" stroke-width="3" stroke-miterlimit="10" stroke-linecap="round" stroke-linejoin="round"/>
<path d="M706.418 146.643H716.972" stroke="#1A2E35" stroke-width="3" stroke-miterlimit="10" stroke-linecap="round" stroke-linejoin="round"/>
<path d="M692.442 146.643H702.995" stroke="#1A2E35" stroke-width="3" stroke-miterlimit="10" stroke-linecap="round" stroke-linejoin="round"/>
<path d="M657.073 146.643H687.879" stroke="#1A2E35" stroke-width="3" stroke-miterlimit="10" stroke-linecap="round" stroke-linejoin="round"/>
<path d="M706.418 157.736H716.972" stroke="#1A2E35" stroke-width="3" stroke-miterlimit="10" stroke-linecap="round" stroke-linejoin="round"/>
<path d="M692.442 157.736H702.995" stroke="#1A2E35" stroke-width="3" stroke-miterlimit="10" stroke-linecap="round" stroke-linejoin="round"/>
<path d="M657.073 157.736H687.879" stroke="#C6C6C6" stroke-width="3" stroke-miterlimit="10" stroke-linecap="round" stroke-linejoin="round"/>
<path d="M667.626 152.189H657.072" stroke="#1A2E35" stroke-width="3" stroke-miterlimit="10" stroke-linecap="round" stroke-linejoin="round"/>
<path d="M681.603 152.189H671.049" stroke="#1A2E35" stroke-width="3" stroke-miterlimit="10" stroke-linecap="round" stroke-linejoin="round"/>
<path d="M716.973 152.189H686.167" stroke="#C6C6C6" stroke-width="3" stroke-miterlimit="10" stroke-linecap="round" stroke-linejoin="round"/>
<path d="M667.626 164.262H657.072" stroke="#1A2E35" stroke-width="3" stroke-miterlimit="10" stroke-linecap="round" stroke-linejoin="round"/>
<path d="M681.603 164.262H671.049" stroke="#1A2E35" stroke-width="3" stroke-miterlimit="10" stroke-linecap="round" stroke-linejoin="round"/>
<path d="M716.973 164.262H686.167" stroke="#C6C6C6" stroke-width="3" stroke-miterlimit="10" stroke-linecap="round" stroke-linejoin="round"/>
<path d="M667.626 175.355H657.072" stroke="#1A2E35" stroke-width="3" stroke-miterlimit="10" stroke-linecap="round" stroke-linejoin="round"/>
<path d="M681.603 175.355H671.049" stroke="#1A2E35" stroke-width="3" stroke-miterlimit="10" stroke-linecap="round" stroke-linejoin="round"/>
<path d="M716.973 175.355H686.167" stroke="#C6C6C6" stroke-width="3" stroke-miterlimit="10" stroke-linecap="round" stroke-linejoin="round"/>
<path d="M706.418 169.809H716.972" stroke="#1A2E35" stroke-width="3" stroke-miterlimit="10" stroke-linecap="round" stroke-linejoin="round"/>
<path d="M692.442 169.809H702.995" stroke="#1A2E35" stroke-width="3" stroke-miterlimit="10" stroke-linecap="round" stroke-linejoin="round"/>
<path d="M657.073 169.809H687.879" stroke="#C6C6C6" stroke-width="3" stroke-miterlimit="10" stroke-linecap="round" stroke-linejoin="round"/>
<path d="M639.804 86.7363H643.174V90.5437H639.804V86.7363Z" fill="#1A2E35"/>
<path d="M639.804 92.9922H643.174V96.7989H639.804V92.9922Z" fill="#1A2E35"/>
<path d="M639.804 99.2461H643.174V103.053H639.804V99.2461Z" fill="#1A2E35"/>
<path d="M639.804 105.5H643.174V109.307H639.804V105.5Z" fill="#1A2E35"/>
<path d="M639.804 111.754H643.174V115.561H639.804V111.754Z" fill="#1A2E35"/>
<path d="M639.804 118.01H643.174V121.816H639.804V118.01Z" fill="#1A2E35"/>
<path d="M639.804 124.264H643.174V128.07H639.804V124.264Z" fill="#1A2E35"/>
<path d="M639.804 130.518H643.174V134.325H639.804V130.518Z" fill="#1A2E35"/>
<path d="M639.804 136.773H643.174V140.581H639.804V136.773Z" fill="#1A2E35"/>
<path d="M639.804 143.027H643.174V146.835H639.804V143.027Z" fill="#1A2E35"/>
<path d="M639.804 149.281H643.174V153.088H639.804V149.281Z" fill="#1A2E35"/>
<path d="M639.804 155.535H643.174V159.342H639.804V155.535Z" fill="#1A2E35"/>
<path d="M639.804 161.791H643.174V165.598H639.804V161.791Z" fill="#1A2E35"/>
<path d="M639.804 168.045H643.174V171.852H639.804V168.045Z" fill="#1A2E35"/>
<path d="M639.804 174.299H643.174V178.106H639.804V174.299Z" fill="#1A2E35"/>
<path d="M639.804 180.553H643.174V184.359H639.804V180.553Z" fill="#1A2E35"/>
<path d="M639.804 186.809H643.174V190.615H639.804V186.809Z" fill="#1A2E35"/>
<path d="M639.804 193.062H643.174V196.869H639.804V193.062Z" fill="#1A2E35"/>
<path d="M549.505 118.592H476.2V209.765H549.505V118.592Z" fill="white" stroke="#1A2E35" stroke-miterlimit="10" stroke-linecap="round" stroke-linejoin="round"/>
<path d="M487.355 194.92H539.52" stroke="#1A2E35" stroke-miterlimit="10" stroke-linecap="round" stroke-linejoin="round"/>
<path d="M487.355 184.672H539.52" stroke="#1A2E35" stroke-miterlimit="10" stroke-linecap="round" stroke-linejoin="round"/>
<path d="M487.355 174.426H539.52" stroke="#1A2E35" stroke-miterlimit="10" stroke-linecap="round" stroke-linejoin="round"/>
<path d="M487.355 164.178H539.52" stroke="#1A2E35" stroke-miterlimit="10" stroke-linecap="round" stroke-linejoin="round"/>
<path d="M487.355 153.932H539.52" stroke="#1A2E35" stroke-miterlimit="10" stroke-linecap="round" stroke-linejoin="round"/>
<path d="M487.355 143.684H539.52" stroke="#1A2E35" stroke-miterlimit="10" stroke-linecap="round" stroke-linejoin="round"/>
<path d="M487.355 133.436H539.52" stroke="#1A2E35" stroke-miterlimit="10" stroke-linecap="round" stroke-linejoin="round"/>
<path d="M523.92 118.305H549.282V176.92H523.92V118.305Z" fill="#1A2E35" stroke="#1A2E35" stroke-miterlimit="10" stroke-linecap="round" stroke-linejoin="round"/>
<path d="M600.138 82.7559H526.834V173.93H600.138V82.7559Z" fill="white" stroke="#1A2E35" stroke-miterlimit="10" stroke-linecap="round" stroke-linejoin="round"/>
<path d="M537.988 159.084H590.153" stroke="#1A2E35" stroke-miterlimit="10" stroke-linecap="round" stroke-linejoin="round"/>
<path d="M537.988 148.838H590.153" stroke="#1A2E35" stroke-miterlimit="10" stroke-linecap="round" stroke-linejoin="round"/>
<path d="M537.988 138.59H590.153" stroke="#1A2E35" stroke-miterlimit="10" stroke-linecap="round" stroke-linejoin="round"/>
<path d="M537.988 128.342H590.153" stroke="#1A2E35" stroke-miterlimit="10" stroke-linecap="round" stroke-linejoin="round"/>
<path d="M537.988 118.096H590.153" stroke="#1A2E35" stroke-miterlimit="10" stroke-linecap="round" stroke-linejoin="round"/>
<path d="M537.988 107.848H590.153" stroke="#1A2E35" stroke-miterlimit="10" stroke-linecap="round" stroke-linejoin="round"/>
<path d="M537.988 97.6016H590.153" stroke="#1A2E35" stroke-miterlimit="10" stroke-linecap="round" stroke-linejoin="round"/>
<path d="M573.967 235.404H475.961L485.754 303.409H582.496L573.967 235.404Z" fill="#1A2E35" stroke="#1A2E35" stroke-miterlimit="10" stroke-linecap="round" stroke-linejoin="round"/>
<path d="M498.276 197.49H504.757V209.326H498.276V197.49Z" fill="#1A2E35" stroke="#1A2E35" stroke-miterlimit="10" stroke-linecap="round" stroke-linejoin="round"/>
<path d="M574.821 193.191H501.517V284.365H574.821V193.191Z" fill="white" stroke="#1A2E35" stroke-miterlimit="10" stroke-linecap="round" stroke-linejoin="round"/>
<path d="M512.672 269.52H564.837" stroke="#1A2E35" stroke-miterlimit="10" stroke-linecap="round" stroke-linejoin="round"/>
<path d="M512.672 259.273H564.837" stroke="#1A2E35" stroke-miterlimit="10" stroke-linecap="round" stroke-linejoin="round"/>
<path d="M512.672 249.025H564.837" stroke="#1A2E35" stroke-miterlimit="10" stroke-linecap="round" stroke-linejoin="round"/>
<path d="M512.672 238.779H564.837" stroke="#1A2E35" stroke-miterlimit="10" stroke-linecap="round" stroke-linejoin="round"/>
<path d="M512.672 228.531H564.837" stroke="#1A2E35" stroke-miterlimit="10" stroke-linecap="round" stroke-linejoin="round"/>
<path d="M512.672 218.283H564.837" stroke="#1A2E35" stroke-miterlimit="10" stroke-linecap="round" stroke-linejoin="round"/>
<path d="M512.672 208.037H564.837" stroke="#1A2E35" stroke-miterlimit="10" stroke-linecap="round" stroke-linejoin="round"/>
<path d="M582.51 238.789V236.464C582.51 234.759 581.127 233.377 579.422 233.377H540.1C538.395 233.377 537.012 234.759 537.012 236.464C537.012 237.749 535.971 238.789 534.687 238.789H491.821L485.754 303.41H582.461L588.528 238.789H582.51Z" fill="#5AE4A8" stroke="#1A2E35" stroke-miterlimit="10" stroke-linecap="round" stroke-linejoin="round"/>
<path d="M572.555 114.07H566.124C565.54 114.07 565.067 113.597 565.067 113.014C565.067 112.43 565.54 111.957 566.124 111.957H572.555C573.139 111.957 573.612 112.43 573.612 113.014C573.612 113.597 573.139 114.07 572.555 114.07Z" fill="#1A2E35"/>
<path d="M572.894 107.324C572.639 107.324 572.383 107.232 572.18 107.046L566.087 101.461C565.657 101.067 565.628 100.398 566.023 99.9677C566.416 99.5376 567.085 99.5082 567.515 99.903L573.608 105.488C574.038 105.883 574.067 106.551 573.673 106.981C573.465 107.209 573.18 107.324 572.894 107.324Z" fill="#1A2E35"/>
<path d="M566.802 125.097C566.515 125.097 566.231 124.981 566.023 124.754C565.628 124.323 565.657 123.656 566.087 123.261L572.18 117.676C572.611 117.282 573.278 117.311 573.673 117.74C574.067 118.171 574.038 118.839 573.608 119.234L567.515 124.819C567.312 125.004 567.056 125.097 566.802 125.097Z" fill="#1A2E35"/>
<path d="M584.234 114.07H590.666C591.249 114.07 591.722 113.597 591.722 113.014C591.722 112.43 591.249 111.957 590.666 111.957H584.234C583.651 111.957 583.178 112.43 583.178 113.014C583.178 113.597 583.651 114.07 584.234 114.07Z" fill="#1A2E35"/>
<path d="M583.896 107.324C584.151 107.324 584.407 107.232 584.609 107.046L590.702 101.461C591.132 101.067 591.162 100.398 590.767 99.9677C590.373 99.5376 589.704 99.5082 589.274 99.903L583.182 105.488C582.751 105.883 582.722 106.551 583.117 106.981C583.325 107.209 583.61 107.324 583.896 107.324Z" fill="#1A2E35"/>
<path d="M589.989 125.097C590.274 125.097 590.559 124.981 590.767 124.754C591.162 124.323 591.133 123.656 590.703 123.261L584.61 117.676C584.179 117.282 583.512 117.311 583.117 117.74C582.722 118.171 582.751 118.839 583.182 119.234L589.274 124.819C589.477 125.004 589.733 125.097 589.989 125.097Z" fill="#1A2E35"/>
<path d="M582.638 102.206C582.638 104.417 580.846 106.209 578.634 106.209C576.423 106.209 574.629 104.417 574.629 102.206C574.629 99.9939 576.423 98.2013 578.634 98.2013C580.846 98.2013 582.638 99.9939 582.638 102.206Z" fill="#1A2E35"/>
<path d="M574.629 102.205C574.629 99.9939 576.422 98.2013 578.634 98.2013C580.845 98.2013 582.638 99.9939 582.638 102.205C582.638 104.416 580.845 106.209 578.634 106.209C576.422 106.209 574.629 104.416 574.629 102.205Z" stroke="#1A2E35" stroke-miterlimit="10" stroke-linecap="round" stroke-linejoin="round"/>
<path d="M580.916 122.831H576.352C573.466 122.831 571.127 120.492 571.127 117.606V108.422C571.127 105.537 573.466 103.197 576.352 103.197H580.916C583.802 103.197 586.141 105.537 586.141 108.422V117.606C586.141 120.492 583.802 122.831 580.916 122.831Z" fill="#5AE4A8" stroke="#1A2E35" stroke-miterlimit="10" stroke-linecap="round" stroke-linejoin="round"/>
<path d="M578.634 108.806C581.434 108.806 583.968 107.673 585.805 105.84C585.153 104.288 583.617 103.197 581.828 103.197H575.44C573.65 103.197 572.115 104.288 571.462 105.84C573.3 107.673 575.834 108.806 578.634 108.806Z" fill="#A0A0A0"/>
<path d="M578.634 108.806C581.434 108.806 583.968 107.673 585.805 105.84C585.153 104.288 583.617 103.197 581.828 103.197H575.44C573.65 103.197 572.115 104.288 571.462 105.84C573.3 107.673 575.834 108.806 578.634 108.806Z" stroke="#1A2E35" stroke-miterlimit="10" stroke-linecap="round" stroke-linejoin="round"/>
<path d="M578.633 108.807V122.348" stroke="#1A2E35" stroke-miterlimit="10" stroke-linecap="round" stroke-linejoin="round"/>
<path d="M490.183 152.795L485.635 148.247C485.222 147.835 485.222 147.166 485.635 146.753C486.048 146.34 486.717 146.34 487.13 146.753L491.678 151.301C492.09 151.714 492.09 152.382 491.678 152.795C491.265 153.208 490.596 153.208 490.183 152.795Z" fill="#1A2E35"/>
<path d="M495.193 148.263C495.012 148.083 494.896 147.836 494.884 147.562L494.526 139.304C494.5 138.721 494.952 138.228 495.535 138.202C496.118 138.177 496.612 138.629 496.637 139.212L496.996 147.47C497.021 148.053 496.569 148.546 495.986 148.571C495.678 148.585 495.394 148.465 495.193 148.263Z" fill="#1A2E35"/>
<path d="M478.319 156.521C478.117 156.318 477.997 156.036 478.01 155.728C478.035 155.145 478.529 154.693 479.112 154.718L487.369 155.077C487.952 155.102 488.404 155.595 488.379 156.178C488.354 156.761 487.861 157.213 487.278 157.188L479.02 156.829C478.745 156.817 478.499 156.701 478.319 156.521Z" fill="#1A2E35"/>
<path d="M498.441 161.052L502.989 165.599C503.401 166.012 504.07 166.012 504.483 165.599C504.895 165.187 504.895 164.518 504.483 164.105L499.935 159.557C499.523 159.145 498.854 159.145 498.441 159.557C498.028 159.97 498.028 160.639 498.441 161.052Z" fill="#1A2E35"/>
<path d="M502.973 156.042C503.154 156.223 503.399 156.339 503.675 156.351L511.932 156.709C512.515 156.735 513.008 156.282 513.034 155.699C513.059 155.117 512.607 154.623 512.024 154.598L503.766 154.239C503.183 154.214 502.69 154.666 502.665 155.249C502.651 155.557 502.771 155.84 502.973 156.042Z" fill="#1A2E35"/>
<path d="M494.714 172.917C494.917 173.119 495.199 173.239 495.507 173.225C496.091 173.199 496.542 172.707 496.517 172.124L496.158 163.866C496.133 163.283 495.64 162.831 495.057 162.856C494.474 162.881 494.022 163.375 494.047 163.957L494.406 172.216C494.418 172.49 494.534 172.736 494.714 172.917Z" fill="#1A2E35"/>
<path d="M505.703 151.534C504.14 153.097 501.604 153.097 500.04 151.534C498.476 149.97 498.476 147.435 500.04 145.871C501.604 144.307 504.139 144.307 505.703 145.871C507.267 147.435 507.267 149.97 505.703 151.534Z" fill="#1A2E35"/>
<path d="M500.04 145.871C501.604 144.308 504.14 144.307 505.703 145.871C507.267 147.434 507.267 149.97 505.703 151.534C504.139 153.097 501.604 153.098 500.04 151.534C498.476 149.97 498.477 147.435 500.04 145.871Z" stroke="#1A2E35" stroke-miterlimit="10" stroke-linecap="round" stroke-linejoin="round"/>
<path d="M489.9 164.9L486.673 161.674C484.632 159.633 484.632 156.324 486.673 154.284L493.167 147.79C495.207 145.75 498.515 145.75 500.556 147.79L503.783 151.018C505.824 153.058 505.824 156.366 503.783 158.407L497.29 164.9C495.249 166.941 491.941 166.941 489.9 164.9Z" fill="#5AE4A8" stroke="#1A2E35" stroke-miterlimit="10" stroke-linecap="round" stroke-linejoin="round"/>
<path d="M498.203 153.368C500.183 155.348 502.777 156.339 505.371 156.342C506.008 154.783 505.694 152.927 504.428 151.661L499.911 147.144C498.646 145.878 496.79 145.564 495.23 146.2C495.233 148.795 496.224 151.389 498.203 153.368Z" fill="#A0A0A0"/>
<path d="M498.203 153.368C500.183 155.348 502.777 156.339 505.371 156.342C506.008 154.783 505.694 152.927 504.428 151.661L499.911 147.144C498.646 145.878 496.79 145.564 495.23 146.2C495.233 148.795 496.224 151.389 498.203 153.368Z" stroke="#1A2E35" stroke-miterlimit="10" stroke-linecap="round" stroke-linejoin="round"/>
<path d="M498.204 153.369L488.629 162.943" stroke="#1A2E35" stroke-miterlimit="10" stroke-linecap="round" stroke-linejoin="round"/>
<path d="M757.646 298.339C757.646 298.339 755.353 299.455 752.11 301.309C748.866 303.162 746.898 303.74 747.245 304.667C747.593 305.594 750.025 305.825 754.194 305.941C758.364 306.057 761.259 305.014 761.723 305.014C762.186 305.014 765.545 305.13 766.819 304.667C768.092 304.203 767.166 300.729 767.166 300.729C767.166 300.729 759.591 297.571 757.646 298.339Z" fill="white" stroke="#1A2E35" stroke-miterlimit="10" stroke-linecap="round" stroke-linejoin="round"/>
<path d="M783.066 302.977C783.066 302.977 780.695 307.926 779.858 309.042C779.022 310.157 780.137 310.714 782.088 311.411C784.039 312.108 787.105 310.435 789.475 309.32C791.844 308.205 792.262 303.048 792.262 303.048L783.066 302.977Z" fill="white" stroke="#1A2E35" stroke-miterlimit="10" stroke-linecap="round" stroke-linejoin="round"/>
<path d="M795.649 211.375C795.649 211.375 798.573 217.76 798.413 224.155C798.254 230.55 791.859 256.455 792.178 259.652C792.498 262.849 795.375 265.407 795.056 273.081C794.736 280.755 792.658 298.181 792.658 298.181C792.658 298.181 793.137 301.059 792.817 302.178C792.498 303.297 792.018 304.097 792.018 304.097H788.661C786.742 304.097 783.066 303.457 783.066 302.977C783.066 302.498 784.184 299.141 784.184 299.141L784.344 295.464C784.344 295.464 781.307 263.968 780.668 258.693C780.028 253.416 777.63 228.312 777.63 228.312C777.63 228.312 772.194 259.972 772.035 261.091C771.875 262.21 772.834 268.764 771.075 273.56C769.316 278.357 768.197 290.028 768.197 292.586C768.197 295.144 767.557 301.859 767.557 301.859C767.557 301.859 764.36 301.859 762.601 301.059C760.843 300.26 759.564 298.981 759.084 298.821C758.604 298.661 757.646 298.341 757.646 298.341C757.646 298.341 757.805 297.063 758.125 295.943C758.445 294.824 759.724 292.586 759.724 292.586L760.203 271.162C760.203 271.162 759.884 259.332 760.203 257.414C760.523 255.495 760.363 253.576 760.363 252.936C760.363 252.297 760.363 228.472 761.162 223.356C761.962 218.24 762.184 211.626 762.184 211.626L793.457 208.008L795.649 211.375Z" fill="#1A2E35" stroke="#1A2E35" stroke-miterlimit="10" stroke-linecap="round" stroke-linejoin="round"/>
<path d="M794.14 206.467L795.649 211.374C795.649 211.374 785.424 218.182 775.61 218.685C765.797 219.188 762.651 216.817 761.896 216.187C761.141 215.559 762.184 211.625 762.184 211.625C762.184 211.625 773.13 212.757 778.792 211.374C784.453 209.99 794.14 206.467 794.14 206.467Z" fill="#5AE4A8" stroke="#1A2E35" stroke-miterlimit="10" stroke-linecap="round" stroke-linejoin="round"/>
<path d="M761.916 196.855L756.942 202.212L755.603 203.647L762.107 205.465L762.777 197.047L761.916 196.855Z" fill="#5AE4A8" stroke="#1A2E35" stroke-miterlimit="10" stroke-linecap="round" stroke-linejoin="round"/>
<path d="M781.221 160.124C781.221 160.124 791.879 162.989 792.567 164.136C793.255 165.282 789.901 190.459 789.418 192.39C788.936 194.32 790.383 200.351 791.348 201.679C792.313 203.006 795.088 204.454 795.088 206.746C795.088 209.038 779.526 214.708 773.976 214.708C768.427 214.708 762.248 213.78 761.645 213.177C761.042 212.573 761.551 210.485 761.551 210.003C761.551 209.52 761.671 195.888 761.671 195.888C761.671 195.888 758.535 192.148 757.811 187.684C757.088 183.222 758.071 177.544 758.071 177.544C758.071 177.544 757.154 169.407 757.956 166.313C758.758 163.218 764.833 161.041 764.833 161.041C764.833 161.041 770.792 158.52 781.221 160.124Z" fill="#5AE4A8" stroke="#1A2E35" stroke-miterlimit="10" stroke-linecap="round" stroke-linejoin="round"/>
<path d="M772.394 194.266C771.334 193.734 770.018 192.896 768.532 191.575" stroke="#1A2E35" stroke-miterlimit="10" stroke-linecap="round" stroke-linejoin="round"/>
<path d="M775.204 195.184C775.204 195.184 774.705 195.163 773.827 194.868" stroke="#1A2E35" stroke-miterlimit="10" stroke-linecap="round" stroke-linejoin="round"/>
<path d="M762.797 160.144C762.797 160.144 761.632 163.486 762.487 165.04C763.341 166.595 766.605 166.828 766.605 166.828C766.605 166.828 766.295 165.895 766.994 164.185C767.693 162.476 768.859 159.756 768.859 159.756L762.797 160.144Z" fill="#1A2E35" stroke="#1A2E35" stroke-miterlimit="10" stroke-linecap="round" stroke-linejoin="round"/>
<path d="M755.103 149.266C755.103 149.266 755.259 151.909 755.725 152.53C756.191 153.152 757.513 152.53 757.746 154.24C757.979 155.95 758.056 158.825 758.678 159.058C759.3 159.292 761.01 158.981 761.01 158.981C761.01 158.981 763.885 161.623 764.74 162.012C765.595 162.4 765.828 162.478 766.45 162.012C767.071 161.545 768.703 160.302 768.703 160.302C768.703 160.302 767.46 163.877 767.926 164.965C768.393 166.053 770.103 167.84 772.045 166.053C773.988 164.266 775.154 160.224 775.154 160.224L770.024 145.691L755.958 142.35C755.958 142.35 754.404 148.178 755.103 149.266Z" fill="white" stroke="#1A2E35" stroke-miterlimit="10" stroke-linecap="round" stroke-linejoin="round"/>
<path d="M769.325 148.099C769.325 148.099 771.812 159.057 772.433 163.176C773.055 167.295 771.967 168.927 771.967 168.927C771.967 168.927 778.184 168.539 780.36 164.73C782.537 160.922 784.402 158.824 783.158 155.171C781.915 151.519 778.495 139.939 775.231 135.976C771.967 132.012 764.74 131.079 762.02 131.546C759.299 132.012 756.191 135.587 754.792 138.229C753.393 140.872 752.46 146.156 751.528 146.7C750.595 147.244 749.74 148.566 751.139 148.954C752.538 149.343 755.103 149.265 755.103 149.265C755.103 149.265 755.258 146.778 755.647 145.612C756.035 144.446 756.346 143.747 756.346 143.747C756.346 143.747 756.812 145.068 762.02 146.623C767.227 148.177 769.169 147.4 769.169 147.4L769.325 148.099Z" fill="#1A2E35" stroke="#1A2E35" stroke-miterlimit="10" stroke-linecap="round" stroke-linejoin="round"/>
<path d="M756.346 143.747C756.346 143.747 761.242 150.43 769.714 148.954" stroke="#1A2E35" stroke-miterlimit="10" stroke-linecap="round" stroke-linejoin="round"/>
<path d="M758.445 151.518C758.445 151.518 759.61 149.653 761.554 150.43" stroke="#1A2E35" stroke-miterlimit="10" stroke-linecap="round" stroke-linejoin="round"/>
<path d="M764.507 156.26C764.507 156.26 764.662 157.425 763.729 158.125" stroke="#1A2E35" stroke-miterlimit="10" stroke-linecap="round" stroke-linejoin="round"/>
<path d="M760.346 153.505C760.536 154.03 760.935 154.366 761.238 154.256C761.54 154.146 761.631 153.633 761.441 153.108C761.251 152.583 760.852 152.247 760.549 152.356C760.247 152.466 760.155 152.98 760.346 153.505Z" fill="#1A2E35"/>
<path d="M768.704 160.302L770.647 158.281L769.326 163.955L768.704 160.302Z" fill="#1A2E35" stroke="#1A2E35" stroke-miterlimit="10" stroke-linecap="round" stroke-linejoin="round"/>
<path d="M760.155 213.725L778.866 205.025L750.613 201.283L736.112 207.364L760.155 213.725Z" fill="#D2D2D2" stroke="#1A2E35" stroke-miterlimit="10" stroke-linecap="round" stroke-linejoin="round"/>
<path d="M759.449 212.077L773.205 205.681L752.433 202.929L741.773 207.4L759.449 212.077Z" fill="#838383" stroke="#1A2E35" stroke-miterlimit="10" stroke-linecap="round" stroke-linejoin="round"/>
<path d="M760.155 213.725L751.361 193.236L725.821 189.213L736.112 207.364L760.155 213.725Z" fill="#B4B4B4" stroke="#1A2E35" stroke-miterlimit="10" stroke-linecap="round" stroke-linejoin="round"/>
<path d="M749.397 208.673L751.549 211.573C751.549 211.573 750.8 212.415 750.145 212.134C749.49 211.854 748.087 208.111 749.397 208.673Z" fill="white" stroke="#1A2E35" stroke-miterlimit="10" stroke-linecap="round" stroke-linejoin="round"/>
<path d="M749.303 211.198C749.303 211.198 748.368 211.478 747.806 211.104C747.244 210.731 746.215 207.549 746.683 207.455C747.151 207.362 748.461 209.514 748.461 209.514L749.303 211.198Z" fill="white" stroke="#1A2E35" stroke-miterlimit="10" stroke-linecap="round" stroke-linejoin="round"/>
<path d="M747.806 211.104C747.806 211.104 745.468 210.45 745.093 210.075C744.719 209.701 743.971 206.146 744.719 206.613C745.468 207.082 746.497 209.701 746.497 209.701L747.806 211.104Z" fill="white" stroke="#1A2E35" stroke-miterlimit="10" stroke-linecap="round" stroke-linejoin="round"/>
<path d="M745.093 210.076C745.093 210.076 743.877 210.262 743.502 209.608C743.129 208.952 743.035 207.83 743.409 207.175C743.783 206.52 744.344 207.924 744.344 207.924L745.093 210.076Z" fill="white" stroke="#1A2E35" stroke-miterlimit="10" stroke-linecap="round" stroke-linejoin="round"/>
<path d="M786.149 162.531C786.149 162.531 792.682 162.989 793.942 163.907C795.203 164.824 803.653 189.978 804.135 193.235C804.618 196.492 803.532 196.854 802.929 196.854C802.326 196.854 788.212 201.438 786.522 201.8C784.833 202.162 784.472 201.921 783.868 201.438C783.265 200.955 780.37 197.457 781.215 195.406C782.059 193.355 783.507 192.993 783.507 192.993L792.675 189.615L785.461 176.742" fill="#5AE4A8"/>
<path d="M786.149 162.531C786.149 162.531 792.682 162.989 793.942 163.907C795.203 164.824 803.653 189.978 804.135 193.235C804.618 196.492 803.532 196.854 802.929 196.854C802.326 196.854 788.212 201.438 786.522 201.8C784.833 202.162 784.472 201.921 783.868 201.438C783.265 200.955 780.37 197.457 781.215 195.406C782.059 193.355 783.507 192.993 783.507 192.993L792.675 189.615L785.461 176.742" stroke="#1A2E35" stroke-miterlimit="10" stroke-linecap="round" stroke-linejoin="round"/>
<path d="M797 191.039C797 191.039 795.05 189.638 792.675 189.616" stroke="#1A2E35" stroke-miterlimit="10" stroke-linecap="round" stroke-linejoin="round"/>
<path d="M795.687 189.068C795.687 189.068 798.183 189.857 799.629 191.433" stroke="#1A2E35" stroke-miterlimit="10" stroke-linecap="round" stroke-linejoin="round"/>
<path d="M776.51 197.215C776.51 197.215 780.611 195.889 781.215 195.406C781.818 194.923 783.145 195.285 783.869 196.974C784.593 198.663 783.869 201.438 783.869 201.438L779.043 202.644C779.043 202.644 777.837 202.885 776.63 200.834C775.425 198.783 775.183 197.336 776.51 197.215Z" fill="#5AE4A8" stroke="#1A2E35" stroke-miterlimit="10" stroke-linecap="round" stroke-linejoin="round"/>
<path d="M766.067 200.443C766.067 200.443 763.68 201.426 763.54 202.058C763.399 202.69 762.627 205.358 762.697 205.92C762.767 206.481 762.697 206.762 763.329 206.621C763.961 206.481 764.733 205.007 765.295 203.602C765.857 202.198 766.559 200.373 766.559 200.373L766.067 200.443Z" fill="white" stroke="#1A2E35" stroke-miterlimit="10" stroke-linecap="round" stroke-linejoin="round"/>
<path d="M776.388 197.987C776.388 197.987 778.705 199.601 778.775 200.585C778.845 201.568 776.318 203.182 774.703 203.744C773.089 204.306 770.842 204.306 770.561 204.306C770.28 204.306 766.278 206.974 765.295 207.395C764.312 207.816 764.031 207.184 764.031 207.184C764.031 207.184 763.258 207.044 763.329 206.622C763.399 206.201 763.961 205.359 763.961 205.359C763.961 205.359 764.312 203.954 764.733 202.34C765.154 200.725 767.331 199.601 768.104 199.461C768.876 199.321 774.422 197.284 776.388 197.987Z" fill="white" stroke="#1A2E35" stroke-miterlimit="10" stroke-linecap="round" stroke-linejoin="round"/>
<path d="M769.578 202.76C769.578 202.76 767.612 203.532 767.331 203.813C767.05 204.094 764.031 207.183 764.031 207.183" stroke="#1A2E35" stroke-miterlimit="10" stroke-linecap="round" stroke-linejoin="round"/>
<path d="M767.893 201.146L763.961 205.359" stroke="#1A2E35" stroke-miterlimit="10" stroke-linecap="round" stroke-linejoin="round"/>
<path d="M462.391 190.213L459.821 190.045L458.425 194.234L464.234 197.196L467.92 191.055L462.391 190.213Z" fill="#C3C3C3" stroke="#1A2E35" stroke-miterlimit="10" stroke-linecap="round" stroke-linejoin="round"/>
<path d="M428.131 175.795L433.959 181.626L459.822 190.043L458.424 194.233L428.268 189.611L428.131 175.795Z" fill="#5AE4A8" stroke="#1A2E35" stroke-miterlimit="10"/>
<path d="M411.867 137.677C411.867 137.677 411.69 142.627 411.16 145.985C410.63 149.344 410.453 150.758 410.453 150.758L420.175 154.47C420.175 154.47 419.292 147.753 420.529 144.925C421.766 142.097 421.943 140.152 421.943 140.152C421.943 140.152 418.761 132.374 415.402 131.844C412.044 131.314 411.867 137.677 411.867 137.677Z" fill="#C3C3C3" stroke="#1A2E35" stroke-miterlimit="10"/>
<path d="M425.125 123.359C425.125 123.359 426.893 121.768 424.595 116.465C422.297 111.162 411.16 111.515 405.857 116.288C400.554 121.061 398.787 129.546 403.383 135.025C407.978 140.506 413.459 141.212 416.994 139.091C420.529 136.97 420.883 132.904 420.883 131.313C420.883 129.722 419.645 125.834 421.413 124.773C423.181 123.712 425.125 123.359 425.125 123.359Z" fill="#1A2E35" stroke="#1A2E35" stroke-miterlimit="10"/>
<path d="M424.595 122.121C424.595 122.121 416.287 126.01 416.287 127.424C416.287 128.839 419.822 129.368 418.761 131.136C417.701 132.904 416.994 133.611 416.994 133.611C416.994 133.611 418.408 136.086 417.17 136.439C415.933 136.792 415.403 136.792 414.165 135.025C412.928 133.257 411.69 132.374 411.337 135.379C410.983 138.383 412.398 138.914 413.458 139.091C414.519 139.267 415.933 139.091 415.933 139.091C415.933 139.091 417.701 143.333 418.938 143.864C420.176 144.394 426.186 145.101 427.423 143.687C428.661 142.273 427.777 135.909 427.777 135.909C427.777 135.909 429.544 135.555 429.544 133.964C429.544 132.374 426.716 130.076 426.716 130.076C426.716 130.076 427.423 129.015 426.892 126.54C426.362 124.065 424.595 122.121 424.595 122.121Z" fill="#C3C3C3" stroke="#1A2E35" stroke-miterlimit="10"/>
<path d="M424.841 130.86C424.841 131.417 424.615 131.869 424.336 131.869C424.057 131.869 423.831 131.417 423.831 130.86C423.831 130.302 424.057 129.85 424.336 129.85C424.615 129.85 424.841 130.302 424.841 130.86Z" fill="#1A2E35"/>
<path d="M422.598 129.057C422.598 129.057 422.863 127.561 425.15 127.825" stroke="#1A2E35" stroke-miterlimit="10" stroke-linecap="round" stroke-linejoin="round"/>
<path d="M425.59 138.208C425.59 138.208 424.182 138.12 423.391 137.064" stroke="#1A2E35" stroke-miterlimit="10" stroke-linecap="round" stroke-linejoin="round"/>
<path d="M402.138 292.456C402.138 292.456 403.984 296.609 405.83 297.992C407.675 299.377 411.136 299.146 411.597 301.454C412.058 303.761 410.213 303.991 408.598 303.991C406.983 303.991 401.908 303.991 400.984 303.761C400.061 303.53 395.678 301.684 392.91 299.377C390.141 297.07 389.449 297.301 391.525 292.917C393.602 288.534 402.138 292.456 402.138 292.456Z" fill="#5AE4A8" stroke="#1A2E35" stroke-miterlimit="10"/>
<path d="M411.658 301.898C409.425 302.294 405.033 302.834 401.176 301.87C397.304 300.901 392.755 297.459 390.451 295.555C389.966 297.351 390.874 297.68 392.91 299.377C395.678 301.683 400.061 303.529 400.984 303.76C401.908 303.991 406.983 303.991 408.597 303.991C410.101 303.991 411.803 303.788 411.658 301.898Z" fill="white" stroke="#1A2E35" stroke-miterlimit="10"/>
<path d="M409.059 217.092C409.059 217.092 405.888 243.667 403.35 250.358C400.812 257.049 396.997 261.283 396.074 266.358C395.151 271.434 391.525 292.916 391.525 292.916C391.525 292.916 393.832 295.224 395.447 294.993C397.062 294.762 401.907 295.454 403.291 292.916C404.676 290.379 405.022 286.255 405.252 285.563C405.483 284.87 415.175 266.166 417.482 258.783C419.789 251.4 427.225 220.893 426.994 217.202" fill="#1A2E35"/>
<path d="M409.059 217.092C409.059 217.092 405.888 243.667 403.35 250.358C400.812 257.049 396.997 261.283 396.074 266.358C395.151 271.434 391.525 292.916 391.525 292.916C391.525 292.916 393.832 295.224 395.447 294.993C397.062 294.762 401.907 295.454 403.291 292.916C404.676 290.379 405.022 286.255 405.252 285.563C405.483 284.87 415.175 266.166 417.482 258.783C419.789 251.4 427.225 220.893 426.994 217.202" stroke="#1A2E35" stroke-miterlimit="10"/>
<path d="M407.368 198.863C407.368 198.863 404.54 207.171 405.6 214.596C406.661 222.02 414.969 225.732 420.802 224.671C426.635 223.611 430.605 219.545 430.605 212.475C430.605 205.404 429.721 199.393 429.721 199.393C429.721 199.393 418.327 202.929 407.368 198.863Z" fill="#1A2E35" stroke="#1A2E35" stroke-miterlimit="10"/>
<path d="M409.515 147.686C409.515 147.686 404.212 157.584 403.858 165.539C403.504 173.494 407.368 198.863 407.368 198.863C407.368 198.863 408.959 202.045 416.56 202.398C424.16 202.752 429.721 200.1 429.721 200.1C429.721 200.1 430.196 184.983 430.196 175.438C430.196 165.893 422.772 151.751 422.772 151.751L409.515 147.686Z" fill="#5AE4A8" stroke="#1A2E35" stroke-miterlimit="10"/>
<path d="M405.422 169.698C405.422 169.698 405.888 175.296 412.651 175.995" stroke="#1A2E35" stroke-miterlimit="10" stroke-linecap="round" stroke-linejoin="round"/>
<path d="M407.287 177.162C407.287 177.162 410.785 179.495 415.45 178.562" stroke="#1A2E35" stroke-miterlimit="10" stroke-linecap="round" stroke-linejoin="round"/>
<path d="M409.65 199.203C409.65 199.203 416.414 193.373 419.912 188.009" stroke="#1A2E35" stroke-miterlimit="10" stroke-linecap="round" stroke-linejoin="round"/>
<path d="M419.212 193.605C419.212 193.605 413.382 199.67 411.283 200.369" stroke="#1A2E35" stroke-miterlimit="10" stroke-linecap="round" stroke-linejoin="round"/>
<path d="M408.454 148.038L424.187 154.402L423.302 149.276L409.338 143.442L408.454 148.038Z" fill="white" stroke="#1A2E35" stroke-miterlimit="10"/>
<path d="M428.438 298.684C428.438 298.684 433.053 301.452 435.59 302.606C438.129 303.76 438.359 303.529 438.359 305.145C438.359 306.759 438.59 306.99 434.437 306.99C430.284 306.99 418.287 307.221 417.134 306.298C415.98 305.375 426.824 297.992 428.438 298.684Z" fill="#5AE4A8" stroke="#1A2E35" stroke-miterlimit="10"/>
<path d="M434.437 306.99C438.325 306.99 438.37 306.788 438.361 305.437C426.536 305.797 420.771 305.35 417.971 304.827C417.237 305.538 416.871 306.087 417.134 306.298C418.288 307.22 430.284 306.99 434.437 306.99Z" fill="white"/>
<path d="M434.437 306.99C438.325 306.99 438.37 306.788 438.361 305.437C426.536 305.797 420.771 305.35 417.971 304.827C417.237 305.538 416.871 306.087 417.134 306.298C418.288 307.22 430.284 306.99 434.437 306.99Z" stroke="#1A2E35" stroke-miterlimit="10"/>
<path d="M407.675 217.553C407.675 217.553 409.29 233.472 411.366 240.394C413.442 247.315 413.442 250.314 412.751 256.313C412.058 262.311 409.752 267.848 411.366 273.385C412.981 278.922 416.211 302.607 416.211 303.529C416.211 304.452 415.981 305.836 417.134 306.298C418.287 306.759 428.208 300.069 428.438 298.685C428.669 297.3 426.824 293.147 426.824 289.456C426.824 285.765 427.978 264.156 427.978 253.775C427.978 243.393 432.797 221.125 429.106 211.896" fill="#1A2E35"/>
<path d="M407.675 217.553C407.675 217.553 409.29 233.472 411.366 240.394C413.442 247.315 413.442 250.314 412.751 256.313C412.058 262.311 409.752 267.848 411.366 273.385C412.981 278.922 416.211 302.607 416.211 303.529C416.211 304.452 415.981 305.836 417.134 306.298C418.287 306.759 428.208 300.069 428.438 298.685C428.669 297.3 426.824 293.147 426.824 289.456C426.824 285.765 427.978 264.156 427.978 253.775C427.978 243.393 432.797 221.125 429.106 211.896" stroke="#1A2E35" stroke-miterlimit="10"/>
<path d="M408.984 227.598C408.984 227.598 410.074 235.344 411.366 240.393C412.659 245.443 413.971 247.805 412.396 254.104C410.821 260.402 410.296 262.501 411.084 265.651" stroke="white" stroke-miterlimit="10" stroke-linecap="round" stroke-linejoin="round"/>
<path d="M469.074 153.41C469.074 135.967 483.215 121.826 500.658 121.826C518.102 121.826 532.242 135.967 532.242 153.41C532.242 170.854 518.102 184.994 500.658 184.994C483.215 184.994 469.074 170.854 469.074 153.41Z" stroke="#1A2E35" stroke-width="7" stroke-miterlimit="10" stroke-linecap="round" stroke-linejoin="round"/>
<path d="M480.821 179.758L446.47 220.156C444.978 221.912 442.343 222.125 440.588 220.632C438.832 219.139 438.619 216.505 440.112 214.749C440.176 214.674 440.249 214.595 440.317 214.525L477.516 176.733C478.384 175.851 479.803 175.84 480.686 176.708C481.527 177.537 481.571 178.872 480.821 179.758Z" fill="#1A2E35"/>
<path d="M411.569 157.252C411.569 157.252 408.339 161.866 409.031 166.48C409.723 171.094 419.902 191.252 421.056 192.867C422.21 194.482 429.823 196.097 430.516 189.637C431.207 183.177 422.412 167.173 421.028 162.558C419.644 157.944 416.645 157.021 416.645 157.021" fill="#5AE4A8"/>
<path d="M411.569 157.252C411.569 157.252 408.339 161.866 409.031 166.48C409.723 171.094 419.902 191.252 421.056 192.867C422.21 194.482 429.823 196.097 430.516 189.637C431.207 183.177 422.412 167.173 421.028 162.558C419.644 157.944 416.645 157.021 416.645 157.021" stroke="#1A2E35" stroke-miterlimit="10"/>
<path d="M428.797 184.811C428.797 184.811 435.56 185.666 440.298 188.532C445.035 191.397 455.149 195.34 455.149 195.34L454.065 199.808C454.065 199.808 442.475 199.31 435.437 198.02C428.398 196.727 423.85 196.109 421.252 192.38" fill="#5AE4A8"/>
<path d="M428.797 184.811C428.797 184.811 435.56 185.666 440.298 188.532C445.035 191.397 455.149 195.34 455.149 195.34L454.065 199.808C454.065 199.808 442.475 199.31 435.437 198.02C428.398 196.727 423.85 196.109 421.252 192.38" stroke="#1A2E35" stroke-miterlimit="10"/>
<path d="M455.149 195.342C455.149 195.342 458.858 195.29 459.454 194.694C460.05 194.099 465.888 197.791 465.888 197.791C465.888 197.791 466.126 198.744 465.531 199.102C464.935 199.46 464.101 199.698 464.101 199.698C464.101 199.698 462.551 202.438 461.598 202.796C460.645 203.153 458.024 202.558 456.832 202.081C455.641 201.605 454.065 199.809 454.065 199.809L455.149 195.342Z" fill="#C3C3C3" stroke="#1A2E35" stroke-miterlimit="10" stroke-linecap="round" stroke-linejoin="round"/>
<path d="M469.431 193.671L467.188 192.625C466.787 192.438 466.613 191.961 466.801 191.56L466.854 191.444C467.042 191.043 467.519 190.869 467.92 191.056L470.162 192.101C470.564 192.288 470.738 192.765 470.551 193.166L470.497 193.283C470.31 193.684 469.832 193.857 469.431 193.671Z" fill="#C3C3C3" stroke="#1A2E35" stroke-miterlimit="10" stroke-linecap="round" stroke-linejoin="round"/>
<path d="M466.118 197.78L464.942 197.232C464.54 197.045 464.366 196.567 464.553 196.167C464.741 195.765 465.218 195.591 465.619 195.778L466.796 196.327C467.197 196.514 467.37 196.991 467.184 197.392C466.997 197.794 466.519 197.967 466.118 197.78Z" fill="#C3C3C3" stroke="#1A2E35" stroke-miterlimit="10" stroke-linecap="round" stroke-linejoin="round"/>
<path d="M467.002 196.406L465.278 195.602C464.877 195.415 464.703 194.938 464.89 194.537L464.899 194.516C465.087 194.115 465.564 193.941 465.965 194.128L467.689 194.932C468.091 195.119 468.264 195.595 468.078 195.997L468.068 196.018C467.881 196.419 467.404 196.593 467.002 196.406Z" fill="#C3C3C3" stroke="#1A2E35" stroke-miterlimit="10" stroke-linecap="round" stroke-linejoin="round"/>
<path d="M468.034 195.235L465.792 194.19C465.391 194.003 465.217 193.526 465.404 193.124L465.458 193.009C465.645 192.607 466.122 192.433 466.523 192.62L468.766 193.665C469.168 193.852 469.341 194.33 469.154 194.731L469.1 194.848C468.913 195.249 468.436 195.422 468.034 195.235Z" fill="#C3C3C3" stroke="#1A2E35" stroke-miterlimit="10" stroke-linecap="round" stroke-linejoin="round"/>
<path d="M460.883 190.603C460.883 190.603 465.253 188.93 465.611 188.81C465.97 188.691 469.196 190.483 469.196 190.483C469.196 190.483 468.837 192.634 468.598 193.231C468.359 193.829 467.284 194.187 467.045 193.351C466.806 192.514 466.806 191.797 466.806 191.797C466.806 191.797 465.492 192.395 464.416 192.514C463.341 192.634 461.788 192.156 461.788 192.156" fill="#C3C3C3"/>
<path d="M460.883 190.603C460.883 190.603 465.253 188.93 465.611 188.81C465.97 188.691 469.196 190.483 469.196 190.483C469.196 190.483 468.837 192.634 468.598 193.231C468.359 193.829 467.284 194.187 467.045 193.351C466.806 192.514 466.806 191.797 466.806 191.797C466.806 191.797 465.492 192.395 464.416 192.514C463.341 192.634 461.788 192.156 461.788 192.156" stroke="#1A2E35" stroke-miterlimit="10" stroke-linecap="round" stroke-linejoin="round"/>
</svg>
