<svg width="2500" height="2018" viewBox="0 0 2500 2018" fill="none" xmlns="http://www.w3.org/2000/svg">
<g clip-path="url(#clip0_2991_3965)">
<mask id="mask0_2991_3965" style="mask-type:luminance" maskUnits="userSpaceOnUse" x="0" y="0" width="2500" height="2018">
<path d="M2500 0H0V2018H2500V0Z" fill="white"/>
</mask>
<g mask="url(#mask0_2991_3965)">
<mask id="mask1_2991_3965" style="mask-type:luminance" maskUnits="userSpaceOnUse" x="0" y="0" width="2500" height="2018">
<path d="M2500 0H0V2018H2500V0Z" fill="white"/>
</mask>
<g mask="url(#mask1_2991_3965)">
<path d="M1949.08 1675.7C1911.51 1715.06 1875.97 1740.44 1847.88 1760.49C1517.76 1996.22 1127.14 1927.51 1044.12 1910.73C921.526 1885.95 684.558 1838.05 513.236 1637.54C254.038 1334.19 294.399 856.27 495.45 540.793C532.226 483.086 726.484 162.799 1121.31 111.436C1360.26 80.3511 1638.79 143.045 1840.5 311.226C2263.9 664.252 2233.76 1377.43 1949.08 1675.7Z" fill="#EFEFF4"/>
<path d="M614.406 111.264C619.073 98.0837 631.776 102.38 641.405 112.231C1168.63 651.523 1247.49 1548.96 1042 1777.9C1042 1777.9 105.968 1547.23 614.406 111.264Z" fill="#CBE8DA"/>
<path d="M797.713 1163.82C792.018 1156.59 786.193 1149.37 780.19 1142.11C778.009 1135.06 775.818 1127.98 773.618 1120.87C767.105 1099.72 761.215 1078.07 754.894 1056.38C748.961 1034.56 743.108 1012.53 737.323 990.38C734.6 979.26 731.872 968.11 729.143 956.95C726.429 945.79 723.659 934.63 721.203 923.39C716.177 900.93 710.918 878.53 706.37 856.04C704.02 844.81 701.673 833.61 699.334 822.43C697.152 811.22 694.975 800.05 692.807 788.91C684.072 744.396 676.567 700.327 669.516 657.642C662.854 614.873 656.834 573.442 651.826 534.026C646.626 494.646 642.491 457.276 638.759 422.771C631.641 353.701 627.506 295.878 625.104 255.353C623.969 235.078 623.275 219.129 622.966 208.225C622.758 202.82 622.744 198.465 622.68 195.624C622.722 192.801 622.744 191.343 622.744 191.343C622.76 190.364 623.566 189.539 624.547 189.497C624.572 189.496 624.596 189.496 624.621 189.496C625.552 189.496 626.287 190.22 626.294 191.153L626.296 191.353C626.296 191.353 626.305 192.804 626.326 195.613C626.463 198.389 626.562 202.388 626.891 207.843C627.409 218.681 628.555 234.557 630.004 254.755C631.566 274.941 633.533 299.445 636.275 327.484C638.865 355.544 642.435 387.103 646.24 421.537C650.317 455.927 654.824 493.169 660.416 532.4C665.77 571.678 672.347 612.911 679.227 655.538C686.407 698.1 694.044 742.036 702.908 786.41C705.107 797.5 707.317 808.64 709.531 819.82C711.903 830.95 714.281 842.11 716.663 853.3C721.275 875.72 726.597 898.03 731.683 920.41C736.743 942.79 742.602 964.94 747.886 987.17C753.566 1009.27 759.314 1031.26 765.142 1053.04C771.357 1074.68 777.142 1096.29 783.549 1117.4C786.768 1127.95 789.968 1138.44 793.144 1148.85C794.673 1153.86 796.196 1158.85 797.713 1163.82Z" fill="#E8E9ED"/>
<path d="M356.978 820.219C360.451 959.089 406.407 1762.92 1005.01 1767.65C1005.01 1767.65 1081.47 1214.84 370.511 807.729C364.291 804.169 356.752 811.139 356.978 820.219Z" fill="#94CFB3"/>
<path d="M957.406 1747.53C956.14 1747.53 954.858 1747.19 953.695 1746.49L953.648 1746.46C953.648 1746.46 950.289 1744.4 943.99 1740.53C940.843 1738.59 936.96 1736.2 932.395 1733.4C927.832 1730.59 922.512 1727.47 917.009 1723.32C911.407 1719.32 905.204 1714.89 898.45 1710.06C896.766 1708.86 895.047 1707.62 893.292 1706.36C891.619 1705.01 889.915 1703.62 888.178 1702.21C884.707 1699.39 881.11 1696.47 877.394 1693.45C873.679 1690.44 869.846 1687.32 865.899 1684.11C862.009 1680.85 858.236 1677.23 854.238 1673.66C850.27 1670.05 846.2 1666.35 842.034 1662.57C839.966 1660.66 837.811 1658.79 835.747 1656.79C833.717 1654.76 831.664 1652.7 829.59 1650.62C825.443 1646.46 821.21 1642.21 816.895 1637.88C812.566 1633.57 808.151 1629.18 803.967 1624.43C802.16 1622.45 800.341 1620.45 798.508 1618.44C798.017 1617.1 797.014 1615.98 795.691 1615.35C794.126 1613.63 792.552 1611.91 790.968 1610.17C786.567 1605.34 782.041 1600.49 777.801 1595.28C760.32 1574.87 742.558 1552.79 725.189 1529.23C716.576 1517.4 707.643 1505.49 699.279 1492.97C695.018 1486.77 690.733 1480.53 686.426 1474.25C682.192 1467.93 678.105 1461.47 673.908 1455.04C669.763 1448.58 665.483 1442.17 661.405 1435.61C657.363 1429.02 653.309 1422.42 649.246 1415.8C640.986 1402.65 633.336 1389.07 625.43 1375.64C617.557 1362.19 610.19 1348.46 602.577 1334.94C595.262 1321.26 587.926 1307.65 580.863 1294.05C566.849 1266.78 553.354 1239.79 540.979 1213.36C528.42 1187.01 516.952 1161.23 506.203 1136.73C495.574 1112.18 485.794 1088.86 477.087 1067.2C442.122 980.609 423.185 921.21 423.185 921.21C422.668 919.61 423.546 917.89 425.147 917.38C425.456 917.28 425.77 917.229 426.078 917.229C427.359 917.229 428.553 918.05 428.979 919.32C428.979 919.32 433.81 934.03 443.092 959.57C447.747 972.32 453.489 987.779 460.326 1005.42C467.144 1023.06 475.024 1042.9 483.928 1064.41C492.792 1085.94 502.74 1109.12 513.543 1133.5C524.463 1157.84 536.11 1183.45 548.845 1209.6C561.398 1235.85 575.068 1262.62 589.25 1289.66C596.396 1303.15 603.811 1316.63 611.206 1330.19C618.896 1343.58 626.34 1357.19 634.283 1370.5C642.26 1383.79 649.979 1397.23 658.298 1410.23C662.391 1416.78 666.474 1423.31 670.546 1429.81C674.651 1436.3 678.956 1442.63 683.127 1449.01C687.346 1455.36 691.459 1461.74 695.714 1467.99C700.039 1474.17 704.344 1480.33 708.622 1486.46C717.026 1498.81 725.978 1510.53 734.612 1522.19C752.017 1545.39 769.772 1567.08 787.206 1587.1C789.846 1590.3 792.591 1593.34 795.347 1596.33C795.831 1597.41 796.658 1598.33 797.742 1598.91C798.607 1599.84 799.469 1600.77 800.327 1601.69C804.708 1606.42 809.022 1611.07 813.266 1615.65C817.43 1620.3 821.813 1624.59 826.111 1628.8C830.393 1633.02 834.594 1637.16 838.709 1641.23C840.767 1643.26 842.802 1645.27 844.815 1647.25C846.863 1649.2 848.992 1651.02 851.039 1652.87C855.16 1656.55 859.186 1660.15 863.111 1663.66C867.063 1667.13 870.796 1670.65 874.634 1673.82C878.525 1676.93 882.303 1679.95 885.964 1682.87C889.624 1685.79 893.167 1688.62 896.587 1691.35C898.295 1692.72 899.974 1694.06 901.621 1695.37C903.342 1696.58 905.03 1697.77 906.685 1698.94C913.309 1703.59 919.393 1707.86 924.888 1711.71C930.287 1715.72 935.482 1718.7 939.938 1721.39C944.393 1724.08 948.184 1726.36 951.256 1728.22C957.399 1731.93 960.675 1733.91 960.675 1733.91L961.13 1734.19C964.528 1736.24 965.619 1740.66 963.566 1744.06C962.215 1746.29 959.84 1747.53 957.406 1747.53Z" fill="#DFE0E6"/>
<path d="M1890.83 1431.22C1888.39 1431.22 1886.16 1429.59 1885.5 1427.12C1884.76 1424.32 1883.99 1421.52 1883.19 1418.75C1882.35 1415.82 1884.03 1412.77 1886.96 1411.92C1887.47 1411.78 1887.98 1411.71 1888.48 1411.71C1890.88 1411.71 1893.08 1413.27 1893.78 1415.69C1894.61 1418.55 1895.4 1421.42 1896.16 1424.3C1896.94 1427.25 1895.18 1430.26 1892.24 1431.04C1891.77 1431.16 1891.29 1431.22 1890.83 1431.22Z" fill="#FCFCFD"/>
<path d="M1505.67 1930.11H1505.65C1499.72 1930.09 1493.67 1929.94 1487.66 1929.66C1484.62 1929.52 1482.27 1926.93 1482.42 1923.89C1482.55 1920.94 1485.07 1918.64 1487.93 1918.64C1488.01 1918.64 1488.1 1918.65 1488.18 1918.65C1494.03 1918.92 1499.92 1919.07 1505.69 1919.09C1508.73 1919.1 1511.19 1921.58 1511.18 1924.62C1511.17 1927.66 1508.7 1930.11 1505.67 1930.11ZM1534.49 1929.17C1531.62 1929.17 1529.2 1926.95 1528.99 1924.04C1528.78 1921 1531.08 1918.37 1534.11 1918.16C1539.93 1917.76 1545.79 1917.22 1551.54 1916.56C1551.76 1916.54 1551.98 1916.52 1552.2 1916.52C1554.96 1916.52 1557.32 1918.61 1557.64 1921.41C1557.99 1924.44 1555.82 1927.17 1552.79 1927.51C1546.88 1928.19 1540.85 1928.74 1534.87 1929.16C1534.75 1929.17 1534.62 1929.17 1534.49 1929.17ZM1459.17 1927.26C1458.95 1927.26 1458.73 1927.25 1458.51 1927.23C1452.56 1926.51 1446.56 1925.66 1440.68 1924.69C1438.78 1924.38 1437.27 1923.13 1436.54 1921.49C1445.13 1920.25 1453.83 1918.89 1462.55 1917.4C1464.02 1918.55 1464.87 1920.42 1464.63 1922.41C1464.3 1925.21 1461.92 1927.26 1459.17 1927.26Z" fill="white"/>
<path d="M1436.54 1921.49C1436.12 1920.54 1435.96 1919.46 1436.14 1918.36C1436.58 1915.66 1438.93 1913.75 1441.58 1913.75C1441.88 1913.75 1442.17 1913.77 1442.47 1913.82C1448.19 1914.76 1454.03 1915.59 1459.82 1916.28C1460.85 1916.41 1461.78 1916.81 1462.55 1917.4C1453.83 1918.89 1445.13 1920.25 1436.54 1921.49Z" fill="#FCFCFD"/>
<path d="M1580.67 1923.23C1578.08 1923.23 1575.77 1921.39 1575.27 1918.74C1574.7 1915.75 1576.67 1912.87 1579.66 1912.3C1585.35 1911.23 1591.11 1910 1596.77 1908.67C1597.2 1908.56 1597.63 1908.51 1598.05 1908.51C1600.54 1908.51 1602.8 1910.23 1603.4 1912.76C1604.1 1915.72 1602.27 1918.69 1599.31 1919.39C1593.48 1920.77 1587.56 1922.02 1581.71 1923.13C1581.36 1923.2 1581.01 1923.23 1580.67 1923.23Z" fill="white"/>
<path d="M1413.3 1919.05C1412.88 1919.05 1412.44 1919 1412.01 1918.9C1406.21 1917.51 1400.36 1915.96 1394.6 1914.3C1391.68 1913.46 1389.99 1910.41 1390.83 1907.48C1391.53 1905.07 1393.72 1903.49 1396.12 1903.49C1396.63 1903.49 1397.14 1903.56 1397.65 1903.71C1403.25 1905.32 1408.95 1906.83 1414.58 1908.18C1417.55 1908.89 1419.37 1911.87 1418.66 1914.83C1418.05 1917.36 1415.79 1919.05 1413.3 1919.05Z" fill="#FCFCFD"/>
<path d="M1625.81 1911.9C1623.47 1911.9 1621.3 1910.4 1620.56 1908.05C1619.64 1905.14 1621.26 1902.05 1624.16 1901.13C1629.7 1899.39 1635.26 1897.5 1640.7 1895.52C1641.32 1895.29 1641.96 1895.18 1642.59 1895.18C1644.84 1895.18 1646.95 1896.57 1647.76 1898.81C1648.8 1901.67 1647.33 1904.83 1644.47 1905.87C1638.89 1907.91 1633.17 1909.85 1627.47 1911.65C1626.92 1911.82 1626.36 1911.9 1625.81 1911.9Z" fill="white"/>
<path d="M1368.71 1905.52C1368.08 1905.52 1367.44 1905.41 1366.8 1905.18C1361.21 1903.11 1355.57 1900.89 1350.06 1898.56C1347.25 1897.38 1345.94 1894.15 1347.12 1891.35C1348.01 1889.24 1350.05 1887.97 1352.2 1887.97C1352.91 1887.97 1353.64 1888.11 1354.34 1888.41C1359.7 1890.67 1365.18 1892.83 1370.62 1894.84C1373.48 1895.89 1374.94 1899.06 1373.88 1901.92C1373.06 1904.14 1370.96 1905.52 1368.71 1905.52Z" fill="#FCFCFD"/>
<path d="M1669.28 1895.35C1667.18 1895.35 1665.17 1894.14 1664.25 1892.1C1663 1889.32 1664.24 1886.06 1667.02 1884.81C1672.31 1882.43 1677.62 1879.9 1682.8 1877.28C1683.59 1876.88 1684.44 1876.69 1685.27 1876.69C1687.29 1876.69 1689.23 1877.8 1690.2 1879.72C1691.57 1882.44 1690.48 1885.75 1687.76 1887.12C1682.44 1889.81 1676.98 1892.41 1671.54 1894.86C1670.81 1895.19 1670.04 1895.35 1669.28 1895.35Z" fill="white"/>
<path d="M1326.04 1886.83C1325.19 1886.83 1324.34 1886.63 1323.54 1886.22C1318.19 1883.49 1312.86 1880.62 1307.69 1877.68C1305.04 1876.17 1304.12 1872.81 1305.62 1870.16C1306.64 1868.38 1308.5 1867.38 1310.42 1867.38C1311.34 1867.38 1312.28 1867.61 1313.14 1868.1C1318.16 1870.96 1323.35 1873.75 1328.55 1876.41C1331.26 1877.79 1332.33 1881.11 1330.95 1883.82C1329.97 1885.73 1328.04 1886.83 1326.04 1886.83Z" fill="#FCFCFD"/>
<path d="M1710.53 1873.81C1708.66 1873.81 1706.83 1872.85 1705.8 1871.13C1704.23 1868.52 1705.08 1865.13 1707.69 1863.57C1712.69 1860.57 1717.67 1857.44 1722.5 1854.25C1723.43 1853.62 1724.49 1853.33 1725.53 1853.33C1727.32 1853.33 1729.07 1854.2 1730.13 1855.8C1731.81 1858.34 1731.11 1861.76 1728.58 1863.44C1723.62 1866.72 1718.5 1869.94 1713.36 1873.02C1712.47 1873.55 1711.5 1873.81 1710.53 1873.81ZM1749 1847.59C1747.35 1847.59 1745.72 1846.85 1744.63 1845.44C1742.78 1843.03 1743.22 1839.57 1745.63 1837.71C1750.24 1834.16 1754.82 1830.47 1759.26 1826.72C1760.29 1825.85 1761.55 1825.42 1762.81 1825.42C1764.38 1825.42 1765.93 1826.09 1767.02 1827.38C1768.99 1829.71 1768.69 1833.18 1766.37 1835.15C1761.81 1838.99 1757.1 1842.79 1752.36 1846.44C1751.36 1847.21 1750.18 1847.59 1749 1847.59ZM1784.17 1817.06C1782.74 1817.06 1781.31 1816.51 1780.23 1815.4C1778.1 1813.22 1778.15 1809.73 1780.33 1807.61C1783.11 1804.89 1785.88 1802.1 1788.6 1799.29C1791.74 1797.41 1794.92 1795.48 1798.05 1793.55C1798.89 1793.78 1799.69 1794.21 1800.37 1794.85C1802.59 1796.93 1802.71 1800.42 1800.62 1802.64C1796.53 1807 1792.29 1811.32 1788.02 1815.5C1786.95 1816.54 1785.56 1817.06 1784.17 1817.06Z" fill="white"/>
<path d="M1788.6 1799.29C1789.94 1797.9 1791.27 1796.5 1792.58 1795.1C1793.67 1793.94 1795.13 1793.36 1796.6 1793.36C1797.09 1793.36 1797.58 1793.42 1798.05 1793.55C1794.92 1795.48 1791.74 1797.41 1788.6 1799.29Z" fill="#FCFCFD"/>
<path d="M1815.56 1782.64H1815.34C1817.36 1781.33 1819.37 1780.02 1821.38 1778.69C1820.87 1779.33 1820.36 1779.96 1819.84 1780.6C1818.75 1781.94 1817.16 1782.64 1815.56 1782.64Z" fill="white"/>
<path d="M1815.34 1782.64C1814.19 1782.59 1813.05 1782.19 1812.09 1781.41C1809.73 1779.5 1809.36 1776.03 1811.28 1773.66C1814.94 1769.14 1818.55 1764.48 1822 1759.8C1823.08 1758.34 1824.75 1757.57 1826.43 1757.57C1827.57 1757.57 1828.72 1757.92 1829.71 1758.65C1832.15 1760.45 1832.67 1763.91 1830.86 1766.35C1827.8 1770.5 1824.62 1774.64 1821.38 1778.69C1819.37 1780.02 1817.36 1781.33 1815.34 1782.64ZM1842.72 1744.77C1841.71 1744.77 1840.7 1744.5 1839.78 1743.92C1837.21 1742.29 1836.44 1738.89 1838.07 1736.32C1841.17 1731.4 1844.21 1726.35 1847.09 1721.29C1848.11 1719.51 1849.97 1718.51 1851.89 1718.51C1852.81 1718.51 1853.75 1718.75 1854.61 1719.24C1857.25 1720.75 1858.17 1724.11 1856.67 1726.76C1853.7 1731.95 1850.57 1737.15 1847.38 1742.21C1846.33 1743.86 1844.55 1744.77 1842.72 1744.77ZM1865.26 1703.96C1864.47 1703.96 1863.66 1703.79 1862.89 1703.42C1860.15 1702.11 1858.98 1698.82 1860.29 1696.08C1862.81 1690.82 1865.23 1685.43 1867.49 1680.08C1868.38 1677.98 1870.43 1676.72 1872.58 1676.72C1873.29 1676.72 1874.02 1676.86 1874.72 1677.15C1877.52 1678.34 1878.83 1681.57 1877.64 1684.38C1875.31 1689.88 1872.82 1695.41 1870.24 1700.83C1869.29 1702.81 1867.32 1703.96 1865.26 1703.96ZM1882.83 1660.79C1882.25 1660.79 1881.65 1660.7 1881.06 1660.5C1878.18 1659.52 1876.64 1656.39 1877.61 1653.51C1879.48 1648 1881.25 1642.38 1882.86 1636.81C1883.56 1634.4 1885.77 1632.84 1888.16 1632.84C1888.66 1632.84 1889.18 1632.91 1889.69 1633.06C1892.61 1633.9 1894.29 1636.96 1893.45 1639.88C1891.79 1645.61 1889.97 1651.38 1888.05 1657.05C1887.27 1659.34 1885.13 1660.79 1882.83 1660.79ZM1895.18 1615.9C1894.8 1615.9 1894.41 1615.85 1894.03 1615.77C1891.05 1615.14 1889.15 1612.21 1889.78 1609.24C1890.99 1603.55 1892.09 1597.76 1893.04 1592.04C1893.48 1589.35 1895.8 1587.43 1898.44 1587.43C1898.75 1587.43 1899.06 1587.45 1899.38 1587.51C1902.38 1588.01 1904.41 1590.84 1903.91 1593.85C1902.93 1599.73 1901.8 1605.68 1900.56 1611.53C1900.01 1614.12 1897.72 1615.9 1895.18 1615.9ZM1902.19 1569.86C1902.02 1569.86 1901.84 1569.85 1901.67 1569.83C1898.64 1569.55 1896.41 1566.86 1896.7 1563.83C1896.93 1561.3 1897.15 1558.75 1897.33 1556.2C1897.58 1552.91 1897.78 1549.64 1897.94 1546.37C1898.09 1543.41 1900.53 1541.13 1903.46 1541.13C1903.55 1541.13 1903.63 1541.13 1903.72 1541.14C1906.76 1541.29 1909.1 1543.87 1908.95 1546.91C1908.79 1550.27 1908.58 1553.64 1908.33 1557.01C1908.13 1559.64 1907.91 1562.25 1907.67 1564.86C1907.4 1567.71 1905 1569.86 1902.19 1569.86ZM1903.83 1523.31C1900.85 1523.31 1898.39 1520.93 1898.33 1517.92C1898.19 1512.11 1897.93 1506.22 1897.54 1500.43C1897.33 1497.4 1899.63 1494.77 1902.67 1494.56C1902.8 1494.56 1902.93 1494.55 1903.06 1494.55C1905.96 1494.55 1908.34 1496.79 1908.53 1499.69C1908.93 1505.64 1909.21 1511.69 1909.34 1517.68C1909.41 1520.72 1907 1523.24 1903.96 1523.31H1903.83ZM1900.04 1476.88C1897.34 1476.88 1894.98 1474.89 1894.59 1472.14C1893.78 1466.37 1892.82 1460.55 1891.76 1454.87C1891.2 1451.87 1893.17 1448.99 1896.16 1448.44C1896.5 1448.37 1896.84 1448.34 1897.18 1448.34C1899.78 1448.34 1902.1 1450.19 1902.59 1452.84C1903.69 1458.69 1904.67 1464.66 1905.51 1470.6C1905.93 1473.61 1903.83 1476.4 1900.82 1476.83C1900.56 1476.86 1900.3 1476.88 1900.04 1476.88Z" fill="#FCFCFD"/>
<path d="M1285.66 1863.1C1284.61 1863.1 1283.54 1862.8 1282.6 1862.17C1280.12 1860.51 1277.67 1858.83 1275.23 1857.12C1272.74 1855.37 1272.14 1851.93 1273.89 1849.44C1274.97 1847.91 1276.67 1847.1 1278.41 1847.1C1279.5 1847.1 1280.61 1847.42 1281.57 1848.1C1283.94 1849.76 1286.33 1851.4 1288.73 1853.01C1291.26 1854.71 1291.94 1858.13 1290.24 1860.66C1289.18 1862.25 1287.44 1863.1 1285.66 1863.1Z" fill="#FCFCFD"/>
<path d="M1121.55 1607.35C1121.79 1606.36 1122.03 1605.38 1122.27 1604.39C1122.32 1605.45 1122.05 1606.47 1121.55 1607.35Z" fill="#FCFCFD"/>
<path d="M1116.75 1610.15C1114.18 1610.15 1111.87 1608.33 1111.35 1605.7C1110.78 1602.79 1110.23 1599.86 1109.72 1596.92C1109.19 1593.92 1111.2 1591.07 1114.19 1590.54C1114.52 1590.49 1114.83 1590.46 1115.15 1590.46C1117.78 1590.46 1120.11 1592.34 1120.57 1595.02C1121.07 1597.88 1121.61 1600.73 1122.17 1603.57C1122.22 1603.84 1122.25 1604.12 1122.27 1604.39C1122.03 1605.38 1121.79 1606.36 1121.55 1607.35C1120.79 1608.7 1119.47 1609.72 1117.83 1610.04C1117.47 1610.11 1117.11 1610.15 1116.75 1610.15Z" fill="#F7F7F9"/>
<path d="M1111.26 1573.36C1108.47 1573.36 1106.07 1571.25 1105.78 1568.41C1105.19 1562.59 1104.72 1556.64 1104.38 1550.75C1104.21 1547.71 1106.53 1545.11 1109.57 1544.93C1109.69 1544.93 1109.8 1544.92 1109.92 1544.92C1112.84 1544.92 1115.22 1547.19 1115.39 1550.12C1115.72 1555.85 1116.18 1561.63 1116.75 1567.3C1117.06 1570.32 1114.85 1573.03 1111.82 1573.33C1111.64 1573.35 1111.45 1573.36 1111.26 1573.36ZM1109.28 1527.56H1109.2C1106.16 1527.52 1103.72 1525.01 1103.77 1521.97C1103.85 1516.07 1104.06 1510.12 1104.4 1504.27C1104.57 1501.36 1106.87 1499.07 1109.83 1499.07C1109.96 1499.07 1110.09 1499.08 1110.22 1499.08C1113.26 1499.26 1115.58 1501.87 1115.4 1504.91C1115.07 1510.59 1114.87 1516.39 1114.79 1522.13C1114.74 1525.14 1112.29 1527.56 1109.28 1527.56ZM1112.53 1481.84C1112.3 1481.84 1112.06 1481.82 1111.82 1481.79C1108.8 1481.41 1106.67 1478.64 1107.06 1475.63C1107.81 1469.77 1108.7 1463.88 1109.7 1458.12C1110.16 1455.44 1112.47 1453.54 1115.1 1453.54C1115.42 1453.54 1115.74 1453.57 1116.07 1453.63C1119.07 1454.15 1121.08 1457 1120.56 1460C1119.58 1465.6 1118.72 1471.33 1117.99 1477.03C1117.63 1479.81 1115.26 1481.84 1112.53 1481.84ZM1120.96 1436.79C1120.52 1436.79 1120.08 1436.74 1119.63 1436.63C1116.68 1435.9 1114.88 1432.91 1115.61 1429.96C1117.03 1424.23 1118.58 1418.47 1120.24 1412.86C1120.95 1410.46 1123.14 1408.91 1125.52 1408.91C1126.04 1408.91 1126.57 1408.98 1127.09 1409.14C1130.01 1410 1131.68 1413.06 1130.81 1415.98C1129.2 1421.44 1127.68 1427.03 1126.31 1432.6C1125.68 1435.11 1123.43 1436.79 1120.96 1436.79ZM1134.53 1393.02C1133.89 1393.02 1133.23 1392.9 1132.6 1392.66C1129.75 1391.6 1128.3 1388.42 1129.37 1385.57C1131.45 1380.03 1133.67 1374.49 1135.98 1369.08C1136.87 1366.99 1138.91 1365.74 1141.05 1365.74C1141.77 1365.74 1142.51 1365.88 1143.21 1366.18C1146.01 1367.37 1147.31 1370.61 1146.12 1373.41C1143.87 1378.66 1141.71 1384.06 1139.69 1389.44C1138.86 1391.65 1136.76 1393.02 1134.53 1393.02Z" fill="#F7F7F9"/>
<path d="M1153.13 1351.05C1152.28 1351.05 1151.42 1350.85 1150.61 1350.43C1147.9 1349.04 1146.84 1345.72 1148.23 1343.01C1150.92 1337.79 1153.77 1332.54 1156.7 1327.42C1157.72 1325.64 1159.57 1324.64 1161.49 1324.64C1162.42 1324.64 1163.36 1324.88 1164.22 1325.37C1166.86 1326.88 1167.78 1330.25 1166.27 1332.89C1163.42 1337.87 1160.65 1342.98 1158.03 1348.06C1157.05 1349.96 1155.13 1351.05 1153.13 1351.05ZM1176.46 1311.54C1175.4 1311.54 1174.33 1311.23 1173.39 1310.6C1170.86 1308.9 1170.19 1305.48 1171.89 1302.95C1175.18 1298.05 1178.61 1293.18 1182.09 1288.45C1183.17 1286.99 1184.84 1286.21 1186.53 1286.21C1187.67 1286.21 1188.81 1286.56 1189.8 1287.29C1192.25 1289.1 1192.77 1292.54 1190.96 1294.99C1187.58 1299.59 1184.24 1304.33 1181.04 1309.1C1179.97 1310.68 1178.23 1311.54 1176.46 1311.54ZM1204.18 1274.99C1202.92 1274.99 1201.65 1274.56 1200.61 1273.67C1198.29 1271.7 1198.02 1268.22 1200 1265.9C1203.8 1261.45 1207.77 1257 1211.79 1252.68C1212.88 1251.52 1214.35 1250.93 1215.83 1250.93C1217.17 1250.93 1218.52 1251.42 1219.58 1252.41C1221.81 1254.48 1221.93 1257.97 1219.86 1260.2C1215.94 1264.4 1212.08 1268.73 1208.38 1273.06C1207.29 1274.33 1205.74 1274.99 1204.18 1274.99ZM1235.92 1241.89C1234.44 1241.89 1232.96 1241.3 1231.88 1240.13C1229.81 1237.9 1229.93 1234.42 1232.16 1232.35C1236.46 1228.35 1240.9 1224.39 1245.39 1220.57C1246.43 1219.68 1247.7 1219.25 1248.96 1219.25C1250.52 1219.25 1252.07 1219.91 1253.16 1221.19C1255.13 1223.5 1254.85 1226.98 1252.54 1228.96C1248.17 1232.67 1243.85 1236.53 1239.67 1240.41C1238.61 1241.4 1237.26 1241.89 1235.92 1241.89ZM1271.22 1212.65C1269.53 1212.65 1267.85 1211.87 1266.77 1210.4C1264.97 1207.95 1265.5 1204.5 1267.95 1202.7C1272.65 1199.24 1277.52 1195.81 1282.42 1192.52C1283.37 1191.89 1284.44 1191.59 1285.49 1191.59C1287.27 1191.59 1289.01 1192.44 1290.07 1194.03C1291.77 1196.55 1291.1 1199.98 1288.57 1201.67C1283.8 1204.88 1279.06 1208.21 1274.48 1211.58C1273.49 1212.3 1272.35 1212.65 1271.22 1212.65ZM1719 1196.89C1717.99 1196.89 1716.97 1196.62 1716.05 1196.04C1711.23 1192.98 1706.27 1189.99 1701.3 1187.14C1698.66 1185.62 1697.74 1182.26 1699.26 1179.62C1700.28 1177.84 1702.14 1176.85 1704.04 1176.85C1704.97 1176.85 1705.92 1177.08 1706.78 1177.58C1711.89 1180.51 1716.99 1183.59 1721.95 1186.73C1724.52 1188.36 1725.29 1191.76 1723.66 1194.33C1722.61 1195.99 1720.82 1196.89 1719 1196.89ZM1309.62 1187.65C1307.71 1187.65 1305.85 1186.66 1304.83 1184.88C1303.32 1182.24 1304.24 1178.87 1306.88 1177.36C1311.96 1174.45 1317.19 1171.61 1322.43 1168.91C1323.23 1168.5 1324.09 1168.3 1324.94 1168.3C1326.94 1168.3 1328.87 1169.39 1329.85 1171.29C1331.24 1173.99 1330.18 1177.32 1327.47 1178.71C1322.38 1181.33 1317.3 1184.1 1312.35 1186.92C1311.49 1187.42 1310.55 1187.65 1309.62 1187.65ZM1678.91 1174.64C1678.11 1174.64 1677.3 1174.46 1676.53 1174.09C1671.37 1171.61 1666.09 1169.21 1660.84 1166.96C1658.04 1165.76 1656.74 1162.53 1657.94 1159.73C1658.83 1157.64 1660.87 1156.38 1663.01 1156.38C1663.73 1156.38 1664.47 1156.53 1665.17 1156.83C1670.58 1159.14 1676.01 1161.61 1681.31 1164.16C1684.05 1165.48 1685.2 1168.77 1683.88 1171.52C1682.93 1173.49 1680.97 1174.64 1678.91 1174.64ZM1350.62 1167.24C1348.48 1167.24 1346.44 1165.99 1345.55 1163.9C1344.35 1161.1 1345.65 1157.86 1348.45 1156.66C1353.82 1154.37 1359.34 1152.15 1364.85 1150.07C1365.49 1149.83 1366.15 1149.71 1366.8 1149.71C1369.02 1149.71 1371.12 1151.08 1371.95 1153.28C1373.02 1156.13 1371.58 1159.31 1368.74 1160.38C1363.38 1162.41 1358.01 1164.56 1352.78 1166.8C1352.07 1167.1 1351.34 1167.24 1350.62 1167.24ZM1636.52 1157.18C1635.92 1157.18 1635.32 1157.08 1634.72 1156.88C1629.32 1155.01 1623.8 1153.24 1618.31 1151.61C1615.39 1150.75 1613.73 1147.68 1614.59 1144.76C1615.3 1142.37 1617.5 1140.82 1619.87 1140.82C1620.39 1140.82 1620.92 1140.89 1621.44 1141.05C1627.08 1142.72 1632.76 1144.54 1638.32 1146.46C1641.2 1147.45 1642.72 1150.59 1641.73 1153.47C1640.94 1155.75 1638.81 1157.18 1636.52 1157.18ZM1393.67 1151.71C1391.29 1151.71 1389.1 1150.16 1388.39 1147.76C1387.53 1144.84 1389.19 1141.78 1392.11 1140.91C1397.76 1139.24 1403.51 1137.67 1409.2 1136.26C1409.65 1136.14 1410.1 1136.09 1410.54 1136.09C1413 1136.09 1415.25 1137.77 1415.87 1140.27C1416.61 1143.23 1414.81 1146.22 1411.86 1146.95C1406.33 1148.33 1400.74 1149.85 1395.24 1151.48C1394.72 1151.63 1394.19 1151.71 1393.67 1151.71ZM1592.39 1144.76C1591.99 1144.76 1591.6 1144.72 1591.2 1144.63C1585.63 1143.41 1579.94 1142.29 1574.28 1141.3C1571.28 1140.78 1569.28 1137.93 1569.8 1134.93C1570.27 1132.25 1572.59 1130.36 1575.23 1130.36C1575.54 1130.36 1575.86 1130.39 1576.17 1130.44C1581.99 1131.46 1587.84 1132.61 1593.57 1133.87C1596.54 1134.52 1598.42 1137.46 1597.76 1140.43C1597.2 1143.01 1594.92 1144.76 1592.39 1144.76ZM1438.29 1141.26C1435.66 1141.26 1433.33 1139.37 1432.87 1136.69C1432.35 1133.69 1434.36 1130.84 1437.35 1130.32C1443.14 1129.31 1449.04 1128.42 1454.87 1127.67C1455.11 1127.64 1455.35 1127.63 1455.59 1127.63C1458.32 1127.63 1460.68 1129.66 1461.04 1132.44C1461.42 1135.46 1459.29 1138.22 1456.27 1138.6C1450.6 1139.33 1444.87 1140.2 1439.24 1141.17C1438.92 1141.23 1438.6 1141.26 1438.29 1141.26ZM1547.11 1137.51C1546.92 1137.51 1546.73 1137.5 1546.54 1137.48C1542.93 1137.11 1539.22 1136.78 1535.53 1136.51C1533.47 1136.35 1531.41 1136.22 1529.35 1136.1C1526.31 1135.92 1524 1133.31 1524.17 1130.27C1524.35 1127.33 1526.77 1125.09 1529.7 1125.09H1530C1532.11 1125.22 1534.22 1125.36 1536.34 1125.52C1540.14 1125.8 1543.95 1126.13 1547.66 1126.51C1550.69 1126.82 1552.89 1129.53 1552.58 1132.56C1552.29 1135.39 1549.9 1137.51 1547.11 1137.51ZM1483.83 1136.05C1480.92 1136.05 1478.49 1133.78 1478.33 1130.84C1478.16 1127.81 1480.48 1125.21 1483.52 1125.03C1489.4 1124.71 1495.36 1124.5 1501.23 1124.43H1501.29C1504.31 1124.43 1506.77 1126.85 1506.8 1129.87C1506.84 1132.92 1504.4 1135.41 1501.36 1135.45C1495.65 1135.52 1489.86 1135.72 1484.14 1136.04C1484.04 1136.04 1483.93 1136.05 1483.83 1136.05Z" fill="#FCFCFD"/>
<path d="M1749.58 1218.35C1748.41 1218.35 1747.22 1217.98 1746.22 1217.2C1743.93 1215.43 1741.61 1213.68 1739.28 1211.96C1736.84 1210.14 1736.32 1206.69 1738.13 1204.25C1739.21 1202.79 1740.88 1202.02 1742.57 1202.02C1743.71 1202.02 1744.86 1202.37 1745.84 1203.1C1748.23 1204.87 1750.61 1206.66 1752.96 1208.48C1755.37 1210.35 1755.81 1213.81 1753.95 1216.22C1752.86 1217.62 1751.23 1218.35 1749.58 1218.35Z" fill="#FCFCFD"/>
<path d="M1722.2 1311.2C1720.92 1309.62 1718.78 1309.02 1716.87 1309.71L1662.29 1329.48C1640.9 1312.84 1616.7 1299.49 1590.36 1290.29L1577.35 1233.77C1576.9 1231.78 1575.23 1230.31 1573.21 1230.09L1503.98 1222.74C1501.95 1222.52 1500.02 1223.62 1499.16 1225.46L1474.56 1277.99C1446.88 1281.45 1420.41 1289.42 1396 1301.2L1346.8 1270.41C1345.07 1269.33 1342.85 1269.46 1341.27 1270.74L1287.12 1314.49C1285.54 1315.77 1284.94 1317.91 1285.63 1319.83L1305.4 1374.4C1288.75 1395.79 1275.4 1420 1266.21 1446.33L1209.68 1459.34C1207.7 1459.8 1206.22 1461.46 1206.01 1463.48L1198.65 1532.72C1198.44 1534.74 1199.53 1536.68 1201.38 1537.54L1253.91 1562.13C1257.37 1589.81 1265.33 1616.28 1277.11 1640.69L1246.32 1689.9C1245.24 1691.62 1245.38 1693.84 1246.66 1695.42L1290.41 1749.58C1291.69 1751.16 1293.83 1751.75 1295.74 1751.06L1350.31 1731.29C1371.71 1747.94 1395.91 1761.29 1422.25 1770.49L1435.26 1827.01C1435.71 1829 1437.38 1830.47 1439.4 1830.69L1508.63 1838.04C1510.66 1838.25 1512.59 1837.16 1513.46 1835.32L1538.05 1782.79C1565.73 1779.33 1592.2 1771.36 1616.61 1759.58L1665.81 1790.37C1667.54 1791.45 1669.76 1791.32 1671.34 1790.04L1725.49 1746.28C1727.07 1745.01 1727.67 1742.86 1726.98 1740.95L1707.21 1686.38C1723.86 1664.99 1737.21 1640.78 1746.4 1614.45L1802.93 1601.44C1804.91 1600.98 1806.39 1599.32 1806.6 1597.29L1813.96 1528.06C1814.17 1526.04 1813.08 1524.1 1811.24 1523.24L1758.7 1498.64C1755.25 1470.96 1747.28 1444.5 1735.5 1420.08L1766.29 1370.88C1767.37 1369.16 1767.23 1366.94 1765.95 1365.35L1722.2 1311.2Z" fill="#6BC49E"/>
<path d="M1506.34 1472.97C1503.66 1472.97 1500.95 1473.16 1498.21 1473.55C1483.03 1475.71 1469.6 1483.66 1460.39 1495.92C1451.19 1508.19 1447.31 1523.3 1449.47 1538.48C1453.93 1569.82 1483.05 1591.68 1514.4 1587.23C1545.74 1582.76 1567.61 1553.63 1563.14 1522.3C1559.07 1493.69 1534.44 1472.97 1506.34 1472.97ZM1506.17 1596.63C1491.93 1596.63 1478.13 1592.05 1466.55 1583.35C1452.4 1572.73 1443.23 1557.24 1440.74 1539.73C1438.24 1522.21 1442.72 1504.78 1453.34 1490.63C1463.96 1476.48 1479.45 1467.32 1496.97 1464.82C1514.49 1462.34 1531.92 1466.8 1546.07 1477.42C1560.21 1488.04 1569.38 1503.54 1571.87 1521.05C1574.36 1538.57 1569.89 1556 1559.27 1570.15C1548.65 1584.3 1533.15 1593.46 1515.64 1595.96C1512.47 1596.41 1509.31 1596.63 1506.17 1596.63Z" fill="#F2F2F2"/>
<path d="M1505.36 1701.62C1499.38 1701.62 1493.34 1701.3 1487.26 1700.65C1400.02 1691.39 1335.03 1617.39 1335.03 1531.55C1335.03 1525.56 1335.35 1519.52 1335.99 1513.43C1340.79 1468.23 1362.91 1427.6 1398.27 1399.03C1433.64 1370.46 1478 1357.36 1523.21 1362.17C1533.9 1363.3 1544.46 1365.44 1554.67 1368.52C1556 1368.92 1557.32 1369.34 1558.64 1369.77C1559.57 1370.08 1560.16 1370.94 1560.15 1371.87C1560.15 1372.1 1560.12 1372.33 1560.04 1372.56C1559.66 1373.71 1558.41 1374.34 1557.26 1373.96C1546.12 1370.29 1534.51 1367.8 1522.75 1366.55C1486.05 1362.65 1449.93 1370.86 1418.97 1389.8C1412.78 1393.59 1406.79 1397.81 1401.04 1402.46C1366.6 1430.29 1345.05 1469.86 1340.37 1513.9C1339.75 1519.83 1339.44 1525.71 1339.44 1531.54C1339.44 1615.16 1402.74 1687.24 1487.72 1696.27C1578.6 1705.93 1660.44 1639.83 1670.09 1548.92C1670.72 1543.06 1671.03 1537.18 1671.03 1531.32C1671.03 1507.32 1665.83 1483.58 1655.72 1461.79C1655.58 1461.49 1655.52 1461.17 1655.52 1460.86C1655.52 1460.03 1655.99 1459.23 1656.79 1458.86C1657.91 1458.35 1659.21 1458.83 1659.72 1459.93C1670.1 1482.31 1675.43 1506.68 1675.44 1531.32C1675.44 1537.33 1675.12 1543.37 1674.48 1549.39C1665.21 1636.63 1591.21 1701.61 1505.36 1701.62Z" fill="#F2F2F2"/>
<path d="M1102.17 1583.12L1073.94 1584.21C1066.48 1573.32 1057.23 1563.55 1046.37 1555.38L1048.71 1527.24C1048.79 1526.25 1048.23 1525.32 1047.33 1524.92L1016.3 1511.26C1015.4 1510.86 1014.34 1511.08 1013.67 1511.81L994.48 1532.53C981.13 1530.04 967.674 1529.82 954.607 1531.67L936.344 1510.1C935.704 1509.35 934.654 1509.08 933.731 1509.44L902.136 1521.72C901.212 1522.08 900.618 1522.98 900.657 1523.97L901.747 1552.21C890.86 1559.67 881.084 1568.92 872.921 1579.77L844.776 1577.44C843.789 1577.36 842.858 1577.91 842.459 1578.82L828.8 1609.84C828.4 1610.75 828.62 1611.81 829.348 1612.48L850.073 1631.67C847.579 1645.02 847.357 1658.47 849.207 1671.54L827.642 1689.8C826.886 1690.44 826.62 1691.49 826.978 1692.42L839.256 1724.01C839.614 1724.93 840.52 1725.53 841.51 1725.49L869.748 1724.4C877.207 1735.29 886.457 1745.06 897.311 1753.23L894.978 1781.37C894.896 1782.36 895.449 1783.29 896.356 1783.69L927.379 1797.35C928.286 1797.75 929.346 1797.53 930.019 1796.8L949.203 1776.07C962.554 1778.57 976.01 1778.79 989.077 1776.94L1007.34 1798.5C1007.98 1799.26 1009.03 1799.53 1009.95 1799.17L1041.55 1786.89C1042.47 1786.53 1043.07 1785.63 1043.03 1784.64L1041.94 1756.4C1052.82 1748.94 1062.6 1739.69 1070.76 1728.83L1098.91 1731.17C1099.9 1731.25 1100.83 1730.7 1101.22 1729.79L1114.88 1698.77C1115.28 1697.86 1115.06 1696.8 1114.34 1696.13L1093.61 1676.94C1096.1 1663.59 1096.33 1650.14 1094.48 1637.07L1116.04 1618.81C1116.8 1618.17 1117.06 1617.12 1116.71 1616.19L1104.43 1584.6C1104.07 1583.67 1103.16 1583.08 1102.17 1583.12Z" fill="#6BC49E"/>
<path d="M971.83 1626.41C958.473 1626.41 946.638 1636.05 944.339 1649.65C943.095 1657 944.789 1664.39 949.105 1670.46C953.421 1676.54 959.844 1680.56 967.193 1681.81C974.542 1683.05 981.932 1681.36 988.001 1677.04C994.076 1672.72 998.104 1666.3 999.346 1658.95C1000.59 1651.61 998.896 1644.22 994.578 1638.14C990.262 1632.07 983.838 1628.04 976.492 1626.8C974.927 1626.54 973.366 1626.41 971.83 1626.41ZM971.914 1686.62C970.103 1686.62 968.278 1686.46 966.457 1686.15C957.95 1684.72 950.511 1680.05 945.512 1673.02C940.514 1665.99 938.553 1657.43 939.991 1648.92C942.962 1631.36 959.681 1619.5 977.228 1622.45C994.789 1625.42 1006.66 1642.12 1003.69 1659.69C1002.26 1668.2 997.589 1675.63 990.557 1680.63C985.029 1684.56 978.561 1686.62 971.914 1686.62Z" fill="#F2F2F2"/>
<path d="M1151.86 1634.72C1149.15 1634.72 1146.79 1632.73 1146.41 1629.97C1146.01 1627.15 1145.55 1624.31 1145.02 1621.54C1144.46 1618.54 1146.42 1615.66 1149.41 1615.1C1149.76 1615.03 1150.11 1615 1150.45 1615C1153.05 1615 1155.35 1616.85 1155.85 1619.49C1156.41 1622.44 1156.9 1625.45 1157.32 1628.45C1157.74 1631.46 1155.64 1634.25 1152.63 1634.67C1152.37 1634.7 1152.11 1634.72 1151.86 1634.72Z" fill="#FCFCFD"/>
<path d="M972.137 1841.56H972.045C971.231 1841.56 970.411 1841.55 969.593 1841.54C966.549 1841.5 964.115 1839 964.156 1835.96C964.198 1832.95 966.544 1830.52 969.621 1830.52H969.742C970.395 1830.53 971.028 1830.54 971.692 1830.54H972.133C976.804 1830.54 981.546 1830.35 986.226 1829.96C986.355 1829.96 986.485 1829.95 986.613 1829.95C989.491 1829.95 991.928 1832.11 992.164 1835.01C992.41 1838.05 990.15 1840.7 987.117 1840.95C982.143 1841.35 977.101 1841.56 972.137 1841.56ZM942.139 1839.08C941.838 1839.08 941.535 1839.06 941.227 1839.01L940.596 1838.9C935.068 1837.97 929.502 1836.77 924.084 1835.35C921.141 1834.58 919.383 1831.56 920.156 1828.62C920.808 1826.14 923.053 1824.51 925.496 1824.51C925.955 1824.51 926.422 1824.57 926.886 1824.69C931.986 1826.03 937.227 1827.16 942.467 1828.04L943.039 1828.14C946.04 1828.64 948.07 1831.48 947.568 1834.48C947.118 1837.18 944.785 1839.08 942.139 1839.08ZM1013.96 1836.63C1011.46 1836.63 1009.21 1834.93 1008.6 1832.4C1007.89 1829.44 1009.72 1826.47 1012.68 1825.76C1018.01 1824.48 1023.34 1822.94 1028.53 1821.18C1029.12 1820.97 1029.72 1820.88 1030.31 1820.88C1032.6 1820.88 1034.74 1822.33 1035.52 1824.61C1036.5 1827.5 1034.96 1830.63 1032.08 1831.61C1026.57 1833.48 1020.91 1835.12 1015.24 1836.48C1014.81 1836.58 1014.38 1836.63 1013.96 1836.63ZM899.359 1826.5C898.626 1826.5 897.883 1826.35 897.169 1826.04C891.82 1823.72 886.524 1821.12 881.425 1818.31C878.76 1816.84 877.791 1813.49 879.259 1810.82C880.263 1809 882.147 1807.97 884.09 1807.97C884.99 1807.97 885.902 1808.19 886.746 1808.65C891.542 1811.3 896.525 1813.75 901.555 1815.93C904.347 1817.14 905.628 1820.39 904.416 1823.18C903.516 1825.25 901.488 1826.5 899.359 1826.5ZM1055.71 1821.03C1053.73 1821.03 1051.81 1819.95 1050.82 1818.07C1049.41 1815.37 1050.46 1812.04 1053.16 1810.63C1058.03 1808.09 1062.83 1805.3 1067.42 1802.33C1068.35 1801.73 1069.38 1801.45 1070.41 1801.45C1072.22 1801.45 1073.99 1802.34 1075.04 1803.97C1076.7 1806.52 1075.96 1809.93 1073.4 1811.59C1068.52 1814.74 1063.42 1817.71 1058.26 1820.41C1057.44 1820.83 1056.57 1821.03 1055.71 1821.03ZM1092.43 1795.76C1090.91 1795.76 1089.4 1795.13 1088.31 1793.91C1086.29 1791.63 1086.5 1788.14 1088.78 1786.13C1092.88 1782.49 1096.86 1778.61 1100.61 1774.61C1101.69 1773.46 1103.16 1772.87 1104.63 1772.87C1105.98 1772.87 1107.33 1773.36 1108.4 1774.36C1110.62 1776.44 1110.73 1779.92 1108.65 1782.15C1104.68 1786.39 1100.45 1790.51 1096.09 1794.37C1095.04 1795.3 1093.73 1795.76 1092.43 1795.76ZM1121.92 1762.33C1120.85 1762.33 1119.77 1762.02 1118.82 1761.37C1116.31 1759.65 1115.66 1756.22 1117.38 1753.71C1120.47 1749.19 1123.39 1744.46 1126.04 1739.66C1127.05 1737.85 1128.93 1736.82 1130.87 1736.82C1131.78 1736.82 1132.69 1737.05 1133.54 1737.51C1136.2 1738.99 1137.16 1742.34 1135.69 1745C1132.86 1750.1 1129.76 1755.13 1126.48 1759.93C1125.41 1761.49 1123.68 1762.33 1121.92 1762.33ZM1142.36 1722.7C1141.73 1722.7 1141.09 1722.59 1140.46 1722.36C1137.61 1721.31 1136.14 1718.15 1137.19 1715.29C1139.08 1710.16 1140.74 1704.87 1142.15 1699.55C1142.81 1697.08 1145.03 1695.45 1147.47 1695.45C1147.94 1695.45 1148.41 1695.51 1148.89 1695.63C1151.83 1696.41 1153.58 1699.43 1152.81 1702.37C1151.31 1708.02 1149.54 1713.64 1147.54 1719.09C1146.72 1721.32 1144.61 1722.7 1142.36 1722.7ZM1152.52 1679.3C1152.32 1679.3 1152.12 1679.29 1151.92 1679.26C1148.89 1678.94 1146.71 1676.21 1147.04 1673.19C1147.63 1667.73 1147.97 1662.19 1148.05 1656.72C1148.1 1653.74 1150.51 1651.29 1153.46 1651.29H1153.65C1156.69 1651.34 1159.12 1653.84 1159.08 1656.88C1158.99 1662.7 1158.62 1668.59 1157.99 1674.38C1157.69 1677.21 1155.3 1679.3 1152.52 1679.3Z" fill="#FCFCFD"/>
<path d="M860.878 1803.76C859.703 1803.76 858.519 1803.39 857.516 1802.62C855.161 1800.8 852.789 1798.87 850.467 1796.89C848.15 1794.92 847.875 1791.44 849.848 1789.12C850.938 1787.85 852.487 1787.19 854.044 1787.19C855.309 1787.19 856.58 1787.62 857.617 1788.51C859.804 1790.37 862.037 1792.18 864.25 1793.89C866.658 1795.75 867.104 1799.21 865.246 1801.62C864.159 1803.03 862.527 1803.76 860.878 1803.76Z" fill="#FCFCFD"/>
<path d="M791.03 1678.39C788.239 1678.39 785.846 1676.28 785.553 1673.45C785.245 1670.44 785.009 1667.39 784.852 1664.39C784.69 1661.35 787.025 1658.75 790.063 1658.59C790.183 1658.59 790.303 1658.58 790.422 1658.58C793.335 1658.58 795.702 1660.89 795.855 1663.8C796.006 1666.63 796.228 1669.5 796.518 1672.32C796.828 1675.35 794.626 1678.05 791.598 1678.37C791.408 1678.39 791.216 1678.39 791.03 1678.39Z" fill="#F4F4F6"/>
<path d="M790.962 1642.42C790.783 1642.42 790.604 1642.41 790.423 1642.39C787.395 1642.1 785.176 1639.4 785.47 1636.37C785.899 1631.96 786.492 1627.49 787.238 1623.09C787.453 1621.82 787.679 1620.56 787.918 1619.3C788.42 1616.66 790.746 1614.82 793.333 1614.82C793.673 1614.82 794.016 1614.85 794.361 1614.92C794.832 1615.01 795.277 1615.15 795.691 1615.35C796.633 1616.38 797.573 1617.41 798.508 1618.44C798.839 1619.34 798.938 1620.35 798.745 1621.36C798.519 1622.55 798.306 1623.74 798.104 1624.93C797.404 1629.07 796.842 1633.28 796.44 1637.44C796.164 1640.29 793.764 1642.42 790.962 1642.42Z" fill="#F4F4F6"/>
<path d="M798.508 1618.44C797.573 1617.41 796.633 1616.38 795.691 1615.35C797.014 1615.98 798.017 1617.1 798.508 1618.44Z" fill="#F9F9FA"/>
<path d="M800.373 1599.58C799.768 1599.58 799.156 1599.48 798.552 1599.27C798.269 1599.17 797.999 1599.05 797.743 1598.91C796.946 1598.06 796.146 1597.2 795.348 1596.33C794.789 1595.09 794.687 1593.64 795.173 1592.25C797.067 1586.84 799.237 1581.45 801.619 1576.25C802.547 1574.22 804.541 1573.03 806.631 1573.03C807.399 1573.03 808.18 1573.19 808.926 1573.53C811.691 1574.8 812.908 1578.07 811.642 1580.84C809.399 1585.73 807.359 1590.8 805.574 1595.89C804.78 1598.16 802.648 1599.58 800.373 1599.58Z" fill="#F4F4F6"/>
<path d="M797.743 1598.91C796.659 1598.33 795.832 1597.41 795.348 1596.33C796.146 1597.2 796.946 1598.06 797.743 1598.91Z" fill="#F9F9FA"/>
<path d="M819.779 1560.25C818.741 1560.25 817.693 1559.95 816.763 1559.34C814.217 1557.68 813.506 1554.26 815.174 1551.71C818.315 1546.92 821.72 1542.22 825.293 1537.74C826.383 1536.37 827.988 1535.66 829.608 1535.66C830.811 1535.66 832.023 1536.05 833.038 1536.86C835.417 1538.76 835.808 1542.23 833.913 1544.61C830.548 1548.82 827.345 1553.25 824.392 1557.76C823.335 1559.37 821.574 1560.25 819.779 1560.25ZM848.093 1526.74C846.615 1526.74 845.138 1526.14 844.053 1524.98C841.982 1522.75 842.111 1519.26 844.341 1517.19C848.541 1513.29 852.971 1509.54 857.507 1506.04C858.51 1505.27 859.693 1504.9 860.867 1504.9C862.518 1504.9 864.149 1505.64 865.236 1507.04C867.094 1509.45 866.646 1512.91 864.235 1514.77C859.965 1518.06 855.795 1521.59 851.841 1525.26C850.78 1526.25 849.434 1526.74 848.093 1526.74Z" fill="#F4F4F6"/>
<path d="M1067.26 1505.11C1066.27 1505.11 1065.27 1504.85 1064.37 1504.29C1059.78 1501.46 1055 1498.81 1050.17 1496.42C1047.44 1495.06 1046.33 1491.76 1047.68 1489.03C1048.64 1487.09 1050.59 1485.97 1052.62 1485.97C1053.45 1485.97 1054.28 1486.15 1055.07 1486.54C1060.2 1489.09 1065.28 1491.9 1070.16 1494.91C1072.74 1496.51 1073.55 1499.91 1071.95 1502.49C1070.91 1504.18 1069.11 1505.11 1067.26 1505.11Z" fill="#F7F7F9"/>
<path d="M883.587 1500.96C881.651 1500.96 879.777 1499.94 878.767 1498.13C877.288 1495.48 878.242 1492.12 880.902 1490.64C885.905 1487.85 891.101 1485.27 896.345 1482.95C897.068 1482.63 897.822 1482.48 898.565 1482.48C900.68 1482.48 902.699 1483.7 903.612 1485.77C904.841 1488.55 903.582 1491.8 900.797 1493.03C895.863 1495.21 890.972 1497.65 886.262 1500.27C885.414 1500.74 884.495 1500.96 883.587 1500.96Z" fill="#F4F4F6"/>
<path d="M1027.41 1486.78C1026.86 1486.78 1026.29 1486.7 1025.74 1486.52C1020.6 1484.88 1015.32 1483.46 1010.05 1482.29C1007.08 1481.63 1005.2 1478.69 1005.86 1475.72C1006.43 1473.15 1008.71 1471.39 1011.23 1471.39C1011.63 1471.39 1012.03 1471.44 1012.43 1471.53C1018.03 1472.77 1023.63 1474.28 1029.09 1476.02C1031.99 1476.95 1033.59 1480.05 1032.66 1482.95C1031.91 1485.29 1029.75 1486.78 1027.41 1486.78Z" fill="#F7F7F9"/>
<path d="M924.179 1484.42C921.756 1484.42 919.534 1482.8 918.867 1480.35C918.066 1477.41 919.799 1474.39 922.736 1473.59C928.259 1472.08 933.924 1470.82 939.575 1469.83C939.898 1469.77 940.221 1469.74 940.539 1469.74C943.159 1469.74 945.484 1471.63 945.953 1474.31C946.475 1477.3 944.472 1480.16 941.473 1480.69C936.159 1481.62 930.829 1482.8 925.633 1484.22C925.148 1484.35 924.659 1484.42 924.179 1484.42Z" fill="#F4F4F6"/>
<path d="M984.329 1478.52C984.198 1478.52 984.067 1478.51 983.936 1478.5C979.834 1478.21 975.688 1478.08 971.539 1478.08C970.262 1478.08 968.984 1478.09 967.708 1478.12H967.582C967.513 1478.12 967.443 1478.12 967.374 1478.11C966.33 1474.85 965.263 1471.58 964.166 1468.28C965.074 1467.57 966.215 1467.13 967.462 1467.1C968.85 1467.07 970.245 1467.05 971.643 1467.05C976.001 1467.05 980.391 1467.2 984.711 1467.51C987.745 1467.72 990.033 1470.36 989.82 1473.39C989.616 1476.3 987.196 1478.52 984.329 1478.52Z" fill="#F7F7F9"/>
<path d="M967.374 1478.11C964.484 1478.01 962.142 1475.66 962.076 1472.73C962.036 1470.93 962.859 1469.32 964.166 1468.28C965.263 1471.58 966.33 1474.85 967.374 1478.11Z" fill="#F4F4F6"/>
<path d="M1095.92 1527.03C1094.57 1527.03 1093.22 1526.54 1092.15 1525.54C1090.08 1523.6 1087.94 1521.69 1085.78 1519.86C1083.46 1517.89 1083.17 1514.41 1085.14 1512.09C1086.23 1510.81 1087.79 1510.15 1089.35 1510.15C1090.61 1510.15 1091.87 1510.58 1092.91 1511.46C1095.2 1513.4 1097.48 1515.43 1099.69 1517.5C1101.91 1519.58 1102.02 1523.07 1099.94 1525.29C1098.86 1526.45 1097.39 1527.03 1095.92 1527.03Z" fill="#F7F7F9"/>
<path d="M971.72 1738.3C960.43 1738.3 948.972 1736.01 937.994 1731.18C906.586 1717.35 887.852 1686.5 887.848 1654.2C887.846 1642.9 890.134 1631.43 894.968 1620.46C913.629 1578.07 963.295 1558.76 1005.69 1577.43C1005.89 1577.52 1006.1 1577.61 1006.3 1577.7C1011.39 1579.99 1016.25 1582.78 1020.75 1586C1020.9 1586.1 1021.05 1586.21 1021.2 1586.32C1021.8 1586.75 1022.12 1587.43 1022.12 1588.11C1022.12 1588.56 1021.98 1589.01 1021.7 1589.4C1020.98 1590.38 1019.6 1590.61 1018.62 1589.89C1014.06 1586.59 1009.11 1583.76 1003.91 1581.46C980.825 1571.3 955.449 1573.02 934.691 1583.96C919.342 1592.04 906.519 1605.16 899.002 1622.23C894.422 1632.64 892.254 1643.5 892.256 1654.2C892.261 1684.81 910.01 1714.04 939.771 1727.15C979.942 1744.83 1027 1726.54 1044.68 1686.37C1049.16 1676.21 1051.45 1665.28 1051.45 1654.29C1051.45 1651.01 1051.24 1647.71 1050.83 1644.43C1050.82 1644.33 1050.81 1644.24 1050.81 1644.15C1050.81 1643.06 1051.62 1642.11 1052.74 1641.97C1053.96 1641.83 1055.05 1642.67 1055.2 1643.88C1055.64 1647.34 1055.85 1650.82 1055.85 1654.29C1055.85 1665.89 1053.44 1677.42 1048.72 1688.15C1034.89 1719.56 1004.02 1738.3 971.72 1738.3Z" fill="#F2F2F2"/>
<path d="M2055.35 1007.31C2054.41 1007.31 2053.54 1006.7 2053.25 1005.76C2052.71 1004.02 2052.15 1002.29 2051.57 1000.57C2051.18 999.41 2051.81 998.16 2052.96 997.78C2053.19 997.7 2053.43 997.66 2053.66 997.66C2054.58 997.66 2055.44 998.24 2055.75 999.16C2056.34 1000.92 2056.91 1002.68 2057.46 1004.46C2057.82 1005.62 2057.17 1006.86 2056 1007.21C2055.79 1007.28 2055.57 1007.31 2055.35 1007.31Z" fill="#FCFCFD"/>
<path d="M1843.69 1294.54H1843.32C1842.11 1294.54 1841.12 1293.55 1841.12 1292.33C1841.12 1291.12 1842.11 1290.13 1843.32 1290.13H1843.69C1847.13 1290.13 1850.65 1290.05 1854.14 1289.88C1854.2 1289.88 1854.26 1289.87 1854.32 1289.87C1855.44 1289.87 1856.39 1290.82 1856.44 1291.98C1856.5 1293.19 1855.56 1294.23 1854.34 1294.29C1850.79 1294.45 1847.2 1294.54 1843.69 1294.54ZM1832.4 1294.27L1832.29 1294.26C1828.63 1294.08 1824.93 1293.81 1821.29 1293.45C1820.08 1293.33 1819.19 1292.25 1819.31 1291.04C1819.43 1289.91 1820.37 1289.05 1821.49 1289.05C1821.57 1289.05 1821.64 1289.06 1821.72 1289.06C1825.29 1289.41 1828.92 1289.68 1832.51 1289.86C1833.73 1289.92 1834.66 1290.95 1834.6 1292.17C1834.55 1293.35 1833.57 1294.27 1832.4 1294.27ZM1865.12 1293.5C1864 1293.5 1863.04 1292.64 1862.93 1291.51C1862.82 1290.29 1863.7 1289.22 1864.91 1289.1C1868.48 1288.75 1872.09 1288.31 1875.64 1287.79C1875.76 1287.77 1875.88 1287.76 1875.99 1287.76C1877.06 1287.76 1877.98 1288.57 1878.15 1289.65C1878.32 1290.86 1877.49 1291.98 1876.28 1292.15C1872.66 1292.68 1868.98 1293.13 1865.34 1293.49L1865.12 1293.5ZM1810.67 1292.13C1810.56 1292.13 1810.45 1292.12 1810.34 1292.1C1806.7 1291.56 1803.04 1290.93 1799.47 1290.22C1798.28 1289.98 1797.5 1288.82 1797.74 1287.62C1797.95 1286.58 1798.85 1285.85 1799.89 1285.85C1800.03 1285.85 1800.18 1285.86 1800.33 1285.89C1803.83 1286.59 1807.42 1287.21 1810.99 1287.74C1812.19 1287.92 1813.02 1289.04 1812.84 1290.25C1812.68 1291.34 1811.74 1292.13 1810.67 1292.13ZM1886.72 1290.32C1885.69 1290.32 1884.77 1289.59 1884.56 1288.54C1884.32 1287.35 1885.1 1286.19 1886.29 1285.95C1889.8 1285.26 1893.35 1284.46 1896.84 1283.59C1897.02 1283.55 1897.21 1283.52 1897.39 1283.52C1898.37 1283.52 1899.26 1284.2 1899.51 1285.2C1899.81 1286.38 1899.09 1287.57 1897.91 1287.87C1894.35 1288.76 1890.72 1289.57 1887.15 1290.28C1887.01 1290.31 1886.86 1290.32 1886.72 1290.32ZM1789.24 1287.86C1789.07 1287.86 1788.89 1287.84 1788.71 1287.8C1785.17 1286.91 1781.59 1285.92 1778.08 1284.85C1776.91 1284.49 1776.25 1283.26 1776.61 1282.1C1776.9 1281.15 1777.77 1280.53 1778.72 1280.53C1778.93 1280.53 1779.14 1280.56 1779.36 1280.63C1782.81 1281.68 1786.32 1282.65 1789.78 1283.52C1790.96 1283.82 1791.68 1285.02 1791.38 1286.2C1791.13 1287.2 1790.23 1287.86 1789.24 1287.86ZM1907.9 1285.02C1906.95 1285.02 1906.08 1284.41 1905.79 1283.46C1905.44 1282.29 1906.09 1281.06 1907.26 1280.71C1910.7 1279.66 1914.15 1278.52 1917.52 1277.31C1917.76 1277.22 1918.01 1277.18 1918.26 1277.18C1919.16 1277.18 1920.01 1277.74 1920.34 1278.64C1920.75 1279.79 1920.15 1281.05 1919 1281.46C1915.57 1282.69 1912.05 1283.86 1908.54 1284.93C1908.33 1284.99 1908.11 1285.02 1907.9 1285.02ZM1768.35 1281.51C1768.1 1281.51 1767.85 1281.46 1767.6 1281.38C1764.17 1280.14 1760.71 1278.8 1757.32 1277.39C1756.2 1276.92 1755.66 1275.63 1756.13 1274.51C1756.48 1273.66 1757.3 1273.15 1758.16 1273.15C1758.45 1273.15 1758.73 1273.2 1759.01 1273.32C1762.34 1274.7 1765.73 1276.02 1769.09 1277.23C1770.24 1277.64 1770.83 1278.9 1770.42 1280.05C1770.1 1280.95 1769.25 1281.51 1768.35 1281.51ZM1928.42 1277.66C1927.56 1277.66 1926.74 1277.15 1926.38 1276.3C1925.92 1275.18 1926.45 1273.89 1927.57 1273.42C1930.88 1272.05 1934.2 1270.57 1937.44 1269.04C1937.74 1268.89 1938.06 1268.82 1938.37 1268.82C1939.2 1268.82 1939.99 1269.29 1940.37 1270.08C1940.89 1271.18 1940.42 1272.5 1939.33 1273.02C1936.03 1274.59 1932.64 1276.09 1929.27 1277.49C1928.99 1277.61 1928.7 1277.66 1928.42 1277.66ZM1748.19 1273.11C1747.87 1273.11 1747.55 1273.04 1747.24 1272.89C1743.94 1271.32 1740.63 1269.64 1737.4 1267.9C1736.33 1267.33 1735.93 1265.99 1736.51 1264.92C1736.91 1264.18 1737.67 1263.76 1738.45 1263.76C1738.8 1263.76 1739.16 1263.84 1739.49 1264.02C1742.65 1265.73 1745.9 1267.37 1749.14 1268.91C1750.24 1269.43 1750.71 1270.75 1750.18 1271.85C1749.8 1272.64 1749.01 1273.11 1748.19 1273.11ZM1948.11 1268.31C1947.33 1268.31 1946.57 1267.89 1946.17 1267.15C1945.59 1266.08 1946 1264.74 1947.07 1264.17C1950.22 1262.48 1953.38 1260.68 1956.45 1258.83C1956.81 1258.62 1957.2 1258.51 1957.59 1258.51C1958.34 1258.51 1959.07 1258.9 1959.48 1259.58C1960.11 1260.63 1959.77 1261.98 1958.73 1262.61C1955.59 1264.5 1952.37 1266.33 1949.15 1268.05C1948.82 1268.23 1948.46 1268.31 1948.11 1268.31ZM1966.8 1257.07C1966.09 1257.07 1965.39 1256.73 1964.97 1256.1C1964.29 1255.09 1964.56 1253.72 1965.57 1253.04C1968.53 1251.05 1971.5 1248.95 1974.39 1246.8C1974.78 1246.51 1975.24 1246.37 1975.7 1246.37C1976.37 1246.37 1977.04 1246.67 1977.47 1247.26C1978.2 1248.23 1978 1249.61 1977.02 1250.34C1974.08 1252.53 1971.05 1254.67 1968.03 1256.7C1967.65 1256.95 1967.22 1257.07 1966.8 1257.07ZM1984.3 1244.05C1983.66 1244.05 1983.03 1243.78 1982.6 1243.25C1981.82 1242.31 1981.96 1240.92 1982.9 1240.14C1985.68 1237.86 1988.43 1235.48 1991.07 1233.07C1991.49 1232.69 1992.03 1232.5 1992.56 1232.5C1993.16 1232.5 1993.75 1232.74 1994.19 1233.22C1995 1234.12 1994.94 1235.52 1994.04 1236.34C1991.34 1238.79 1988.53 1241.22 1985.7 1243.55C1985.29 1243.89 1984.79 1244.05 1984.3 1244.05ZM2000.45 1229.37C1999.89 1229.37 1999.33 1229.15 1998.9 1228.72C1998.03 1227.86 1998.03 1226.47 1998.89 1225.61C2001.43 1223.06 2003.94 1220.42 2006.34 1217.77C2006.78 1217.29 2007.37 1217.04 2007.98 1217.04C2008.5 1217.04 2009.03 1217.23 2009.45 1217.61C2010.36 1218.43 2010.43 1219.82 2009.61 1220.72C2007.16 1223.43 2004.61 1226.12 2002.01 1228.72C2001.58 1229.15 2001.02 1229.37 2000.45 1229.37ZM2015.09 1213.17C2014.6 1213.17 2014.11 1213.01 2013.7 1212.67C2012.76 1211.9 2012.62 1210.51 2013.39 1209.57C2015.67 1206.79 2017.9 1203.92 2020.04 1201.04C2020.47 1200.45 2021.14 1200.14 2021.81 1200.14C2022.27 1200.14 2022.73 1200.28 2023.12 1200.58C2024.1 1201.3 2024.31 1202.68 2023.58 1203.66C2021.4 1206.6 2019.12 1209.53 2016.8 1212.37C2016.37 1212.9 2015.73 1213.17 2015.09 1213.17ZM2028.09 1195.61C2027.67 1195.61 2027.25 1195.49 2026.87 1195.24C2025.86 1194.56 2025.58 1193.2 2026.26 1192.18C2028.26 1189.19 2030.2 1186.11 2032.04 1183.03C2032.45 1182.34 2033.18 1181.96 2033.93 1181.96C2034.32 1181.96 2034.71 1182.06 2035.06 1182.27C2036.11 1182.9 2036.45 1184.25 2035.82 1185.29C2033.95 1188.43 2031.96 1191.57 2029.93 1194.63C2029.5 1195.27 2028.8 1195.61 2028.09 1195.61ZM2039.3 1176.85C2038.95 1176.85 2038.6 1176.77 2038.27 1176.59C2037.19 1176.02 2036.79 1174.69 2037.36 1173.61C2039.06 1170.42 2040.69 1167.16 2042.21 1163.93C2042.58 1163.13 2043.37 1162.66 2044.2 1162.66C2044.52 1162.66 2044.84 1162.73 2045.14 1162.87C2046.24 1163.39 2046.71 1164.7 2046.2 1165.81C2044.65 1169.1 2042.98 1172.42 2041.25 1175.68C2040.85 1176.43 2040.09 1176.85 2039.3 1176.85ZM2048.61 1157.06C2048.33 1157.06 2048.04 1157.01 2047.77 1156.89C2046.64 1156.43 2046.1 1155.14 2046.57 1154.02C2047.93 1150.71 2049.23 1147.3 2050.44 1143.9C2050.75 1143 2051.6 1142.43 2052.51 1142.43C2052.76 1142.43 2053.01 1142.47 2053.25 1142.56C2054.4 1142.96 2055 1144.22 2054.59 1145.37C2053.36 1148.84 2052.04 1152.32 2050.64 1155.7C2050.29 1156.55 2049.47 1157.06 2048.61 1157.06ZM2055.9 1136.46C2055.69 1136.46 2055.48 1136.43 2055.27 1136.37C2054.1 1136.02 2053.44 1134.79 2053.79 1133.62C2054.81 1130.19 2055.77 1126.68 2056.63 1123.19C2056.87 1122.19 2057.78 1121.51 2058.76 1121.51C2058.93 1121.51 2059.11 1121.53 2059.29 1121.58C2060.47 1121.87 2061.2 1123.06 2060.91 1124.24C2060.03 1127.8 2059.06 1131.38 2058.01 1134.88C2057.73 1135.84 2056.85 1136.46 2055.9 1136.46ZM2061.11 1115.26C2060.97 1115.26 2060.83 1115.25 2060.69 1115.22C2059.49 1114.99 2058.71 1113.84 2058.94 1112.64C2059.62 1109.12 2060.23 1105.53 2060.74 1101.98C2060.9 1100.88 2061.85 1100.09 2062.93 1100.09C2063.03 1100.09 2063.13 1100.1 2063.23 1100.11C2064.44 1100.29 2065.28 1101.4 2065.1 1102.61C2064.58 1106.23 2063.97 1109.89 2063.27 1113.48C2063.07 1114.53 2062.15 1115.26 2061.11 1115.26ZM2064.2 1093.66L2064 1093.65C2062.79 1093.53 2061.9 1092.46 2062.01 1091.25C2062.34 1087.67 2062.59 1084.04 2062.75 1080.46C2062.81 1079.3 2063.78 1078.36 2064.91 1078.36H2065.05C2066.27 1078.41 2067.21 1079.44 2067.16 1080.66C2066.99 1084.31 2066.74 1088.01 2066.4 1091.66C2066.29 1092.8 2065.33 1093.66 2064.2 1093.66ZM2065.19 1071.85H2065.18C2063.97 1071.85 2062.98 1070.87 2062.98 1069.66C2062.96 1066.08 2062.86 1062.44 2062.67 1058.85C2062.61 1057.63 2063.54 1056.59 2064.76 1056.53C2064.82 1056.52 2064.88 1056.52 2064.94 1056.52C2066.13 1056.52 2067.01 1057.46 2067.08 1058.62C2067.27 1062.28 2067.37 1065.99 2067.38 1069.64C2067.39 1070.86 2066.41 1071.85 2065.19 1071.85ZM2064.03 1050.05C2062.91 1050.05 2061.96 1049.2 2061.84 1048.07C2061.48 1044.5 2061.02 1040.88 2060.48 1037.34C2060.3 1036.14 2061.12 1035.01 2062.33 1034.83C2062.44 1034.82 2062.55 1034.81 2062.65 1034.81C2063.72 1034.81 2064.67 1035.58 2064.84 1036.68C2065.39 1040.3 2065.85 1043.98 2066.23 1047.62C2066.35 1048.83 2065.47 1049.91 2064.26 1050.04L2064.03 1050.05ZM2060.75 1028.46C2059.73 1028.46 2058.81 1027.74 2058.6 1026.7C2057.88 1023.18 2057.07 1019.63 2056.18 1016.16C2055.88 1014.98 2056.59 1013.78 2057.77 1013.48C2057.96 1013.43 2058.14 1013.41 2058.32 1013.41C2059.3 1013.41 2060.2 1014.08 2060.45 1015.07C2061.36 1018.61 2062.18 1022.23 2062.91 1025.82C2063.16 1027.01 2062.39 1028.18 2061.19 1028.42C2061.04 1028.45 2060.9 1028.46 2060.75 1028.46Z" fill="#FCFCFD"/>
<path d="M1728.86 1262.7C1728.48 1262.7 1728.09 1262.6 1727.73 1262.38C1726.14 1261.42 1724.56 1260.44 1723 1259.44C1721.98 1258.79 1721.68 1257.43 1722.33 1256.4C1722.75 1255.74 1723.46 1255.38 1724.19 1255.38C1724.6 1255.38 1725.01 1255.49 1725.38 1255.73C1726.91 1256.7 1728.45 1257.67 1730 1258.6C1731.05 1259.23 1731.38 1260.59 1730.75 1261.63C1730.34 1262.32 1729.61 1262.7 1728.86 1262.7Z" fill="#FCFCFD"/>
<path d="M1627.98 1125.5C1626.99 1125.5 1626.08 1124.82 1625.84 1123.82C1625.4 1122.02 1624.98 1120.21 1624.59 1118.4C1624.33 1117.21 1625.08 1116.03 1626.27 1115.77C1626.43 1115.74 1626.59 1115.72 1626.74 1115.72C1627.75 1115.72 1628.67 1116.43 1628.9 1117.46C1629.28 1119.24 1629.69 1121.01 1630.12 1122.77C1630.41 1123.96 1629.68 1125.15 1628.5 1125.44C1628.33 1125.48 1628.15 1125.5 1627.98 1125.5Z" fill="#FCFCFD"/>
<path d="M1624.64 1109.13C1623.58 1109.13 1622.64 1108.36 1622.47 1107.28C1621.86 1103.59 1621.33 1099.82 1620.91 1096.07C1620.77 1094.86 1621.64 1093.77 1622.85 1093.64C1622.94 1093.62 1623.04 1093.62 1623.13 1093.62C1624.26 1093.62 1625.16 1094.46 1625.29 1095.57C1625.7 1099.25 1626.22 1102.95 1626.81 1106.56C1627.01 1107.76 1626.2 1108.9 1625 1109.1C1624.88 1109.12 1624.76 1109.13 1624.64 1109.13ZM1622.11 1086.87C1620.96 1086.87 1619.99 1085.97 1619.92 1084.8C1619.68 1081.04 1619.54 1077.24 1619.5 1073.49C1619.48 1072.28 1620.46 1071.28 1621.68 1071.26H1621.7C1622.91 1071.26 1623.89 1072.23 1623.91 1073.44C1623.95 1077.11 1624.09 1080.84 1624.32 1084.53C1624.39 1085.74 1623.47 1086.79 1622.25 1086.86L1622.11 1086.87ZM1621.84 1064.47H1621.76C1620.54 1064.42 1619.59 1063.4 1619.64 1062.18C1619.78 1058.41 1620.01 1054.61 1620.34 1050.89C1620.44 1049.74 1621.39 1048.88 1622.55 1048.88C1622.61 1048.88 1622.67 1048.89 1622.73 1048.89C1623.94 1049 1624.84 1050.07 1624.73 1051.28C1624.41 1054.93 1624.18 1058.65 1624.04 1062.35C1624 1063.53 1623.02 1064.47 1621.84 1064.47ZM1623.79 1042.16C1623.69 1042.16 1623.59 1042.16 1623.49 1042.14C1622.28 1041.97 1621.44 1040.86 1621.61 1039.66C1622.12 1035.92 1622.74 1032.16 1623.44 1028.49C1623.64 1027.44 1624.56 1026.7 1625.59 1026.7C1625.73 1026.7 1625.87 1026.71 1626.02 1026.74C1627.21 1026.97 1628 1028.12 1627.77 1029.32C1627.08 1032.91 1626.48 1036.59 1625.97 1040.26C1625.82 1041.36 1624.87 1042.16 1623.79 1042.16ZM1627.97 1020.16C1627.8 1020.16 1627.63 1020.14 1627.45 1020.1C1626.27 1019.81 1625.54 1018.62 1625.83 1017.44C1626.72 1013.78 1627.71 1010.11 1628.78 1006.51C1629.07 1005.56 1629.93 1004.94 1630.89 1004.94C1631.1 1004.94 1631.31 1004.97 1631.53 1005.03C1632.69 1005.38 1633.36 1006.61 1633.01 1007.77C1631.96 1011.3 1630.98 1014.9 1630.11 1018.48C1629.87 1019.49 1628.97 1020.16 1627.97 1020.16ZM1634.37 998.7C1634.12 998.7 1633.87 998.66 1633.63 998.57C1632.48 998.17 1631.88 996.91 1632.29 995.76C1633.55 992.19 1634.92 988.63 1636.34 985.17C1636.7 984.32 1637.52 983.81 1638.38 983.81C1638.66 983.81 1638.95 983.86 1639.22 983.98C1640.35 984.44 1640.88 985.73 1640.42 986.85C1639.02 990.24 1637.68 993.74 1636.44 997.23C1636.12 998.14 1635.27 998.7 1634.37 998.7ZM1642.92 977.95C1642.6 977.95 1642.28 977.88 1641.98 977.74C1640.88 977.22 1640.41 975.91 1640.93 974.81C1642.54 971.41 1644.26 968 1646.04 964.69C1646.44 963.95 1647.2 963.53 1647.99 963.53C1648.34 963.53 1648.7 963.61 1649.03 963.79C1650.1 964.37 1650.5 965.71 1649.93 966.78C1648.18 970.03 1646.49 973.36 1644.91 976.69C1644.54 977.49 1643.75 977.95 1642.92 977.95ZM1653.54 958.2C1653.15 958.2 1652.76 958.1 1652.4 957.88C1651.36 957.25 1651.03 955.9 1651.66 954.85C1653.6 951.64 1655.65 948.43 1657.76 945.32C1658.18 944.69 1658.88 944.34 1659.59 944.34C1660.01 944.34 1660.44 944.47 1660.82 944.72C1661.83 945.4 1662.09 946.78 1661.41 947.78C1659.35 950.83 1657.33 953.98 1655.43 957.14C1655.01 957.82 1654.29 958.2 1653.54 958.2ZM1666.1 939.63C1665.63 939.63 1665.17 939.48 1664.77 939.19C1663.8 938.45 1663.61 937.07 1664.34 936.1C1666.6 933.09 1668.96 930.1 1671.37 927.23C1671.8 926.7 1672.43 926.43 1673.06 926.43C1673.56 926.43 1674.06 926.6 1674.47 926.95C1675.41 927.73 1675.53 929.12 1674.75 930.05C1672.4 932.87 1670.08 935.8 1667.86 938.75C1667.43 939.33 1666.76 939.63 1666.1 939.63ZM1680.45 922.42C1679.92 922.42 1679.38 922.23 1678.96 921.84C1678.06 921.01 1678.01 919.62 1678.83 918.72C1681.38 915.97 1684.03 913.23 1686.72 910.61C1687.15 910.19 1687.7 909.98 1688.26 909.98C1688.83 909.98 1689.4 910.2 1689.83 910.64C1690.68 911.51 1690.67 912.91 1689.8 913.76C1687.17 916.33 1684.57 919.01 1682.07 921.72C1681.64 922.18 1681.05 922.42 1680.45 922.42ZM1696.46 906.75C1695.85 906.75 1695.24 906.5 1694.81 906.01C1694 905.1 1694.08 903.7 1695 902.9C1697.8 900.41 1700.71 897.96 1703.65 895.61C1704.06 895.28 1704.54 895.13 1705.02 895.13C1705.67 895.13 1706.31 895.41 1706.75 895.96C1707.51 896.91 1707.35 898.29 1706.4 899.05C1703.53 901.35 1700.67 903.75 1697.92 906.19C1697.5 906.57 1696.98 906.75 1696.46 906.75ZM1713.94 892.77C1713.26 892.77 1712.58 892.45 1712.15 891.85C1711.44 890.87 1711.67 889.49 1712.65 888.78C1715.7 886.58 1718.84 884.44 1721.99 882.4C1722.36 882.16 1722.78 882.04 1723.19 882.04C1723.91 882.04 1724.62 882.4 1725.04 883.05C1725.7 884.08 1725.41 885.44 1724.38 886.1C1721.3 888.1 1718.22 890.2 1715.23 892.35C1714.84 892.63 1714.39 892.77 1713.94 892.77ZM1957.09 882.35C1956.71 882.35 1956.32 882.24 1955.96 882.03C1952.81 880.15 1949.56 878.31 1946.3 876.58C1945.22 876.01 1944.81 874.68 1945.39 873.6C1945.78 872.86 1946.54 872.43 1947.33 872.43C1947.68 872.43 1948.04 872.51 1948.37 872.69C1951.69 874.45 1955.01 876.32 1958.22 878.25C1959.27 878.88 1959.61 880.23 1958.98 881.27C1958.57 881.96 1957.84 882.35 1957.09 882.35ZM1732.74 880.62C1731.97 880.62 1731.23 880.22 1730.83 879.51C1730.22 878.46 1730.58 877.11 1731.63 876.5C1734.86 874.64 1738.2 872.82 1741.56 871.1C1741.88 870.94 1742.22 870.86 1742.56 870.86C1743.36 870.86 1744.13 871.3 1744.52 872.06C1745.08 873.14 1744.65 874.47 1743.57 875.02C1740.28 876.71 1737 878.49 1733.84 880.32C1733.49 880.52 1733.11 880.62 1732.74 880.62ZM1937.31 871.83C1936.99 871.83 1936.68 871.77 1936.37 871.63C1933.04 870.07 1929.62 868.57 1926.21 867.18C1925.08 866.72 1924.54 865.44 1925 864.31C1925.34 863.46 1926.17 862.94 1927.04 862.94C1927.32 862.94 1927.6 862.99 1927.87 863.1C1931.35 864.52 1934.84 866.04 1938.24 867.63C1939.34 868.15 1939.82 869.46 1939.31 870.56C1938.93 871.37 1938.14 871.83 1937.31 871.83ZM1752.65 870.43C1751.8 870.43 1751 869.95 1750.63 869.13C1750.13 868.02 1750.63 866.71 1751.74 866.21C1755.16 864.68 1758.66 863.21 1762.15 861.85C1762.42 861.74 1762.69 861.69 1762.95 861.69C1763.84 861.69 1764.67 862.23 1765.01 863.1C1765.45 864.23 1764.89 865.51 1763.75 865.95C1760.33 867.29 1756.9 868.73 1753.55 870.23C1753.25 870.37 1752.95 870.43 1752.65 870.43ZM1916.55 863.38C1916.31 863.38 1916.07 863.34 1915.83 863.26C1912.35 862.05 1908.8 860.91 1905.26 859.87C1904.09 859.53 1903.42 858.31 1903.76 857.14C1904.05 856.18 1904.93 855.55 1905.88 855.55C1906.09 855.55 1906.29 855.58 1906.5 855.64C1910.11 856.7 1913.73 857.86 1917.28 859.1C1918.43 859.5 1919.04 860.76 1918.63 861.9C1918.32 862.82 1917.46 863.38 1916.55 863.38ZM1773.46 862.31C1772.54 862.31 1771.68 861.72 1771.37 860.8C1770.99 859.64 1771.61 858.4 1772.77 858.01C1776.34 856.82 1779.98 855.71 1783.59 854.72C1783.78 854.66 1783.98 854.64 1784.17 854.64C1785.13 854.64 1786.03 855.27 1786.3 856.25C1786.63 857.43 1785.94 858.64 1784.77 858.96C1781.23 859.94 1777.66 861.03 1774.16 862.2C1773.93 862.27 1773.7 862.31 1773.46 862.31ZM1895.05 857.09C1894.88 857.09 1894.71 857.07 1894.54 857.03C1890.94 856.17 1887.29 855.4 1883.68 854.73C1882.49 854.51 1881.69 853.36 1881.91 852.17C1882.11 851.11 1883.03 850.36 1884.07 850.36C1884.2 850.36 1884.34 850.37 1884.48 850.4C1888.16 851.08 1891.89 851.87 1895.56 852.74C1896.74 853.03 1897.47 854.21 1897.19 855.4C1896.95 856.41 1896.05 857.09 1895.05 857.09ZM1795.05 856.34C1794.04 856.34 1793.13 855.64 1792.9 854.61C1792.63 853.42 1793.38 852.25 1794.57 851.98C1798.23 851.16 1801.97 850.43 1805.67 849.8C1805.79 849.78 1805.91 849.77 1806.03 849.77C1807.09 849.77 1808.03 850.53 1808.21 851.61C1808.42 852.81 1807.61 853.95 1806.41 854.15C1802.78 854.76 1799.12 855.48 1795.53 856.28C1795.37 856.32 1795.2 856.34 1795.05 856.34ZM1873.02 853.01C1872.92 853.01 1872.82 853.01 1872.72 852.99C1869.06 852.51 1865.35 852.1 1861.68 851.8C1860.47 851.7 1859.57 850.64 1859.67 849.42C1859.77 848.27 1860.7 847.4 1861.87 847.4C1861.93 847.4 1861.99 847.4 1862.05 847.41C1865.78 847.72 1869.57 848.13 1873.3 848.62C1874.51 848.79 1875.36 849.89 1875.2 851.1C1875.05 852.21 1874.11 853.01 1873.02 853.01ZM1817.12 852.58C1816.02 852.58 1815.07 851.76 1814.94 850.64C1814.79 849.43 1815.66 848.33 1816.87 848.19C1820.58 847.75 1824.37 847.4 1828.13 847.15H1828.15C1829.4 847.15 1830.4 847.99 1830.48 849.2C1830.56 850.41 1829.64 851.46 1828.43 851.55C1824.74 851.79 1821.02 852.14 1817.38 852.57L1817.12 852.58ZM1850.68 851.16H1850.63L1850 851.14C1847.76 851.08 1845.52 851.05 1843.28 851.05C1842.02 851.05 1840.76 851.06 1839.51 851.08H1839.47C1838.27 851.08 1837.29 850.12 1837.26 848.91C1837.24 847.69 1838.21 846.69 1839.43 846.67C1840.7 846.65 1841.97 846.64 1843.24 846.64C1845.53 846.64 1847.83 846.67 1850.14 846.74L1850.72 846.75C1851.94 846.78 1852.91 847.79 1852.88 849C1852.86 850.21 1851.87 851.16 1850.68 851.16Z" fill="#FCFCFD"/>
<path d="M1971.2 891.53C1970.76 891.53 1970.32 891.4 1969.93 891.13C1968.45 890.08 1966.95 889.05 1965.44 888.03C1964.43 887.36 1964.16 885.99 1964.83 884.98C1965.26 884.34 1965.96 884 1966.67 884C1967.09 884 1967.52 884.12 1967.89 884.37C1969.44 885.4 1970.96 886.46 1972.47 887.52C1973.47 888.22 1973.71 889.6 1973.01 890.59C1972.57 891.2 1971.9 891.53 1971.2 891.53Z" fill="#FCFCFD"/>
<path d="M1958.35 944.839C1957.6 943.979 1956.39 943.699 1955.34 944.139L1925.4 956.499C1913.06 947.739 1899.24 940.889 1884.33 936.409L1875.69 905.209C1875.38 904.119 1874.42 903.339 1873.29 903.269L1834.51 900.869C1833.37 900.799 1832.32 901.449 1831.88 902.499L1819.46 932.389C1804.11 934.999 1789.55 940.089 1776.23 947.259L1748.04 931.299C1747.05 930.739 1745.82 930.869 1744.97 931.619L1715.85 957.349C1715 958.099 1714.71 959.309 1715.15 960.349L1727.51 990.299C1718.75 1002.63 1711.9 1016.46 1707.42 1031.36L1676.22 1040.01C1675.13 1040.31 1674.35 1041.27 1674.28 1042.41L1671.88 1081.19C1671.81 1082.32 1672.46 1083.37 1673.51 1083.81L1703.41 1096.23C1706.01 1111.58 1711.1 1126.14 1718.27 1139.46L1702.31 1167.65C1701.75 1168.64 1701.88 1169.88 1702.63 1170.73L1728.36 1199.85C1729.11 1200.7 1730.32 1200.98 1731.37 1200.54L1761.31 1188.18C1773.64 1196.94 1787.47 1203.79 1802.37 1208.27L1811.02 1239.47C1811.32 1240.56 1812.28 1241.34 1813.42 1241.41L1852.2 1243.82C1853.33 1243.89 1854.38 1243.23 1854.82 1242.18L1867.24 1212.29C1882.59 1209.68 1897.15 1204.59 1910.47 1197.42L1938.66 1213.38C1939.65 1213.94 1940.89 1213.81 1941.74 1213.06L1970.86 1187.34C1971.71 1186.58 1971.99 1185.38 1971.55 1184.33L1959.19 1154.38C1967.95 1142.05 1974.8 1128.23 1979.28 1113.32L2010.48 1104.68C2011.57 1104.37 2012.35 1103.41 2012.42 1102.28L2014.83 1063.5C2014.9 1062.36 2014.24 1061.31 2013.19 1060.87L1983.3 1048.45C1980.69 1033.1 1975.6 1018.54 1968.43 1005.22L1984.39 977.029C1984.95 976.039 1984.82 974.809 1984.07 973.959L1958.35 944.839Z" fill="#6BC49E"/>
<path d="M1843.36 1040.04C1841.39 1040.04 1839.4 1040.22 1837.4 1040.6C1819.89 1043.88 1808.33 1060.79 1811.61 1078.29C1813.2 1086.78 1818 1094.13 1825.12 1099C1832.23 1103.87 1840.82 1105.67 1849.31 1104.09C1866.81 1100.8 1878.38 1083.89 1875.1 1066.39C1872.19 1050.89 1858.59 1040.04 1843.36 1040.04ZM1843.27 1109.06C1835.95 1109.06 1828.8 1106.86 1822.63 1102.64C1814.54 1097.1 1809.08 1088.75 1807.28 1079.11C1803.54 1059.22 1816.69 1040 1836.58 1036.27C1856.48 1032.51 1875.69 1045.68 1879.43 1065.57C1883.16 1085.47 1870.01 1104.69 1850.12 1108.42C1847.84 1108.84 1845.55 1109.06 1843.27 1109.06Z" fill="#F2F2F2"/>
<path d="M1842.84 1168.9C1840.85 1168.9 1838.86 1168.84 1836.85 1168.71C1786.05 1165.57 1746.82 1123.23 1746.82 1073.01C1746.82 1071.02 1746.88 1069.02 1747 1067.01C1750.28 1014.19 1795.91 973.899 1848.71 977.159C1850.71 977.289 1852.71 977.469 1854.7 977.719L1854.77 977.729C1859.43 978.309 1864.03 979.229 1868.51 980.469C1868.63 980.499 1868.74 980.539 1868.85 980.569C1869.83 980.839 1870.46 981.729 1870.46 982.689C1870.46 982.889 1870.43 983.089 1870.38 983.289C1870.05 984.459 1868.83 985.149 1867.66 984.809C1861.43 983.059 1854.97 981.969 1848.44 981.559C1801.81 978.689 1761.1 1011.35 1752.78 1056.13C1752.1 1059.77 1751.64 1063.49 1751.4 1067.28C1751.29 1069.2 1751.23 1071.11 1751.23 1073C1751.23 1120.92 1788.66 1161.31 1837.12 1164.31C1887.5 1167.44 1931.03 1128.98 1934.16 1078.6C1934.27 1076.7 1934.33 1074.81 1934.33 1072.92C1934.33 1058.28 1930.84 1043.86 1924.11 1030.88C1923.94 1030.55 1923.86 1030.2 1923.86 1029.86C1923.86 1029.07 1924.3 1028.3 1925.05 1027.91C1926.13 1027.35 1927.46 1027.77 1928.02 1028.85C1935.08 1042.45 1938.74 1057.58 1938.74 1072.92C1938.74 1074.9 1938.68 1076.89 1938.55 1078.87C1935.41 1129.67 1893.07 1168.9 1842.84 1168.9Z" fill="#F2F2F2"/>
<path fill-rule="evenodd" clip-rule="evenodd" d="M1681.45 1361.17L1678.19 1385.66C1709.2 1398.72 1750.74 1423.76 1767.56 1412.54C1757.44 1387.36 1747.16 1372.42 1739.08 1363.67C1712.61 1400.89 1681.45 1361.17 1681.45 1361.17Z" fill="url(#paint0_linear_2991_3965)"/>
<path d="M1819.77 1341.7L1772.51 1267.81C1769.41 1309.49 1755.33 1340.82 1739.08 1363.67C1747.16 1372.42 1757.44 1387.36 1767.56 1412.54C1809.55 1384.55 1819.77 1341.7 1819.77 1341.7Z" fill="#E5B731"/>
<path d="M1870.03 1925.69C1846.46 1926.78 1823.66 1926.1 1808.43 1925.31C1822.29 1915.45 1854.24 1893.97 1880.96 1885.43L1899.31 1884.33C1899.31 1884.33 1905.53 1893.78 1907.75 1915.42C1904.71 1919.22 1895.82 1924.51 1870.03 1925.69Z" fill="#48494B"/>
<path d="M1808.24 1925.45L1808.43 1925.31C1823.66 1926.1 1846.46 1926.78 1870.03 1925.69C1895.82 1924.51 1904.71 1919.22 1907.75 1915.42C1907.85 1916.42 1907.96 1917.41 1908.04 1918.46C1908.42 1923.21 1904.9 1927.38 1900.15 1927.74C1880.85 1929.19 1833 1932.5 1809.93 1931.29C1806.89 1931.13 1805.76 1927.22 1808.24 1925.45Z" fill="#48494B"/>
<path d="M2038.55 1919.39C2040.28 1908.33 2043.04 1892.33 2045.18 1888.25C2048.53 1881.83 2060.01 1888.25 2060.01 1888.25C2060.01 1888.25 2068.08 1892.01 2071.78 1898.27C2074.15 1902.26 2080.69 1913.63 2085.12 1921.34C2085.63 1922.23 2085.84 1923.17 2085.81 1924.08L2039.84 1925.69C2038.72 1923.89 2038.19 1921.69 2038.55 1919.39Z" fill="#48494B"/>
<path d="M2085.81 1924.08C2085.74 1926.71 2083.66 1929.09 2080.72 1929.17L2047.97 1930.08C2044.51 1930.17 2041.51 1928.37 2039.84 1925.69L2085.81 1924.08Z" fill="#48494B"/>
<path fill-rule="evenodd" clip-rule="evenodd" d="M2035.04 1851.48C2035.43 1852.81 2041.37 1881.61 2043.97 1894.25C2044.69 1897.74 2047.84 1900.19 2051.4 1900.01C2053.35 1899.92 2055.61 1899.74 2057.98 1899.43C2062.2 1898.89 2065.4 1895.37 2065.56 1891.13C2065.99 1880.06 2066.19 1858.8 2062.13 1850.57C2056.52 1839.2 2035.04 1851.48 2035.04 1851.48Z" fill="url(#paint1_linear_2991_3965)"/>
<path fill-rule="evenodd" clip-rule="evenodd" d="M1902.92 1859.73C1900.37 1859.65 1903.94 1872.88 1900.08 1885.89C1899.21 1888.83 1897.02 1891.13 1893.96 1891.17C1891.98 1891.19 1889.63 1891.16 1887.24 1890.96C1883.65 1890.68 1880.77 1887.89 1880.43 1884.31L1877.3 1850.57L1902.92 1859.73Z" fill="url(#paint2_linear_2991_3965)"/>
<path d="M1831.65 1501.04C1832.79 1506.57 1872.93 1740.69 1875.37 1861.84C1875.41 1863.87 1876.9 1865.58 1878.91 1865.86C1884.01 1866.57 1893.93 1867.48 1903.56 1865.7C1904.87 1865.45 1905.87 1864.37 1905.95 1863.03C1907.35 1840.45 1918.63 1649.57 1904.82 1559.72C1904.82 1559.72 2018.95 1799.92 2036.25 1866.15C2036.67 1867.76 2038.15 1868.84 2039.81 1868.75C2044.7 1868.5 2054.86 1867.62 2062.93 1864.65C2065.83 1863.58 2067.47 1860.54 2066.74 1857.55C2057.08 1817.91 1989.34 1544.82 1943.35 1484.65L1831.65 1501.04Z" fill="#002E40"/>
<path d="M1904.82 1561.21C1905.2 1561.21 1905.57 1561.07 1905.87 1560.79C1906.46 1560.21 1906.47 1559.26 1905.89 1558.67L1890.61 1543.04C1890.03 1542.45 1889.08 1542.44 1888.49 1543.02C1887.9 1543.6 1887.88 1544.54 1888.46 1545.14L1903.75 1560.76C1904.04 1561.06 1904.43 1561.21 1904.82 1561.21Z" fill="#333435"/>
<path d="M1766.42 1207.92C1795.73 1200.24 1849.81 1188.21 1892.85 1190.78C1902.74 1191.37 1910.66 1199.18 1911.23 1209.07C1917.73 1323.72 1926.61 1425.46 1943.35 1484.65C1905.73 1499.54 1868.44 1506.44 1831.66 1501.04C1804.09 1442 1780 1373.85 1759.41 1296.46C1759.41 1296.46 1747.33 1234.72 1759.06 1214.15C1760.89 1210.94 1763.29 1208.73 1766.42 1207.92Z" fill="#0C2B34"/>
<path fill-rule="evenodd" clip-rule="evenodd" d="M1836.93 1127.6C1836.93 1127.6 1844.33 1171.77 1846.54 1192.19C1846.9 1195.51 1845.16 1198.65 1842.19 1200.18C1834.1 1204.34 1816.83 1211.05 1798.01 1204.89C1794.91 1203.88 1792.88 1200.88 1792.95 1197.62L1794.24 1138.66L1836.93 1127.6Z" fill="url(#paint3_linear_2991_3965)"/>
<path fill-rule="evenodd" clip-rule="evenodd" d="M1788.65 1078.67C1788.65 1078.67 1774.37 1111.48 1773.41 1128.7C1772.45 1145.92 1768.74 1157.1 1788.65 1160.57C1808.56 1164.04 1825.34 1154.12 1834.42 1136.96C1834.42 1136.96 1848.66 1110.53 1845.47 1099.7C1842.27 1088.88 1788.65 1078.67 1788.65 1078.67Z" fill="url(#paint4_linear_2991_3965)"/>
<path d="M1832.98 1124.63H1825.1C1825.1 1124.63 1835.47 1103.35 1826.36 1099.62C1817.25 1095.88 1781.15 1088.52 1773.36 1075.71C1765.85 1063.36 1772.55 1047.41 1782.57 1042.95C1783.2 1042.66 1783.95 1042.96 1784.27 1043.57L1785.1 1045.14C1785.67 1046.22 1787.26 1046.06 1787.6 1044.89C1787.92 1043.78 1789.41 1043.54 1790.02 1044.52C1792.4 1048.35 1798.86 1054.58 1816.18 1057.77C1840.74 1062.31 1856.99 1072.25 1857.39 1089.23C1857.41 1090.31 1858.56 1090.9 1859.48 1090.34C1861.29 1089.23 1864.2 1088.71 1868.08 1091.98C1874.82 1097.65 1872.06 1112.36 1857.27 1124.47C1856.57 1125.04 1856.58 1126.14 1857.34 1126.64C1860.02 1128.38 1864.01 1132.53 1853.66 1138.07C1843.06 1143.73 1836.79 1143.12 1834.43 1142.51C1833.79 1142.35 1833.36 1141.77 1833.41 1141.11L1834.33 1126.06C1834.38 1125.29 1833.76 1124.63 1832.98 1124.63Z" fill="#333435"/>
<path fill-rule="evenodd" clip-rule="evenodd" d="M1827 1127.78C1827 1127.78 1832.45 1106.82 1841.85 1112.69C1851.24 1118.57 1836.97 1136.18 1829.42 1136.96L1827 1127.78Z" fill="url(#paint5_linear_2991_3965)"/>
<path d="M2125.85 1579.34C2118.34 1592.64 2094.11 1593.18 2071.72 1580.54C2049.34 1567.9 2037.29 1546.87 2044.8 1533.57C2052.31 1520.27 2076.54 1519.74 2098.92 1532.38C2121.31 1545.02 2133.36 1566.04 2125.85 1579.34ZM2110.43 1507.15L1584.29 1239.26L1554.97 1291.18L2056.06 1603.42C2057.18 1604.12 2058.31 1604.79 2059.46 1605.44L2076.78 1615.22C2106.51 1632.01 2139.79 1629.37 2151.11 1609.33L2164.57 1585.49C2175.89 1565.45 2160.97 1535.59 2131.24 1518.8L2113.91 1509.02C2112.76 1508.37 2111.6 1507.75 2110.43 1507.15Z" fill="#5C5E61"/>
<path d="M1423.55 1113.96L1524.08 1170.73C1531.23 1174.77 1536.11 1181.91 1537.27 1190.05L1543.25 1231.76C1544.95 1243.66 1538.42 1255.22 1527.35 1259.91L1488.54 1276.33C1480.97 1279.54 1472.35 1279.05 1465.19 1275.01L1364.66 1218.23C1349.5 1209.67 1331.02 1222.89 1334.63 1239.93C1343.27 1280.68 1369.31 1318.16 1409.31 1340.75C1481.6 1381.57 1563.17 1353.29 1602.44 1283.75C1641.71 1214.21 1623.81 1129.76 1551.52 1088.93C1511.52 1066.34 1465.98 1063.4 1426.62 1077.04C1410.17 1082.75 1408.39 1105.4 1423.55 1113.96Z" fill="#5C5E61"/>
<path d="M1418.2 1123.43L1518.73 1180.21C1525.88 1184.25 1530.76 1191.38 1531.92 1199.52L1537.9 1241.23C1539.6 1253.14 1533.07 1264.7 1522 1269.39L1483.19 1285.81C1475.62 1289.01 1467 1288.52 1459.84 1284.48L1359.31 1227.71C1344.15 1219.15 1325.67 1232.37 1329.28 1249.4C1337.92 1290.15 1363.96 1327.63 1403.96 1350.22C1476.25 1391.05 1557.82 1362.76 1597.09 1293.22C1636.36 1223.69 1618.46 1139.23 1546.17 1098.41C1506.17 1075.82 1460.63 1072.87 1421.27 1086.52C1404.82 1092.22 1403.04 1114.87 1418.2 1123.43Z" fill="#74767B"/>
<path d="M2121.58 1586.9C2114.07 1600.2 2089.84 1600.74 2067.46 1588.1C2045.07 1575.46 2033.02 1554.43 2040.53 1541.13C2048.04 1527.83 2072.27 1527.29 2094.66 1539.93C2117.04 1552.57 2129.09 1573.6 2121.58 1586.9ZM2106.16 1514.71L1580.02 1246.82L1550.7 1298.74L2051.79 1610.98C2052.91 1611.67 2054.04 1612.35 2055.19 1612.99L2072.52 1622.78C2102.25 1639.57 2135.52 1636.93 2146.84 1616.88L2160.3 1593.05C2171.62 1573.01 2156.7 1543.15 2126.97 1526.36L2109.64 1516.57C2108.5 1515.93 2107.33 1515.3 2106.16 1514.71Z" fill="#74767B"/>
<path fill-rule="evenodd" clip-rule="evenodd" d="M1987.09 1360.61C2001.58 1401.29 1993.42 1444.89 1993.42 1444.89L2012.53 1449.99C2012.53 1449.99 2037.22 1420.63 2031.57 1355.47C2013.93 1352.78 1997.41 1356.91 1987.09 1360.61Z" fill="url(#paint6_linear_2991_3965)"/>
<path d="M2031.57 1355.47C2030.93 1348.14 2029.93 1340.39 2028.45 1332.14C2015.54 1260.28 1923.41 1205.01 1901.74 1192.9C1899.72 1191.78 1897.27 1193.29 1897.34 1195.6L1900.42 1293.29C1951.73 1300.19 1976.01 1329.54 1987.09 1360.61C1997.41 1356.91 2013.93 1352.78 2031.57 1355.47Z" fill="#0C2B34"/>
<path fill-rule="evenodd" clip-rule="evenodd" d="M1649.87 1376.34C1646.29 1375.35 1643.37 1372.81 1641.86 1369.42C1638.93 1362.84 1635.62 1352.31 1642.68 1349.1C1653.19 1344.33 1672.3 1363.91 1672.3 1363.91L1681.63 1379.04L1695.33 1390.15C1687.5 1392.3 1667.27 1381.76 1649.87 1376.34Z" fill="url(#paint7_linear_2991_3965)"/>
<path fill-rule="evenodd" clip-rule="evenodd" d="M2012.53 1435.34H1971.07C1971.07 1435.34 1990.23 1446.83 1990.87 1458.92C1991.51 1471.01 1983.26 1496.05 1979.41 1502.86C1975.19 1510.32 2032.91 1491.76 2012.53 1435.34Z" fill="url(#paint8_linear_2991_3965)"/>
<path d="M762.412 540.339C820.867 367.58 1008.3 274.917 1181.06 333.374C1353.82 391.829 1446.49 579.267 1388.03 752.026C1329.57 924.79 1142.14 1017.45 969.378 958.99C796.617 900.54 703.956 713.1 762.412 540.339ZM612.612 511.04L599.934 566.352C595.687 584.879 603.665 604.062 619.795 614.116L658.028 637.948C668.368 644.392 674.764 655.518 675.414 667.685C677.046 698.295 682.206 728.284 690.564 757.148C693.958 768.87 691.583 781.49 683.922 790.99L655.612 826.1C643.681 840.89 642.449 861.63 652.547 877.74L682.693 925.81C692.792 941.92 711.996 949.84 730.512 945.54L774.443 935.35C786.329 932.59 798.729 935.95 807.802 944.11C830.145 964.21 854.892 981.91 881.735 996.71C892.404 1002.6 899.632 1013.2 900.932 1025.32L905.731 1070.11C907.757 1089.01 921.55 1104.54 940.077 1108.79L995.39 1121.47C1013.92 1125.72 1033.1 1117.74 1043.15 1101.61L1066.98 1063.38C1073.43 1053.04 1084.56 1046.64 1096.72 1045.99C1127.33 1044.36 1157.32 1039.2 1186.18 1030.84C1197.91 1027.45 1210.53 1029.82 1220.03 1037.48L1255.13 1065.79C1269.93 1077.72 1290.67 1078.96 1306.77 1068.86L1354.85 1038.71C1370.95 1028.61 1378.88 1009.41 1374.58 990.89L1364.39 946.96C1361.63 935.07 1364.99 922.67 1373.15 913.6C1393.24 891.26 1410.95 866.51 1425.75 839.67C1431.63 829 1442.24 821.77 1454.35 820.47L1499.15 815.67C1518.05 813.65 1533.58 799.85 1537.83 781.33L1550.51 726.012C1554.75 707.485 1546.78 688.304 1530.65 678.251L1492.41 654.419C1482.07 647.974 1475.68 636.849 1475.03 624.682C1473.39 594.072 1468.24 564.083 1459.88 535.219C1456.49 523.498 1458.86 510.872 1466.52 501.373L1494.83 466.269C1506.76 451.472 1507.99 430.735 1497.89 414.631L1467.75 366.555C1457.65 350.451 1438.44 342.526 1419.93 346.824L1376 357.018C1364.11 359.776 1351.71 356.415 1342.64 348.254C1320.3 328.159 1295.55 310.454 1268.71 295.651C1258.04 289.768 1250.81 279.166 1249.51 267.051L1244.71 222.254C1242.68 203.355 1228.89 187.821 1210.36 183.575L1155.05 170.896C1136.52 166.648 1117.34 174.624 1107.29 190.755L1083.46 228.991C1077.01 239.331 1065.88 245.726 1053.72 246.376C1023.11 248.009 993.121 253.167 964.256 261.525C952.535 264.92 939.909 262.544 930.411 254.884L895.307 226.575C880.511 214.643 859.773 213.411 843.667 223.509L795.59 253.657C779.487 263.754 771.565 282.958 775.861 301.473L786.055 345.405C788.814 357.292 785.452 369.691 777.291 378.765C757.197 401.107 739.493 425.854 724.689 452.697C718.808 463.366 708.204 470.596 696.09 471.894L651.293 476.693C632.393 478.718 616.859 492.512 612.612 511.04Z" fill="#85888A"/>
<path d="M1313.62 783.47L1307.56 773.94L1311.39 771.51L1317.45 781.03L1313.62 783.47Z" fill="#6BC49E"/>
<path d="M1512.51 655.869C1510.64 655.869 1508.82 654.945 1507.74 653.254C1506.07 650.626 1506.84 647.136 1509.47 645.462L1519 639.402C1521.62 637.735 1525.1 638.5 1526.77 641.11C1525.12 638.484 1525.9 635.012 1528.52 633.343L1538.04 627.282C1540.68 625.609 1544.16 626.383 1545.84 629.015C1547.51 631.643 1546.74 635.133 1544.11 636.807L1534.58 642.868C1531.96 644.534 1528.48 643.769 1526.8 641.159C1528.46 643.785 1527.68 647.257 1525.06 648.926L1515.53 654.987C1514.59 655.584 1513.55 655.869 1512.51 655.869ZM1493.46 667.988C1491.6 667.988 1489.77 667.064 1488.7 665.374C1487.02 662.743 1487.8 659.255 1490.43 657.582L1499.95 651.523C1502.58 649.848 1506.07 650.628 1507.74 653.256C1509.42 655.887 1508.64 659.374 1506.01 661.048L1496.49 667.106C1495.55 667.704 1494.5 667.988 1493.46 667.988ZM1455.37 692.229C1453.5 692.229 1451.67 691.306 1450.6 689.615C1448.93 686.986 1449.7 683.497 1452.33 681.823L1461.86 675.762C1464.46 674.102 1467.92 674.854 1469.61 677.429C1467.99 674.808 1468.77 671.364 1471.38 669.704L1480.9 663.643C1483.53 661.969 1487.02 662.743 1488.69 665.375C1490.37 668.004 1489.59 671.494 1486.96 673.167L1477.44 679.228C1474.83 680.886 1471.38 680.139 1469.69 677.562C1471.31 680.183 1470.52 683.626 1467.92 685.287L1458.39 691.348C1457.45 691.945 1456.4 692.229 1455.37 692.229ZM1436.32 704.349C1434.45 704.349 1432.63 703.425 1431.55 701.734C1429.88 699.104 1430.66 695.616 1433.29 693.942L1442.81 687.884C1445.44 686.21 1448.93 686.986 1450.6 689.617C1452.27 692.247 1451.5 695.735 1448.87 697.408L1439.34 703.467C1438.41 704.064 1437.36 704.349 1436.32 704.349ZM1417.27 716.468C1415.41 716.468 1413.58 715.544 1412.5 713.853C1410.83 711.223 1411.61 707.735 1414.24 706.062L1423.76 700.003C1426.39 698.33 1429.88 699.106 1431.55 701.736C1433.23 704.367 1432.45 707.854 1429.82 709.528L1420.3 715.586C1419.36 716.184 1418.31 716.468 1417.27 716.468ZM1379.18 740.709C1377.31 740.709 1375.49 739.786 1374.41 738.095C1372.74 735.466 1373.51 731.977 1376.14 730.303L1385.67 724.242C1388.29 722.573 1391.77 723.338 1393.44 725.956C1391.79 723.327 1392.57 719.853 1395.19 718.184L1404.71 712.123C1407.34 710.449 1410.83 711.226 1412.5 713.856C1414.18 716.484 1413.4 719.974 1410.77 721.647L1401.25 727.708C1398.63 729.377 1395.15 728.612 1393.47 725.995C1395.13 728.623 1394.35 732.098 1391.73 733.767L1382.2 739.828C1381.26 740.425 1380.21 740.709 1379.18 740.709ZM1360.13 752.829C1358.26 752.829 1356.44 751.905 1355.36 750.214C1353.69 747.584 1354.47 744.096 1357.1 742.422L1366.62 736.364C1369.25 734.688 1372.74 735.469 1374.41 738.097C1376.08 740.727 1375.31 744.215 1372.68 745.888L1363.16 751.947C1362.22 752.544 1361.17 752.829 1360.13 752.829ZM1322.04 777.069C1320.17 777.069 1318.34 776.149 1317.27 774.459C1315.59 771.829 1316.37 768.339 1319 766.664L1328.52 760.603C1331.13 758.945 1334.59 759.692 1336.27 762.272C1334.66 759.648 1335.44 756.204 1338.05 754.544L1347.57 748.483C1350.2 746.808 1353.69 747.586 1355.36 750.216C1357.04 752.844 1356.26 756.334 1353.63 758.008L1344.11 764.069C1341.5 765.729 1338.05 764.979 1336.36 762.4C1337.98 765.023 1337.19 768.469 1334.58 770.129L1325.06 776.189C1324.12 776.789 1323.07 777.069 1322.04 777.069Z" fill="#6BC49E"/>
<path d="M1316.23 773.059H1874.9V214.394H1316.23V773.059ZM1886.19 784.349H1304.95V203.105H1886.19V784.349Z" fill="#6BC49E"/>
<path d="M1558.18 637.688H1546.89C1543.78 637.688 1541.25 635.162 1541.25 632.044C1541.25 628.927 1543.78 626.4 1546.89 626.4H1558.18C1561.3 626.4 1563.83 628.927 1563.83 632.044C1563.83 635.162 1561.3 637.688 1558.18 637.688ZM1580.76 637.688H1569.47C1566.35 637.688 1563.83 635.162 1563.83 632.044C1563.83 628.927 1566.35 626.4 1569.47 626.4H1580.76C1583.88 626.4 1586.4 628.927 1586.4 632.044C1586.4 635.162 1583.88 637.688 1580.76 637.688ZM1603.33 637.688H1592.05C1588.93 637.688 1586.4 635.162 1586.4 632.044C1586.4 628.927 1588.93 626.4 1592.05 626.4H1603.33C1606.45 626.4 1608.98 628.927 1608.98 632.044C1608.98 635.162 1606.45 637.688 1603.33 637.688ZM1625.91 637.688H1614.62C1611.51 637.688 1608.98 635.162 1608.98 632.044C1608.98 628.927 1611.51 626.4 1614.62 626.4H1625.91C1629.03 626.4 1631.56 628.927 1631.56 632.044C1631.56 635.162 1629.03 637.688 1625.91 637.688ZM1648.49 637.688H1637.2C1634.08 637.688 1631.56 635.162 1631.56 632.044C1631.56 628.927 1634.08 626.4 1637.2 626.4H1648.49C1651.61 626.4 1654.13 628.927 1654.13 632.044C1654.13 635.162 1651.61 637.688 1648.49 637.688ZM1671.06 637.688H1659.78C1656.66 637.688 1654.13 635.162 1654.13 632.044C1654.13 628.927 1656.66 626.4 1659.78 626.4H1671.06C1674.18 626.4 1676.71 628.927 1676.71 632.044C1676.71 635.162 1674.18 637.688 1671.06 637.688ZM1693.64 637.688H1682.35C1679.24 637.688 1676.71 635.162 1676.71 632.044C1676.71 628.927 1679.24 626.4 1682.35 626.4H1693.64C1696.76 626.4 1699.29 628.927 1699.29 632.044C1699.29 635.162 1696.76 637.688 1693.64 637.688ZM1716.22 637.688H1704.93C1701.81 637.688 1699.29 635.162 1699.29 632.044C1699.29 628.927 1701.81 626.4 1704.93 626.4H1716.22C1719.33 626.4 1721.86 628.927 1721.86 632.044C1721.86 635.162 1719.33 637.688 1716.22 637.688ZM1738.79 637.688H1727.51C1724.39 637.688 1721.86 635.162 1721.86 632.044C1721.86 628.927 1724.39 626.4 1727.51 626.4H1738.79C1741.91 626.4 1744.44 628.927 1744.44 632.044C1744.44 635.162 1741.91 637.688 1738.79 637.688ZM1761.37 637.688H1750.08C1746.96 637.688 1744.44 635.162 1744.44 632.044C1744.44 628.927 1746.96 626.4 1750.08 626.4H1761.37C1764.49 626.4 1767.01 628.927 1767.01 632.044C1767.01 635.162 1764.49 637.688 1761.37 637.688ZM1783.95 637.688H1772.66C1769.54 637.688 1767.01 635.162 1767.01 632.044C1767.01 628.927 1769.54 626.4 1772.66 626.4H1783.95C1787.06 626.4 1789.59 628.927 1789.59 632.044C1789.59 635.162 1787.06 637.688 1783.95 637.688ZM1806.52 637.688H1795.24C1792.12 637.688 1789.59 635.162 1789.59 632.044C1789.59 628.927 1792.12 626.4 1795.24 626.4H1806.52C1809.64 626.4 1812.17 628.927 1812.17 632.044C1812.17 635.162 1809.64 637.688 1806.52 637.688ZM1829.1 637.688H1817.81C1814.69 637.688 1812.17 635.162 1812.17 632.044C1812.17 628.927 1814.69 626.4 1817.81 626.4H1829.1C1832.22 626.4 1834.74 628.927 1834.74 632.044C1834.74 635.162 1832.22 637.688 1829.1 637.688ZM1851.68 637.688H1840.39C1837.27 637.688 1834.74 635.162 1834.74 632.044C1834.74 628.927 1837.27 626.4 1840.39 626.4H1851.68C1854.79 626.4 1857.32 628.927 1857.32 632.044C1857.32 635.162 1854.79 637.688 1851.68 637.688ZM1874.25 637.688H1862.96C1859.85 637.688 1857.32 635.162 1857.32 632.044C1857.32 628.927 1859.85 626.4 1862.96 626.4H1874.25C1877.37 626.4 1879.9 628.927 1879.9 632.044C1879.9 635.162 1877.37 637.688 1874.25 637.688ZM1896.83 637.688H1885.54C1882.42 637.688 1879.9 635.162 1879.9 632.044C1879.9 628.927 1882.42 626.4 1885.54 626.4H1896.83C1899.95 626.4 1902.47 628.927 1902.47 632.044C1902.47 635.162 1899.95 637.688 1896.83 637.688ZM1919.41 637.688H1908.12C1905 637.688 1902.47 635.162 1902.47 632.044C1902.47 628.927 1905 626.4 1908.12 626.4H1919.41C1922.52 626.4 1925.05 628.927 1925.05 632.044C1925.05 635.162 1922.52 637.688 1919.41 637.688ZM1941.98 637.688H1930.69C1927.58 637.688 1925.05 635.162 1925.05 632.044C1925.05 628.927 1927.58 626.4 1930.69 626.4H1941.98C1945.1 626.4 1947.63 628.927 1947.63 632.044C1947.63 635.162 1945.1 637.688 1941.98 637.688ZM1964.56 637.688H1953.27C1950.15 637.688 1947.63 635.162 1947.63 632.044C1947.63 628.927 1950.15 626.4 1953.27 626.4H1964.56C1967.68 626.4 1970.2 628.927 1970.2 632.044C1970.2 635.162 1967.68 637.688 1964.56 637.688ZM1987.14 637.688H1975.85C1972.73 637.688 1970.2 635.162 1970.2 632.044C1970.2 628.927 1972.73 626.4 1975.85 626.4H1987.14C1990.25 626.4 1992.78 628.927 1992.78 632.044C1992.78 635.162 1990.25 637.688 1987.14 637.688ZM2009.71 637.688H1998.42C1995.31 637.688 1992.78 635.162 1992.78 632.044C1992.78 628.927 1995.31 626.4 1998.42 626.4H2009.71C2012.83 626.4 2015.36 628.927 2015.36 632.044C2015.36 635.162 2012.83 637.688 2009.71 637.688ZM2032.29 637.688H2021C2017.88 637.688 2015.36 635.162 2015.36 632.044C2015.36 628.927 2017.88 626.4 2021 626.4H2032.29C2035.41 626.4 2037.93 628.927 2037.93 632.044C2037.93 635.162 2035.41 637.688 2032.29 637.688ZM2054.87 637.688H2043.58C2040.46 637.688 2037.93 635.162 2037.93 632.044C2037.93 628.927 2040.46 626.4 2043.58 626.4H2054.87C2057.98 626.4 2060.51 628.927 2060.51 632.044C2060.51 635.162 2057.98 637.688 2054.87 637.688Z" fill="#6BC49E"/>
<path d="M1545.31 637.689H1535.43V624.988C1535.43 621.871 1537.96 619.344 1541.08 619.344C1537.96 619.344 1535.43 616.817 1535.43 613.7V602.412C1535.43 599.294 1537.96 596.767 1541.08 596.767C1537.96 596.767 1535.43 594.241 1535.43 591.123V579.835C1535.43 576.717 1537.96 574.191 1541.08 574.191C1537.96 574.191 1535.43 571.664 1535.43 568.547V557.258C1535.43 554.178 1537.9 551.676 1540.96 551.614C1537.9 551.555 1535.43 549.052 1535.43 545.972V534.684C1535.43 531.566 1537.96 529.04 1541.08 529.04C1537.96 529.04 1535.43 526.513 1535.43 523.396V512.107C1535.43 508.99 1537.96 506.463 1541.08 506.463C1537.96 506.463 1535.43 503.937 1535.43 500.819V489.531C1535.43 486.414 1537.96 483.887 1541.08 483.887C1537.96 483.887 1535.43 481.36 1535.43 478.243V466.955C1535.43 463.837 1537.96 461.31 1541.08 461.31C1537.96 461.31 1535.43 458.784 1535.43 455.666V444.378C1535.43 441.26 1537.96 438.734 1541.08 438.734C1537.96 438.734 1535.43 436.207 1535.43 433.09V421.801C1535.43 418.684 1537.96 416.157 1541.08 416.157C1537.96 416.157 1535.43 413.63 1535.43 410.513V399.225C1535.43 396.107 1537.96 393.581 1541.08 393.581C1537.96 393.581 1535.43 391.054 1535.43 387.937V376.648C1535.43 373.531 1537.96 371.004 1541.08 371.004C1537.96 371.004 1535.43 368.478 1535.43 365.36V354.07C1535.43 350.952 1537.96 348.425 1541.08 348.425C1537.96 348.425 1535.43 345.899 1535.43 342.781V331.493C1535.43 328.375 1537.96 325.849 1541.08 325.849C1537.96 325.849 1535.43 323.322 1535.43 320.205V308.917C1535.43 305.799 1537.96 303.272 1541.08 303.272C1537.96 303.272 1535.43 300.746 1535.43 297.628V286.34C1535.43 283.222 1537.96 280.696 1541.08 280.696C1537.96 280.696 1535.43 278.169 1535.43 275.052V263.763C1535.43 260.646 1537.96 258.119 1541.08 258.119C1537.96 258.119 1535.43 255.593 1535.43 252.475V241.187C1535.43 238.069 1537.96 235.542 1541.08 235.542C1537.96 235.542 1535.43 233.016 1535.43 229.898V218.61C1535.43 215.493 1537.96 212.966 1541.08 212.966C1537.96 212.966 1535.43 210.439 1535.43 207.322V196.034C1535.43 192.917 1537.96 190.39 1541.08 190.39C1537.96 190.39 1535.43 187.863 1535.43 184.746V173.457C1535.43 170.34 1537.96 167.813 1541.08 167.813C1537.96 167.813 1535.43 165.287 1535.43 162.169V150.881C1535.43 147.763 1537.96 145.237 1541.08 145.237C1537.96 145.237 1535.43 142.71 1535.43 139.592V128.304C1535.43 125.187 1537.96 122.66 1541.08 122.66C1544.19 122.66 1546.72 125.187 1546.72 128.304V139.592C1546.72 142.71 1544.19 145.237 1541.08 145.237C1544.19 145.237 1546.72 147.763 1546.72 150.881V162.169C1546.72 165.287 1544.19 167.813 1541.08 167.813C1544.19 167.813 1546.72 170.34 1546.72 173.457V184.746C1546.72 187.863 1544.19 190.39 1541.08 190.39C1544.19 190.39 1546.72 192.917 1546.72 196.034V207.322C1546.72 210.439 1544.19 212.966 1541.08 212.966C1544.19 212.966 1546.72 215.493 1546.72 218.61V229.898C1546.72 233.016 1544.19 235.542 1541.08 235.542C1544.19 235.542 1546.72 238.069 1546.72 241.187V252.475C1546.72 255.593 1544.19 258.119 1541.08 258.119C1544.19 258.119 1546.72 260.646 1546.72 263.763V275.052C1546.72 278.169 1544.19 280.696 1541.08 280.696C1544.19 280.696 1546.72 283.222 1546.72 286.34V297.628C1546.72 300.746 1544.19 303.272 1541.08 303.272C1544.19 303.272 1546.72 305.799 1546.72 308.917V320.205C1546.72 323.322 1544.19 325.849 1541.08 325.849C1544.19 325.849 1546.72 328.375 1546.72 331.493V342.781C1546.72 345.899 1544.19 348.425 1541.08 348.425C1544.19 348.425 1546.72 350.952 1546.72 354.07V365.36C1546.72 368.478 1544.19 371.004 1541.08 371.004C1544.19 371.004 1546.72 373.531 1546.72 376.648V387.937C1546.72 391.054 1544.19 393.581 1541.08 393.581C1544.19 393.581 1546.72 396.107 1546.72 399.225V410.513C1546.72 413.63 1544.19 416.157 1541.08 416.157C1544.19 416.157 1546.72 418.684 1546.72 421.801V433.09C1546.72 436.207 1544.19 438.734 1541.08 438.734C1544.19 438.734 1546.72 441.26 1546.72 444.378V455.666C1546.72 458.784 1544.19 461.31 1541.08 461.31C1544.19 461.31 1546.72 463.837 1546.72 466.955V478.243C1546.72 481.36 1544.19 483.887 1541.08 483.887C1544.19 483.887 1546.72 486.414 1546.72 489.531V500.819C1546.72 503.937 1544.19 506.463 1541.08 506.463C1544.19 506.463 1546.72 508.99 1546.72 512.107V523.396C1546.72 526.513 1544.19 529.04 1541.08 529.04C1544.19 529.04 1546.72 531.566 1546.72 534.684V545.972C1546.72 549.052 1544.25 551.555 1541.19 551.614C1544.25 551.676 1546.72 554.178 1546.72 557.258V568.547C1546.72 571.664 1544.19 574.191 1541.08 574.191C1544.19 574.191 1546.72 576.717 1546.72 579.835V591.123C1546.72 594.241 1544.19 596.767 1541.08 596.767C1544.19 596.767 1546.72 599.294 1546.72 602.412V613.7C1546.72 616.817 1544.19 619.344 1541.08 619.344C1544.19 619.344 1546.72 621.871 1546.72 624.988V626.58C1549.15 627.206 1550.95 629.415 1550.95 632.045C1550.95 635.163 1548.42 637.689 1545.31 637.689Z" fill="#6BC49E"/>
<path d="M1886.19 212.144V766.772L2053.57 629.375V123.293L1886.19 212.144ZM1886.17 784.56L1874.9 205.357L2064.19 108.707L2064.86 634.715L1886.17 784.56Z" fill="#6BC49E"/>
<path d="M1316.23 778.71H1304.95V204.97L1535.43 108.252L1546.69 119.533L1541.75 119.484L1316.23 212.532V778.71Z" fill="#6BC49E"/>
<path d="M2064.86 637.689H2054.87V632.045H2053.57V119.551H1546.72L1535.43 119.75V108.263H2064.86V637.689Z" fill="#6BC49E"/>
<mask id="mask2_2991_3965" style="mask-type:luminance" maskUnits="userSpaceOnUse" x="728" y="246" width="1080" height="731">
<path d="M1807.16 546.88C1807.16 750.016 1294.13 971.12 1091.05 976.21C886.063 981.36 728.758 817.57 728.758 614.437C728.758 411.301 893.432 246.628 1096.57 246.628C1299.7 246.628 1807.16 343.745 1807.16 546.88Z" fill="white"/>
</mask>
<g mask="url(#mask2_2991_3965)">
<path fill-rule="evenodd" clip-rule="evenodd" d="M1391.26 681.842C1391.68 677.955 1387.11 675.561 1384.15 678.111C1373.18 687.552 1351.87 702.572 1330.71 698.825C1329.64 698.636 1328.62 698.48 1327.62 698.344C1328.36 695.625 1330.08 693.035 1333.67 691.507C1343.95 687.133 1341.86 670.384 1341.86 670.384C1341.86 670.384 1335.01 679.326 1323.97 680.464C1314.46 681.444 1303.98 690.763 1301.98 702.813C1287.85 743.116 1270.72 797.45 1196.87 796.17C1123.03 794.89 1114.42 650.364 1114.42 650.364L1074.05 788.9C1074.05 788.9 1102.29 867.24 1205.72 852.74C1309.15 838.23 1322.41 725.412 1322.41 725.412C1322.41 725.412 1385.16 738.502 1391.26 681.842Z" fill="#BC8271"/>
<path d="M1105.82 415.636C1105.82 415.636 1123.81 334.924 1031.36 356.291C1031.36 356.291 986.479 348.957 984.196 391.315C984.196 391.315 955.269 410.376 976.449 447.034C976.449 447.034 890.477 413.827 853.019 489.183C815.561 564.538 849.992 606.002 886.087 616.801C886.087 616.801 856.844 631.485 870.686 664.639C884.529 697.793 954.629 721.165 996.04 680.846C996.04 680.846 1113.87 696.417 1111.51 613.188C1111.51 613.188 1166.32 577.798 1108.75 509.015C1051.19 440.232 1105.82 415.636 1105.82 415.636Z" fill="#333435"/>
<path d="M1110.89 602.719C1092.32 597.149 1038.22 586.866 986.769 634.349C978.042 642.401 974.476 654.638 977.588 666.097C991.408 716.975 1027.87 867.29 995.899 932.33C995.899 932.33 1052.24 994.44 1113.71 944.38C1113.71 944.38 1141.28 824.19 1177.4 771.42C1202.34 734.993 1137.64 634.626 1121.27 610.379C1118.79 606.708 1115.14 603.991 1110.89 602.719Z" fill="#0C2B34"/>
<path fill-rule="evenodd" clip-rule="evenodd" d="M1059.6 501.638C1059.6 501.638 1032.12 579.355 1030.05 613.641C1030.05 613.641 1060.42 627.449 1089.04 604.143C1089.04 604.143 1092.04 526.516 1096.38 512.616L1059.6 501.638Z" fill="#BC8271"/>
<path fill-rule="evenodd" clip-rule="evenodd" d="M1097.76 395.672C1097.76 395.672 1169.63 496.243 1126.67 525.455C1083.71 554.667 1032.55 483.196 1032.55 483.196C1032.55 483.196 1015.88 428.149 1033.31 409.477C1050.75 390.803 1097.76 395.672 1097.76 395.672Z" fill="#BC8271"/>
<path d="M1064.5 371.639C1064.5 371.639 1097.51 379.461 1102.14 394.398C1106.77 409.337 1055.32 423.188 1040.91 423.866L1029.29 484.144C1029.29 484.144 994.959 427.439 1008.56 394.69C1022.16 361.941 1064.5 371.639 1064.5 371.639Z" fill="#333435"/>
<path fill-rule="evenodd" clip-rule="evenodd" d="M1046.48 475.796C1046.48 475.796 1018.51 443.401 1007.39 464.52C996.259 485.639 1032.56 501.495 1045.13 491.126L1046.48 475.796Z" fill="#BC8271"/>
</g>
<mask id="mask3_2991_3965" style="mask-type:luminance" maskUnits="userSpaceOnUse" x="728" y="246" width="1080" height="731">
<path d="M1807.16 546.88C1807.16 750.016 1294.13 971.12 1091.05 976.21C886.063 981.36 728.758 817.57 728.758 614.437C728.758 411.301 893.432 246.628 1096.57 246.628C1299.7 246.628 1807.16 343.745 1807.16 546.88Z" fill="white"/>
</mask>
<g mask="url(#mask3_2991_3965)">
<path d="M1122.21 915.069C1122.21 915.069 1114.11 940.869 1126.55 983.369L1203.7 1252.77C1204.91 1257 1202.62 1261.43 1198.48 1262.92C1175.4 1271.2 1099.54 1294.61 995.992 1287.47C990.778 1287.11 986.406 1283.42 985.272 1278.32C978.449 1247.61 955.169 1142.82 950.376 1121.29C932.112 1039.25 911.718 950.769 1001.43 897.279C1042.78 914.989 1081.34 925.419 1122.21 915.069Z" fill="#0C2B34"/>
<path fill-rule="evenodd" clip-rule="evenodd" d="M1273.16 800.22C1277.9 803.93 1294.16 796.19 1304.11 790.84C1308.96 788.23 1311.31 782.56 1309.65 777.31C1307.25 769.76 1303.26 760.013 1298.35 758.784C1290.19 756.745 1253.6 784.94 1273.16 800.22Z" fill="url(#paint9_linear_2991_3965)"/>
<path d="M653.568 951.28L1428.94 675.521L1469.96 789.469L694.858 1072.94C678.396 1078.96 660.023 1072.28 651.202 1057.13C642.141 1041.57 633.482 1017.26 632.96 980.849C632.77 967.609 641.093 955.72 653.568 951.28Z" fill="#5C5E61"/>
<path d="M1668.81 646.069L1561.71 659.22C1561.82 673.961 1566.65 693.032 1582.99 714.911L1672.43 655.907C1677.18 652.774 1674.46 645.376 1668.81 646.069Z" fill="#48494B"/>
<path d="M1428.94 675.522C1424.03 746.935 1469.96 789.47 1469.96 789.47L1582.99 714.912C1566.65 693.033 1561.82 673.962 1561.71 659.221L1428.94 675.522Z" fill="white"/>
<path d="M663.188 986.23C662.248 986.23 661.369 985.64 661.04 984.71C660.619 983.52 661.242 982.22 662.428 981.8L1404.25 719.636C1405.44 719.217 1406.74 719.838 1407.15 721.024C1407.57 722.211 1406.95 723.513 1405.76 723.931L663.946 986.1C663.695 986.18 663.439 986.23 663.188 986.23Z" fill="#888B8F"/>
<path d="M675.985 1030.93C675.045 1030.93 674.166 1030.35 673.837 1029.41C673.416 1028.23 674.04 1026.92 675.226 1026.51L1417.04 764.338C1418.23 763.919 1419.53 764.538 1419.95 765.727C1420.37 766.913 1419.75 768.219 1418.56 768.629L676.744 1030.8C676.492 1030.89 676.236 1030.93 675.985 1030.93Z" fill="#888B8F"/>
<path fill-rule="evenodd" clip-rule="evenodd" d="M979.409 644.499C979.409 644.499 891.634 717.445 869.851 817.119C848.068 916.799 998.112 927.389 998.112 927.389C998.112 927.389 1018.48 904.649 1042.66 912.759C1066.85 920.869 1044.54 873.059 1016.24 873.189C987.949 873.309 1001.05 895.689 961.03 877.559C922.04 859.899 897.941 805.269 997.421 722.475C1003.19 717.676 1007.79 711.557 1010.56 704.584C1029.89 655.935 1014.56 624.045 979.409 644.499Z" fill="url(#paint10_linear_2991_3965)"/>
</g>
</g>
</g>
</g>
<defs>
<linearGradient id="paint0_linear_2991_3965" x1="1702.1" y1="1344.05" x2="1837.99" y2="1704.15" gradientUnits="userSpaceOnUse">
<stop stop-color="white"/>
<stop offset="1" stop-color="#EFEFF4"/>
</linearGradient>
<linearGradient id="paint1_linear_2991_3965" x1="2036.39" y1="1810.14" x2="2041.58" y2="1829.33" gradientUnits="userSpaceOnUse">
<stop stop-color="white"/>
<stop offset="1" stop-color="#EFEFF4"/>
</linearGradient>
<linearGradient id="paint2_linear_2991_3965" x1="1880.63" y1="1827.07" x2="1886.85" y2="1852.48" gradientUnits="userSpaceOnUse">
<stop stop-color="white"/>
<stop offset="1" stop-color="#EFEFF4"/>
</linearGradient>
<linearGradient id="paint3_linear_2991_3965" x1="1835.67" y1="1269.22" x2="1797.29" y2="1072.66" gradientUnits="userSpaceOnUse">
<stop stop-color="white"/>
<stop offset="1" stop-color="#EFEFF4"/>
</linearGradient>
<linearGradient id="paint4_linear_2991_3965" x1="1849.3" y1="1060.03" x2="1904.28" y2="989.496" gradientUnits="userSpaceOnUse">
<stop stop-color="white"/>
<stop offset="1" stop-color="#EFEFF4"/>
</linearGradient>
<linearGradient id="paint5_linear_2991_3965" x1="1871.48" y1="1077.31" x2="1926.46" y2="1006.78" gradientUnits="userSpaceOnUse">
<stop stop-color="white"/>
<stop offset="1" stop-color="#EFEFF4"/>
</linearGradient>
<linearGradient id="paint6_linear_2991_3965" x1="2085.95" y1="1386.01" x2="2275.77" y2="1344.52" gradientUnits="userSpaceOnUse">
<stop stop-color="white"/>
<stop offset="1" stop-color="#EFEFF4"/>
</linearGradient>
<linearGradient id="paint7_linear_2991_3965" x1="1651.74" y1="1346.99" x2="1593.65" y2="1233.93" gradientUnits="userSpaceOnUse">
<stop stop-color="white"/>
<stop offset="1" stop-color="#EFEFF4"/>
</linearGradient>
<linearGradient id="paint8_linear_2991_3965" x1="2098.46" y1="1443.21" x2="2288.28" y2="1401.72" gradientUnits="userSpaceOnUse">
<stop stop-color="white"/>
<stop offset="1" stop-color="#EFEFF4"/>
</linearGradient>
<linearGradient id="paint9_linear_2991_3965" x1="1267.48" y1="779.94" x2="1310.18" y2="779.94" gradientUnits="userSpaceOnUse">
<stop stop-color="white"/>
<stop offset="1" stop-color="#EFEFF4"/>
</linearGradient>
<linearGradient id="paint10_linear_2991_3965" x1="1079.41" y1="770.109" x2="1480.84" y2="707.873" gradientUnits="userSpaceOnUse">
<stop stop-color="#BC8271"/>
<stop offset="1" stop-color="#878A8E"/>
</linearGradient>
<clipPath id="clip0_2991_3965">
<rect width="2500" height="2018" fill="white"/>
</clipPath>
</defs>
</svg>
