<svg width="987" height="1220" viewBox="0 0 987 1220" fill="none" xmlns="http://www.w3.org/2000/svg">
<rect width="987" height="1220" fill="white"/>
<rect width="987" height="1220" fill="white" fill-opacity="0.2"/>
<path d="M381.083 846.952L318.167 875.915C319.831 875.083 387.284 832.589 387.284 832.589C387.284 816.927 376.601 794.436 359.002 791.376L367.849 779.276C358.28 765.74 344.117 756.144 327.998 752.276L290.339 799.921C285.457 783.266 275.618 768.494 262.133 757.57C253.009 755.189 244.182 751.791 235.817 747.44C232.235 761.697 227.956 772.387 227.061 783.738C225.469 803.487 225.815 845.826 232.505 862.542C230.993 868.667 213.903 941.716 275.004 941.792H382.898C390.627 910.684 388.414 878.016 381.083 846.952Z" fill="#FECFC4"/>
<path d="M589.415 471.73H415.641V380.377H589.415V471.73Z" fill="#FECFC4"/>
<path d="M553.723 555.286H450.812C448.024 555.286 445.351 556.394 443.379 558.365C441.408 560.336 440.301 563.01 440.301 565.798C440.301 568.585 441.408 571.259 443.379 573.23C445.351 575.201 448.024 576.309 450.812 576.309H553.731C556.519 576.309 559.192 575.201 561.163 573.23C563.135 571.259 564.242 568.585 564.242 565.798C564.242 563.01 563.135 560.336 561.163 558.365C559.192 556.394 556.519 555.286 553.731 555.286H553.723Z" fill="#FECFC4"/>
<path d="M276.122 613.828H214.113C212.733 613.829 211.365 613.558 210.09 613.03C208.814 612.502 207.655 611.728 206.678 610.751C205.702 609.775 204.928 608.616 204.4 607.34C203.872 606.065 203.601 604.697 203.602 603.317C203.602 601.936 203.873 600.569 204.401 599.294C204.929 598.018 205.703 596.859 206.68 595.883C207.656 594.907 208.815 594.133 210.09 593.604C211.366 593.076 212.733 592.805 214.113 592.805H276.122C278.909 592.805 281.583 593.913 283.554 595.884C285.525 597.855 286.633 600.529 286.633 603.317C286.633 606.104 285.525 608.778 283.554 610.749C281.583 612.72 278.909 613.828 276.122 613.828Z" fill="#FECFC4"/>
<path d="M750.788 548.182H690.519C688.415 548.14 686.346 548.731 684.581 549.879C682.817 551.028 681.439 552.68 680.625 554.621C679.946 556.235 679.682 557.992 679.855 559.734C680.028 561.476 680.633 563.147 681.616 564.596C682.599 566.044 683.929 567.224 685.483 568.028C687.038 568.832 688.769 569.235 690.519 569.2H750.788C752.893 569.242 754.962 568.651 756.726 567.503C758.491 566.354 759.869 564.702 760.683 562.761C761.361 561.147 761.626 559.39 761.453 557.648C761.28 555.906 760.674 554.235 759.691 552.786C758.708 551.338 757.379 550.158 755.824 549.354C754.27 548.55 752.539 548.147 750.788 548.182Z" fill="#FECFC4"/>
<path d="M243.378 731.708L254.041 740.177C254.041 738.363 254.192 736.548 254.268 734.586C250.509 734.203 246.835 733.232 243.378 731.708Z" fill="#6153BD"/>
<path d="M194.452 703.131C193.091 707.816 186.492 734.665 208.668 748.726C206.551 749.634 196.04 757.048 195.136 757.729C185.639 764.749 177.357 773.278 170.62 782.978C156.781 803.773 155.118 834.929 176.367 851.494C190.432 862.379 215.992 863.29 229.376 850.3C226.228 828.291 225.467 806.006 227.108 783.834C228.015 772.184 232.25 762.206 234.821 751.464C240.644 727.397 236.791 721.113 231.418 707.684C221.209 705.193 224.839 693.094 231.872 697.173C232.859 697.818 233.965 698.256 235.124 698.463C238.98 678.801 246.467 677.369 253.272 683.713C243.545 670.941 203.853 671.013 194.452 703.131Z" fill="#6153BD"/>
<path d="M378.436 838.03C325.653 871.625 321.41 874.22 318.015 875.915L380.931 846.953L378.436 838.03Z" fill="#6153BD"/>
<path d="M601.893 935.353C588.508 924.01 568.859 910.247 551.303 905.105C535.392 909.682 518.514 909.682 502.604 905.105C499.491 913.975 497.509 923.202 496.705 932.567C496.566 934.251 496.957 935.936 497.824 937.386C498.69 938.836 499.988 939.979 501.537 940.655C502.564 941.1 503.674 941.327 504.797 941.323C535.271 941.399 561.738 941.721 599.548 941.781C600.296 941.783 601.027 941.554 601.64 941.127C602.253 940.699 602.72 940.092 602.976 939.39C603.232 938.687 603.266 937.923 603.072 937.2C602.878 936.478 602.466 935.833 601.893 935.353Z" fill="#6153BD"/>
<path d="M693.166 844.079C693.113 843.357 692.834 842.668 692.369 842.112C691.905 841.556 691.277 841.16 690.575 840.979C689.874 840.794 689.133 840.833 688.456 841.091C687.778 841.349 687.199 841.812 686.798 842.416C675.455 855.805 661.692 887.565 656.55 905.105C660.928 921.896 661.238 926.052 656.625 941.784H692.843C695.98 942.083 698.766 875.315 693.166 844.079Z" fill="#6153BD"/>
<path d="M296.615 397.393C296.615 400.099 295.539 402.696 293.625 404.61C291.711 406.524 289.115 407.599 286.408 407.599C283.701 407.599 281.105 406.524 279.191 404.61C277.277 402.696 276.201 400.099 276.201 397.393C276.201 394.686 277.277 392.089 279.191 390.175C281.105 388.261 283.701 387.186 286.408 387.186C289.115 387.186 291.711 388.261 293.625 390.175C295.539 392.089 296.615 394.686 296.615 397.393Z" fill="#6153BD"/>
<path d="M417.455 881.969L389.551 900.798C395.28 894.633 400.588 888.09 405.439 881.213C405.356 881.284 409.969 881.435 417.455 881.969Z" fill="#6153BD"/>
<path d="M263.72 730.574C274.938 738.624 288.404 742.941 302.211 742.912H349.175" stroke="#120071" stroke-width="0.769171" stroke-linecap="round" stroke-linejoin="round"/>
<path d="M385.317 742.899H370.269" stroke="#120071" stroke-width="0.769171" stroke-linecap="round" stroke-linejoin="round"/>
<path d="M388.115 742.904H702.846C711.526 742.907 720.122 741.2 728.142 737.879C736.162 734.559 743.449 729.691 749.587 723.553C755.724 717.415 760.593 710.128 763.913 702.108C767.233 694.088 768.941 685.492 768.938 676.812V658.054" stroke="#120071" stroke-width="0.769171" stroke-linecap="round" stroke-linejoin="round"/>
<path d="M768.938 531.012V419.775C768.942 411.095 767.236 402.498 763.916 394.478C760.596 386.457 755.728 379.17 749.59 373.032C743.452 366.894 736.164 362.026 728.143 358.707C720.123 355.388 711.526 353.682 702.846 353.687H302.211C293.531 353.684 284.936 355.391 276.916 358.711C268.896 362.032 261.609 366.899 255.471 373.037C249.334 379.174 244.465 386.461 241.145 394.48C237.824 402.5 236.117 411.095 236.119 419.775V531.016" stroke="#120071" stroke-width="0.769171" stroke-linecap="round" stroke-linejoin="round"/>
<path d="M236.119 676.128V658.054" stroke="#120071" stroke-width="0.769171" stroke-linecap="round" stroke-linejoin="round"/>
<path d="M232.489 862.535C231.057 858.503 229.991 854.351 229.305 850.129" stroke="#120071" stroke-width="0.769171" stroke-linecap="round" stroke-linejoin="round"/>
<path d="M240.668 756.663C246.336 758.41 251.868 760.559 257.229 763.09C263.144 766.112 268.001 770.858 271.159 776.702C281.027 794.951 291.804 812.693 303.449 829.863L358.878 791.297C369.389 793.115 377.21 801.605 381.64 810.886C385.031 817.606 386.915 824.986 387.16 832.509C383.033 835.172 330.791 868.361 323.11 873.046C297.148 888.878 276.918 883.434 262.16 856.787C259.816 852.553 237.735 816.936 237.735 816.936" stroke="#120071" stroke-width="0.769171" stroke-linecap="round" stroke-linejoin="round"/>
<path d="M254.041 740.177L243.378 731.708C246.861 733.233 250.561 734.203 254.343 734.582" stroke="#120071" stroke-width="0.769171" stroke-linecap="round" stroke-linejoin="round"/>
<path d="M295.405 817.692C292.955 807.316 289.615 797.17 285.423 787.368C275.274 765.442 260.58 757.454 256.839 752.658C254.417 748.978 253.426 744.538 254.053 740.177L254.355 734.581C256.138 734.73 257.93 734.443 259.576 733.745C261.223 733.047 262.675 731.958 263.808 730.573C271.871 720.329 263.429 693.217 253.296 683.689" stroke="#120071" stroke-width="0.769171" stroke-linecap="round" stroke-linejoin="round"/>
<path d="M253.285 683.69C246.479 677.322 238.992 678.778 235.136 698.44C233.976 698.233 232.87 697.795 231.884 697.15C224.848 693.075 221.222 705.166 231.43 707.661C233.665 712.035 235.366 716.661 236.497 721.44C238.554 731.421 237.981 741.765 234.833 751.457C232.25 762.203 228.067 772.181 227.12 783.827C225.493 805.999 226.254 828.282 229.389 850.293C216.004 863.299 190.428 862.416 176.379 851.487C155.098 834.966 156.766 803.758 170.62 782.979C177.325 773.256 185.605 764.721 195.121 757.726C196.024 757.037 206.54 749.63 208.653 748.723C186.496 734.658 193.071 707.813 194.436 703.128C200.765 681.417 220.748 674.524 236.103 675.977C242.623 676.183 248.798 678.955 253.285 683.69Z" stroke="#120071" stroke-width="0.769171" stroke-linecap="round" stroke-linejoin="round"/>
<path d="M387.789 902.469C397.381 893.96 416.338 865.933 423.279 855.107C437.384 874.1 467.815 886.645 502.453 905.088" stroke="#120071" stroke-width="0.769171" stroke-linecap="round" stroke-linejoin="round"/>
<path d="M551.303 905.179C525.127 893.589 465.586 824.186 450.804 807.633C443.97 799.995 434.694 794.969 424.564 793.413" stroke="#120071" stroke-width="0.769171" stroke-linecap="round" stroke-linejoin="round"/>
<path d="M380.864 846.984L318.016 875.915" stroke="#120071" stroke-width="0.769171" stroke-linecap="round" stroke-linejoin="round"/>
<path d="M378.511 838.03C388.063 872.174 391.454 907.385 382.889 941.784H274.987C211.164 941.784 232.565 862.152 232.565 862.152C243.323 863.044 254.144 862.813 264.854 861.472" stroke="#120071" stroke-width="0.769171" stroke-linecap="round" stroke-linejoin="round"/>
<path d="M551.303 905.105C568.847 910.247 588.444 924.086 601.893 935.353C602.468 935.833 602.882 936.479 603.078 937.202C603.274 937.926 603.242 938.692 602.987 939.397C602.732 940.102 602.264 940.71 601.648 941.138C601.032 941.566 600.299 941.792 599.549 941.785C561.739 941.745 535.272 941.387 504.797 941.327C503.107 941.338 501.456 940.817 500.079 939.837C498.702 938.858 497.668 937.47 497.123 935.87C496.757 934.812 496.614 933.688 496.705 932.571C497.538 923.21 499.519 913.987 502.604 905.109C518.515 909.685 535.393 909.683 551.303 905.105Z" stroke="#120071" stroke-width="0.769171" stroke-linecap="round" stroke-linejoin="round"/>
<path d="M656.578 905.104C661.72 887.56 675.559 855.864 686.826 842.415C687.229 841.815 687.809 841.356 688.486 841.102C689.161 840.842 689.901 840.801 690.602 840.984C691.302 841.167 691.927 841.564 692.39 842.121C692.855 842.674 693.136 843.359 693.194 844.079C698.83 875.306 695.98 942.086 692.892 941.784H656.674C661.255 926.055 660.956 921.892 656.578 905.104Z" stroke="#120071" stroke-width="0.769171" stroke-linecap="round" stroke-linejoin="round"/>
<path d="M656.578 905.105C611.584 907.751 567.876 901.55 537.628 896.349" stroke="#120071" stroke-width="0.769171" stroke-linecap="round" stroke-linejoin="round"/>
<path d="M405.659 786.381C416.473 783.663 425.428 788.344 424.791 792.507C424.656 793.35 424.336 794.154 423.855 794.86C423.373 795.566 422.741 796.157 422.005 796.59" stroke="#120071" stroke-width="0.769171" stroke-linecap="round" stroke-linejoin="round"/>
<path d="M404.524 779.802C415.867 776.928 427.362 782.448 422.522 788.498" stroke="#120071" stroke-width="0.769171" stroke-linecap="round" stroke-linejoin="round"/>
<path d="M386.149 824.039C393.262 814.409 403 807.031 414.196 802.79" stroke="#120071" stroke-width="0.769171" stroke-linecap="round" stroke-linejoin="round"/>
<path d="M405.356 794.17C415.868 791.901 422.9 795.834 422.522 799.993C422.068 804.984 412.174 812.777 403.617 808.084" stroke="#120071" stroke-width="0.769171" stroke-linecap="round" stroke-linejoin="round"/>
<path d="M365.807 793.413C370.647 788.422 396.907 766.098 398.702 767.853C400.692 769.8 396.206 776.1 396.206 776.1" stroke="#120071" stroke-width="0.769171" stroke-linecap="round" stroke-linejoin="round"/>
<path d="M365.807 793.413C374.174 786.554 383.564 781.048 393.635 777.095C406.064 772.239 418.23 766.738 430.084 760.614C433.666 758.504 428.723 769.612 409.969 778.985" stroke="#120071" stroke-width="0.769171" stroke-linecap="round" stroke-linejoin="round"/>
<path d="M589.416 433.992H768.937" stroke="#120071" stroke-width="0.769171" stroke-linecap="round" stroke-linejoin="round"/>
<path d="M236.119 433.992H415.641" stroke="#120071" stroke-width="0.769171" stroke-linecap="round" stroke-linejoin="round"/>
<path d="M296.615 397.393C296.615 400.099 295.54 402.696 293.626 404.61C291.711 406.524 289.115 407.599 286.408 407.599C283.701 407.599 281.105 406.524 279.191 404.61C277.277 402.696 276.202 400.099 276.202 397.393C276.202 394.686 277.277 392.089 279.191 390.175C281.105 388.261 283.701 387.186 286.408 387.186C289.115 387.186 291.711 388.261 293.626 390.175C295.54 392.089 296.615 394.686 296.615 397.393Z" stroke="#120071" stroke-width="0.769171" stroke-linecap="round" stroke-linejoin="round"/>
<path d="M327.543 397.393C327.543 400.099 326.468 402.696 324.554 404.61C322.64 406.524 320.044 407.599 317.337 407.599C314.63 407.599 312.033 406.524 310.119 404.61C308.205 402.696 307.13 400.099 307.13 397.393C307.13 394.686 308.205 392.089 310.119 390.175C312.033 388.261 314.63 387.186 317.337 387.186C320.044 387.186 322.64 388.261 324.554 390.175C326.468 392.089 327.543 394.686 327.543 397.393Z" stroke="#120071" stroke-width="0.769171" stroke-linecap="round" stroke-linejoin="round"/>
<path d="M358.623 397.393C358.623 400.099 357.548 402.696 355.634 404.61C353.72 406.524 351.124 407.599 348.417 407.599C345.71 407.599 343.114 406.524 341.199 404.61C339.285 402.696 338.21 400.099 338.21 397.393C338.21 394.686 339.285 392.089 341.199 390.175C343.114 388.261 345.71 387.186 348.417 387.186C351.124 387.186 353.72 388.261 355.634 390.175C357.548 392.089 358.623 394.686 358.623 397.393Z" stroke="#120071" stroke-width="0.769171" stroke-linecap="round" stroke-linejoin="round"/>
<path d="M290.187 799.845L327.846 752.205C343.986 756.068 358.175 765.662 367.773 779.201L358.85 791.3" stroke="#120071" stroke-width="0.769171" stroke-linecap="round" stroke-linejoin="round"/>
<path d="M367.924 752.957C372.839 731.934 376.987 715.147 377.906 710.005C380.441 695.86 376.712 696.178 371.1 708.114C363.324 725.989 351.857 742.019 337.449 755.15" stroke="#120071" stroke-width="0.769171" stroke-linecap="round" stroke-linejoin="round"/>
<path d="M376.999 714.243C380.87 710.573 385.22 707.445 389.93 704.942C391.295 704.341 393.643 705.177 387.737 712.106C383.813 716.722 376.621 726.036 373.293 730.557" stroke="#120071" stroke-width="0.769171" stroke-linecap="round" stroke-linejoin="round"/>
<path d="M368.983 748.105C373.474 746.923 377.892 745.482 382.217 743.791C387.578 742.032 392.636 740.145 381.46 751.05C374.626 757.847 368.378 765.208 362.782 773.056" stroke="#120071" stroke-width="0.769171" stroke-linecap="round" stroke-linejoin="round"/>
<path d="M549.914 621.081C549.731 619.141 548.894 617.321 547.541 615.919C546.188 614.516 544.399 613.615 542.467 613.363L464.415 601.34C460.408 600.735 457.252 602.932 457.307 606.335L458.063 669.099L407.171 702.734C404.146 704.625 405.886 709.238 410.12 710.448L489.219 732.736C490.258 733.093 491.366 733.204 492.455 733.06C493.544 732.915 494.585 732.52 495.495 731.904L549.902 689.935L549.914 621.081Z" stroke="#120071" stroke-width="0.769171" stroke-linecap="round" stroke-linejoin="round"/>
<path d="M549.902 689.965L458.063 669.098" stroke="#120071" stroke-width="0.769171" stroke-linecap="round" stroke-linejoin="round"/>
<path d="M539.28 678.245C540.641 678.551 541.966 677.867 541.966 676.653V624.781C541.921 624.152 541.658 623.559 541.222 623.103C540.786 622.648 540.205 622.358 539.578 622.286L468.193 610.943C467.927 610.862 467.647 610.842 467.373 610.887C467.098 610.931 466.838 611.038 466.612 611.198C466.385 611.359 466.199 611.57 466.066 611.814C465.934 612.058 465.86 612.329 465.849 612.607L466.302 659.646C466.37 660.24 466.627 660.796 467.036 661.232C467.445 661.668 467.983 661.96 468.571 662.066L539.28 678.245Z" stroke="#120071" stroke-width="0.769171" stroke-linecap="round" stroke-linejoin="round"/>
<path d="M353.103 658.054H179.252V531.012H353.103V658.054Z" stroke="#120071" stroke-width="0.769171" stroke-linecap="round" stroke-linejoin="round"/>
<path d="M457.912 658.054H415.641V531.012H589.415V658.054H550.017" stroke="#120071" stroke-width="0.769171" stroke-linecap="round" stroke-linejoin="round"/>
<path d="M825.728 658.054H651.953V531.012H825.728V658.054Z" stroke="#120071" stroke-width="0.769171" stroke-linecap="round" stroke-linejoin="round"/>
<path d="M589.415 471.73H415.641V380.377H589.415V471.73Z" stroke="#120071" stroke-width="0.769171" stroke-linecap="round" stroke-linejoin="round"/>
<path d="M502.528 471.731V531.013" stroke="#120071" stroke-width="0.769171" stroke-linecap="round" stroke-linejoin="round"/>
<path d="M548.581 471.731V501.37H738.841V531.013" stroke="#120071" stroke-width="0.769171" stroke-linecap="round" stroke-linejoin="round"/>
<path d="M459.501 471.731V501.37H266.216V531.013" stroke="#120071" stroke-width="0.769171" stroke-linecap="round" stroke-linejoin="round"/>
<path d="M486.799 443.143L450.879 425.225L486.345 408.282" stroke="#120071" stroke-width="0.769171" stroke-linecap="round" stroke-linejoin="round"/>
<path d="M518.711 443.293L554.177 425.069L518.257 408.432" stroke="#120071" stroke-width="0.769171" stroke-linecap="round" stroke-linejoin="round"/>
<path d="M514.778 393.463L489.824 458.643" stroke="#120071" stroke-width="0.769171" stroke-linecap="round" stroke-linejoin="round"/>
<path d="M317.032 576.309C319.82 576.309 322.493 575.201 324.464 573.23C326.434 571.26 327.542 568.587 327.542 565.799C327.542 563.012 326.434 560.339 324.464 558.368C322.493 556.397 319.82 555.29 317.032 555.29H214.189C212.779 555.243 211.374 555.479 210.058 555.986C208.741 556.493 207.54 557.259 206.526 558.24C205.512 559.22 204.705 560.395 204.154 561.694C203.604 562.992 203.32 564.389 203.32 565.799C203.32 567.21 203.604 568.606 204.154 569.905C204.705 571.204 205.512 572.378 206.526 573.359C207.54 574.339 208.741 575.106 210.058 575.613C211.374 576.119 212.779 576.356 214.189 576.309H317.032Z" stroke="#120071" stroke-width="0.769171" stroke-linecap="round" stroke-linejoin="round"/>
<path d="M553.723 555.287C556.511 555.287 559.184 556.394 561.155 558.365C563.127 560.337 564.234 563.01 564.234 565.798C564.234 568.586 563.127 571.259 561.155 573.23C559.184 575.202 556.511 576.309 553.723 576.309H450.812C448.024 576.309 445.351 575.202 443.379 573.23C441.408 571.259 440.301 568.586 440.301 565.798C440.301 563.01 441.408 560.337 443.379 558.365C445.351 556.394 448.024 555.287 450.812 555.287H553.723Z" stroke="#120071" stroke-width="0.769171" stroke-linecap="round" stroke-linejoin="round"/>
<path d="M276.122 592.806C278.203 592.814 280.234 593.438 281.961 594.598C283.688 595.758 285.034 597.403 285.828 599.326C286.622 601.249 286.83 603.364 286.425 605.405C286.02 607.446 285.021 609.321 283.553 610.796C282.575 611.766 281.415 612.533 280.14 613.054C278.865 613.574 277.499 613.837 276.122 613.828H214.189C212.785 613.867 211.386 613.624 210.077 613.113C208.768 612.602 207.575 611.834 206.568 610.854C205.56 609.874 204.76 608.702 204.213 607.408C203.666 606.113 203.385 604.722 203.385 603.317C203.385 601.912 203.666 600.521 204.213 599.226C204.76 597.932 205.56 596.76 206.568 595.78C207.575 594.8 208.768 594.032 210.077 593.521C211.386 593.011 212.785 592.767 214.189 592.806H276.122Z" stroke="#120071" stroke-width="0.769171" stroke-linecap="round" stroke-linejoin="round"/>
<path d="M750.788 548.182C752.893 548.14 754.962 548.731 756.726 549.88C758.491 551.028 759.869 552.68 760.683 554.622C761.361 556.235 761.626 557.993 761.453 559.735C761.28 561.477 760.674 563.148 759.691 564.596C758.708 566.044 757.379 567.224 755.824 568.028C754.27 568.832 752.539 569.235 750.788 569.201H690.519C688.415 569.243 686.346 568.651 684.581 567.503C682.817 566.355 681.439 564.703 680.625 562.761C679.946 561.148 679.682 559.39 679.855 557.648C680.028 555.906 680.633 554.235 681.616 552.787C682.599 551.339 683.929 550.159 685.483 549.355C687.038 548.55 688.769 548.147 690.519 548.182H750.788Z" stroke="#120071" stroke-width="0.769171" stroke-linecap="round" stroke-linejoin="round"/>
<path d="M779.221 585.685C781.948 585.777 784.533 586.925 786.43 588.887C788.326 590.848 789.386 593.47 789.386 596.198C789.386 598.927 788.326 601.549 786.43 603.51C784.533 605.472 781.948 606.62 779.221 606.712H690.519C687.792 606.62 685.208 605.472 683.311 603.51C681.415 601.549 680.354 598.927 680.354 596.198C680.354 593.47 681.415 590.848 683.311 588.887C685.208 586.925 687.792 585.777 690.519 585.685H779.221Z" stroke="#120071" stroke-width="0.769171" stroke-linecap="round" stroke-linejoin="round"/>
<path d="M451.636 484.885L459.651 471.731L467.138 485.263" stroke="#120071" stroke-width="0.769171" stroke-linecap="round" stroke-linejoin="round"/>
<path d="M494.588 484.885L502.604 471.731L510.014 485.263" stroke="#120071" stroke-width="0.769171" stroke-linecap="round" stroke-linejoin="round"/>
<path d="M540.868 484.885L548.883 471.731L556.294 485.263" stroke="#120071" stroke-width="0.769171" stroke-linecap="round" stroke-linejoin="round"/>
<path d="M813.478 472.558L786.33 499.479" stroke="#120071" stroke-width="0.769171" stroke-linecap="round" stroke-linejoin="round"/>
<path d="M813.402 499.555L786.406 472.491" stroke="#120071" stroke-width="0.769171" stroke-linecap="round" stroke-linejoin="round"/>
<path d="M193.621 481.406L205.569 498.269L219.558 473.844" stroke="#120071" stroke-width="0.769171" stroke-linecap="round" stroke-linejoin="round"/>
<path d="M262.056 757.574C252.934 755.187 244.107 751.787 235.741 747.437" stroke="#120071" stroke-width="0.769171" stroke-linecap="round" stroke-linejoin="round"/>
<path d="M503.965 283.281L488.312 288.423L497.386 296.59L485.438 309.974L491.866 315.722L503.814 302.337L512.888 310.428L519.618 278.138L503.965 283.281Z" stroke="#120071" stroke-width="0.769171" stroke-linecap="round" stroke-linejoin="round"/>
<path d="M579.963 793.413C579.963 794.505 579.639 795.572 579.033 796.48C578.426 797.388 577.564 798.095 576.555 798.513C575.546 798.931 574.436 799.04 573.366 798.827C572.295 798.614 571.311 798.089 570.539 797.317C569.767 796.545 569.241 795.561 569.028 794.49C568.815 793.419 568.925 792.309 569.343 791.301C569.76 790.292 570.468 789.43 571.376 788.823C572.284 788.217 573.351 787.893 574.443 787.893C575.903 787.901 577.304 788.486 578.335 789.521C579.37 790.551 579.955 791.952 579.963 793.413Z" stroke="#120071" stroke-width="0.769171" stroke-linecap="round" stroke-linejoin="round"/>
<path d="M114.9 941.78H871.1" stroke="#120071" stroke-width="0.769171" stroke-linecap="round" stroke-linejoin="round"/>
<path d="M417.455 881.969L389.476 900.874" stroke="#120071" stroke-width="0.769171" stroke-linecap="round" stroke-linejoin="round"/>
<path d="M405.356 881.283C426.844 882.278 448.257 884.527 469.482 888.017" stroke="#120071" stroke-width="0.769171" stroke-linecap="round" stroke-linejoin="round"/>
<path d="M423.278 855.124L418.212 847.785" stroke="#120071" stroke-width="0.769171" stroke-linecap="round" stroke-linejoin="round"/>
</svg>
