<svg width="1024" height="680" viewBox="0 0 1024 680" fill="none" xmlns="http://www.w3.org/2000/svg">
<rect width="1024" height="680" rx="64" fill="#F2F2F2"/>
<g clip-path="url(#clip0_1308_1708)">
<path d="M619.74 591.808C617.99 587.777 617.706 583.332 619.107 581.93C623.258 577.779 626.604 583.61 624.693 591.664C623 598.805 622.78 598.811 619.74 591.808ZM678.879 576.657C678.879 572.16 680.718 568.482 682.966 568.482C685.214 568.482 687.053 572.16 687.053 576.657C687.053 581.153 685.214 584.831 682.966 584.831C680.718 584.831 678.879 581.153 678.879 576.657ZM727.927 574.272C727.927 561.468 737.526 562.869 739.451 575.955C740.318 581.85 738.602 584.831 734.342 584.831C730.169 584.831 727.927 581.141 727.927 574.272ZM173.069 559.406C163.873 554.971 161.946 549.737 163.347 532.998C163.758 528.095 160.372 517.978 155.824 510.518C150.977 502.568 147.548 489.802 147.538 479.676C147.508 458.335 158.806 449.349 186.147 448.935C198.442 448.75 206.864 446.208 211.252 441.359C226.071 424.985 266.022 430.524 272.141 449.801C273.672 454.626 276.746 457.967 278.972 457.225C283.632 455.671 283.551 454.027 277.635 430.534C273.633 414.642 272.15 413.163 260.221 413.163C253.049 413.163 243.792 410.684 239.649 407.655C233.299 403.011 230.23 403.088 220.097 408.142C203.189 416.577 178.013 412.405 163.831 398.818C149.007 384.616 137.765 355.022 140.586 337.634C142.394 326.492 140.697 322.145 130.844 312.707C121.444 303.701 118.931 297.75 119.001 284.669C119.109 264.799 131.474 235.754 142.849 228.65C149.686 224.38 150.689 220.472 148.936 204.926C144.868 168.87 164.865 137.629 191.526 138.388C199.391 138.612 206.854 134.94 214.065 127.3C241.796 97.9188 278.512 95.174 301.934 120.731C309.305 128.774 316.433 140.843 317.774 147.551C319.916 158.261 321.933 159.747 334.323 159.747C344.467 159.747 351.789 163.104 360.38 171.694C370.677 181.992 372.327 186.735 372.327 206.034C372.327 227.301 373.047 228.849 386.667 236.885C394.554 241.539 403.062 249.856 405.574 255.369C411.351 268.048 407.24 290.713 396.744 304.056C392.307 309.697 388.677 318.041 388.677 322.598C388.677 337.241 381.188 351.223 365.327 366.195C348.36 382.211 336.67 386.758 323.336 382.526C310.368 378.41 313.936 362.712 328.444 360.053C345.454 356.936 367.123 337.63 370.411 322.663C371.987 315.487 376.734 303.945 380.961 297.014C392.734 277.707 391.033 260.553 376.101 247.988C369.185 242.168 361.827 237.407 359.752 237.407C357.676 237.407 355.978 226.371 355.978 212.882C355.978 182.541 347.68 172.009 323.775 172.009C309.864 172.009 307.272 170.44 302.618 159.204C292.949 135.863 279.019 122.961 263.487 122.961C248.418 122.961 217.008 136.828 217.008 143.481C217.008 145.683 210.673 147.485 202.93 147.485C193.942 147.485 184.706 151.051 177.384 157.348C167.389 165.945 165.952 170.013 166.199 189.026C166.354 201.023 167.954 214.996 169.752 220.078C172.531 227.926 171.206 229.951 160.952 233.525C147.551 238.197 135.222 259.303 135.324 277.397C135.407 292.259 139.305 297.524 152.712 300.889C168.245 304.788 169.782 309.102 161.704 326.125C155.048 340.151 155.079 341.745 162.357 359.22C173.618 386.259 183.877 391.798 228.844 395.122C257.172 397.217 266.492 396.738 264.367 393.3C262.783 390.736 258.05 388.639 253.85 388.639C249.649 388.639 242.309 383.676 237.538 377.61C230.169 368.243 226.202 366.746 211.188 367.669C196.083 368.598 192.222 367.114 184.629 357.462C179.575 351.036 176.27 341.804 176.962 336.042C178.4 324.066 188.397 319.01 188.397 330.257C188.397 348.581 212.026 353.871 227.777 339.073C239.027 328.505 251.562 331.394 247.669 343.658C243.127 357.971 249.078 368.202 261.948 368.202C276.922 368.202 290.58 351.481 290.58 333.149C290.58 316.783 296.755 311.989 306.487 320.797C323.413 336.115 336.806 319.952 328.036 294.792C320.609 273.486 339.105 273.631 347.935 294.948C356.801 316.352 344.365 347.765 327.025 347.765C317.763 347.765 306.93 358.521 306.93 367.717C306.93 371.624 315.037 384.32 324.946 395.929C334.856 407.538 343.747 419.383 344.706 422.252C346.074 426.347 352.525 425.854 374.715 419.958C407.741 411.184 409.375 410.102 399.971 403.226C393.143 398.233 390.75 389.894 392.117 375.851C392.944 367.343 414.094 358.463 425.162 361.975C432.428 364.282 433.637 362.948 433.637 352.629C433.637 337.939 442.444 329.768 454.242 333.512C460.441 335.48 464.608 333.954 468.602 328.252C471.696 323.834 480.594 317.199 488.375 313.507C505.67 305.299 521.023 310.568 529.915 327.763C533.967 335.598 537.948 338.269 543.437 336.834C553.253 334.267 575.118 345.356 580.661 355.713C590.988 375.01 580.802 400.901 562.884 400.901C557.044 400.901 556.057 397.603 557.075 381.486C560.645 370.225 560.697 362.071 537.865 362.071C517.753 362.071 517.396 361.849 515.385 348.188C511.503 321.823 492.825 320.692 477.939 345.921C470.908 357.838 467.486 360.176 459.874 358.265C451.466 356.155 450.349 357.516 449.213 371.252C447.858 387.626 445.704 388.447 420.354 382.256C406.899 378.97 405.089 386.999 416.266 400.391C422.98 408.435 425.175 408.695 452.031 404.63C488.293 399.142 523.621 402.249 593.044 417.037C654.053 430.031 653.82 430.072 667.04 404.159C674.63 389.281 674.667 388.359 667.763 386.168C644.1 378.658 627.888 369.087 615.381 355.242C603.804 342.429 601.219 336.327 601.219 321.819C601.219 297.212 610.84 289.315 643.346 287.243C666.866 285.744 668.703 284.918 669.265 275.586C670.623 253.009 696.758 237.58 716.749 247.553C732.276 255.299 730.474 255.881 735.485 241.505C743.543 218.389 769.332 215.445 792.109 235.04C801.654 243.253 803.479 247.933 803.157 263.37C802.944 273.54 799.883 286.269 796.352 291.657C790.215 301.025 790.444 301.755 801.599 308.344C817.882 317.962 820.76 329.833 809.672 341.636C804.751 346.875 796.3 352.271 790.893 353.628C785.001 355.107 781.062 359.085 781.062 363.559C781.062 379.764 751.317 392.403 712.651 392.626C696.878 392.719 694.391 394.215 684.813 409.387C679.029 418.55 673.382 428.428 672.265 431.339C668.217 441.887 683.497 441.539 699.86 430.71C712.331 422.458 721.494 419.765 737.113 419.765C755.159 419.765 759.193 421.37 768.424 432.223C778.533 444.109 780.166 444.593 804.017 442.776C826.684 441.049 829.637 441.76 835.693 450.407C839.367 455.651 842.373 465.759 842.373 472.869C842.373 482.146 845.257 487.685 852.591 492.49C860.308 497.546 862.809 502.731 862.809 513.666C862.809 532.81 857.183 542.443 841.23 550.617C833.99 554.326 826.832 559.277 825.323 561.621C821.735 567.19 796.876 559.801 767.882 544.55C729.457 524.337 678.107 489.751 684.484 478.56C687.144 473.892 706.245 477.519 722.292 498.487C736.131 516.569 769.996 522.538 783.947 527.58C809.169 536.695 809.388 536.702 822.763 528.891C830.162 524.57 836.862 517.677 837.652 513.573C838.898 507.105 837.174 506.471 824.7 508.811C806.132 512.294 802.051 505.787 813.28 490.599C825.03 474.705 824.778 459.124 812.74 457.295C803.768 455.932 783.188 458.993 766.757 464.134C760.733 466.019 757.506 464.221 754.495 457.299C750.983 449.23 747.469 447.925 729.563 448.047C712.977 448.16 706.025 450.455 695.529 459.287C678.495 473.621 669.649 473.968 673.113 460.167C675.29 451.492 674.261 449.949 666.301 449.949C661.144 449.949 652.644 453.971 647.411 458.887C639.96 465.887 636.823 466.751 632.944 462.872C629.066 458.994 629.097 456.149 633.091 449.754C639.151 440.05 640.978 440.913 593.044 430.854C568.098 425.619 541.013 423.64 496.991 423.836C444.67 424.069 429.988 425.638 396.851 434.545C350.915 446.893 294.3 471.087 288.537 480.832C276.261 501.59 226.417 548.045 216.42 548.045C207.764 548.045 214.978 537.446 241.31 511.478L269.7 483.48L260.725 465.692C252.405 449.202 250.569 447.905 235.549 447.905C220.305 447.905 219.338 448.63 219.199 460.167C221.098 479.81 211.062 476.731 193.507 471.032C178.279 466.088 167.961 461.241 167.961 482.079C167.961 500.019 175.684 514.347 186.867 517.153C197.865 519.914 199.564 525.586 190.441 529.087C181.054 532.689 183.14 539.421 194.528 542.279C206.705 545.336 207.86 554.266 196.841 560.163C187.366 565.234 184.998 565.159 173.069 559.406ZM320.901 439.293C324.457 437.929 327.366 434.987 327.366 432.756C327.366 425.573 297.573 380.177 293.705 381.466C288.571 383.178 289.215 386.884 299.739 416.228C309.187 442.575 310.011 443.472 320.901 439.293ZM750.071 373.06C771.554 369.244 773.78 360.92 753.76 359.267C742.837 358.365 737.81 355.856 736.858 350.83C735.827 345.391 738.266 343.672 747.042 343.655C761.327 343.625 789.515 336.093 796.435 330.453C803.112 325.011 791.397 315.385 777.869 315.196C763.952 315.005 762.541 304.522 774.517 290.289C793.353 267.904 784.978 237.407 759.994 237.407C752.219 237.407 736.102 257.659 736.102 267.43C736.102 277.196 728.155 279.754 720.195 272.55C699.989 254.264 673.728 277.878 688.758 300.817C699.039 316.508 696.369 319.551 680.523 310.202C663.511 300.165 634.216 298.167 624.329 306.37C605.144 322.289 628.98 355.123 666.184 364.025C691.861 370.168 692.364 369.774 714.807 325.985C721.918 312.112 732.499 295.243 738.321 288.499C747.772 279.407 758.731 264.764 754.628 283.985C753.287 290.266 736.268 315.089 726.782 334.661C717.295 354.233 708.921 371.625 708.172 373.311C706.508 377.053 728.334 376.923 750.071 373.06ZM429.699 531.845C421.489 523.635 418.187 507.172 424.75 507.172C429.632 507.172 445.9 525.266 445.9 530.696C445.9 539.54 437.957 540.103 429.699 531.845ZM305.322 522.192C298.818 516.988 294.22 510.625 295.104 508.052C297.269 501.753 323.279 518.291 323.279 525.966C323.279 534.013 318.959 533.105 305.322 522.192ZM468.818 512.969C467.453 509.413 466.336 501.688 466.336 495.802C466.336 481.692 473.476 488.714 476.989 506.278C479.709 519.88 473.44 525.014 468.818 512.969ZM328.023 496.761C322.378 484.372 321.878 474.473 326.896 474.473C331.827 474.473 343.716 493.151 343.716 500.897C343.716 510.918 333.212 508.15 328.023 496.761ZM503.123 497.288C503.123 491.852 504.239 484.494 505.604 480.938C510.171 469.036 515.385 474.305 515.385 490.822C515.385 502.631 513.681 507.172 509.254 507.172C505.494 507.172 503.123 503.349 503.123 497.288ZM371.824 465.249C374.156 441.496 382.412 452.044 383.387 457.102C384.361 462.16 384.361 470.437 383.387 475.495C382.412 480.553 368.896 495.052 371.824 465.249ZM844.854 329.038C843.489 325.482 842.373 317.14 842.373 310.501C842.373 303.862 839.414 293.914 835.799 288.396C829.692 279.076 829.737 278.167 836.443 275.594C841.411 273.687 846.553 276.187 852.944 283.616C861.206 293.221 863.579 293.936 874.539 290.115C888.675 285.187 905.963 286.571 905.227 292.571C904.952 294.81 897.618 300.333 888.929 304.842C880.239 309.351 870.707 318.095 867.746 324.272C861.848 336.579 848.791 339.297 844.854 329.038ZM182.372 256.739C186.114 229.112 194.243 213.623 206.632 210.513C222.389 206.558 228.109 213.208 214.039 219.124C200.444 224.84 193.616 244.684 200.694 257.909C206.37 268.515 207.502 279.283 193.394 284.201C173.811 292.97 180.173 272.98 182.372 256.739ZM314.581 238.429C314.293 236.743 313.833 228.926 313.559 221.057C313.052 206.517 308.966 204.414 290.58 209.232C286.02 210.427 284.676 207.742 285.335 198.749C286.53 182.443 276.234 172.009 258.951 172.009C243.094 172.009 242.006 162.713 257.596 160.43C274.206 157.998 286.762 163.823 294.999 177.785C300.182 186.568 307.257 192.307 314.752 193.806C328.976 196.651 337.389 215.666 331.396 231.429C327.894 240.64 315.817 245.667 314.581 238.429ZM497.089 208.541C490.399 206.55 481.95 200.976 478.313 196.154C472.812 188.862 470.263 188.157 463.156 191.96C441.591 203.502 414.591 194.457 402.854 171.761C399.437 165.153 393.357 159.747 389.342 159.747C380.874 159.747 366.541 144.984 364.168 138.129C358.331 121.271 377.09 98.2212 395.393 92.7291C422.21 84.6824 440.063 87.8835 454.438 102.259C464.55 112.371 468.69 113.89 480.784 111.928C491.327 110.217 497.318 111.577 503.371 117.055C511.381 124.304 512.244 124.189 534.492 112.925C552.686 103.712 559.56 102.107 568.047 105.092C582.026 110.008 590.468 127.931 587.146 145.639C584.758 158.37 554.54 198.936 542.841 205.118C533.034 210.3 509.033 212.095 497.089 208.541ZM554.567 163.413C569.606 145.413 572.278 131.168 562.187 122.793C556.947 118.444 552.048 119.114 533.808 126.674C514.655 135.183 515.502 138.577 499.796 126.965C488.474 118.594 487.152 118.468 475.243 124.626C458.066 133.509 456.4 133.067 449.703 117.852C443.296 103.295 431.603 99.6962 406.196 104.462C377.567 109.833 366.021 136.112 388.801 144.054C395.613 146.428 403.909 153.636 407.236 160.069C417.538 179.991 443.073 186.699 459.965 173.923C472.341 164.563 481.883 166.775 489.068 180.67C495.404 192.921 496.474 193.34 516.59 191.407C540.234 190.696 542.18 178.315 554.567 163.413ZM749.043 148.507C742.303 131.289 741.727 121.942 747.283 119.998C750.061 119.027 754.527 123.045 757.208 128.929C760.667 136.521 763.946 138.766 768.507 136.663C772.04 135.033 782.288 133.582 791.281 133.439C813.435 133.087 814.067 144.257 792.095 147.828C783.55 149.217 774.446 152.467 771.862 155.05C763.788 163.125 753.624 160.21 749.043 148.507ZM677.025 134.201C676.147 131.391 674.262 122.088 672.836 113.528C671.411 104.968 666.669 94.9024 662.3 91.1609C652.65 82.8986 652.125 78 660.889 78C664.484 78 672.607 83.5482 678.941 90.3291L690.458 102.657L710.153 92.1853C734.083 79.4617 753.875 79.7815 755.748 92.9221C756.785 100.198 753.551 102.86 736.993 108.359C725.988 112.014 711.745 120.474 705.342 127.157C693.283 139.744 679.806 143.097 677.025 134.201Z" fill="black"/>
</g>
<defs>
<clipPath id="clip0_1308_1708">
<rect width="786.25" height="524.681" fill="white" transform="translate(119 78)"/>
</clipPath>
</defs>
</svg>
