<svg width="1024" height="680" viewBox="0 0 1024 680" fill="none" xmlns="http://www.w3.org/2000/svg">
<rect width="1024" height="680" rx="64" fill="#F2F2F2"/>
<g clip-path="url(#clip0_1308_1716)">
<path d="M520.164 565.382C493.79 560.214 477.109 559.281 405.524 558.969C359.448 558.769 320.131 557.578 318.154 556.324C316.176 555.07 312.505 549.801 309.996 544.616C304.511 533.28 280.645 508.652 276.033 508.652C264.351 508.652 245.731 460.084 241.519 418.626C238.669 396.679 238.56 401.94 252.657 385.425C263.8 372.371 265.903 367.768 267.606 352.721C269.875 332.662 279.551 327.993 301.536 313.614C318.093 303.34 315.395 306.711 319.993 288.806L324.365 271.779C328.932 253.996 334.791 226.084 338.695 210.05C346.595 177.615 344.797 179.639 351.141 173.753C358.988 166.471 419.289 129.314 443.358 118.294C461.939 109.788 490.245 106.291 499.673 111.337C507.301 115.419 540.507 157.467 552.967 177.228L561.771 191.19L588.227 189.447C627.377 186.867 683.55 194.749 707.091 205.461C728.376 215.146 745.724 232.702 750.267 249.157C759.419 282.302 771.034 334.743 771.034 342.915C771.034 348.069 773.01 356.073 775.425 360.704C783.285 375.775 784.911 388.04 770.353 410.205L757.003 430.528L770.353 437.313C781.792 443.126 783.702 445.38 783.702 453.064C783.702 464.031 771.071 483.115 747.396 507.918C730.162 525.973 727.664 521.96 712.234 521.96C700.311 521.96 696.532 523.008 696.532 526.323C696.532 536.406 680.309 548.432 655.001 557.111C607.574 573.374 572.062 575.552 520.164 565.382ZM586.514 544.138C591.704 540.852 591.301 525.56 585.257 496.519C576.61 454.976 571.095 445.731 567.505 466.765C566.47 472.827 562.443 491.015 558.556 507.182C554.67 523.349 551.488 538.15 551.486 540.074C551.485 541.998 556.444 544.09 562.506 544.724C568.569 545.357 575.513 546.08 577.938 546.327C580.363 546.576 584.222 545.593 586.514 544.138ZM650.989 537.866C658.991 536.15 667.44 532.512 669.763 529.782C677.306 520.917 680.528 494.456 678.24 460.151C676.997 441.506 677.251 424.084 678.839 418.999C680.355 414.149 688.144 401.073 696.149 389.942C718.58 358.749 718.171 361.842 705.752 317.224C692.659 270.186 689.709 264.675 677.614 264.675C670.501 264.675 668.962 265.731 670.112 269.82C673.853 283.132 675.316 361.125 672.052 373.246C668.537 386.301 644.061 413.708 617.951 433.824L606.522 442.629L614.238 475.531C618.481 493.627 622.814 515.759 623.866 524.711C626.014 542.984 626.355 543.15 650.989 537.866ZM338.576 510.858C337.464 495.902 334.661 465.811 332.347 443.984C324.123 366.398 323.199 377.791 339.742 352.86C350.368 336.849 362.283 313.428 367.947 297.422C373.491 281.759 375.029 279.616 377.435 284.195C380.814 290.627 377.186 321.62 370.856 340.393C368.535 347.278 361.117 360.779 354.371 370.395C340.654 389.95 340.899 384.637 351.102 441.376C354.478 460.151 358.15 489.583 359.262 506.779C361.147 535.946 361.698 538.049 367.464 538.068C370.863 538.068 390.49 536.56 411.078 534.691L448.511 531.293L457.472 507.48C471.998 468.878 472.23 468.433 475.151 473.652C477.422 477.709 474.546 497.117 467.696 523.957C465.93 530.876 466.692 532.17 473.549 533.891C478.666 535.175 482.801 534.45 485.331 531.814C493.43 523.388 530.663 446.129 534.164 430.485C537.288 416.523 537.094 411.136 532.819 393.325C527.214 369.969 525.679 375.625 549.38 332.283C555.127 321.775 560.715 308.368 561.799 302.49C563.523 293.135 562.798 291.121 555.973 286.324C536.876 272.899 529.984 265.802 524.039 253.443C517.528 239.905 514.194 237.328 462.587 205.947C439.782 192.079 440.993 191.864 411.186 215.119C391.138 230.759 386.872 232.273 386.872 223.748C386.872 211.997 418.87 179.793 441.253 169.019C458.03 160.942 489.754 136.808 489.754 132.122C489.754 123.281 451.731 139.3 399.226 170.261C370.054 183.27 363.924 190.807 357.543 219.815C354.072 235.597 348.554 261.075 345.281 276.434C336.859 315.952 335.255 319.096 317.496 330.884C300.319 342.285 295.749 348.408 295.749 360.015C295.749 368.163 290.557 370.348 288.308 363.149C283.433 347.544 283.853 348.002 280.222 354.33C276.302 361.162 271.735 395.411 272.186 414.589C272.357 421.864 276.406 441.402 281.184 458.007C285.961 474.613 289.87 491.431 289.87 495.382C289.87 502.001 300.057 511.203 303.534 507.726C305.3 505.959 296.27 436.758 292.724 424.877C291.276 420.027 289.209 409.114 288.132 400.627C286.577 388.375 287.028 385.194 290.321 385.194C293.016 385.194 297.741 395.754 303.805 415.324C313.443 446.431 316.34 460.075 322.371 502.773C325.657 526.038 330.888 538.048 337.736 538.048C339.533 538.048 339.846 527.925 338.576 510.858ZM389.871 306.769C389.937 293.257 397.14 247.549 399.582 245.108C400.536 244.153 403.357 244.156 405.852 245.108C409.398 246.468 410.337 251.519 410.152 268.252C409.82 298.268 404.875 315.85 396.426 317.05C390.549 317.884 389.818 316.739 389.871 306.761V306.769ZM535.106 502.038C546.505 451.583 547.873 447.851 557.729 440.357C562.548 436.693 571.382 429.622 577.359 424.644C583.336 419.665 594.84 411.148 602.924 405.717C647.704 375.631 651.238 369.415 655.235 313.705C658.808 263.901 659.047 264.315 625.615 262.38C603.222 261.084 582.304 263.866 565.007 270.442L556.703 273.6L564.381 279.638C570.805 284.692 572.059 288.048 572.059 300.177C572.059 312.002 569.136 320.273 556.2 345.051C541.311 373.571 540.494 376.221 542.845 388.395C546.37 406.656 546.165 426.698 542.331 438.402C540.532 443.897 530.349 467.333 519.704 490.482C498.767 536.01 498.696 537.907 517.916 538.002L526.972 538.089L535.106 502.082L535.106 502.038ZM708.524 481.343C711.218 466.347 720.199 445.928 727.062 439.192C734.937 431.464 759.24 395.746 761.527 388.54C764.06 380.559 758.011 358.739 753.265 358.739C751.2 358.739 746.683 363.77 743.227 369.918C739.772 376.067 726.405 392.363 713.524 406.13C696.192 424.654 690.795 432.256 692.766 435.369C694.229 437.682 695.448 443.158 695.472 447.538C695.499 451.918 697.026 465.642 698.869 478.036C702.283 500.994 704.835 501.868 708.524 481.343ZM741.047 479.299L754.586 461.704L745.101 455.935C739.884 452.763 734.712 450.727 733.607 451.409C732.502 452.093 730.144 458.307 728.368 465.219C718.754 502.638 721.091 505.234 741.047 479.299ZM737.311 363.7L746.272 352.494L737.19 316.669C732.195 296.965 727.228 275.552 726.153 269.085C725.077 262.618 721.571 252.974 718.361 247.653C709.808 233.475 678.934 218.885 644.613 212.804L616.962 207.904L594.505 227.489L572.049 247.074L596.305 245.282C614.319 243.951 625.477 244.766 639.667 248.443C650.176 251.166 665.566 253.219 673.868 253.005C698.775 252.364 703.973 260.119 721.974 324.763C730.294 354.64 728.786 366.525 714.385 384.567L703.328 398.422L715.839 386.664C722.72 380.197 732.383 369.863 737.311 363.7ZM579.645 226.757C588.813 218.379 595.653 210.863 594.845 210.055C591.006 206.216 555.267 212.821 547.843 218.741L539.942 225.041L544.857 238.71C550.527 254.475 548.589 255.141 579.645 226.757ZM536.856 206.419L543.457 201.076L522.077 169.729L500.696 138.385L490.602 147.249C485.049 152.123 475.116 159.515 468.527 163.674L456.548 171.237L473.886 180.696C483.422 185.899 498.301 195.018 506.951 200.96C524.902 213.292 527.731 213.809 536.856 206.419Z" fill="black"/>
</g>
<defs>
<clipPath id="clip0_1308_1716">
<rect width="543.702" height="462.547" fill="white" transform="translate(240 109)"/>
</clipPath>
</defs>
</svg>
