<svg width="1024" height="680" viewBox="0 0 1024 680" fill="none" xmlns="http://www.w3.org/2000/svg">
<rect width="1024" height="680" rx="64" fill="#F2F2F2"/>
<g clip-path="url(#clip0_1308_1723)">
<path d="M433.073 611.284C429.55 603.553 427.765 586.01 426.858 550.209L425.929 513.557L420.661 524.247C408.53 548.868 400.759 557.081 389.595 557.081C381.284 557.081 375.47 551.258 371.567 539.024C368.973 530.887 368.005 522.201 366.771 495.995C365.919 477.936 365.1 463.008 364.948 462.822C364.795 462.635 360.531 463.896 355.47 465.623C342.778 469.957 335.527 468.015 325.413 457.573L318.057 449.978L319.111 460.683C320.162 471.348 320.148 471.404 315.215 475.909C311.898 478.94 307.932 480.765 303.19 481.445C299.3 482.003 293.024 483.959 289.244 485.791C283.425 488.612 280.004 489.085 266.914 488.877L251.458 488.632L250.511 496.513C249.99 500.848 249.528 515.046 249.484 528.065C249.36 564.874 247.526 570.011 235.118 568.311C230.824 567.722 223.631 568.732 212.961 571.423C188.547 577.579 180.814 576.672 180.814 567.651C180.814 564.574 181.854 563.186 185.013 562.047C191.751 559.618 219.009 553.697 228.156 552.675L236.556 551.736L237.543 519.666C239.229 464.852 239.139 321.047 237.375 255.468C234.975 166.142 234.021 90.6593 235.25 87.4521C237.088 82.6662 238.806 90.1599 239.874 107.609C240.819 123.05 242.56 126.617 243.839 115.733C244.211 112.572 244.566 114.475 244.71 120.391C244.85 126.037 244.215 131.134 243.255 132.094C242.007 133.343 242.01 138.592 243.265 151.871C244.208 161.813 245.351 174.414 245.808 179.873L246.637 189.8L269.694 189.339C283.899 189.055 293.345 189.474 294.301 190.43C295.154 191.283 296.696 196.301 297.728 201.58C299.42 210.246 299.614 207.384 299.713 172.18C299.805 138.664 303.135 84.5321 305.229 82.439C305.563 82.1037 306.621 82.3131 307.577 82.904C308.822 83.6733 309.176 94.4533 308.824 120.854C308.363 155.44 311.268 255.383 313.065 266.709L313.879 271.842L337.831 270.841C362.909 269.794 367.008 270.509 364.82 275.548C364.145 277.103 363.678 279.062 363.784 279.902C363.887 280.742 365.325 290.348 366.977 301.249C369.106 315.309 369.51 321.634 368.366 323.011C366.446 325.325 362.547 325.595 362.547 323.416C362.547 322.435 358.676 322.238 351.869 322.87C340.792 323.9 318.258 321.056 318.258 318.629C318.258 317.908 324.959 317.314 333.149 317.309C341.339 317.309 350.716 316.557 353.988 315.649L359.936 313.997L359.048 297.175C358.561 287.923 357.945 280.174 357.682 279.957C357.418 279.739 347.409 279.113 335.44 278.565L313.677 277.568V305.222V332.876L320.973 331.872C331.989 330.357 356.94 328.679 359.919 329.253C362.789 329.805 363.607 334.116 360.842 334.116C359.776 334.116 359.484 335.69 360.061 338.316C360.57 340.626 361.747 348.301 362.677 355.371C363.972 365.206 365.113 368.828 367.532 370.787C371.128 373.699 370.276 378.404 366.151 378.404C364.722 378.404 362.232 379.597 360.621 381.056C357.94 383.482 357.536 383.499 355.892 381.251C354.904 379.899 351.014 378.326 347.248 377.756C336.322 376.101 318.262 371.621 318.26 370.564C318.26 368.652 325.399 367.755 340.785 367.735L356.439 367.714V351.679V335.644H334.85H313.26L314.208 379.55C315.32 431.06 316.075 439.479 319.598 439.517C320.962 439.531 323.769 441.326 325.838 443.506C329.912 447.798 332.417 445.75 328.523 441.311C322.712 434.687 324.761 426.896 330.652 433.218C333.992 436.804 344.552 442.578 347.597 442.484C348.679 442.45 347.739 441.43 345.506 440.217C337.537 435.889 332.405 422.901 336.891 418.416C340.018 415.289 342.565 416.373 344.831 421.794C348.265 430.014 352.526 433.382 359.492 433.382C362.852 433.382 365.601 433.078 365.601 432.706C365.601 432.334 364.175 429.613 362.433 426.659C358.937 420.733 358.993 414.547 362.547 413.918C364.975 413.489 376.965 423.936 381.331 430.286C384.593 435.028 384.679 443.848 381.507 448.375C379.351 451.456 379.267 455.559 380.747 486.21C382.442 521.305 385.389 539.767 389.549 541.364C390.72 541.813 393.105 540.894 394.849 539.323C398.758 535.799 415.105 503.37 422.848 483.778C426.002 475.799 429.439 468.239 430.486 466.979C431.533 465.719 432.814 462.892 433.335 460.696C434.995 453.69 444.014 441.941 451.648 436.839C461.652 430.154 469.224 428.218 485.486 428.188C497.661 428.166 500.584 428.74 511.068 433.206C531.199 441.783 537.986 447.915 547.28 465.922C571.581 513.005 575.832 520.028 584.816 527.915C592.758 534.887 595.969 533.89 601.554 522.721C605.852 514.125 606.134 512.469 606.121 495.995C606.106 481.748 605.313 475.423 601.903 462.485C599.592 453.714 596.678 444.976 595.427 443.068C592.055 437.921 592.581 433.679 598.706 416.626C602.915 404.909 604.855 401.281 606.724 401.636C609.745 402.209 610.884 415.258 608.628 423.429C607.674 426.884 607.672 428.8 608.628 428.8C612.022 428.8 624.971 413.522 629.983 403.602C634.437 394.79 636.037 392.912 639.09 392.912C642.135 392.912 642.878 393.776 643.264 397.766C643.524 400.435 642.382 405.418 640.73 408.838C636.745 417.086 638.781 416.731 644.983 408.098C648.659 402.979 650.846 401.264 653.259 401.608C657.456 402.206 658.483 409.21 655.123 414.337C652.067 419 652.102 419.878 655.32 419.323C656.989 419.035 658.458 420.369 659.425 423.05C660.717 426.635 660.275 428.039 656.298 432.976C653.751 436.139 648.753 440.789 645.194 443.308C639.454 447.371 637.481 447.89 627.777 447.889C621.757 447.889 615.51 447.253 613.895 446.478C611.394 445.279 611.126 445.506 612.094 448.006C617.87 462.93 621.097 478.427 621.769 494.468C622.608 514.457 620.542 524.347 613.07 536.131C606.766 546.069 602.547 548.442 592.641 547.621C579.175 546.504 569.438 536.762 556.147 511.108C552.709 504.473 549.711 499.228 549.485 499.454C549.259 499.68 551.423 516.347 554.293 536.491C559.757 574.833 560.875 594.863 557.728 598.009C555.336 600.403 549.674 600.357 547.656 597.928C545.557 595.398 539.168 555.714 535.179 520.43C528.981 465.59 526.613 457.99 513.425 450.589C499.859 442.976 490.419 440.559 477.287 441.338C461.726 442.262 456.971 444.936 451.924 455.604C443.597 473.205 442.755 481.809 442.742 549.446C442.732 583.464 442.176 612.155 441.496 613.205C439.441 616.381 434.93 615.352 433.078 611.284L433.073 611.284ZM264.14 480.754C271.069 479.853 278.973 477.413 286.242 473.929C292.466 470.947 299.552 468.506 301.991 468.506C306.013 468.506 306.348 468.115 305.591 464.307C305.132 461.997 303.916 449.03 302.888 435.491C301.199 413.256 300.759 410.944 298.334 411.578C296.606 412.03 293.735 410.191 290.278 406.419C287.324 403.196 284.57 400.899 284.159 401.316C283.747 401.734 284.698 412.383 286.271 424.982C287.844 437.581 288.74 449.17 288.267 450.734C287.51 453.224 286.325 453.463 278.778 452.647C258.239 450.428 257.173 450.116 257.173 446.305C257.173 441.322 261.86 440.299 270.914 443.307C275.078 444.69 279.062 445.465 279.767 445.03C281.251 444.112 278.159 409.986 274.857 390.849C273.251 381.545 273.067 377.203 274.222 375.812C276.582 372.969 277.745 374.236 282.912 385.278C285.466 390.736 288.196 395.203 288.979 395.203C289.761 395.203 288.729 389.533 286.684 382.604C279.422 357.991 278.467 353.924 277.372 342.938L276.263 331.826L266.719 331.371C252.244 330.681 254.683 328.026 273.238 324.271C280.959 322.709 283.001 325.616 285.4 341.577C286.58 349.435 289.616 362.826 292.144 371.334C294.673 379.842 297.633 389.896 298.719 393.676C300.566 400.09 300.727 398.868 301.123 375.35C301.356 361.491 301.356 322.319 301.123 288.302C300.757 234.935 300.392 226.519 298.461 226.943C297.232 227.213 287.954 227.817 277.845 228.286C263.138 228.969 258.326 228.66 253.771 226.742C250.639 225.424 247.864 224.819 247.604 225.398C247.344 225.978 247.629 241.571 248.223 260.049C248.823 278.528 249.812 336.083 250.422 387.949C251.031 439.815 251.941 482.229 252.443 482.203C252.945 482.177 258.209 481.525 264.14 480.754ZM257.173 312.161C257.173 307.8 284.387 299.421 286.652 303.084C288.451 305.996 285.016 307.999 272.942 311.082C258.22 314.841 257.173 314.913 257.173 312.161ZM256.861 293.265C253.594 289.489 252.474 283.738 254.331 280.27C255.86 277.413 255.998 277.434 258.452 280.898L260.992 284.484L261.754 277.612C262.378 272.012 263.084 270.739 265.573 270.739C268 270.739 268.724 271.915 269.101 276.466L269.575 282.193L277.501 282.17C289.291 282.136 290.019 281.253 289.937 267.122C289.846 250.419 289.492 250.123 269.968 250.123C257.812 250.123 254.119 249.65 254.119 248.095C254.119 246.636 258.465 245.669 269.611 244.646C292.629 242.535 296.846 245.534 298.09 264.901C299.386 285.069 296.103 289.829 280.898 289.829C272.589 289.829 270.766 290.312 269.391 292.883C267.331 296.731 260.052 296.952 256.861 293.265ZM344.223 453.155C339.833 450.167 333.533 447.053 333.533 447.873C333.533 449.017 343.112 454.754 344.987 454.733C345.826 454.721 345.483 454.013 344.223 453.155ZM282.308 219.33L291.154 217.554L290.209 208.51C289.689 203.536 288.926 198.92 288.513 198.252C288.101 197.584 281.74 196.572 274.377 196.004C267.016 195.436 258.758 194.59 256.027 194.125L251.065 193.278V205.714C251.065 217.184 251.331 218.258 254.5 219.532C259.389 221.497 271.976 221.405 282.308 219.33ZM796.888 567.744L792.158 564.713L791.158 546.771C790.608 536.903 789.487 526.929 788.665 500.052C787.181 451.549 782.877 369.099 781.619 365.108C781.108 363.483 780.487 363.424 778.783 364.838C777.189 366.161 770.909 366.36 755.51 365.579C743.911 364.99 733.743 364.424 732.912 364.321C732.083 364.218 730.96 367.246 730.416 371.049C729.872 374.852 727.285 385.43 724.67 394.556C722.054 403.682 719.912 412.082 719.912 413.222C719.912 414.803 722.964 415.294 732.788 415.294C744.977 415.294 745.688 415.111 746.151 411.858C746.455 409.722 747.866 408.247 749.881 407.96C754.009 407.371 754.33 409.079 754.852 434.544C755.194 451.242 754.851 454.964 752.815 457.005C746.716 463.105 744.268 455.896 745.527 435.529L746.306 422.93L732.728 422.91C714.598 422.882 712.277 422.165 712.277 416.598C712.277 414.151 715.37 402.188 719.15 390.014C722.929 377.84 726.021 366.237 726.021 364.23V360.582L750.838 360.273C764.488 360.103 776.962 360.009 778.559 360.063C781.312 360.157 781.409 359.204 780.426 341.532C779.635 327.308 777.454 204.893 777.868 197.869C777.913 197.137 777.087 197.242 776.037 198.105C773.68 200.04 731.667 203.492 719.15 202.779C714.104 202.491 710.131 201.57 710.31 200.729C710.488 199.889 723.025 202.421 734.745 195.964L758.856 192.726L732.256 192.146C713.745 191.742 705.476 191.022 705.062 189.778C704.198 187.179 718.552 185.58 743.334 185.514C763.269 185.461 764.618 185.647 767.178 188.803C768.669 190.643 773.278 194.837 774.3 192.621L778.71 193.093L779.212 154.914C779.502 132.863 778.924 107.662 777.843 95.2568C776.814 83.4436 776.448 71.2454 777.029 68.1497C778.433 60.6671 781.917 60.7375 781.899 68.2482C781.889 71.398 782.733 91.1555 783.772 112.154C784.808 133.152 786.306 190.192 787.099 238.908C788.212 307.343 789.399 338.942 792.316 377.879C796.906 439.132 799.453 476.496 799.818 526.929C800.056 559.929 800.382 564.598 802.381 563.664C803.641 563.075 812.308 562.328 821.642 562.002C836.068 561.499 838.749 561.773 839.537 563.828C841.898 569.979 839.538 570.827 820.162 570.801C804.3 570.778 796.888 572.548 796.888 567.744ZM219.344 527.804C218.311 526.772 217.467 523.946 217.467 521.524C217.467 519.102 216.951 517.385 216.321 517.708C199.125 526.52 188.92 528.047 171.65 524.394C160.516 522.038 154.349 518.92 151.317 514.112C148.675 509.924 151.631 500.879 157.74 494.457C163.281 488.633 163.964 488.359 172.941 488.359H182.341V480.823C182.341 476.679 181.188 468.26 179.781 462.116C178.373 455.971 177.149 448.539 177.06 445.599C176.969 442.659 176.425 439.491 175.844 438.558C173.987 435.576 176.457 434.909 189.342 434.909C203.854 434.909 206.776 435.685 206.776 439.542C206.776 443.142 203.607 443.685 191.718 442.122C186.374 441.42 181.629 441.219 181.172 441.677C180.714 442.134 182.144 446.812 184.351 452.071C189.101 463.399 190.885 471.253 192.317 487.141C193.356 498.675 193.305 498.922 189.708 499.825C187.691 500.332 184.132 500.021 181.8 499.134C174.309 496.286 168.703 497.179 163.897 501.986C161.442 504.441 159.432 507.45 159.432 508.673C159.432 512.681 168.657 515.084 184.038 515.084C197.126 515.084 199.733 514.599 208.092 510.604L217.467 506.124V467.462C217.467 446.198 218.038 428.8 218.736 428.8C223.114 428.8 227.102 470.64 226.303 508.193C225.943 525.18 225.459 528.869 223.542 529.236C222.266 529.481 220.376 528.837 219.344 527.804ZM833.943 548.666C831.668 546.39 833.399 542.712 843.395 528.589C849.153 520.453 855.106 511.391 856.623 508.451C859.886 502.125 861.589 504.831 858.834 511.965C855.951 519.428 845.095 540.762 841.776 545.484C838.908 549.568 836.019 550.741 833.943 548.666ZM822.783 530.582C822.268 529.244 827.455 520.43 835.573 508.846C843.084 498.13 852.151 485.013 855.722 479.699C859.293 474.385 862.545 470.367 862.949 470.77C865.311 473.132 830.832 530.076 825.892 531.972C824.658 532.446 823.257 531.821 822.783 530.582ZM813.758 509.853C812.573 507.935 818.981 495.232 829.092 479.46C832.983 473.389 835.9 468.156 835.575 467.831C835.249 467.506 831.374 466.555 826.963 465.718C822.554 464.882 818.31 463.806 817.536 463.327C812.883 460.451 818.516 459.582 841.796 459.582C861.68 459.582 868.135 460.075 870.431 461.77C876.025 465.898 868.027 476.605 855.489 467.416L841.324 467.078L838.305 472.875C828.012 492.638 817.139 511.505 816.05 511.505C815.352 511.505 814.32 510.762 813.758 509.853ZM749.693 476.092C746.267 475.246 736.007 474.983 726.325 475.494C715.353 476.072 707.964 475.815 706.047 474.788C702.707 473.001 703.666 469.571 707.132 470.901C708.332 471.361 714.275 470.69 720.34 469.41C735.069 466.3 782.28 467.848 783.676 471.486C785.294 475.704 779.532 477.916 767.346 477.754C760.997 477.67 753.053 476.922 749.693 476.092ZM697.819 463.093C697.216 461.582 695.71 446.601 694.473 429.802C692.73 406.134 692.415 382.146 693.072 323.226C693.54 281.408 693.261 230.554 692.456 210.217C690.548 162.04 689.812 79.8998 691.277 78.4316C693.854 75.8489 694.515 80.7641 695.748 111.77C696.46 129.62 698.064 166.559 699.316 193.856C700.567 221.155 702.105 289.189 702.734 345.045C704.219 476.953 704.355 464.793 701.397 465.363C700.033 465.625 698.423 464.604 697.819 463.093ZM167.896 419.74C166.529 417.53 168.565 416.913 180.844 415.818C187.128 415.258 198.224 413.815 205.504 412.612C220.649 410.109 227.137 411.54 226.317 417.202C225.884 420.199 224.739 420.338 197.319 420.741C180.887 420.982 168.401 420.557 167.896 419.74ZM823.924 435.298C819.119 430.81 818.577 428.618 819.175 416.089C819.687 405.351 828.372 393.825 835.806 394.018C839.633 394.117 839.664 394.186 836.562 395.689C834.782 396.551 831.945 399.769 830.258 402.839C820.994 419.698 827.289 434.798 841.212 429.117C843.794 428.064 847.462 426.846 849.366 426.411C852.224 425.757 852.648 426.114 851.812 428.475C851.258 430.045 849.059 433.219 846.924 435.529C843.748 438.966 841.739 439.729 835.855 439.729C830.031 439.729 827.767 438.888 823.924 435.298ZM168.596 410.776C168.596 409.9 170.829 408.461 173.559 407.577C196.515 400.145 225.734 397.316 229.737 402.14C233.344 406.485 228.869 407.936 207.948 409.204C196.803 409.88 183.391 410.868 178.14 411.401C171.917 412.032 168.596 411.814 168.596 410.776ZM325.955 406.504C317.246 404.164 314.929 402.283 316.313 398.678C316.975 396.953 319.718 396.73 330.298 397.54C340.065 398.287 346.209 397.903 354.121 396.052C359.984 394.679 367.029 393.472 369.774 393.368C372.52 393.265 374.794 392.433 374.826 391.519C375.587 370.314 374.259 240.518 372.896 202.781C370.756 143.533 370.402 84.4748 372.177 82.693C372.853 82.015 373.921 82.2935 374.551 83.3119C375.705 85.1793 382.5 189.067 382.436 203.891C382.401 210.698 382.954 212.234 386.148 214.327C389.664 216.63 390.106 216.582 393.371 213.54C395.284 211.757 398.461 209.894 400.43 209.4C405.17 208.21 411.52 211.235 412.551 215.173C413.339 218.188 413.525 218.141 416.715 214.141C419.414 210.757 420.837 210.149 424.137 210.977C428.899 212.173 429.621 214.998 425.164 214.998C420.424 214.998 420.976 222.291 425.807 223.503C434.447 225.672 438.73 220.707 433.35 214.762C430.622 211.747 430.661 211.706 435.84 212.203C446.246 213.2 447.776 227.131 437.97 231.599C430.573 234.969 419.926 232.291 415.989 226.07C414.547 223.793 414.161 223.736 413.376 225.688C410.985 231.64 402.912 237.421 395.608 238.412C391.531 238.965 387.625 239.065 386.926 238.633C386.229 238.202 386.034 235.534 386.494 232.704C386.953 229.874 386.548 226.279 385.586 224.715C384.272 222.568 384.089 233.856 384.839 270.739C385.385 297.617 386.088 319.891 386.4 320.237C386.713 320.583 392.643 319.991 399.577 318.921C413.296 316.803 419.252 317.082 420.174 319.887C421.242 323.133 414.439 325.2 399.821 326.072L385.457 326.929V357.958C385.457 387.272 385.291 389.076 382.447 390.597C380.221 391.789 379.635 393.293 380.197 396.378C380.617 398.671 380.424 401.3 379.772 402.219C378.186 404.451 352.744 408.973 342.478 408.847C337.979 408.792 330.543 407.737 325.955 406.504ZM402.721 223.841C404.027 221.145 404.761 218.396 404.349 217.732C403.222 215.908 398.588 216.284 395.642 218.439C393.382 220.091 393.291 220.924 394.969 224.536C397.525 230.041 399.82 229.835 402.721 223.841ZM466.065 402.221C456.471 399.638 442.904 390.451 438.212 383.359C436.126 380.207 432.528 373.164 430.217 367.708C426.503 358.937 426.024 355.929 426.094 341.752C426.227 314.806 431.83 298.501 445.824 284.335C455.529 274.513 465.575 270.773 479.302 271.875C498.149 273.388 511.418 283.275 522.06 303.736C525.29 309.946 528.139 315.277 528.393 315.583C528.645 315.889 530.7 314.686 532.958 312.91C538.113 308.855 542.167 308.781 543.197 312.723C543.962 315.648 540.053 320.012 532.927 324.19C530.704 325.493 530.584 326.391 532.112 330.298C534.766 337.084 534.474 356.649 531.606 364.252C526.05 378.983 511.174 395.107 498.323 400.329C490.478 403.516 474.381 404.461 466.065 402.221ZM493.483 390.123C505.216 385.865 518.568 367.574 521.493 351.75C522.839 344.482 522.573 341.159 519.755 329.867C515.59 313.182 510.863 303.746 501.777 293.984C494.437 286.097 479.391 277.615 472.738 277.613C459.844 277.613 443.174 296.498 437.456 317.591C434.469 328.611 436.011 357.409 440.072 366.446C444.302 375.858 453.473 385.847 461.053 389.299C468.128 392.521 485.649 392.967 493.483 390.123ZM503.014 320.301C502.094 318.583 501.555 314.975 501.814 312.284C502.17 308.602 503.03 307.391 505.283 307.391C509.347 307.391 512.957 314.154 511.657 319.332C510.408 324.308 505.455 324.863 503.014 320.301ZM323.988 392.713C321.23 391.899 320.448 389.79 322.461 388.593C324.808 387.198 351.859 385.766 351.859 387.037C351.859 391.181 332.299 395.164 323.988 392.713ZM197.716 387.759C196.698 385.858 196.093 371.91 196.106 350.634C196.131 317.626 196.71 309.682 199.114 309.682C201.087 309.682 203.969 341.482 204.232 366.147C204.457 387.194 204.207 389.835 201.915 390.292C200.502 390.574 198.612 389.435 197.716 387.759ZM216.264 385.753C214.009 383.499 213.85 365.992 215.918 347.861C216.733 340.721 218.077 327.123 218.905 317.642C222.006 282.154 224.834 294.831 224.967 344.806C225.035 369.223 224.51 380.238 223.17 382.865C220.891 387.331 218.741 388.231 216.264 385.753ZM165.621 381.606C163.472 377.592 160.547 336.565 161.772 327.65C162.545 322.032 163.401 320.372 165.521 320.372C168.883 320.372 169.528 322.049 169.928 331.826C170.1 336.025 170.877 348.573 171.656 359.71C172.434 370.847 172.678 380.983 172.197 382.235C170.979 385.412 167.478 385.077 165.621 381.606ZM184.383 376.495C183.728 375.445 182.728 366.683 182.163 357.024C181.597 347.364 180.623 332.246 179.998 323.426C179.374 314.607 179.385 307.876 180.023 308.469C184.552 312.668 191.341 378.404 187.246 378.404C186.327 378.404 185.037 377.545 184.382 376.495H184.383ZM824.526 383.911C808.803 376.025 803.56 345.216 815.756 332.382C823.987 323.719 834.145 321.593 839.052 327.505C840.51 329.262 839.908 329.475 835.506 328.761C830.97 328.025 829.368 328.666 824.425 333.197C819.197 337.988 818.58 339.375 817.977 347.716C817.19 358.595 819.358 366.186 824.808 371.636C832.62 379.448 852.211 375.335 859.02 364.455C863.092 357.948 862.059 351.935 855.19 342.164C852.183 337.886 849.725 334.022 849.725 333.576C849.725 333.13 852.407 334.134 855.685 335.807C862.78 339.426 870.45 348.264 871.635 354.183C873.69 364.458 865.983 376.488 853.152 383.034C845.525 386.925 831.397 387.357 824.526 383.911ZM644.316 355.424C618.89 355.424 620.888 350.12 619.588 343.857C618.002 336.202 618.021 103.796 619.613 92.6823C621.004 82.9416 622.819 81.3935 624.28 88.6991C625.975 97.1695 628.508 203.104 628.782 276.857L629.048 348.403L653.482 347.87C677.908 347.336 677.918 347.337 678.41 350.804C678.798 353.536 677.756 354.751 673.496 356.531C666.684 359.376 660.186 355.424 644.319 355.424H644.316ZM737.493 342.091C718.943 341.341 716.065 340.883 715.63 338.609C715.145 336.08 716.788 335.296 725.258 334.01C728.107 333.578 728.278 332.57 727.816 319.061C727.544 311.094 726.296 294.267 725.044 281.668C721.753 248.557 720.665 216.327 722.718 212.791C724.065 210.471 724.421 212.027 724.499 220.582C724.554 226.461 725.589 239.175 726.798 248.834C729.821 272.953 733.448 306.758 734.538 320.992L735.445 332.828H743.027H750.608L749.718 324.047C745.309 280.581 742.074 217.101 744.011 212.182C745.333 208.825 745.635 209.47 746.52 217.527C747.075 222.567 749.204 240.091 751.251 256.47C755.526 290.633 758.496 326.948 757.277 330.124C756.667 331.712 758.404 332.672 763.76 333.706C770.167 334.943 771.074 335.592 771.074 338.936C771.074 343.429 770.93 343.443 737.493 342.091ZM396.025 309.682C395.933 309.262 395.736 298.954 395.591 286.774C395.354 266.854 395.511 265.397 397.119 272.266C399.325 281.676 399.687 305.041 397.675 308.155C396.861 309.415 396.118 310.102 396.025 309.682ZM409.939 286.52C409.994 259.443 412.669 260.881 413.288 288.321C413.602 302.273 413.219 307.255 411.801 307.747C410.332 308.257 409.903 303.382 409.939 286.52ZM161.723 300.779C149.927 295.157 145.688 287.673 145.688 272.467C145.688 265.366 146.655 261.016 149.482 255.386C156.222 241.966 167.958 232.262 175.664 233.735C178.999 234.373 179.288 233.93 179.295 228.149C179.305 221.123 181.471 212.137 184.951 204.69C187.925 198.326 194.028 198.002 201.634 203.802C212.136 211.813 216.738 229.582 211.541 242.066C209.638 246.642 209.769 247.319 213.42 251.658C225.785 266.353 218.857 289.739 199.14 299.859C191.001 304.037 169.661 304.561 161.723 300.779ZM177.759 293.881C177.759 293.59 176.557 291.013 175.087 288.155C172.951 284 172.414 279.026 172.414 263.38C172.414 246.324 172.759 243.61 175.087 242.305C179.345 239.92 178.317 237.436 173.559 238.612C165.237 240.67 154.661 254.36 152.69 265.627C151.662 271.503 153.615 283.095 156.043 285.522C156.933 286.414 157.198 284.071 156.74 279.314C155.81 269.629 157.375 259.009 160.282 255.292C162.311 252.697 162.439 253.325 161.582 261.663C160.609 271.125 163.775 288.151 167.293 292.39C168.726 294.117 177.759 295.404 177.759 293.881ZM196.006 290.851C213.155 282.08 213.955 260.232 197.552 248.552L193.03 245.333V250.401V255.468L190.36 250.251C187.05 243.784 182.424 240.547 179.282 242.5C175.886 244.611 176.332 271.095 179.951 282.193C182.364 289.594 185.754 294.499 188.365 294.367C188.834 294.343 192.273 292.761 196.009 290.851H196.006ZM192.45 279.866C189.676 277.092 188.955 263.152 191.504 261.576C192.424 261.007 193.03 263.055 193.03 266.732C193.03 270.087 193.737 274.689 194.601 276.96C196.532 282.04 195.72 283.136 192.45 279.866ZM203.25 227.663C202.41 219.537 196.524 208.889 192.869 208.889C191.064 208.889 183.867 224.551 183.867 228.481C183.867 229.969 183.043 232.011 182.035 233.019C179.948 235.106 179.724 234.991 187.221 235.678C190.326 235.962 194.794 237.207 197.148 238.445C200.955 240.446 201.579 240.433 202.768 238.329C203.504 237.028 203.721 232.228 203.25 227.663ZM644.769 317.402C638.138 314.864 638.099 310.992 644.585 299.58C647.797 293.928 650.77 287.618 651.192 285.558L651.958 281.812L655.774 285.643C657.873 287.75 660.947 292.013 662.609 295.116C664.269 298.219 665.987 300.747 666.427 300.735C666.866 300.722 669.286 295.966 671.806 290.166C676.057 280.379 676.578 279.79 679.022 281.991C680.471 283.295 683.131 287.411 684.936 291.138C692.578 306.923 682.179 322.283 669.745 313.575C666.465 311.277 666.02 311.33 662.753 314.399C658.632 318.27 650.558 319.618 644.769 317.402ZM656.409 308.994C659.706 308.994 659.468 304.903 656.341 298.861L653.859 294.062L651.059 299.319C646.178 308.485 648.2 312.143 656.407 308.994H656.409ZM679.18 305.112C680.179 301.294 678.855 293.411 677.025 292.28C675.424 291.291 672.092 303.419 673.184 306.263C674.435 309.522 678.217 308.797 679.18 305.112ZM766.523 311.829C765.11 308.263 762.044 229.774 763.199 226.76C763.698 225.462 764.683 224.4 765.39 224.4C766.485 224.4 768.031 237.546 774.405 301.128C775 307.067 774.667 310.642 773.374 312.2C770.823 315.274 767.824 315.111 766.523 311.829ZM820.225 310.762C810.417 307.265 802.255 299.182 798.439 289.189C794.649 279.268 795.93 258.079 800.929 247.991C805.215 239.34 816.801 230.508 823.863 230.508C829.051 230.508 835.531 233.244 836.534 235.858C837.064 237.241 835.464 237.539 830.512 236.98C821.971 236.018 814.374 240.727 809.995 249.698C806.235 257.398 805.696 280.157 809.117 286.707C814.286 296.6 824.551 302.285 837.246 302.285H844.165L837.892 296.915C830.5 290.588 827.971 283.999 828.148 271.517C828.362 256.25 834.476 242.726 841.162 242.726C844.959 242.726 845.665 245.89 842.381 248.19C833.553 254.373 835.438 284.874 844.962 289.971C848.705 291.974 858.235 292.42 865.378 290.926C870.83 289.785 871.105 289.918 871.105 293.68C871.105 297.938 867.14 301.248 860.076 302.885C857.789 303.415 854.686 305.17 853.181 306.785C847.323 313.074 831.918 314.933 820.225 310.762ZM425.968 288.182C425.457 286.856 425.625 281.358 426.342 275.965L427.645 266.158L428.833 275.593C429.572 281.468 429.432 286.078 428.459 287.81C427.093 290.243 426.781 290.289 425.968 288.182ZM577.709 293.422C575.158 286.717 573.531 241.588 573.036 163.701C572.709 112.255 573.061 85.4065 574.066 85.3438C578.728 85.0527 581.561 124.349 584.039 223.636C584.919 258.913 585.954 288.807 586.338 290.067C586.866 291.8 589.663 292.398 597.818 292.52C603.748 292.61 609.385 293.469 610.346 294.429C612.477 296.559 612.353 296.576 593.356 296.783C579.758 296.932 578.982 296.765 577.709 293.422ZM512.374 270.933C509.824 267.859 511.983 263.867 516.196 263.867C519.033 263.867 519.851 264.685 519.851 267.522C519.851 269.532 518.764 271.593 517.435 272.103C514.259 273.322 514.382 273.35 512.374 270.933ZM477.4 262.997C470.94 258.472 474.54 250.983 482.724 251.921C486.321 252.334 487.016 253.126 487.016 256.809C487.016 263.023 482.024 266.236 477.4 262.997ZM319.788 262.269C319.788 261.39 321.845 259.5 324.36 258.069C328.837 255.522 328.932 255.214 328.943 243.287C328.943 236.588 327.948 220.438 326.721 207.399C325.494 194.36 323.756 166.854 322.857 146.276C321.96 125.698 320.814 103.706 320.313 97.407C318.998 80.9117 322.001 85.3548 324.956 104.279C326.268 112.678 328.052 129.515 328.918 141.694C332.937 198.14 333.832 208.479 335.132 213.471C335.998 216.797 336.215 195.593 335.705 157.348C335.196 118.97 335.434 95.8798 336.339 95.8798C337.137 95.8798 338.236 102.237 338.78 110.006C339.325 117.775 340.418 131.692 341.208 140.931C343.288 165.236 343.649 198.179 342.166 228.315L340.872 254.614L347.51 251.223C351.163 249.358 354.388 247.708 354.679 247.557C355.408 247.179 354.748 180.744 353.58 137.113L352.623 101.225L347.566 100.739C340.899 100.099 342.024 96.786 349.115 96.1807C352.395 95.9005 355.42 96.6048 356.781 97.9658C359.769 100.954 360.74 117.905 362.009 189.226L363.031 246.684L359.354 250.42C356.861 252.953 352.482 254.78 345.755 256.095C340.298 257.161 335.488 258.491 335.065 259.05C334.133 260.281 324.102 263.867 321.588 263.867C320.597 263.867 319.788 263.148 319.788 262.269ZM449.848 259.667C449.085 258.198 448.006 248.061 447.45 237.142C446.893 226.223 445.392 200.795 444.113 180.637C442.835 160.478 441.656 128.722 441.495 110.067C441.238 80.5505 441.519 75.8266 443.679 73.6628C445.969 71.3673 446.232 71.8025 447.104 79.3284C447.624 83.812 448.757 99.5068 449.625 114.206C450.492 128.905 452.182 155.706 453.383 173.765C456.483 220.435 457.775 255.179 456.553 259.031C455.287 263.018 451.76 263.353 449.848 259.667ZM404.547 258.741C395.61 257.606 391.781 256.594 393.599 255.849C397.638 254.197 430.928 254.437 431.971 256.126C434.333 259.945 422.726 261.052 404.547 258.741ZM392.712 250.597C386.405 248.949 390.884 247.069 401.112 247.072C407.201 247.072 418.251 245.961 425.67 244.599C435.616 242.774 439.605 242.573 440.865 243.833C443.498 246.465 440.668 248.167 430.61 249.999C421.755 251.612 398.029 251.987 392.712 250.597ZM509.676 244.614C505.72 238.577 505.709 201.296 509.651 193.354C515.65 181.294 521.845 185.513 523.448 202.75C524.517 214.258 520.927 243.077 517.974 246.687C515.518 249.691 512.501 248.938 509.667 244.614H509.676ZM636.79 266.287C633.881 263.378 633.533 247.506 636.097 234.736C637.65 227.004 638.224 226.153 642.456 225.306C649.191 223.959 657.463 229.865 652.842 232.721C651.534 233.53 661.68 253.271 663.455 253.37C663.902 253.395 665.906 246.715 667.909 238.526C669.914 230.336 672.098 223.011 672.763 222.246C674.782 219.932 679.829 227.493 684.74 240.184C690.372 254.741 690.637 260.854 685.835 265.367C681.88 269.081 669.957 270.045 666.815 266.904C665.456 265.544 663.618 265.544 659.079 266.904C650.527 269.466 639.669 269.166 636.79 266.287ZM650.742 261.051C655.97 261.051 656.12 260.892 655.212 256.354C654.062 250.6 642.919 231.651 641.512 233.057C640.955 233.615 640.499 240.559 640.499 248.489C640.499 261.007 640.817 262.783 642.914 261.978C644.243 261.469 647.765 261.051 650.742 261.051ZM678.61 254.561C678.574 251.831 677.645 247.536 676.55 245.016L674.56 240.435L673.378 247.244C672.571 251.884 672.741 254.236 673.909 254.626C674.853 254.94 675.624 256.171 675.624 257.361C675.624 258.551 676.312 259.524 677.151 259.524C677.991 259.524 678.648 257.291 678.61 254.561ZM852.762 260.67C845.911 249.434 852.283 224.593 861.143 227.993C862.992 228.702 862.662 229.649 859.447 232.865C855.669 236.642 855.495 237.488 856.214 248.572C856.632 255.016 857.479 261.49 858.095 262.96C860.065 267.665 855.949 265.896 852.762 260.67ZM475.041 232.065C473.438 230.295 471.574 222.837 469.921 211.598L467.322 193.916L471.464 187.659C475.986 180.824 478.452 179.982 481.966 184.073C485.861 188.61 486.452 192.236 486.361 211.05C486.292 225.777 485.788 229.779 483.735 232.048C480.531 235.587 478.233 235.592 475.041 232.065ZM592.322 243.559C589.323 240.56 588.575 238.254 588.575 232.029C588.575 224.717 591.847 215.237 594.37 215.237C594.995 215.237 595.249 220.328 594.935 226.551C594.409 236.942 594.637 238.012 597.719 239.662C599.566 240.65 602.73 241.043 604.752 240.536C609.124 239.438 609.506 241.276 605.635 244.78C601.669 248.369 596.675 247.911 592.322 243.559ZM396.911 194.119C389.834 192.561 385.457 190.039 385.457 187.516C385.457 185.104 386.822 184.916 399.193 185.622C420.653 186.845 433.671 180.272 429.825 170.153C428.12 165.668 426.551 165.237 422.084 168.027C414.837 172.552 411.46 163.278 413.714 145.042C414.511 138.591 415.237 137.034 417.268 137.42C419.207 137.787 420.003 140.103 420.583 147.053C421.334 156.053 421.427 156.21 426.251 156.677C433.512 157.379 438.909 164.466 438.909 173.298C438.909 179.276 438.119 181.022 433.182 185.955C428.955 190.179 425.335 192.132 419.362 193.412C411.319 195.134 402.753 195.404 396.911 194.119ZM813.072 212.054C798.501 205.449 791.66 194.117 791.745 176.727C791.78 170.609 792.634 164.116 793.654 162.296C798.465 153.717 811.575 148.687 826.004 149.883C830.572 150.262 833.957 150.003 833.526 149.307C833.097 148.611 834.501 148.042 836.649 148.042C841.774 148.042 851.708 157.08 855.744 165.42C859.737 173.671 859.837 186.271 855.976 194.774C852.698 201.991 843.532 211.709 838.029 213.802C831.803 216.169 820.383 215.369 813.072 212.054ZM832.036 206.674C835.589 205.311 834.982 200.46 831.133 199.453C826.995 198.371 825.289 199.365 825.289 202.855C825.289 207.299 827.358 208.469 832.036 206.674ZM820.684 198.923C820.719 194.476 814.803 192.477 812.189 196.051C810.161 198.824 807.973 197.007 809.251 193.612C809.696 192.432 808.083 190.465 805.439 188.964C796.084 183.655 802.936 196.694 812.55 202.496C818.728 206.225 820.639 205.385 820.684 198.923ZM846.222 194.238C853.326 181.405 851.926 170.097 842.008 160.179C836.234 154.405 835.564 154.15 826.125 154.15C817.159 154.15 808.523 156.325 808.47 158.595C808.46 159.09 808.034 161.042 807.527 162.932C806.701 166.016 807.154 166.368 811.952 166.368C816.129 166.368 817.552 165.617 818.47 162.932C819.547 159.778 819.695 159.892 820.261 164.315C820.725 167.92 821.838 169.374 824.682 170.088C829.574 171.316 831.398 170.115 831.398 165.664C831.398 163.298 829.717 161.01 826.435 158.908C818.588 153.883 825.491 154.922 835.883 160.331C840.813 162.896 845.166 166.29 845.585 167.894C846.318 170.695 843.489 190.092 841.38 196.741C839.706 202.011 842.808 200.408 846.222 194.238ZM838.078 189.096C838.797 185.494 838.365 183.758 836.365 182.241C832.613 179.393 831.856 179.604 830.806 183.788C830.299 185.81 829.509 188.441 829.05 189.635C828.552 190.937 829.62 192.447 831.717 193.406C836.19 195.45 836.903 194.967 838.078 189.096ZM826.12 182.332C826.12 188.034 826.751 175.991 823.092 174.324C819.934 172.885 818.955 172.9 818.5 174.394C818.182 175.439 817.166 178.656 816.24 181.542C814.444 187.15 815.109 188.6 819.944 189.626C824.116 190.511 826.12 175.077 826.12 182.332V182.332ZM812.831 180.317C815.197 172.417 815.059 169.468 812.308 169.193C811.048 169.067 809.22 168.895 808.246 168.811C807.272 168.728 805.626 171.407 804.588 174.767L802.701 180.876L802.541 175.863C802.453 173.107 803.412 168.384 804.672 165.368C807.57 158.436 807.555 158.308 804.069 160.173C800.803 161.921 797.8 169.315 797.8 175.609C797.8 178.681 799.135 180.668 802.764 182.991C809.63 187.388 810.804 187.076 812.831 180.317ZM842.088 174.415C842.088 171.753 837.842 166.368 835.743 166.368C833.338 166.368 834.436 174.418 837.108 176.372C840.204 178.636 842.088 177.895 842.088 174.415ZM158.905 191.382C147.344 187.276 141.107 178.436 141.107 166.154C141.107 156.867 146.333 145.521 153.317 139.644C158.172 135.558 170.53 129.477 173.977 129.477C176.451 129.477 185.156 139.339 187.027 144.263L188.456 148.02L192.478 144.857C200.282 138.717 212.718 141.633 222.191 151.825C230.152 160.389 232.05 166.079 229.72 174.4C227.719 181.546 220.71 189.487 214.412 191.745C208.008 194.041 165.612 193.764 158.905 191.382ZM182.898 181.019C179.511 174.491 179.86 162.831 183.671 155.128L186.693 149.019L181.319 141.539C178.363 137.425 175.723 134.059 175.45 134.059C175.178 134.059 173.747 133.596 172.274 133.03C170.262 132.258 169.822 132.597 170.508 134.384C171.16 136.084 170.679 136.573 168.835 136.091C160.745 133.976 147.215 152.616 147.215 165.876C147.215 171.855 147.974 173.433 153.283 178.483C159.552 184.446 162.327 185.28 177.416 185.738L185.474 185.982L182.898 181.019ZM212.243 181.575C218.742 177.612 221.499 170.65 218.977 164.562C216.605 158.835 202.882 146.276 198.996 146.276C195.159 146.276 188.393 156.748 187.387 164.244C185.421 178.896 199.984 189.05 212.243 181.575ZM545.047 211.419C543.337 207.828 542.06 111.997 543.535 97.9437C544.196 91.6472 545.162 88.52 546.325 88.9069C547.622 89.3384 548.219 103.936 548.529 142.823C548.959 196.786 547.912 217.432 545.047 211.419ZM644.183 209.216C638.482 207.852 635.917 206.376 635.917 204.456C635.917 202.88 681.426 202.412 685.426 203.947C686.755 204.456 687.841 206.174 687.841 207.764C687.841 210.458 686.512 210.645 668.37 210.499C657.661 210.413 646.777 209.835 644.183 209.216ZM289.632 182.546C287.577 179.954 285.693 101.922 287.614 98.9769C289.624 95.8948 290.26 98.1597 291.463 112.679C291.985 118.978 293.036 129.63 293.8 136.349C295.404 150.458 295.788 178.492 294.426 182.039C293.31 184.948 291.673 185.121 289.632 182.546ZM272.822 180.368C272.194 178.836 271.681 157.859 271.681 133.753C271.681 100.724 272.152 89.4523 273.591 88.0142C274.785 86.8199 276.007 86.6488 276.855 87.5568C277.601 88.3547 278.46 109.954 278.764 135.555C279.28 178.953 279.137 182.139 276.64 182.628C275.127 182.925 273.467 181.942 272.822 180.368ZM637.444 197.008C633.803 194.426 637.645 192.899 652.625 190.978C674.656 188.153 683.26 189.191 683.26 194.674C683.26 196.251 681.527 196.911 677.388 196.911C674.159 196.911 664.366 197.298 655.626 197.772C645.469 198.322 638.909 198.047 637.444 197.008ZM466.347 176.437C464.555 163.145 462.926 86.7168 464.435 86.7168C465.934 86.7168 467.375 105.365 469.23 148.747C470.274 173.152 470.088 176.819 467.814 176.819C467.035 176.819 466.376 176.647 466.347 176.437ZM255.249 167.656C250.197 156.119 250.003 103.516 255.012 103.516C256.478 103.516 257.195 105.357 257.243 109.242C257.279 112.392 257.877 125.817 258.566 139.076C259.256 152.335 259.318 165.392 258.704 168.092L257.588 173.001L255.249 167.656ZM561.467 177.574C559.2 176.659 558.887 172.476 561.086 172.476C561.925 172.476 562.612 173.45 562.612 174.64C562.612 175.83 563.472 177.15 564.521 177.574C565.571 177.997 565.742 178.344 564.903 178.344C564.063 178.344 562.517 177.997 561.467 177.574ZM600.283 177.562C598.717 175.996 599.077 169.714 600.792 168.654C601.633 168.134 602.32 168.775 602.32 170.078C602.32 171.38 603.694 173.304 605.373 174.353C607.053 175.402 608.428 176.782 608.428 177.42C608.428 178.849 601.687 178.966 600.283 177.562ZM642.408 177.005C642.408 174.968 638.897 174.399 638.807 172.902C638.715 171.405 638.334 153 637.956 132.001C637.578 111.003 637.137 91.4171 636.976 88.4774C636.713 83.6922 637.288 82.8364 642.464 80.3068C649.671 76.7867 660.353 75.162 660.353 77.5862C660.353 78.5368 659.665 79.3145 658.826 79.3145C654.877 79.3145 657.973 83.7365 663.742 86.3365C671.643 89.8977 678.678 95.6456 678.678 98.5397C678.678 101.355 673.462 101.319 671.112 98.4879C670.105 97.2741 665.898 94.11 661.762 91.4565C657.627 88.8029 654.244 85.6727 654.244 84.5003C654.244 81.6237 651.161 81.8688 647.01 85.0753C643.69 87.6407 643.64 88.0952 645.223 101.458C646.117 109.018 646.623 127.509 646.347 142.55C645.804 172.058 646.785 175.747 652.627 166.143C657.154 158.697 658.004 149.282 655.891 129.909C654.536 117.477 654.468 112.077 655.649 110.896C658.588 107.957 660.095 111.641 664.847 133.385C670.644 159.903 673.266 165.766 679.06 165.159C682.391 164.811 683.26 165.353 683.26 167.778C683.26 171.953 678.357 174.381 673.588 172.568C669.239 170.914 664.933 165.379 664.933 161.441C664.933 159.948 664.246 158.727 663.406 158.727C662.567 158.727 661.88 159.785 661.88 161.078C661.88 165.675 655.592 175.669 651.791 177.114C647.285 178.827 642.408 181.879 642.408 177.005ZM740.524 175.144C740.524 174.03 739.66 169.455 739.427 164.835L739.003 156.436L736.077 161.269C731.942 168.099 727.117 170.029 722.834 166.562C719.577 163.924 719.534 163.491 721.343 151.128C722.366 144.131 724.764 133.014 726.673 126.423C728.583 119.832 729.935 114.439 729.678 114.439C729.421 114.439 726.68 116.157 723.586 118.257C717.455 122.417 712.929 123.002 707.172 120.379C695.614 115.113 698.446 89.4286 712.328 73.6053C718.86 66.1596 726.966 61 732.13 61C735.927 61 735.923 61.016 731.366 63.8137C716.226 73.1127 705.663 93.1996 708.357 107.567C709.683 114.63 713.427 114.595 723.84 107.424C738.193 97.5387 742.509 103.205 737.102 124.837C735.277 132.137 733.325 140.515 732.766 143.455C731.758 148.751 731.778 148.775 734.868 146.005C736.584 144.467 739.59 143.437 741.549 143.714C744.817 144.177 745.228 145.264 746.512 156.84C748.072 170.895 747.553 170.567 759.92 165.316C771.191 160.529 774.148 167.477 763.425 173.55C756.535 177.452 740.524 178.686 740.524 175.144ZM455.709 132.752C455.709 130.217 456.515 126.209 457.501 123.844L459.294 119.545L460.252 124.89C461.32 130.852 460.137 135.884 457.472 136.774C456.398 137.132 455.709 135.558 455.709 132.752ZM195.689 133.397C192.531 132.27 188.878 130.461 187.571 129.376C181.062 123.975 179 112.335 182.897 103.008C185.3 97.2569 193.547 89.7653 197.476 89.7653C202.368 89.7653 202.343 91.8532 197.426 93.4938C187.996 96.6431 183.657 112.697 190.041 120.813C193.086 124.683 201.139 127.919 207.77 127.936C210.169 127.947 212.342 125.674 215.789 119.568C218.388 114.961 220.515 109.566 220.515 107.58C220.515 103.137 212.179 91.2924 209.052 91.2924C207.796 91.2924 206.771 90.6052 206.771 89.7653C206.771 85.9753 215.519 89.3178 221.879 95.5376C225.506 99.0862 227.834 108.074 226.573 113.666C224.984 120.712 216.154 132.047 210.743 133.99C205.106 136.014 202.76 135.922 195.685 133.397H195.689ZM754.16 153.958C750.611 153.958 746.989 81.2882 748.073 74.0526C749.166 66.7658 751.687 64.8657 753.098 70.2644C753.742 72.7245 754.741 73.2278 757.571 72.5175C759.843 71.9471 761.492 72.3355 761.952 73.5495C766.425 85.3489 771.247 131.849 769.188 143.335C767.81 151.014 764.878 153.046 762.769 147.782L761.341 144.218L761.249 148.112C761.102 153.991 758.648 153.958 754.164 153.958H754.16ZM760.498 117.862C758.84 116.203 758.519 127.445 759.349 122.838L760.334 127.419L760.856 123.08C761.143 120.694 760.982 118.345 760.498 117.862ZM759.869 103.117C759.562 99.2648 758.604 96.1125 757.74 96.1125C756.772 96.1125 756.53 98.3153 757.113 101.839C757.634 104.989 758.067 108.466 758.076 109.565C758.086 110.665 758.617 111.24 759.26 110.843C759.902 110.447 760.175 106.97 759.869 103.117ZM758.093 83.768C758.093 78.2364 757.545 76.1879 756.183 76.6413C755.133 76.9913 754.343 78.0794 754.428 79.0593C754.508 80.0393 754.684 83.2463 754.81 86.186C755.169 94.5825 758.093 92.4295 758.093 83.768ZM391.905 128.621C386.261 124.667 388.003 123.363 398.925 123.363C404.653 123.363 412.983 122.28 417.437 120.958L425.536 118.553L424.723 112.498C423.469 103.142 421.325 101.475 411.964 102.575C400.012 103.98 398.543 101.878 399.889 85.2886C400.471 78.1114 401.279 71.9073 401.685 71.5018C403.569 69.6182 405.267 76.1935 405.287 85.4553L405.312 95.6533L413.462 94.8122C423.65 93.7607 427.034 95.515 431.126 103.966C435.399 112.79 435.311 120.415 430.894 124.413C423.966 130.683 398.739 133.406 391.908 128.621H391.905ZM822.999 137.775C821.319 137.365 818.767 135.987 817.329 134.712C815.89 133.437 813.665 132.796 812.386 133.287C811.084 133.787 806.756 133.527 805.838 130.553L801.618 126.926L800.789 99.684C800.031 74.8022 800.839 63.6424 802.907 70.1509C805.307 77.6811 806.963 87.8506 806.963 95.0707C806.963 108.062 808.294 112.531 812.479 113.581C814.49 114.086 819.373 117.601 823.329 121.391C830.042 127.822 830.809 128.165 834.797 126.513C837.149 125.539 841.469 122.547 844.399 119.864C848.775 115.854 849.725 113.901 849.725 108.895C849.725 105.546 848.755 101.48 847.571 99.8609C845.455 96.9657 845.285 96.9733 837.359 100.322C830.068 103.402 828.971 103.51 825.84 101.458C823.84 100.148 821.951 96.9197 821.37 93.8142C820.231 87.7435 821.807 72.1231 823.675 70.9686C824.348 70.5519 825.377 75.0469 825.96 80.9578C827.151 93.0577 828.664 94.5503 835.927 90.7944C838.769 89.3251 843.351 88.4998 847.138 88.775C853.023 89.2026 853.822 89.794 856.979 96.0544C861.355 104.732 861.47 114.662 857.272 121.454C849.868 133.433 834.743 140.636 822.999 137.775ZM822.235 128.275C822.235 127.086 810.765 117.493 809.343 117.493C807.292 117.493 808.836 120.833 813.159 125.758C815.942 128.927 818.718 130.733 820.031 130.229C821.243 129.764 822.235 128.885 822.235 128.275ZM591.12 133.273C588.721 130.876 590.441 117.815 594.769 105.535C602.258 84.2927 604.574 84.5523 599.265 106.039C597.605 112.759 596.238 120.564 596.228 123.385C596.218 128.044 596.547 128.429 599.886 127.591C601.908 127.084 604.657 126.249 605.995 125.735C609.389 124.433 609.033 127.578 605.373 131.237C602.417 134.194 593.337 135.491 591.12 133.273ZM558.084 125.229C559.927 125.229 556.572 119.309 556.657 115.684L556.81 109.093L558.165 114.846C558.911 118.009 560.639 122.304 562.005 124.39C564.25 127.816 564.257 128.183 562.074 128.183C560.747 128.183 556.239 125.229 558.081 125.229H558.084ZM452.677 101.691C452.687 100.591 453.368 98.661 454.181 97.4011C455.385 95.5387 455.666 95.7361 455.685 98.4563C455.695 100.297 455.021 102.227 454.181 102.746C453.341 103.265 452.664 102.791 452.677 101.691Z" fill="black"/>
</g>
<defs>
<clipPath id="clip0_1308_1723">
<rect width="774" height="557" fill="white" transform="translate(125 61)"/>
</clipPath>
</defs>
</svg>
