<svg width="987" height="1220" viewBox="0 0 987 1220" fill="none" xmlns="http://www.w3.org/2000/svg">
<rect width="987" height="1220" fill="white"/>
<rect width="987" height="1220" fill="white" fill-opacity="0.2"/>
<path d="M268.417 411.11V298.106H724.362V595.75H588.079" stroke="#120071" stroke-width="0.769171" stroke-linecap="round" stroke-linejoin="round"/>
<path d="M268.417 332.678H724.362" stroke="#120071" stroke-width="0.769171" stroke-linecap="round" stroke-linejoin="round"/>
<path d="M289.009 322.33C292.816 322.33 295.902 319.244 295.902 315.437C295.902 311.63 292.816 308.543 289.009 308.543C285.202 308.543 282.116 311.63 282.116 315.437C282.116 319.244 285.202 322.33 289.009 322.33Z" stroke="#120071" stroke-width="0.769171" stroke-linecap="round" stroke-linejoin="round"/>
<path d="M311.254 322.33C315.061 322.33 318.147 319.244 318.147 315.437C318.147 311.63 315.061 308.543 311.254 308.543C307.447 308.543 304.36 311.63 304.36 315.437C304.36 319.244 307.447 322.33 311.254 322.33Z" stroke="#120071" stroke-width="0.769171" stroke-linecap="round" stroke-linejoin="round"/>
<path d="M333.502 322.33C337.309 322.33 340.395 319.244 340.395 315.437C340.395 311.63 337.309 308.543 333.502 308.543C329.695 308.543 326.608 311.63 326.608 315.437C326.608 319.244 329.695 322.33 333.502 322.33Z" stroke="#120071" stroke-width="0.769171" stroke-linecap="round" stroke-linejoin="round"/>
<path d="M588.078 595.752C598.402 575.342 613.641 529.17 614.788 524.868C615.982 520.434 615.775 519.746 613.805 518.759C611.834 517.772 593.507 507.818 583.346 502.691C573.185 497.565 552.919 484.232 552.919 484.232C539.673 496.863 528.139 511.172 518.607 526.794C511.507 505.366 497.417 466.143 467.181 446.49C458.911 441.117 441.065 435.636 415.143 440.261C415.143 440.261 417.897 452.73 403.075 457.932C388.254 463.134 374.69 445.328 374.69 445.328C353.956 450.147 335.686 462.353 323.296 479.663C318.14 470.855 312.412 462.394 306.15 454.334C306.15 454.334 291.758 462.943 278.035 469.407C265.877 474.358 253.295 478.201 240.444 480.889C246.203 522.834 265.857 588.747 268.416 595.752H588.078Z" stroke="#120071" stroke-width="0.769171" stroke-linecap="round" stroke-linejoin="round"/>
<path d="M323.297 479.663C333.968 497.943 354.564 539.681 354.564 539.681" stroke="#120071" stroke-width="0.769171" stroke-linecap="round" stroke-linejoin="round"/>
<path d="M518.607 526.793C511.328 539.848 508.355 546.049 508.355 546.049" stroke="#120071" stroke-width="0.769171" stroke-linecap="round" stroke-linejoin="round"/>
<path d="M473.052 511.106C479.503 538.967 483.941 567.255 486.333 595.753" stroke="#120071" stroke-width="0.769171" stroke-linecap="round" stroke-linejoin="round"/>
<path d="M646.397 474.518C638.445 474.429 630.636 476.615 623.886 480.819C631.986 475.829 639.623 470.128 646.712 463.784C649.561 461.528 651.703 458.16 649.498 455.279C644.686 449.974 623.687 464.206 618.887 467.398C626.875 461.727 634.401 455.435 641.398 448.581C643.695 446.703 645.362 444.167 646.174 441.313C646.33 440.779 646.373 440.218 646.306 439.665C646.234 439.113 646.055 438.58 645.772 438.101C645.49 437.621 645.112 437.204 644.662 436.876C644.212 436.547 643.699 436.314 643.157 436.191C641.207 436.047 639.249 436.326 637.418 437.01C635.584 437.693 633.924 438.765 632.543 440.151C624.889 445.959 617.387 451.962 610.036 458.161C631.986 439.057 634.748 437.604 634.748 433.158C634.776 432.603 634.676 432.049 634.449 431.541C634.226 431.033 633.884 430.585 633.454 430.233C632.451 429.677 631.273 429.524 630.159 429.807C625.427 430.801 620.937 432.724 616.949 435.463C605.956 442.246 595.871 450.393 586.924 459.709C588.118 451.657 592.966 444.059 592.659 435.857C592.719 434.737 592.401 433.629 591.76 432.708C591.119 432.09 590.291 431.703 589.404 431.608C588.52 431.513 587.625 431.715 586.868 432.183C585.376 433.161 584.126 434.467 583.215 436C565.5 461.253 568.831 459.482 556.477 486.546C578.737 500.91 577.778 499.541 610.605 517.072C613.105 511.942 616.376 505.423 618.318 501.284C618.653 500.365 619.194 499.537 619.902 498.865C620.615 498.193 621.47 497.697 622.406 497.415C632.085 493.196 642.564 489.308 649.072 481.01C651.726 477.738 651.046 474.769 646.397 474.518Z" stroke="#120071" stroke-width="0.769171" stroke-linecap="round" stroke-linejoin="round"/>
<path d="M247.434 479.274C269.097 473.984 279.493 469.992 305.017 454.996C297.216 427.068 299.974 429.126 286.605 402.022C285.934 400.368 284.897 398.887 283.573 397.691C282.895 397.114 282.044 396.778 281.155 396.736C280.265 396.694 279.386 396.949 278.657 397.461C277.879 398.274 277.388 399.319 277.26 400.438C275.704 408.541 279.342 416.756 279.286 424.875C271.87 414.302 263.142 404.712 253.313 396.334C249.803 393.012 245.667 390.422 241.146 388.713C240.09 388.263 238.903 388.235 237.826 388.633C237.346 388.915 236.938 389.307 236.637 389.777C236.336 390.246 236.15 390.781 236.095 391.335C235.403 395.809 238.396 398.129 256.704 419.82C250.381 412.616 243.88 405.55 237.202 398.619C236.044 397.042 234.56 395.731 232.852 394.778C231.144 393.824 229.25 393.249 227.299 393.091C226.745 393.127 226.202 393.276 225.707 393.53C225.212 393.784 224.774 394.136 224.42 394.565C224.066 394.994 223.803 395.491 223.648 396.025C223.493 396.56 223.449 397.12 223.518 397.672C223.899 400.615 225.16 403.374 227.136 405.588C232.99 413.411 239.449 420.763 246.455 427.573C241.647 423.156 223.61 406.447 218.078 410.921C215.447 413.428 217.051 417.098 219.526 419.761C225.566 427.099 232.241 433.89 239.474 440.055C233.438 434.902 226.065 431.568 218.209 430.439C213.58 429.985 212.458 432.747 214.551 436.481C219.725 445.69 229.488 451.119 238.411 456.779C239.296 457.188 240.071 457.802 240.671 458.571C241.271 459.339 241.679 460.239 241.862 461.196C243.239 465.925 245.735 473.682 247.434 479.274Z" stroke="#120071" stroke-width="0.769171" stroke-linecap="round" stroke-linejoin="round"/>
<path d="M274.618 451.854C276.887 440.981 279.303 424.874 279.303 424.874" stroke="#120071" stroke-width="0.769171" stroke-linecap="round" stroke-linejoin="round"/>
<path d="M587.298 487.741C587 476.952 586.92 459.71 586.92 459.71" stroke="#120071" stroke-width="0.769171" stroke-linecap="round" stroke-linejoin="round"/>
<path d="M267.753 488.722C267.753 487.551 267.405 486.407 266.755 485.434C266.105 484.46 265.181 483.702 264.099 483.254C263.018 482.806 261.828 482.689 260.68 482.917C259.532 483.146 258.477 483.709 257.65 484.537C256.822 485.365 256.258 486.419 256.03 487.567C255.801 488.715 255.919 489.906 256.366 490.987C256.815 492.068 257.573 492.992 258.546 493.643C259.52 494.293 260.664 494.64 261.835 494.64C263.404 494.64 264.91 494.017 266.019 492.907C267.129 491.797 267.753 490.292 267.753 488.722Z" fill="#6153BD"/>
<path d="M303.99 506.224C303.991 505.053 303.645 503.908 302.995 502.935C302.345 501.961 301.421 501.202 300.34 500.753C299.258 500.305 298.068 500.187 296.92 500.414C295.772 500.642 294.717 501.206 293.889 502.034C293.061 502.861 292.496 503.915 292.268 505.063C292.039 506.212 292.156 507.402 292.604 508.483C293.052 509.565 293.81 510.49 294.784 511.14C295.757 511.79 296.901 512.138 298.072 512.138C298.849 512.138 299.619 511.986 300.337 511.689C301.055 511.392 301.707 510.956 302.257 510.407C302.806 509.858 303.242 509.205 303.54 508.488C303.837 507.77 303.99 507.001 303.99 506.224Z" fill="#6153BD"/>
<path d="M277.34 571.713C276.169 571.713 275.024 572.059 274.051 572.709C273.077 573.359 272.318 574.282 271.869 575.364C271.421 576.445 271.303 577.635 271.531 578.784C271.758 579.932 272.322 580.987 273.149 581.815C273.977 582.643 275.032 583.207 276.18 583.436C277.328 583.665 278.518 583.548 279.599 583.1C280.681 582.652 281.606 581.893 282.257 580.92C282.907 579.947 283.254 578.802 283.254 577.632C283.255 576.854 283.102 576.085 282.805 575.367C282.508 574.649 282.072 573.997 281.523 573.447C280.974 572.897 280.322 572.461 279.604 572.164C278.886 571.866 278.117 571.713 277.34 571.713Z" fill="#6153BD"/>
<path d="M332.825 518.859C331.655 518.859 330.512 519.205 329.54 519.855C328.567 520.505 327.809 521.429 327.361 522.509C326.914 523.59 326.797 524.78 327.025 525.927C327.253 527.074 327.816 528.128 328.643 528.955C329.47 529.782 330.524 530.345 331.671 530.573C332.819 530.802 334.008 530.685 335.089 530.237C336.169 529.789 337.093 529.031 337.743 528.059C338.393 527.086 338.739 525.943 338.739 524.773C338.74 523.996 338.587 523.227 338.29 522.509C337.994 521.791 337.558 521.139 337.009 520.59C336.459 520.04 335.807 519.605 335.089 519.308C334.371 519.011 333.602 518.858 332.825 518.859Z" fill="#6153BD"/>
<path d="M383.523 578.594C382.354 578.594 381.211 578.94 380.239 579.589C379.267 580.238 378.509 581.16 378.061 582.24C377.612 583.319 377.494 584.508 377.721 585.654C377.947 586.801 378.508 587.855 379.334 588.683C380.159 589.511 381.211 590.076 382.357 590.306C383.502 590.536 384.691 590.422 385.772 589.978C386.853 589.533 387.778 588.778 388.43 587.808C389.083 586.838 389.433 585.697 389.437 584.528C389.44 583.749 389.289 582.978 388.994 582.258C388.698 581.538 388.263 580.883 387.713 580.332C387.163 579.78 386.51 579.343 385.791 579.045C385.072 578.746 384.301 578.593 383.523 578.594Z" fill="#6153BD"/>
<path d="M359.304 500.312C358.134 500.312 356.991 500.659 356.018 501.309C355.046 501.958 354.287 502.882 353.84 503.963C353.392 505.043 353.275 506.233 353.503 507.38C353.731 508.527 354.295 509.581 355.122 510.408C355.949 511.235 357.003 511.798 358.15 512.027C359.297 512.255 360.487 512.138 361.567 511.69C362.648 511.242 363.572 510.484 364.222 509.512C364.871 508.539 365.218 507.396 365.218 506.226C365.218 504.657 364.595 503.153 363.486 502.044C362.377 500.935 360.872 500.312 359.304 500.312Z" fill="#6153BD"/>
<path d="M406.758 530.288C410.024 530.288 412.672 527.64 412.672 524.373C412.672 521.107 410.024 518.459 406.758 518.459C403.491 518.459 400.843 521.107 400.843 524.373C400.843 527.64 403.491 530.288 406.758 530.288Z" fill="#6153BD"/>
<path d="M423.083 578.988C426.35 578.988 428.997 576.34 428.997 573.074C428.997 569.807 426.35 567.159 423.083 567.159C419.817 567.159 417.169 569.807 417.169 573.074C417.169 576.34 419.817 578.988 423.083 578.988Z" fill="#6153BD"/>
<path d="M389.48 480.546C388.309 480.546 387.165 480.893 386.192 481.543C385.219 482.193 384.46 483.118 384.012 484.199C383.564 485.281 383.447 486.471 383.675 487.619C383.904 488.767 384.467 489.821 385.295 490.649C386.123 491.476 387.177 492.04 388.325 492.268C389.473 492.497 390.663 492.38 391.745 491.932C392.826 491.484 393.75 490.725 394.401 489.752C395.051 488.779 395.398 487.634 395.398 486.464C395.398 484.894 394.775 483.389 393.665 482.279C392.555 481.169 391.049 480.546 389.48 480.546Z" fill="#6153BD"/>
<path d="M444.139 450.613C445.308 450.613 446.452 450.266 447.425 449.616C448.398 448.967 449.156 448.044 449.605 446.963C450.053 445.882 450.171 444.693 449.944 443.546C449.717 442.398 449.155 441.344 448.329 440.515C447.503 439.687 446.45 439.122 445.303 438.892C444.156 438.662 442.966 438.777 441.885 439.222C440.803 439.668 439.878 440.424 439.225 441.395C438.573 442.366 438.223 443.509 438.22 444.678C438.218 445.457 438.369 446.228 438.666 446.948C438.963 447.668 439.398 448.323 439.948 448.874C440.498 449.425 441.151 449.862 441.87 450.161C442.589 450.459 443.36 450.613 444.139 450.613Z" fill="#6153BD"/>
<path d="M496.431 493.737C497.601 493.737 498.743 493.391 499.714 492.741C500.689 492.091 501.446 491.168 501.895 490.088C502.341 489.008 502.461 487.819 502.234 486.672C502.003 485.525 501.442 484.471 500.614 483.644C499.79 482.816 498.735 482.252 497.589 482.023C496.443 481.794 495.253 481.91 494.174 482.357C493.092 482.803 492.168 483.56 491.517 484.531C490.866 485.503 490.518 486.646 490.517 487.815C490.515 488.593 490.667 489.363 490.964 490.081C491.26 490.8 491.695 491.453 492.245 492.003C492.794 492.554 493.446 492.99 494.166 493.287C494.883 493.585 495.655 493.738 496.431 493.737Z" fill="#6153BD"/>
<path d="M510.349 577.63C509.179 577.63 508.037 577.977 507.061 578.627C506.09 579.277 505.334 580.201 504.884 581.281C504.439 582.362 504.319 583.551 504.55 584.698C504.777 585.846 505.338 586.899 506.166 587.727C506.994 588.554 508.048 589.117 509.195 589.345C510.341 589.573 511.531 589.456 512.614 589.009C513.692 588.561 514.615 587.803 515.268 586.83C515.917 585.858 516.263 584.714 516.263 583.545C516.263 581.976 515.638 580.472 514.532 579.362C513.421 578.254 511.917 577.63 510.349 577.63Z" fill="#6153BD"/>
<path d="M497.744 537.166C497.744 535.996 497.398 534.852 496.749 533.88C496.096 532.907 495.173 532.149 494.095 531.702C493.012 531.254 491.823 531.137 490.676 531.365C489.529 531.593 488.475 532.156 487.648 532.983C486.821 533.811 486.258 534.864 486.029 536.012C485.801 537.159 485.918 538.348 486.366 539.429C486.814 540.51 487.571 541.433 488.544 542.083C489.517 542.733 490.66 543.08 491.83 543.08C492.607 543.08 493.374 542.927 494.095 542.631C494.811 542.334 495.464 541.898 496.013 541.349C496.562 540.799 496.996 540.147 497.294 539.429C497.593 538.711 497.744 537.942 497.744 537.166Z" fill="#6153BD"/>
<path d="M532.263 548.658C531.093 548.657 529.947 549.004 528.972 549.654C528.001 550.304 527.241 551.228 526.791 552.31C526.345 553.391 526.226 554.581 526.453 555.73C526.683 556.878 527.245 557.933 528.072 558.761C528.904 559.589 529.959 560.152 531.105 560.381C532.255 560.609 533.445 560.492 534.524 560.043C535.607 559.594 536.53 558.836 537.183 557.862C537.831 556.888 538.178 555.743 538.178 554.572C538.178 553.796 538.026 553.026 537.728 552.309C537.429 551.591 536.996 550.939 536.446 550.39C535.897 549.841 535.244 549.405 534.528 549.108C533.808 548.811 533.039 548.658 532.263 548.658Z" fill="#6153BD"/>
<path d="M568.915 544.847C567.745 544.846 566.599 545.193 565.628 545.843C564.653 546.493 563.892 547.416 563.443 548.498C562.997 549.579 562.878 550.769 563.104 551.918C563.335 553.066 563.896 554.121 564.724 554.949C565.552 555.777 566.607 556.341 567.753 556.57C568.903 556.798 570.093 556.681 571.176 556.234C572.258 555.786 573.182 555.027 573.83 554.054C574.483 553.081 574.829 551.936 574.829 550.766C574.829 549.988 574.678 549.219 574.38 548.501C574.081 547.783 573.647 547.131 573.098 546.581C572.549 546.031 571.896 545.595 571.18 545.298C570.459 545 569.691 544.847 568.915 544.847Z" fill="#6153BD"/>
<path d="M603.191 536.844C602.02 536.844 600.874 537.19 599.903 537.84C598.928 538.49 598.168 539.414 597.718 540.495C597.272 541.577 597.153 542.767 597.38 543.915C597.611 545.063 598.172 546.118 599 546.946C599.827 547.774 600.882 548.338 602.032 548.567C603.179 548.795 604.369 548.679 605.451 548.231C606.534 547.783 607.457 547.024 608.106 546.051C608.759 545.078 609.105 543.934 609.105 542.763C609.105 541.986 608.954 541.216 608.655 540.498C608.361 539.78 607.923 539.128 607.374 538.578C606.824 538.028 606.172 537.593 605.455 537.295C604.739 536.998 603.967 536.844 603.191 536.844Z" fill="#6153BD"/>
<path d="M542.969 522.055C546.237 522.055 548.883 519.406 548.883 516.14C548.883 512.874 546.237 510.226 542.969 510.226C539.701 510.226 537.055 512.874 537.055 516.14C537.055 519.406 539.701 522.055 542.969 522.055Z" fill="#6153BD"/>
<path d="M589.002 517.847C592.269 517.847 594.916 515.199 594.916 511.933C594.916 508.666 592.269 506.019 589.002 506.019C585.734 506.019 583.087 508.666 583.087 511.933C583.087 515.199 585.734 517.847 589.002 517.847Z" fill="#6153BD"/>
<path d="M567.382 590.018C570.65 590.018 573.296 587.37 573.296 584.103C573.296 580.837 570.65 578.189 567.382 578.189C564.115 578.189 561.468 580.837 561.468 584.103C561.468 587.37 564.115 590.018 567.382 590.018Z" fill="#6153BD"/>
<path d="M425.46 471.456C425.461 470.285 425.114 469.14 424.464 468.166C423.814 467.192 422.89 466.433 421.809 465.985C420.727 465.536 419.536 465.419 418.388 465.647C417.24 465.875 416.185 466.439 415.357 467.267C414.529 468.095 413.965 469.15 413.737 470.298C413.509 471.446 413.627 472.637 414.075 473.719C414.523 474.8 415.283 475.724 416.256 476.374C417.23 477.024 418.375 477.371 419.546 477.37C421.115 477.37 422.619 476.747 423.728 475.638C424.837 474.528 425.46 473.024 425.46 471.456Z" fill="#6153BD"/>
<path d="M459.086 467.69C457.916 467.69 456.77 468.036 455.797 468.686C454.823 469.336 454.064 470.261 453.616 471.342C453.167 472.424 453.049 473.614 453.278 474.762C453.506 475.911 454.07 476.966 454.898 477.794C455.725 478.621 456.78 479.185 457.929 479.413C459.077 479.642 460.267 479.524 461.349 479.076C462.43 478.627 463.355 477.868 464.005 476.894C464.655 475.921 465.002 474.776 465.001 473.605C465 472.036 464.376 470.533 463.267 469.424C462.158 468.315 460.655 467.692 459.086 467.69Z" fill="#6153BD"/>
<path d="M453.944 543.482C452.774 543.482 451.631 543.829 450.658 544.479C449.686 545.128 448.928 546.052 448.48 547.133C448.032 548.214 447.915 549.403 448.144 550.55C448.372 551.697 448.935 552.751 449.762 553.578C450.589 554.405 451.643 554.969 452.79 555.197C453.938 555.425 455.127 555.308 456.207 554.86C457.288 554.413 458.212 553.655 458.862 552.682C459.512 551.709 459.858 550.566 459.858 549.396C459.859 548.619 459.706 547.85 459.409 547.132C459.112 546.414 458.677 545.762 458.127 545.213C457.578 544.664 456.926 544.228 456.208 543.931C455.49 543.634 454.721 543.482 453.944 543.482Z" fill="#6153BD"/>
<path d="M475.218 578.594C474.049 578.594 472.907 578.942 471.935 579.591C470.964 580.24 470.206 581.163 469.758 582.243C469.311 583.322 469.193 584.51 469.42 585.657C469.647 586.803 470.209 587.857 471.034 588.684C471.859 589.512 472.911 590.076 474.057 590.306C475.203 590.536 476.392 590.422 477.472 589.977C478.553 589.533 479.478 588.778 480.13 587.808C480.782 586.838 481.132 585.696 481.136 584.528C481.139 583.749 480.988 582.978 480.691 582.257C480.395 581.537 479.96 580.883 479.41 580.331C478.859 579.78 478.206 579.343 477.487 579.045C476.768 578.746 475.997 578.593 475.218 578.594Z" fill="#6153BD"/>
<path d="M440.249 501.037C439.079 501.038 437.936 501.386 436.965 502.036C435.992 502.687 435.235 503.61 434.788 504.691C434.341 505.772 434.224 506.961 434.453 508.108C434.682 509.255 435.245 510.308 436.073 511.135C436.9 511.962 437.954 512.525 439.101 512.753C440.248 512.98 441.437 512.863 442.517 512.415C443.598 511.968 444.521 511.21 445.171 510.237C445.821 509.265 446.167 508.121 446.167 506.952C446.167 506.175 446.014 505.405 445.717 504.687C445.419 503.97 444.983 503.317 444.434 502.768C443.884 502.219 443.232 501.783 442.514 501.487C441.796 501.19 441.026 501.037 440.249 501.037Z" fill="#6153BD"/>
<path d="M348.085 568.024C351.351 568.024 353.999 565.376 353.999 562.11C353.999 558.844 351.351 556.196 348.085 556.196C344.818 556.196 342.17 558.844 342.17 562.11C342.17 565.376 344.818 568.024 348.085 568.024Z" fill="#6153BD"/>
<path d="M359.303 458.56C358.133 458.559 356.988 458.905 356.014 459.555C355.041 460.205 354.282 461.129 353.833 462.211C353.384 463.292 353.267 464.482 353.495 465.63C353.722 466.778 354.286 467.833 355.113 468.661C355.941 469.49 356.995 470.054 358.144 470.282C359.292 470.511 360.482 470.394 361.563 469.946C362.645 469.498 363.57 468.74 364.22 467.766C364.871 466.793 365.218 465.648 365.218 464.478C365.219 463.701 365.066 462.931 364.769 462.213C364.472 461.495 364.036 460.843 363.487 460.293C362.938 459.744 362.286 459.308 361.568 459.01C360.85 458.713 360.081 458.56 359.303 458.56Z" fill="#6153BD"/>
<path d="M383.152 554.547C384.323 554.547 385.467 554.2 386.44 553.55C387.414 552.9 388.172 551.975 388.62 550.894C389.068 549.812 389.185 548.622 388.957 547.474C388.728 546.326 388.165 545.272 387.337 544.444C386.509 543.616 385.455 543.053 384.307 542.824C383.159 542.596 381.969 542.713 380.887 543.161C379.806 543.609 378.882 544.368 378.231 545.341C377.581 546.314 377.234 547.459 377.234 548.629C377.234 550.198 377.858 551.704 378.967 552.814C380.077 553.924 381.582 554.547 383.152 554.547Z" fill="#6153BD"/>
<path d="M301 538.915C299.831 538.915 298.687 539.262 297.715 539.912C296.742 540.562 295.984 541.486 295.537 542.567C295.089 543.647 294.972 544.836 295.2 545.983C295.428 547.131 295.992 548.185 296.819 549.012C297.646 549.839 298.7 550.402 299.847 550.63C300.994 550.858 302.183 550.741 303.264 550.294C304.344 549.846 305.268 549.088 305.918 548.115C306.568 547.143 306.915 545.999 306.915 544.83C306.915 544.053 306.762 543.284 306.465 542.567C306.168 541.849 305.732 541.197 305.183 540.648C304.633 540.099 303.981 539.663 303.264 539.366C302.546 539.069 301.777 538.915 301 538.915Z" fill="#6153BD"/>
<path d="M319.97 578.594C318.801 578.594 317.659 578.94 316.686 579.589C315.714 580.238 314.956 581.16 314.508 582.24C314.059 583.319 313.941 584.508 314.168 585.654C314.395 586.801 314.956 587.855 315.781 588.683C316.606 589.511 317.658 590.076 318.804 590.306C319.95 590.536 321.138 590.422 322.22 589.978C323.301 589.533 324.226 588.778 324.878 587.808C325.53 586.838 325.88 585.697 325.884 584.528C325.887 583.749 325.737 582.978 325.441 582.258C325.145 581.538 324.71 580.883 324.16 580.332C323.611 579.78 322.957 579.343 322.238 579.045C321.52 578.746 320.749 578.593 319.97 578.594Z" fill="#6153BD"/>
<path d="M303.927 463.139C302.756 463.138 301.612 463.484 300.638 464.134C299.664 464.784 298.905 465.708 298.457 466.79C298.008 467.871 297.89 469.061 298.118 470.209C298.346 471.358 298.909 472.413 299.737 473.241C300.564 474.069 301.619 474.633 302.767 474.862C303.915 475.09 305.105 474.973 306.187 474.525C307.269 474.078 308.193 473.319 308.844 472.345C309.494 471.372 309.841 470.228 309.841 469.057C309.842 468.28 309.689 467.511 309.392 466.793C309.095 466.075 308.66 465.422 308.11 464.873C307.561 464.323 306.909 463.887 306.191 463.589C305.473 463.292 304.704 463.139 303.927 463.139Z" fill="#6153BD"/>
<path d="M265.399 525.782C264.228 525.781 263.084 526.127 262.11 526.777C261.136 527.428 260.377 528.352 259.928 529.433C259.48 530.515 259.362 531.705 259.591 532.854C259.819 534.002 260.382 535.057 261.211 535.885C262.038 536.713 263.093 537.276 264.242 537.505C265.39 537.733 266.58 537.615 267.662 537.167C268.744 536.718 269.668 535.96 270.318 534.986C270.968 534.012 271.314 532.867 271.313 531.696C271.313 530.127 270.691 528.623 269.581 527.514C268.472 526.405 266.968 525.782 265.399 525.782Z" fill="#6153BD"/>
<path d="M403.589 413.344C416.823 417.324 415.338 395.136 415.338 395.136C414.068 380.561 407.669 361.851 391.812 367.228C387.467 368.64 383.802 371.616 381.529 375.579C379.256 379.543 378.538 384.209 379.514 388.672C378.472 388.756 377.468 389.103 376.596 389.681C375.724 390.259 375.014 391.049 374.532 391.977C374.049 392.905 373.811 393.94 373.839 394.986C373.866 396.031 374.159 397.053 374.69 397.954C377.643 405.615 382.101 405.381 383.621 403.335C383.777 403.124 384.019 403.06 384.139 403.474C385.56 408.25 393.07 436.409 374.69 445.328C374.69 445.328 388.258 463.138 403.076 457.932C417.893 452.727 415.143 440.261 415.143 440.261C415.143 440.261 402.749 435.493 403.589 413.344Z" fill="#FECFC4"/>
<path d="M403.589 413.344C416.823 417.324 415.338 395.136 415.338 395.136C414.068 380.561 407.669 361.851 391.812 367.228C387.467 368.64 383.802 371.616 381.529 375.579C379.256 379.543 378.538 384.209 379.514 388.672C378.472 388.756 377.468 389.103 376.596 389.681C375.724 390.259 375.014 391.049 374.532 391.977C374.049 392.905 373.811 393.94 373.839 394.986C373.866 396.031 374.159 397.053 374.69 397.954C377.643 405.615 382.101 405.381 383.621 403.335C383.777 403.124 384.019 403.06 384.139 403.474C385.56 408.25 393.07 436.409 374.69 445.328C374.69 445.328 388.258 463.138 403.076 457.932C417.893 452.727 415.143 440.261 415.143 440.261C415.143 440.261 402.749 435.493 403.589 413.344Z" stroke="#120071" stroke-width="0.769171" stroke-linecap="round" stroke-linejoin="round"/>
<path d="M434.892 353.784C437.371 350.819 438.714 347.069 438.682 343.204C438.65 339.34 437.245 335.613 434.717 332.69H344.041C343.22 333.015 342.423 333.394 341.653 333.824C340.322 334.641 339.164 335.713 338.247 336.977C337.331 338.241 336.672 339.674 336.308 341.193C335.945 342.712 335.884 344.287 336.13 345.83C336.376 347.372 336.923 348.851 337.74 350.182C334.657 350.729 331.798 352.152 329.504 354.283C327.21 356.413 325.578 359.16 324.805 362.193C324.18 365.256 324.667 368.442 326.18 371.178C327.693 373.914 330.132 376.02 333.06 377.118C330.536 378.926 328.638 381.475 327.631 384.411C326.623 387.347 326.554 390.525 327.436 393.501C328.317 396.478 330.103 399.106 332.547 401.02C334.991 402.934 337.97 404.04 341.072 404.182C340.122 406.862 340.061 409.776 340.896 412.492C341.732 415.209 343.42 417.585 345.711 419.267C348.001 420.95 350.774 421.85 353.616 421.835C356.458 421.82 359.22 420.89 361.493 419.183C363.168 424.636 369.684 426.765 375.339 427.481C379.158 428.343 383.159 427.823 386.631 426.013C387.155 418.413 386.309 410.782 384.131 403.482C384.012 403.084 383.769 403.136 383.614 403.343C382.093 405.388 377.644 405.623 374.683 397.962C374.152 397.061 373.858 396.039 373.83 394.994C373.803 393.948 374.041 392.913 374.523 391.985C375.006 391.057 375.716 390.267 376.588 389.689C377.459 389.111 378.464 388.764 379.506 388.68C378.526 384.214 379.243 379.543 381.518 375.576C383.793 371.609 387.462 368.63 391.813 367.22C407.669 361.843 414.069 380.553 415.338 395.128C415.414 396.524 415.414 397.923 415.338 399.319C420.272 399.245 424.985 397.266 428.492 393.795C430.182 391.982 431.169 389.626 431.277 387.15C431.384 384.675 430.604 382.242 429.077 380.291C432.171 380.157 435.133 379.004 437.503 377.011C439.873 375.019 441.518 372.299 442.182 369.274C442.845 366.249 442.49 363.091 441.172 360.289C439.853 357.487 437.645 355.2 434.892 353.784Z" fill="#6153BD"/>
<path d="M434.892 353.784C437.371 350.819 438.714 347.069 438.682 343.204C438.65 339.34 437.245 335.613 434.717 332.69H344.041C343.22 333.015 342.423 333.394 341.653 333.824C340.322 334.641 339.164 335.713 338.247 336.977C337.331 338.241 336.672 339.674 336.308 341.193C335.945 342.712 335.884 344.287 336.13 345.83C336.376 347.372 336.923 348.851 337.74 350.182C334.657 350.729 331.798 352.152 329.504 354.283C327.21 356.413 325.578 359.16 324.805 362.193C324.18 365.256 324.667 368.442 326.18 371.178C327.693 373.914 330.132 376.02 333.06 377.118C330.536 378.926 328.638 381.475 327.631 384.411C326.623 387.347 326.554 390.525 327.436 393.501C328.317 396.478 330.103 399.106 332.547 401.02C334.991 402.934 337.97 404.04 341.072 404.182C340.122 406.862 340.061 409.776 340.896 412.492C341.732 415.209 343.42 417.585 345.711 419.267C348.001 420.95 350.774 421.85 353.616 421.835C356.458 421.82 359.22 420.89 361.493 419.183C363.168 424.636 369.684 426.765 375.339 427.481C379.158 428.343 383.159 427.823 386.631 426.013C387.155 418.413 386.309 410.782 384.131 403.482C384.012 403.084 383.769 403.136 383.614 403.343C382.093 405.388 377.644 405.623 374.683 397.962C374.152 397.061 373.858 396.039 373.83 394.994C373.803 393.948 374.041 392.913 374.523 391.985C375.006 391.057 375.716 390.267 376.588 389.689C377.459 389.111 378.464 388.764 379.506 388.68C378.526 384.214 379.243 379.543 381.518 375.576C383.793 371.609 387.462 368.63 391.813 367.22C407.669 361.843 414.069 380.553 415.338 395.128C415.414 396.524 415.414 397.923 415.338 399.319C420.272 399.245 424.985 397.266 428.492 393.795C430.182 391.982 431.169 389.626 431.277 387.15C431.384 384.675 430.604 382.242 429.077 380.291C432.171 380.157 435.133 379.004 437.503 377.011C439.873 375.019 441.518 372.299 442.182 369.274C442.845 366.249 442.49 363.091 441.172 360.289C439.853 357.487 437.645 355.2 434.892 353.784Z" stroke="#120071" stroke-width="0.769171" stroke-linecap="round" stroke-linejoin="round"/>
<path d="M716.629 931.474V972.794C716.629 974.661 716.262 976.515 715.546 978.243C714.83 979.97 713.783 981.538 712.461 982.86C711.14 984.181 709.572 985.232 707.845 985.944C706.117 986.66 704.267 987.031 702.396 987.031H495.786C492.011 987.031 488.389 985.53 485.72 982.86C483.05 980.189 481.55 976.567 481.55 972.794V913.675" stroke="#120071" stroke-width="0.769171" stroke-linecap="round" stroke-linejoin="round"/>
<path d="M481.539 802.932V629.404C481.539 627.534 481.908 625.683 482.625 623.956C483.341 622.224 484.391 620.656 485.714 619.335C487.037 618.013 488.608 616.967 490.336 616.25C492.064 615.538 493.916 615.168 495.787 615.172H702.408C706.185 615.172 709.803 616.672 712.474 619.339C715.14 622.009 716.641 625.627 716.641 629.404V838.685" stroke="#120071" stroke-width="0.769171" stroke-linecap="round" stroke-linejoin="round"/>
<path d="M716.629 651.419H481.539" stroke="#120071" stroke-width="0.769171" stroke-linecap="round" stroke-linejoin="round"/>
<path d="M481.539 941.75H716.629" stroke="#120071" stroke-width="0.769171" stroke-linecap="round" stroke-linejoin="round"/>
<path d="M221.748 266.502V296.659" stroke="#120071" stroke-width="0.769171" stroke-linecap="round" stroke-linejoin="round"/>
<path d="M210.735 281.583H232.765" stroke="#120071" stroke-width="0.769171" stroke-linecap="round" stroke-linejoin="round"/>
<path d="M753.639 551.503V581.584" stroke="#120071" stroke-width="0.769171" stroke-linecap="round" stroke-linejoin="round"/>
<path d="M742.614 566.543H764.663" stroke="#120071" stroke-width="0.769171" stroke-linecap="round" stroke-linejoin="round"/>
<path d="M408.151 840.256V870.707" stroke="#120071" stroke-width="0.769171" stroke-linecap="round" stroke-linejoin="round"/>
<path d="M396.948 855.483H419.355" stroke="#120071" stroke-width="0.769171" stroke-linecap="round" stroke-linejoin="round"/>
<path d="M308.264 550.567C345.648 550.567 381.514 565.358 408.031 591.711C434.547 618.064 449.56 653.836 449.793 691.22L510.819 728.278L444.193 731.593C436.859 756.842 422.638 779.552 403.122 797.176C383.605 814.795 359.567 826.632 333.701 831.36C307.835 836.084 281.163 833.513 256.677 823.929C232.191 814.35 210.858 798.135 195.07 777.109C179.281 756.082 169.662 731.072 167.289 704.888C164.917 678.699 169.886 652.368 181.639 628.846C193.392 605.326 211.464 585.542 233.829 571.716C256.195 557.889 281.97 550.566 308.264 550.567Z" fill="#FECFC4"/>
<path d="M308.264 550.567C345.648 550.567 381.514 565.358 408.031 591.711C434.547 618.064 449.56 653.836 449.793 691.22L510.819 728.278L444.193 731.593C436.859 756.842 422.638 779.552 403.122 797.176C383.605 814.795 359.567 826.632 333.701 831.36C307.835 836.084 281.163 833.513 256.677 823.929C232.191 814.35 210.858 798.135 195.07 777.109C179.281 756.082 169.662 731.072 167.289 704.888C164.917 678.699 169.886 652.368 181.639 628.846C193.392 605.326 211.464 585.542 233.829 571.716C256.195 557.889 281.97 550.566 308.264 550.567Z" stroke="#120071" stroke-width="0.769171" stroke-linecap="round" stroke-linejoin="round"/>
<path d="M246.125 654.209H374.213" stroke="#120071" stroke-width="0.769171" stroke-linecap="round" stroke-linejoin="round"/>
<path d="M246.125 683.414H374.213" stroke="#120071" stroke-width="0.769171" stroke-linecap="round" stroke-linejoin="round"/>
<path d="M246.125 712.619H374.213" stroke="#120071" stroke-width="0.769171" stroke-linecap="round" stroke-linejoin="round"/>
<path d="M246.125 741.819H374.213" stroke="#120071" stroke-width="0.769171" stroke-linecap="round" stroke-linejoin="round"/>
<path d="M778.96 837.816C778.562 835.186 775.994 833.944 772.357 837.044C770.458 838.664 766.387 843.412 764.731 845.279C769.471 839.106 773.36 832.32 776.293 825.104C777.785 820.874 775.935 817.606 771.915 820.269C765.706 824.973 760.17 830.505 755.458 836.71C763.147 821.463 769.029 816.902 769.041 809.172C769.041 805.236 767.585 805.216 764.87 806.191C757.078 808.997 753.257 818.024 745.663 832.061C756.883 808.03 758.092 806.625 757.205 802.964C756.942 801.276 755.366 800.484 753.018 802.295C743.41 811.202 736.059 822.271 731.574 834.581C731.351 828.034 730.539 821.518 729.154 815.114C728.111 810.414 724.836 811.282 722.965 814.908C718.296 824.173 718.651 835.321 714.607 844.734L752.21 880.745C760.333 871.36 767.581 861.251 773.865 850.544C775.608 847.559 779.632 841.203 778.96 837.816Z" stroke="#120071" stroke-width="0.769171" stroke-linecap="round" stroke-linejoin="round"/>
<path d="M495.591 816.743C493.434 807.055 495.742 796.536 492.972 786.921C492.451 785.122 491.074 782.972 489.255 783.458C488.129 783.753 487.528 784.943 487.066 786.013C484.606 791.848 482.67 797.886 481.279 804.063C479.289 792.791 473.689 777.448 466.676 769.548C464.754 767.383 463.154 767.88 462.569 769.429C461.061 772.808 462.084 774.746 468.312 799.139C464.085 785.862 461.869 775.717 455.142 771.403C451.473 769.046 450.565 770.404 450.116 773.942C449.208 781.074 453.698 786.18 458.195 801.802C454.834 795.064 450.569 788.819 445.519 783.235C443.226 780.449 439.676 781.695 440.476 787.036C441.968 794.407 444.444 801.547 447.839 808.257C446.609 806.188 443.584 800.954 442.068 799.072C440.81 797.507 438.737 795.888 437.002 796.894C433.392 799.282 436.536 806.98 438.223 811.621C441.438 820.579 445.295 829.296 449.765 837.701C453.16 836.026 492.411 816.679 495.591 816.743Z" stroke="#120071" stroke-width="0.769171" stroke-linecap="round" stroke-linejoin="round"/>
<path d="M753.492 881.972L713.182 843.366C711.276 841.539 711.59 841.695 710.201 843.048C697.147 855.633 684.793 868.918 673.187 882.848C670.31 870.88 665.593 859.433 659.198 848.914C647.58 828.867 634.92 814.424 613.177 809.154C595.028 815.92 590.698 806.766 590.698 806.766C555.276 806.476 538.671 811.244 521.8 846.566C514.612 836.819 506.939 827.446 498.804 818.475C498.521 818.041 498.151 817.667 497.725 817.373C497.295 817.082 496.814 816.875 496.304 816.772C495.795 816.664 495.269 816.66 494.76 816.76C494.25 816.855 493.765 817.05 493.331 817.337C478.124 823.403 448.27 838.403 448.27 838.403C452.978 853.718 458.705 868.707 464.81 883.516C471.278 899.214 478.713 915.754 494.402 923.75C503.126 928.208 513.243 929.079 522.596 926.178C531.953 923.277 539.806 916.837 544.478 908.228C544.733 917.335 545.875 936.192 546.213 941.7H695.312C722.488 933.629 741.253 910.779 753.607 884.969C754.248 883.719 754.738 883.162 753.492 881.972Z" fill="#FECFC4"/>
<path d="M753.492 881.972L713.182 843.366C711.276 841.539 711.59 841.695 710.201 843.048C697.147 855.633 684.793 868.918 673.187 882.848C670.31 870.88 665.593 859.433 659.198 848.914C647.58 828.867 634.92 814.424 613.177 809.154C595.028 815.92 590.698 806.766 590.698 806.766C555.276 806.476 538.671 811.244 521.8 846.566C514.612 836.819 506.939 827.446 498.804 818.475C498.521 818.041 498.151 817.667 497.725 817.373C497.295 817.082 496.814 816.875 496.304 816.772C495.795 816.664 495.269 816.66 494.76 816.76C494.25 816.855 493.765 817.05 493.331 817.337C478.124 823.403 448.27 838.403 448.27 838.403C452.978 853.718 458.705 868.707 464.81 883.516C471.278 899.214 478.713 915.754 494.402 923.75C503.126 928.208 513.243 929.079 522.596 926.178C531.953 923.277 539.806 916.837 544.478 908.228C544.733 917.335 545.875 936.192 546.213 941.7H695.312C722.488 933.629 741.253 910.779 753.607 884.969C754.248 883.719 754.738 883.162 753.492 881.972Z" stroke="#120071" stroke-width="0.769171" stroke-linecap="round" stroke-linejoin="round"/>
<path d="M600.437 746.248C600.437 746.248 576.306 764.866 582.061 776.444C582.061 776.444 584.552 782.47 596.258 781.316C595.868 790.06 593.993 798.672 590.717 806.788C590.717 806.788 595.048 815.942 613.196 809.176C613.196 809.176 602.92 791.234 606.216 777.065C606.227 777.017 606.247 776.973 606.275 776.934C606.303 776.894 606.339 776.862 606.379 776.834C606.419 776.81 606.466 776.794 606.514 776.786C606.562 776.778 606.61 776.778 606.657 776.79C607.334 777.379 608.134 777.809 609.002 778.044C609.865 778.279 610.773 778.315 611.656 778.148C612.536 777.98 613.372 777.614 614.088 777.081C614.808 776.544 615.397 775.851 615.811 775.055C619.322 769.881 613.789 767.78 611.939 767.322C611.807 767.29 611.692 767.206 611.624 767.087C611.553 766.972 611.533 766.832 611.565 766.701C613.889 761.678 616.806 756.954 620.257 752.628C613.447 751.191 606.805 749.054 600.437 746.248Z" stroke="#120071" stroke-width="0.769171" stroke-linecap="round" stroke-linejoin="round"/>
<path d="M545.242 867.329C543.084 879.878 544.497 908.275 544.497 908.275" stroke="#120071" stroke-width="0.769171" stroke-linecap="round" stroke-linejoin="round"/>
<path d="M648.192 868.815C653.442 892.803 656.558 917.208 657.502 941.749" stroke="#120071" stroke-width="0.769171" stroke-linecap="round" stroke-linejoin="round"/>
<path d="M600.436 746.246C606.8 749.048 613.443 751.182 620.249 752.615C616.802 756.945 613.885 761.669 611.556 766.688C611.525 766.819 611.544 766.958 611.616 767.074C611.684 767.193 611.799 767.277 611.931 767.309C613.268 767.647 616.535 768.829 616.91 771.424C624.734 768.383 636.431 755.85 632.83 747.393C632.654 746.919 632.332 746.513 631.906 746.239C631.484 745.964 630.983 745.837 630.477 745.872C628.674 745.876 626.927 746.485 625.518 747.608C625.088 741.359 622.887 735.365 619.17 730.323C615.588 726.068 610.633 730.323 612.758 736.408C610.553 732.75 607.684 729.538 604.297 726.94C602.036 724.95 599.807 725.901 600.182 727.966C600.508 730.999 601.475 733.932 603.019 736.563C601.272 734.812 599.31 733.284 597.185 732.018C594.462 730.135 592.433 731.704 593.205 733.897C594.343 738.637 596.858 742.935 600.436 746.246Z" fill="#6153BD"/>
<path d="M600.436 746.246C606.8 749.048 613.443 751.182 620.249 752.615C616.802 756.945 613.885 761.669 611.556 766.688C611.525 766.819 611.544 766.958 611.616 767.074C611.684 767.193 611.799 767.277 611.931 767.309C613.268 767.647 616.535 768.829 616.91 771.424C624.734 768.383 636.431 755.85 632.83 747.393C632.654 746.919 632.332 746.513 631.906 746.239C631.484 745.964 630.983 745.837 630.477 745.872C628.674 745.876 626.927 746.485 625.518 747.608C625.088 741.359 622.887 735.365 619.17 730.323C615.588 726.068 610.633 730.323 612.758 736.408C610.553 732.75 607.684 729.538 604.297 726.94C602.036 724.95 599.807 725.901 600.182 727.966C600.508 730.999 601.475 733.932 603.019 736.563C601.272 734.812 599.31 733.284 597.185 732.018C594.462 730.135 592.433 731.704 593.205 733.897C594.343 738.637 596.858 742.935 600.436 746.246Z" stroke="#120071" stroke-width="0.769171" stroke-linecap="round" stroke-linejoin="round"/>
<path d="M677.787 233.069C640.403 233.068 604.535 247.859 578.017 274.212C551.498 300.566 536.481 336.341 536.251 373.726L475.217 410.771L541.842 414.087C549.174 439.338 563.394 462.048 582.908 479.67C602.426 497.293 626.461 509.132 652.327 513.859C678.193 518.587 704.863 516.017 729.352 506.436C753.837 496.856 775.17 480.644 790.963 459.619C806.751 438.594 816.371 413.586 818.747 387.399C821.123 361.213 816.156 334.882 804.403 311.36C792.654 287.838 774.585 268.053 752.221 254.225C729.854 240.396 704.083 233.071 677.787 233.069Z" fill="#FECFC4"/>
<path d="M677.787 233.069C640.403 233.068 604.535 247.859 578.017 274.212C551.498 300.566 536.481 336.341 536.251 373.726L475.217 410.771L541.842 414.087C549.174 439.338 563.394 462.048 582.908 479.67C602.426 497.293 626.461 509.132 652.327 513.859C678.193 518.587 704.863 516.017 729.352 506.436C753.837 496.856 775.17 480.644 790.963 459.619C806.751 438.594 816.371 413.586 818.747 387.399C821.123 361.213 816.156 334.882 804.403 311.36C792.654 287.838 774.585 268.053 752.221 254.225C729.854 240.396 704.083 233.071 677.787 233.069Z" stroke="#120071" stroke-width="0.769171" stroke-linecap="round" stroke-linejoin="round"/>
<path d="M611.887 336.811H739.776" stroke="#120071" stroke-width="0.769171" stroke-linecap="round" stroke-linejoin="round"/>
<path d="M611.887 366.008H739.776" stroke="#120071" stroke-width="0.769171" stroke-linecap="round" stroke-linejoin="round"/>
<path d="M611.887 395.203H739.776" stroke="#120071" stroke-width="0.769171" stroke-linecap="round" stroke-linejoin="round"/>
<path d="M611.887 424.396H739.776" stroke="#120071" stroke-width="0.769171" stroke-linecap="round" stroke-linejoin="round"/>
</svg>
