<svg width="1825" height="1825" viewBox="0 0 1825 1825" fill="none" xmlns="http://www.w3.org/2000/svg">
<rect width="1825" height="1825" rx="64" fill="#F4F4F3"/>
<g clip-path="url(#clip0_3290_2718)">
<path d="M1698.87 1261.09L1698.23 1230.03L1698.87 1230.67C1686.54 1230.84 1661.78 1231.1 1649.46 1231.2L1600.04 1231.38L1601.41 1230.03L1601.29 1261.09L1600.04 1259.85L1624.54 1259.97C1640.2 1260.14 1682.66 1260.83 1698.87 1261.09ZM1698.87 1261.09C1682.4 1261.37 1640.88 1262.05 1624.97 1262.22L1600.04 1262.34L1598.81 1262.34L1598.8 1261.09L1598.68 1230.03L1598.68 1228.66L1600.04 1228.67L1649.46 1228.85C1661.76 1228.96 1686.56 1229.21 1698.87 1229.38L1699.52 1229.39L1699.51 1230.03L1698.87 1261.09Z" fill="#E5E5E4"/>
<path d="M1643.74 1300.27L1643.1 1269.2L1643.74 1269.84C1631.41 1270.01 1606.65 1270.27 1594.33 1270.38L1544.92 1270.56L1546.28 1269.2L1546.16 1300.27L1544.92 1299.03L1569.41 1299.15C1585.07 1299.32 1627.54 1300.01 1643.74 1300.27ZM1643.74 1300.27C1627.28 1300.55 1585.75 1301.23 1569.84 1301.4L1544.92 1301.52L1543.68 1301.52L1543.67 1300.27L1543.56 1269.2L1543.55 1267.84L1544.92 1267.84L1594.33 1268.03C1606.63 1268.13 1631.44 1268.39 1643.74 1268.56L1644.4 1268.57L1644.38 1269.2L1643.74 1300.27Z" fill="#E5E5E4"/>
<path d="M223.408 1261.09L222.765 1230.03L223.405 1230.67C211.077 1230.84 186.316 1231.1 173.993 1231.2L124.584 1231.38L125.944 1230.03L125.827 1261.09L124.584 1259.85L149.074 1259.97C164.739 1260.14 207.203 1260.83 223.408 1261.09ZM223.408 1261.09C206.942 1261.37 165.417 1262.05 149.504 1262.22L124.584 1262.34L123.345 1262.34L123.339 1261.09L123.222 1230.03L123.217 1228.66L124.584 1228.67L173.996 1228.85C186.297 1228.96 211.105 1229.21 223.405 1229.38L224.062 1229.39L224.048 1230.03L223.408 1261.09Z" fill="#E5E5E4"/>
<path d="M168.281 1269.2H69.457V1300.27H168.281V1269.2Z" fill="#E5E5E4"/>
<path d="M1753.99 1269.2H1655.17V1300.27H1753.99V1269.2Z" fill="#E5E5E4"/>
<path d="M873.13 650.096L872.49 619.028L873.13 619.668C860.802 619.84 836.04 620.096 823.718 620.202L774.306 620.387L775.666 619.028L775.549 650.096L774.306 648.854L798.798 648.969C814.461 649.146 856.925 649.829 873.13 650.096ZM873.13 650.096C856.664 650.372 815.139 651.053 799.226 651.224L774.306 651.339L773.069 651.344L773.064 650.096L772.947 619.028L772.941 617.66L774.306 617.666L823.718 617.851C836.021 617.96 860.827 618.216 873.13 618.385L873.784 618.393L873.77 619.028L873.13 650.096Z" fill="#E5E5E4"/>
<path d="M818.002 658.204H719.179V689.273H818.002V658.204Z" fill="#E5E5E4"/>
<path d="M928.257 689.272L927.614 658.204L928.257 658.844C915.929 659.016 891.167 659.274 878.845 659.378L829.433 659.563L830.793 658.204L830.676 689.272L829.433 688.03L853.923 688.145C869.588 688.322 912.052 689.008 928.257 689.272ZM928.257 689.272C911.791 689.548 870.266 690.229 854.353 690.4L829.433 690.515L828.194 690.523L828.191 689.272L828.071 658.204L828.068 656.839L829.433 656.844L878.845 657.03C891.145 657.136 915.954 657.392 928.257 657.564L928.911 657.572L928.897 658.204L928.257 689.272Z" fill="#E5E5E4"/>
<path d="M1256.85 1088.94H1158.03V1120.01H1256.85V1088.94Z" fill="#E5E5E4"/>
<path d="M1697.23 390.666L1696.59 359.597L1697.23 360.237C1684.9 360.409 1660.14 360.665 1647.82 360.771L1598.41 360.957L1599.77 359.597L1599.65 390.666L1598.41 389.423L1622.9 389.538C1638.56 389.715 1681.03 390.399 1697.23 390.666ZM1697.23 390.666C1680.76 390.938 1639.24 391.622 1623.33 391.794L1598.41 391.908L1597.17 391.913L1597.16 390.666L1597.04 359.597L1597.04 358.229L1598.41 358.235L1647.82 358.42C1660.12 358.529 1684.93 358.785 1697.23 358.954L1697.88 358.962L1697.87 359.597L1697.23 390.666Z" fill="#E5E5E4"/>
<path d="M1752.35 398.773H1653.53V429.842H1752.35V398.773Z" fill="#E5E5E4"/>
<path d="M166.31 390.699L165.667 359.631L166.31 360.271C153.98 360.442 129.221 360.701 116.899 360.805L67.4868 360.99L68.8462 359.631L68.7291 390.699L67.4868 389.457L91.9761 389.571C107.641 389.748 150.106 390.435 166.31 390.699ZM166.31 390.699C149.844 390.974 108.319 391.655 92.4065 391.827L67.4868 391.941L66.2472 391.947L66.2445 390.699L66.1246 359.631L66.1191 358.266L67.4868 358.271L116.899 358.456C129.199 358.563 154.007 358.819 166.31 358.99L166.964 358.998L166.95 359.631L166.31 390.699Z" fill="#E5E5E4"/>
<path d="M502.45 405.021H273.707V554.378H502.45V405.021Z" fill="#D3D5D4"/>
<path d="M502.45 563.126H273.707V712.481H502.45V563.126Z" fill="#E5E5E4"/>
<path d="M318.578 591.838H296.339V614.077H318.578V591.838Z" fill="white"/>
<path d="M345.454 591.838H323.212V614.077H345.454V591.838Z" fill="#BEC0C1"/>
<path d="M372.327 591.838H350.088V614.077H372.327V591.838Z" fill="white"/>
<path d="M399.2 591.838H376.961V614.077H399.2V591.838Z" fill="white"/>
<path d="M426.073 591.838H403.834V614.077H426.073V591.838Z" fill="white"/>
<path d="M452.946 591.838H430.707V614.077H452.946V591.838Z" fill="white"/>
<path d="M479.819 591.838H457.58V614.077H479.819V591.838Z" fill="white"/>
<path d="M318.578 618.899H296.339V641.138H318.578V618.899Z" fill="white"/>
<path d="M345.454 618.899H323.212V641.138H345.454V618.899Z" fill="white"/>
<path d="M372.327 618.899H350.088V641.138H372.327V618.899Z" fill="white"/>
<path d="M399.2 618.899H376.961V641.138H399.2V618.899Z" fill="white"/>
<path d="M426.073 618.899H403.834V641.138H426.073V618.899Z" fill="#BEC0C1"/>
<path d="M452.946 618.899H430.707V641.138H452.946V618.899Z" fill="white"/>
<path d="M479.819 618.899H457.58V641.138H479.819V618.899Z" fill="white"/>
<path d="M318.578 645.961H296.339V668.2H318.578V645.961Z" fill="white"/>
<path d="M345.454 645.961H323.212V668.2H345.454V645.961Z" fill="white"/>
<path d="M372.327 645.961H350.088V668.2H372.327V645.961Z" fill="white"/>
<path d="M399.2 645.961H376.961V668.2H399.2V645.961Z" fill="white"/>
<path d="M426.073 645.961H403.834V668.2H426.073V645.961Z" fill="white"/>
<path d="M452.946 645.961H430.707V668.2H452.946V645.961Z" fill="white"/>
<path d="M479.819 645.961H457.58V668.2H479.819V645.961Z" fill="white"/>
<path d="M318.578 673.024H296.339V695.263H318.578V673.024Z" fill="white"/>
<path d="M345.454 673.024H323.212V695.263H345.454V673.024Z" fill="white"/>
<path d="M372.327 673.024H350.088V695.263H372.327V673.024Z" fill="#BEC0C1"/>
<path d="M399.2 673.024H376.961V695.263H399.2V673.024Z" fill="white"/>
<path d="M426.073 673.024H403.834V695.263H426.073V673.024Z" fill="white"/>
<path d="M452.946 673.024H430.707V695.263H452.946V673.024Z" fill="white"/>
<path d="M479.819 673.024H457.58V695.263H479.819V673.024Z" fill="white"/>
<path d="M291.35 547.273H282.668V570.232H291.35V547.273Z" fill="#BEC0C1"/>
<path d="M311.565 547.273H302.883V570.232H311.565V547.273Z" fill="#BEC0C1"/>
<path d="M331.777 547.273H323.098V570.232H331.777V547.273Z" fill="#BEC0C1"/>
<path d="M351.992 547.273H343.312V570.232H351.992V547.273Z" fill="#BEC0C1"/>
<path d="M372.207 547.273H363.524V570.232H372.207V547.273Z" fill="#BEC0C1"/>
<path d="M392.422 547.273H383.739V570.232H392.422V547.273Z" fill="#BEC0C1"/>
<path d="M412.634 547.273H403.951V570.232H412.634V547.273Z" fill="#BEC0C1"/>
<path d="M432.849 547.273H424.166V570.232H432.849V547.273Z" fill="#BEC0C1"/>
<path d="M453.063 547.273H444.381V570.232H453.063V547.273Z" fill="#BEC0C1"/>
<path d="M473.275 547.273H464.593V570.232H473.275V547.273Z" fill="#BEC0C1"/>
<path d="M493.49 547.273H484.808V570.232H493.49V547.273Z" fill="#BEC0C1"/>
<path d="M391.735 420.305C391.735 422.323 390.098 423.958 388.079 423.958C386.06 423.958 384.426 422.323 384.426 420.305C384.426 418.286 386.06 416.651 388.079 416.651C390.098 416.651 391.735 418.286 391.735 420.305Z" fill="#0C2B34"/>
<path d="M247.08 957.856H526.038V1104.64H247.08V957.856ZM247.08 1139.59H526.038V1286.37H247.08V1139.59ZM216.131 930.612V1491.7H556.984V930.612H216.131Z" fill="#D3D5D4"/>
<path d="M216.12 930.615H62V1491.68H216.12V930.615Z" fill="#E5E5E4"/>
<path d="M526.032 957.843H459.743V1104.62H526.032V957.843Z" fill="#E5E5E4"/>
<path d="M247.076 1456.3V1456.98H524.972V1315.68H246.393V1456.98H247.076V1456.3H247.757V1317.04H523.61V1455.62H247.076V1456.3Z" fill="#E5E5E4"/>
<path d="M413.216 1355.73H358.154V1375.86H413.216V1355.73Z" fill="#E5E5E4"/>
<path d="M526.032 1139.6H459.743V1286.38H526.032V1139.6Z" fill="#E5E5E4"/>
<path d="M331.873 1151.05H285.234V1286.37H331.873V1151.05Z" fill="#9C9EA0"/>
<path d="M331.873 1235.45H285.234V1264.64H331.873V1235.45Z" fill="#D3D5D4"/>
<path d="M331.873 1194.63H285.234V1211.95H331.873V1194.63Z" fill="#D3D5D4"/>
<path d="M444.694 991.385H326.835V1104.64H444.694V991.385Z" fill="#E5E5E4"/>
<path d="M326.835 991.385H282.047V1104.64H326.835V991.385Z" fill="#BEC0C1"/>
<path d="M444.694 1048.01H326.835L418.88 1050.93L444.694 1048.01Z" fill="#BEC0C1"/>
<path d="M326.835 1090.96H444.694L352.648 1093.87L326.835 1090.96Z" fill="#BEC0C1"/>
<path d="M444.694 1016.36H370.041L436.404 1018.73L444.694 1016.36Z" fill="#BEC0C1"/>
<path d="M326.835 1074.28H401.491L335.128 1076.66L326.835 1074.28Z" fill="#BEC0C1"/>
<path d="M416.42 1003.75H332.221L346.254 1005.18L416.42 1003.75Z" fill="#BEC0C1"/>
<path d="M433.238 1060.15H349.036L363.072 1061.58L433.238 1060.15Z" fill="#BEC0C1"/>
<path d="M381.458 1027.14H326.835L317.076 1030.95L381.458 1027.14Z" fill="#E5E5E4"/>
<path d="M459.743 1027.14H405.122L395.363 1030.95L459.743 1027.14Z" fill="#E5E5E4"/>
<path d="M389.653 1078.04H444.274L454.035 1081.84L389.653 1078.04Z" fill="#E5E5E4"/>
<path d="M326.835 1065.11H282.975L273.214 1068.92L326.835 1065.11Z" fill="#BEC0C1"/>
<path d="M311.527 1048.01H277.514L282.047 1044.9L311.527 1048.01Z" fill="#BEC0C1"/>
<path d="M285.235 1142.01H247.077V1286.37H285.235V1142.01Z" fill="#E5E5E4"/>
<path d="M266.155 1170.48C270.541 1170.48 274.099 1166.93 274.099 1162.54C274.099 1158.15 270.541 1154.6 266.155 1154.6C261.766 1154.6 258.211 1158.15 258.211 1162.54C258.211 1166.93 261.766 1170.48 266.155 1170.48Z" fill="white"/>
<path d="M266.156 1167.08C268.665 1167.08 270.697 1165.05 270.697 1162.54C270.697 1160.03 268.665 1158 266.156 1158C263.647 1158 261.614 1160.03 261.614 1162.54C261.614 1165.05 263.647 1167.08 266.156 1167.08Z" fill="#9C9EA0"/>
<path d="M285.235 1228.5H247.077V1263.63H285.235V1228.5Z" fill="white"/>
<path d="M476.233 1256.57H331.872V1286.58H476.233V1256.57Z" fill="#BEC0C1"/>
<path d="M360.35 1271.58C360.35 1267.19 356.792 1263.63 352.406 1263.63C348.02 1263.63 344.462 1267.19 344.462 1271.58C344.462 1275.96 348.02 1279.52 352.406 1279.52C356.792 1279.52 360.35 1275.96 360.35 1271.58Z" fill="white"/>
<path d="M356.947 1271.58C356.947 1269.07 354.915 1267.03 352.406 1267.03C349.897 1267.03 347.864 1269.07 347.864 1271.58C347.864 1274.09 349.897 1276.12 352.406 1276.12C354.915 1276.12 356.947 1274.09 356.947 1271.58Z" fill="#9C9EA0"/>
<path d="M453.496 1256.57H418.371V1286.58H453.496V1256.57Z" fill="white"/>
<path d="M1578.56 373.726H1233.03V759.228H1578.56V373.726Z" fill="#D3D5D4"/>
<path d="M1555.8 396.488H1255.79V736.666H1555.8V396.488Z" fill="#E5E5E4"/>
<path d="M1388.66 456.64H1282.91V581.944H1388.66V456.64Z" fill="white"/>
<path d="M1339.59 465.161C1339.59 467.261 1337.89 468.964 1335.79 468.964C1333.69 468.964 1331.99 467.261 1331.99 465.161C1331.99 463.063 1333.69 461.36 1335.79 461.36C1337.89 461.36 1339.59 463.063 1339.59 465.161Z" fill="#335863"/>
<path d="M1303.04 481.739C1313.73 480.916 1324.42 480.861 1335.11 480.744C1345.8 480.859 1356.5 480.908 1367.19 481.739C1356.5 482.567 1345.8 482.616 1335.11 482.733C1324.42 482.613 1313.73 482.561 1303.04 481.739Z" fill="#E5E5E4"/>
<path d="M1303.04 491.642C1308.85 490.865 1314.66 490.685 1320.47 490.645C1326.29 490.68 1332.1 490.86 1337.91 491.642C1332.1 492.421 1326.29 492.601 1320.47 492.636C1314.66 492.595 1308.85 492.415 1303.04 491.642Z" fill="#E5E5E4"/>
<path d="M1303.04 501.542C1310.46 500.769 1317.89 500.589 1325.32 500.548C1332.75 500.583 1340.17 500.763 1347.6 501.542C1340.17 502.324 1332.75 502.504 1325.32 502.537C1317.89 502.498 1310.46 502.319 1303.04 501.542Z" fill="#E5E5E4"/>
<path d="M1303.04 511.446C1312.33 510.672 1321.62 510.492 1330.91 510.451C1340.21 510.487 1349.5 510.666 1358.79 511.446C1349.5 512.227 1340.21 512.405 1330.91 512.44C1321.62 512.402 1312.33 512.222 1303.04 511.446Z" fill="#E5E5E4"/>
<path d="M1303.04 521.348C1311.11 520.574 1319.18 520.394 1327.26 520.354C1335.33 520.389 1343.4 520.569 1351.47 521.348C1343.4 522.13 1335.33 522.307 1327.26 522.342C1319.18 522.304 1311.11 522.124 1303.04 521.348Z" fill="#E5E5E4"/>
<path d="M1303.04 531.251C1313.37 530.428 1323.7 530.374 1334.04 530.257C1344.37 530.371 1354.7 530.423 1365.03 531.251C1354.7 532.079 1344.37 532.131 1334.04 532.246C1323.7 532.128 1313.37 532.074 1303.04 531.251Z" fill="#E5E5E4"/>
<path d="M1303.04 541.155C1309.71 540.378 1316.38 540.201 1323.06 540.16C1329.73 540.196 1336.4 540.375 1343.08 541.155C1336.4 541.934 1329.73 542.114 1323.06 542.149C1316.38 542.108 1309.71 541.928 1303.04 541.155Z" fill="#E5E5E4"/>
<path d="M1303.04 551.057C1313.73 550.234 1324.42 550.18 1335.11 550.062C1345.8 550.177 1356.5 550.226 1367.19 551.057C1356.5 551.885 1345.8 551.934 1335.11 552.051C1324.42 551.931 1313.73 551.877 1303.04 551.057Z" fill="#E5E5E4"/>
<path d="M1303.04 560.96C1313.73 560.137 1324.42 560.083 1335.11 559.966C1345.8 560.08 1356.5 560.129 1367.19 560.96C1356.5 561.788 1345.8 561.837 1335.11 561.955C1324.42 561.835 1313.73 561.78 1303.04 560.96Z" fill="#E5E5E4"/>
<path d="M1529.89 534.766H1404.76V683.034H1529.89V534.766Z" fill="white"/>
<path d="M1471.12 554.77C1471.12 556.871 1469.42 558.571 1467.32 558.571C1465.22 558.571 1463.52 556.871 1463.52 554.77C1463.52 552.67 1465.22 550.97 1467.32 550.97C1469.42 550.97 1471.12 552.67 1471.12 554.77Z" fill="#335863"/>
<path d="M1422.27 571.757C1426.89 570.983 1431.52 570.804 1436.14 570.763C1440.77 570.798 1445.39 570.978 1450.02 571.757C1445.39 572.539 1440.77 572.719 1436.14 572.754C1431.52 572.713 1426.89 572.534 1422.27 571.757Z" fill="#E5E5E4"/>
<path d="M1422.27 582.938C1428.26 582.164 1434.24 581.982 1440.23 581.943C1446.22 581.979 1452.21 582.159 1458.2 582.938C1452.21 583.717 1446.22 583.897 1440.23 583.932C1434.24 583.891 1428.26 583.711 1422.27 582.938Z" fill="#E5E5E4"/>
<path d="M1422.27 594.116C1427.81 593.342 1433.36 593.162 1438.91 593.121C1444.46 593.157 1450.01 593.336 1455.55 594.116C1450.01 594.897 1444.46 595.077 1438.91 595.113C1433.36 595.072 1427.81 594.892 1422.27 594.116Z" fill="#E5E5E4"/>
<path d="M1422.27 605.297C1427.81 604.523 1433.36 604.344 1438.91 604.303C1444.46 604.338 1450.01 604.518 1455.55 605.297C1450.01 606.076 1444.46 606.256 1438.91 606.292C1433.36 606.251 1427.81 606.071 1422.27 605.297Z" fill="#E5E5E4"/>
<path d="M1422.27 616.475C1427.09 615.701 1431.91 615.521 1436.73 615.48C1441.55 615.516 1446.36 615.696 1451.18 616.475C1446.36 617.254 1441.55 617.434 1436.73 617.469C1431.91 617.431 1427.09 617.251 1422.27 616.475Z" fill="#E5E5E4"/>
<path d="M1422.27 627.656C1428.44 626.879 1434.61 626.699 1440.77 626.661C1446.94 626.697 1453.11 626.874 1459.28 627.656C1453.11 628.435 1446.94 628.614 1440.77 628.65C1434.61 628.609 1428.44 628.429 1422.27 627.656Z" fill="#E5E5E4"/>
<path d="M1422.27 638.833C1427.36 638.06 1432.45 637.88 1437.54 637.839C1442.63 637.874 1447.73 638.054 1452.82 638.833C1447.73 639.612 1442.63 639.792 1437.54 639.828C1432.45 639.79 1427.36 639.607 1422.27 638.833Z" fill="#E5E5E4"/>
<path d="M1422.27 650.014C1428.65 649.237 1435.03 649.058 1441.42 649.02C1447.8 649.055 1454.18 649.232 1460.57 650.014C1454.18 650.793 1447.8 650.973 1441.42 651.008C1435.03 650.967 1428.65 650.788 1422.27 650.014Z" fill="#E5E5E4"/>
<path d="M1422.27 661.193C1428.65 660.419 1435.03 660.239 1441.42 660.198C1447.8 660.234 1454.18 660.413 1460.57 661.193C1454.18 661.975 1447.8 662.152 1441.42 662.187C1435.03 662.149 1428.65 661.969 1422.27 661.193Z" fill="#E5E5E4"/>
<path d="M1476.94 571.757C1483.01 570.983 1489.07 570.804 1495.13 570.763C1501.19 570.798 1507.25 570.978 1513.31 571.757C1507.25 572.539 1501.19 572.719 1495.13 572.754C1489.07 572.713 1483.01 572.534 1476.94 571.757Z" fill="#E5E5E4"/>
<path d="M1476.94 582.938C1480.93 582.164 1484.91 581.982 1488.9 581.943C1492.88 581.979 1496.87 582.159 1500.85 582.938C1496.87 583.717 1492.88 583.897 1488.9 583.932C1484.91 583.891 1480.93 583.711 1476.94 582.938Z" fill="#E5E5E4"/>
<path d="M1476.94 594.116C1482.65 593.342 1488.35 593.162 1494.05 593.121C1499.75 593.157 1505.46 593.336 1511.16 594.116C1505.46 594.897 1499.75 595.077 1494.05 595.113C1488.35 595.072 1482.65 594.892 1476.94 594.116Z" fill="#E5E5E4"/>
<path d="M1476.94 605.297C1482.5 604.523 1488.04 604.344 1493.59 604.303C1499.14 604.338 1504.69 604.518 1510.23 605.297C1504.69 606.076 1499.14 606.256 1493.59 606.292C1488.04 606.251 1482.5 606.071 1476.94 605.297Z" fill="#E5E5E4"/>
<path d="M1476.94 616.475C1483.01 615.701 1489.07 615.521 1495.13 615.48C1501.19 615.516 1507.25 615.696 1513.31 616.475C1507.25 617.254 1501.19 617.434 1495.13 617.469C1489.07 617.431 1483.01 617.251 1476.94 616.475Z" fill="#E5E5E4"/>
<path d="M1476.94 627.656C1481.77 626.879 1486.58 626.699 1491.41 626.661C1496.23 626.697 1501.05 626.874 1505.87 627.656C1501.05 628.435 1496.23 628.614 1491.41 628.65C1486.58 628.609 1481.77 628.429 1476.94 627.656Z" fill="#E5E5E4"/>
<path d="M1476.94 638.833C1482.65 638.06 1488.35 637.88 1494.05 637.839C1499.75 637.874 1505.46 638.054 1511.16 638.833C1505.46 639.612 1499.75 639.792 1494.05 639.828C1488.35 639.79 1482.65 639.607 1476.94 638.833Z" fill="#E5E5E4"/>
<path d="M1476.94 650.014C1481.36 649.237 1485.77 649.058 1490.18 649.02C1494.59 649.055 1499 649.232 1503.41 650.014C1499 650.793 1494.59 650.973 1490.18 651.008C1485.77 650.967 1481.36 650.788 1476.94 650.014Z" fill="#E5E5E4"/>
<path d="M1476.94 661.193C1481.18 660.419 1485.41 660.239 1489.64 660.198C1493.87 660.234 1498.1 660.413 1502.33 661.193C1498.1 661.975 1493.87 662.152 1489.64 662.187C1485.41 662.149 1481.18 661.969 1476.94 661.193Z" fill="#E5E5E4"/>
<path d="M1442.56 422.189H1378.93V485.817H1442.56V422.189Z" fill="#BEC0C1"/>
<path d="M1414.55 428.649C1414.55 430.747 1412.84 432.449 1410.75 432.449C1408.65 432.449 1406.94 430.747 1406.94 428.649C1406.94 426.548 1408.65 424.846 1410.75 424.846C1412.84 424.846 1414.55 426.548 1414.55 428.649Z" fill="#335863"/>
<path d="M1555.52 396.488H1546.93V737.039H1555.52V396.488Z" fill="#BEC0C1"/>
<path d="M1567.13 1253.95L1560.27 1260.85L1560.03 1258.34V1258.3L1564.42 1253.95H1567.13Z" fill="#D3D5D4"/>
<path d="M1593.12 1253.95L1569.8 1277.43L1562.27 1284.88L1562.15 1283.33V1283.29L1562.07 1282.41L1568.4 1276.03L1590.61 1253.95H1593.12Z" fill="#D3D5D4"/>
<path d="M1619.15 1253.95L1582.83 1290.5L1564.34 1308.88L1564.3 1308.52L1564.14 1306.49L1581.44 1289.07L1616.8 1253.95H1619.15Z" fill="#D3D5D4"/>
<path d="M1645.18 1253.95L1595.91 1303.54L1566.37 1332.88L1566.17 1330.61L1594.47 1302.15L1642.94 1253.95H1645.18Z" fill="#D3D5D4"/>
<path d="M1671.09 1253.95C1667.58 1257.58 1664.03 1261.17 1660.48 1264.75L1608.94 1316.61L1568.4 1356.92L1568.25 1354.76L1607.55 1315.18L1659.37 1263.68C1662.64 1260.41 1665.95 1257.18 1669.25 1253.95H1671.09Z" fill="#D3D5D4"/>
<path d="M1697 1253.95C1689.18 1261.92 1681.37 1269.86 1673.52 1277.79L1622.02 1329.65L1570.44 1380.87L1570.28 1378.88L1620.58 1328.26L1672.44 1276.71C1680.14 1269.1 1687.83 1261.52 1695.56 1253.95H1697Z" fill="#D3D5D4"/>
<path d="M1722.75 1253.95C1710.75 1266.31 1698.67 1278.59 1686.55 1290.86L1635.05 1342.68L1583.19 1394.23C1579.64 1397.77 1576.06 1401.28 1572.47 1404.79L1572.31 1403.12C1575.54 1399.77 1578.85 1396.46 1582.11 1393.15L1633.66 1341.29L1685.48 1289.79C1697.59 1277.79 1709.79 1265.83 1721.99 1253.95H1722.75Z" fill="#D3D5D4"/>
<path d="M1748.14 1254.23V1254.39C1732.04 1270.97 1715.89 1287.47 1699.63 1303.9L1648.09 1355.76L1596.27 1407.26C1589.01 1414.4 1581.76 1421.53 1574.5 1428.67L1574.38 1427.35C1581.28 1420.29 1588.21 1413.24 1595.19 1406.18L1646.69 1354.32L1698.55 1302.82C1714.98 1286.56 1731.52 1270.37 1748.14 1254.23Z" fill="#D3D5D4"/>
<path d="M1745.79 1282.33V1282.41L1745.71 1283.29V1283.33C1734.71 1294.57 1723.7 1305.81 1712.66 1316.97L1661.16 1368.79L1609.3 1420.34C1598.42 1431.1 1587.5 1441.86 1576.49 1452.54V1452.42L1576.42 1451.63C1586.98 1440.78 1597.58 1429.98 1608.22 1419.22L1659.73 1367.4L1711.59 1315.86C1722.95 1304.66 1734.35 1293.45 1745.79 1282.33Z" fill="#D3D5D4"/>
<path d="M1743.4 1310.48L1743.24 1312.23C1737.42 1318.17 1731.6 1324.07 1725.74 1330.01L1674.2 1381.87L1622.37 1433.37C1608.27 1447.32 1594.07 1461.23 1579.84 1475.07H1579.37C1593.24 1460.72 1607.23 1446.48 1621.26 1432.29L1672.8 1380.43L1724.62 1328.93C1730.88 1322.75 1737.14 1316.61 1743.4 1310.48Z" fill="#D3D5D4"/>
<path d="M1741 1338.7L1740.81 1340.97C1740.13 1341.65 1739.45 1342.36 1738.77 1343.04L1687.27 1394.9L1635.41 1446.4C1625.73 1456.01 1616 1465.54 1606.27 1475.07H1605.12C1614.84 1465.14 1624.57 1455.21 1634.33 1445.33L1685.84 1393.51L1737.7 1341.97C1738.81 1340.89 1739.89 1339.77 1741 1338.7Z" fill="#D3D5D4"/>
<path d="M1738.57 1367.12L1738.38 1369.63L1700.31 1407.94L1648.45 1459.48C1643.18 1464.7 1637.92 1469.88 1632.62 1475.07H1630.95C1636.41 1469.49 1641.87 1463.94 1647.37 1458.4L1698.91 1406.54L1738.57 1367.12Z" fill="#D3D5D4"/>
<path d="M1736.18 1395.5L1735.94 1398.25L1713.34 1421.01L1661.52 1472.51C1660.64 1473.35 1659.81 1474.23 1658.93 1475.06H1656.86C1658.05 1473.87 1659.25 1472.63 1660.45 1471.44L1711.95 1419.58L1736.18 1395.5Z" fill="#D3D5D4"/>
<path d="M1733.75 1423.92L1733.51 1426.91L1726.42 1434.05L1685.12 1475.07H1682.85L1724.98 1432.65L1733.75 1423.92Z" fill="#D3D5D4"/>
<path d="M1731.36 1452.42V1452.54L1731.12 1455.41L1711.35 1475.07H1708.88L1731.36 1452.42Z" fill="#D3D5D4"/>
<path d="M1747.82 1258.3L1747.58 1260.89L1740.73 1253.95H1743.44L1747.82 1258.3Z" fill="#D3D5D4"/>
<path d="M1745.79 1282.41L1745.55 1284.88L1738.06 1277.43L1714.7 1253.95H1717.25L1739.45 1276.03L1745.79 1282.41Z" fill="#D3D5D4"/>
<path d="M1743.72 1306.49L1743.56 1308.52L1743.52 1308.92L1724.98 1290.5L1688.67 1253.95H1691.06L1726.42 1289.07L1743.72 1306.49Z" fill="#D3D5D4"/>
<path d="M1741.68 1330.64L1741.48 1332.92L1711.95 1303.54L1662.68 1253.95H1664.87L1713.34 1302.15L1741.68 1330.64Z" fill="#D3D5D4"/>
<path d="M1739.65 1354.8L1739.45 1356.92L1698.91 1316.61L1647.37 1264.75C1643.82 1261.17 1640.27 1257.58 1636.77 1253.95H1638.56C1641.87 1257.18 1645.18 1260.41 1648.45 1263.68L1700.31 1315.18L1739.65 1354.8Z" fill="#D3D5D4"/>
<path d="M1737.58 1378.88L1737.42 1380.87L1685.84 1329.65L1634.33 1277.79C1626.48 1269.86 1618.67 1261.92 1610.86 1253.95H1612.29C1619.99 1261.52 1627.72 1269.1 1635.41 1276.71L1687.27 1328.26L1737.58 1378.88Z" fill="#D3D5D4"/>
<path d="M1735.54 1403.12L1735.38 1404.83C1731.8 1401.28 1728.21 1397.77 1724.62 1394.23L1672.8 1342.68L1621.26 1290.86C1609.18 1278.59 1597.1 1266.31 1585.11 1253.95H1585.86C1598.06 1265.83 1610.26 1277.79 1622.37 1289.79L1674.2 1341.29L1725.74 1393.15C1729.01 1396.46 1732.28 1399.77 1735.54 1403.12Z" fill="#D3D5D4"/>
<path d="M1733.47 1427.35L1733.39 1428.67C1726.1 1421.61 1718.84 1414.43 1711.59 1407.26L1659.73 1355.76L1608.22 1303.9C1591.96 1287.47 1575.82 1270.97 1559.71 1254.39V1254.23C1576.34 1270.37 1592.88 1286.56 1609.3 1302.82L1661.16 1354.32L1712.66 1406.18C1719.64 1413.24 1726.58 1420.29 1733.47 1427.35Z" fill="#D3D5D4"/>
<path d="M1731.44 1451.63L1731.36 1452.54C1720.36 1441.86 1709.44 1431.1 1698.55 1420.34L1646.69 1368.79L1595.19 1316.97C1584.15 1305.81 1573.11 1294.57 1562.15 1283.33V1283.29L1562.07 1282.33C1573.51 1293.45 1584.91 1304.66 1596.27 1315.86L1648.09 1367.4L1699.63 1419.22C1710.27 1429.98 1720.87 1440.78 1731.44 1451.63Z" fill="#D3D5D4"/>
<path d="M1728.49 1475.07H1728.01C1713.78 1461.23 1699.59 1447.32 1685.48 1433.37L1633.66 1381.87L1582.11 1330.01C1576.26 1324.07 1570.44 1318.17 1564.62 1312.23L1564.46 1310.48C1570.72 1316.61 1576.97 1322.75 1583.19 1328.93L1635.05 1380.43L1686.55 1432.29C1700.59 1446.48 1714.62 1460.72 1728.49 1475.07Z" fill="#D3D5D4"/>
<path d="M1702.74 1475.07H1701.58C1691.82 1465.54 1682.13 1456.01 1672.44 1446.41L1620.58 1394.9L1569.08 1343.04C1568.4 1342.36 1567.72 1341.65 1567.05 1340.97L1566.85 1338.74C1567.96 1339.77 1569.04 1340.89 1570.16 1341.97L1622.02 1393.51L1673.52 1445.33C1683.29 1455.21 1693.01 1465.14 1702.74 1475.07Z" fill="#D3D5D4"/>
<path d="M1676.87 1475.07H1675.23C1669.93 1469.88 1664.63 1464.7 1659.37 1459.48L1607.55 1407.94L1569.48 1369.67L1569.28 1367.12L1608.94 1406.54L1660.48 1458.4C1665.95 1463.94 1671.45 1469.49 1676.87 1475.07Z" fill="#D3D5D4"/>
<path d="M1651 1475.06H1648.92C1648.05 1474.23 1647.21 1473.35 1646.33 1472.51L1594.47 1421.01L1571.91 1398.29L1571.67 1395.5L1595.91 1419.58L1647.41 1471.44C1648.61 1472.63 1649.8 1473.87 1651 1475.06Z" fill="#D3D5D4"/>
<path d="M1625.01 1475.07H1622.74L1581.44 1434.05L1574.34 1426.91V1426.87L1574.06 1423.96L1582.83 1432.65L1625.01 1475.07Z" fill="#D3D5D4"/>
<path d="M1598.98 1475.07H1596.51L1576.73 1455.41L1576.49 1452.42L1598.98 1475.07Z" fill="#D3D5D4"/>
<path d="M1577.86 1475.25L1557.73 1254.57L1561.7 1254.21L1581.83 1474.88L1577.86 1475.25Z" fill="#D3D5D4"/>
<path d="M1730.49 1475.25L1726.52 1474.88L1746.65 1254.21L1750.62 1254.57L1730.49 1475.25Z" fill="#D3D5D4"/>
<path d="M1759.48 1229.81H1548.05V1265.6H1759.48V1229.81Z" fill="#D3D5D4"/>
<path d="M1737.68 1455.91H1569.85V1491.7H1737.68V1455.91Z" fill="#D3D5D4"/>
<path d="M968.793 1280.13C968.793 1280.13 911.148 1267.06 879.551 1237.95C847.954 1208.84 830.306 1156.69 830.306 1156.69C830.306 1156.69 864.238 1162.9 894.955 1173.67C900.112 1179.19 909.936 1190.56 914.513 1201.32C914.513 1201.32 915.486 1189.95 914.665 1181.55C922.885 1185.34 930.039 1189.52 935.196 1194.01C961.394 1216.94 968.793 1280.13 968.793 1280.13Z" fill="#FEC130"/>
<path d="M866.299 1182.03C858.439 1176.6 850.441 1171.35 842.616 1165.86C842.145 1165.53 842.589 1164.8 843.09 1165.1C857.946 1173.97 872.59 1183.45 886.759 1193.38C891.698 1196.85 896.548 1200.45 901.343 1204.12C901.007 1203.55 900.678 1202.98 900.337 1202.41C898.61 1199.52 896.785 1196.68 894.962 1193.84C891.298 1188.14 887.293 1182.52 882.724 1177.5L883.008 1177.24C887.489 1182.41 891.973 1187.53 896.074 1193.03C898.024 1195.64 899.825 1198.34 901.552 1201.1C902.446 1202.54 903.315 1203.98 904.143 1205.46C904.418 1205.95 904.723 1206.44 905.007 1206.94C912.461 1212.8 919.718 1218.9 926.646 1225.36C930.921 1229.34 935.046 1233.47 939.029 1237.73C936.8 1230.75 934.852 1223.7 932.267 1216.83L932.648 1216.73C935.157 1223.94 937.903 1231.17 939.846 1238.58C944.262 1243.35 948.485 1248.29 952.462 1253.44C952.394 1253.12 952.329 1252.81 952.255 1252.5C951.602 1249.78 950.92 1247.07 950.193 1244.37C948.79 1239.15 947.259 1233.98 945.499 1228.87C941.892 1218.39 937.211 1208.14 930.014 1199.62L930.3 1199.35C941.56 1212.68 948.161 1228.66 952.375 1245.45C952.994 1247.91 953.574 1250.37 954.132 1252.84C954.429 1254.14 954.775 1255.48 954.999 1256.82C956.74 1259.18 958.451 1261.56 960.088 1263.99C970.095 1278.89 977.9 1295.16 984.476 1311.82C991.887 1330.59 997.646 1349.97 1002.95 1369.42C1003.06 1369.8 1002.49 1369.93 1002.36 1369.57C991.091 1335.83 979.573 1301.62 960.276 1271.47C956.2 1265.1 951.79 1258.97 947.112 1253.05C937.628 1252.52 928.058 1250.46 919.078 1247.47C909.148 1244.16 899.776 1239.57 890.985 1233.9C885.909 1230.62 881.283 1226.8 876.586 1223.02L876.831 1222.72C884.626 1229.31 893.995 1234.48 903.252 1238.71C912.553 1242.96 922.339 1246.28 932.335 1248.46C936.59 1249.39 940.906 1250.08 945.224 1250.66C939.895 1244.1 934.215 1237.82 928.224 1231.83C926.281 1229.89 924.265 1228.03 922.266 1226.15C915.645 1221.32 908.309 1217.5 900.956 1213.94C891.51 1209.38 882.212 1204.54 872.865 1199.79C867.59 1197.11 862.349 1194.36 857.034 1191.76L857.241 1191.43C866.713 1196.01 876.336 1200.28 885.901 1204.66C894.899 1208.79 904.007 1212.92 912.643 1217.78C913.016 1217.99 913.365 1218.22 913.73 1218.43C905.925 1211.63 897.844 1205.15 889.573 1198.9C881.929 1193.13 874.175 1187.48 866.299 1182.03Z" fill="#0C2B34"/>
<path d="M869.577 1211.76C874.266 1213.81 879.039 1215.63 883.679 1217.8C888.452 1220.03 892.974 1222.64 897.505 1225.33L897.32 1225.63C892.721 1223.43 888.068 1221.37 883.515 1219.08C878.854 1216.73 874.244 1214.23 869.463 1212.13L869.577 1211.76Z" fill="#0C2B34"/>
<path d="M1156.06 989.625C1156.06 989.625 1139.87 1008.16 1138.83 1037.5C1138.64 1042.67 1139.46 1049.87 1140.05 1058.35C1118.56 1069.82 1102.44 1090.5 1102.44 1090.5C1114.65 1083.16 1131.41 1080.2 1140.45 1081.4C1140.14 1086.97 1139.49 1092.76 1138.25 1098.62C1134.26 1098.4 1126.55 1098.93 1113.8 1103.46C1113.8 1103.46 1126.31 1103.14 1135.85 1107.84C1125.57 1140.53 1095.03 1174.12 1010.68 1188.38C1010.68 1188.38 994.41 1131.12 1025.62 1069.69C1050.89 1019.98 1156.06 989.625 1156.06 989.625Z" fill="#FEC130"/>
<path d="M981.489 1328.27C982.955 1314.3 984.791 1300.37 986.951 1286.5C991.266 1258.73 996.86 1231.12 1003.96 1203.93C1007.31 1191.1 1011.32 1178.55 1016.13 1166.31C1015.82 1164.09 1015.87 1161.78 1015.82 1159.56C1015.77 1156.86 1015.75 1154.15 1015.78 1151.45C1015.84 1146.05 1016.1 1140.66 1016.56 1135.27C1017.46 1124.64 1019.08 1113.99 1021.74 1103.65C1023.28 1097.64 1025.07 1091.73 1026.84 1085.78L1027.21 1085.89C1024.23 1096.17 1022.51 1106.88 1020.98 1117.46C1019.47 1127.94 1018.53 1138.53 1018.15 1149.11C1018.05 1152.01 1017.99 1154.91 1017.99 1157.81C1017.99 1159.04 1018.04 1160.29 1018.09 1161.54C1022.24 1151.5 1026.92 1141.67 1032.3 1132.12C1040.8 1117.01 1050.57 1102.65 1061.17 1088.93C1061.07 1087.36 1061.54 1085.72 1061.86 1084.21C1062.26 1082.33 1062.67 1080.45 1063.09 1078.57C1063.95 1074.71 1064.92 1070.88 1065.96 1067.07C1068.06 1059.43 1070.83 1052.05 1073.22 1044.5L1073.59 1044.61C1071.37 1052.08 1069.89 1059.82 1068.18 1067.43C1067.33 1071.19 1066.51 1074.95 1065.68 1078.72C1065.27 1080.6 1064.86 1082.48 1064.48 1084.37L1064.4 1084.79C1067.81 1080.49 1071.28 1076.25 1074.84 1072.07C1090.95 1053.19 1108.61 1035.76 1126.38 1018.46C1128.57 1016.34 1130.81 1014.26 1133.02 1012.17L1133.29 1012.45C1116.31 1030.17 1099.58 1048.1 1083.74 1066.86C1079.98 1071.31 1076.27 1075.83 1072.63 1080.4C1074.55 1079.1 1076.48 1077.83 1078.39 1076.59C1083.29 1073.37 1088.26 1070.25 1093.38 1067.38C1098.5 1064.51 1103.66 1061.71 1108.92 1059.11C1114.33 1056.43 1120.1 1054.24 1125.32 1051.21L1125.51 1051.55C1120.13 1053.76 1115.11 1057.12 1110.12 1060.08C1104.99 1063.12 1099.86 1066.19 1094.82 1069.39C1089.87 1072.53 1084.88 1075.63 1079.96 1078.83C1075.86 1081.49 1071.82 1084.41 1067.56 1086.87C1057.84 1099.47 1048.69 1112.52 1040.54 1126.2C1035.4 1134.81 1030.76 1143.65 1026.57 1152.69C1027.58 1152.24 1028.6 1151.82 1029.6 1151.38C1032.17 1150.23 1034.75 1149.09 1037.32 1147.95C1042.28 1145.74 1047.27 1143.59 1052.24 1141.43C1061.7 1137.32 1071.31 1133.54 1080.59 1129.02C1085.79 1126.49 1090.91 1123.82 1095.73 1120.61L1095.92 1120.96C1078.63 1132.88 1059.24 1141.28 1040.1 1149.75L1031.8 1153.42C1029.52 1154.43 1027.23 1155.56 1024.89 1156.44C1019.24 1169.09 1014.46 1182.11 1010.62 1195.53C1002.94 1222.32 997.088 1249.68 992.269 1277.12C987.431 1304.67 984.164 1332.41 981.63 1360.25C981.314 1363.73 981.001 1367.2 980.609 1370.67C980.451 1372.05 978.394 1372.05 978.41 1370.62C978.566 1356.48 980.015 1342.32 981.489 1328.27Z" fill="#0C2B34"/>
<path d="M1032.8 1095.34C1034.35 1086.76 1036.63 1078.38 1038.94 1069.99L1039.32 1070.1C1037.18 1078.34 1035.66 1086.74 1034.11 1095.1C1032.53 1103.63 1031.13 1112.19 1029.94 1120.78L1029.7 1120.77C1030.26 1112.23 1031.28 1103.76 1032.8 1095.34Z" fill="#0C2B34"/>
<path d="M1069.15 1118.59C1074.87 1114.55 1081.28 1111.48 1087.5 1108.27C1090.57 1106.68 1093.68 1105.17 1096.8 1103.66C1100.01 1102.11 1103.34 1100.81 1106.53 1099.21L1106.72 1099.55C1103.63 1101.1 1100.71 1102.98 1097.68 1104.63C1094.55 1106.33 1091.45 1108.06 1088.31 1109.75C1082.14 1113.06 1076.08 1116.73 1069.61 1119.42C1069.04 1119.65 1068.65 1118.95 1069.15 1118.59Z" fill="#0C2B34"/>
<path d="M967.746 1180.28C967.746 1180.28 914.403 1167.54 889.908 1131.75C866.52 1097.58 858.96 1039.32 858.36 1034.2C859.322 1038.9 870.326 1089.81 906.644 1113.53C934.446 1131.7 961.314 1146.64 967.746 1180.28Z" fill="#E2E4E4"/>
<path d="M918.512 1088.11C927.897 1097.15 934.937 1107.78 938.179 1120.5L938.01 1120.56C934.002 1108.71 927.39 1097.04 918.25 1088.4L918.512 1088.11Z" fill="#0C2B34"/>
<path d="M967.744 1180.28C967.744 1180.28 914.404 1167.54 889.909 1131.75C866.52 1097.58 858.96 1039.32 858.361 1034.2L858.301 1033.84C858.301 1033.84 883.877 1070.21 910.769 1079.48C937.661 1088.75 975.454 1120.84 967.744 1180.28Z" fill="#FEC130"/>
<path d="M867.752 1053.9C872.699 1063.6 877.886 1073.23 884.242 1082.1C890.429 1090.73 897.886 1098.08 906.184 1104.68C913.431 1110.43 921.092 1115.65 928.426 1121.29L928.262 1121.02C926.884 1118.98 925.413 1116.99 923.893 1115.05C920.839 1111.15 917.501 1107.46 914.142 1103.82C907.514 1096.63 900.746 1089.58 894.805 1081.79C891.516 1077.48 888.623 1072.89 886.253 1068.01L886.623 1067.89C895.273 1085.92 912.554 1097.45 924.887 1112.68C926.642 1114.85 928.298 1117.08 929.815 1119.42C930.886 1121.07 932.191 1122.9 932.886 1124.84C939.593 1130.34 945.794 1136.33 951.085 1143.24C950.638 1139.73 949.875 1136.24 948.943 1132.88C947.616 1128.1 945.881 1123.61 943.29 1119.37L943.617 1119.15C946.113 1123.36 948.387 1127.89 949.837 1132.58C951.014 1136.38 951.569 1140.19 951.779 1144.09L951.806 1144.13C954.468 1147.7 956.833 1151.47 959.015 1155.34C958.792 1154.2 958.576 1153.06 958.35 1151.92C957.293 1146.61 956.122 1141.3 954.741 1136.06C951.943 1125.43 948.167 1115.13 941.912 1106.01L942.236 1105.79C948.409 1114.79 953.09 1124.83 956.454 1135.19C958.151 1140.43 959.516 1145.75 960.712 1151.12C961.298 1153.75 961.824 1156.38 962.328 1159.02C962.589 1160.39 962.886 1161.78 963.104 1163.19C968.556 1174.71 972.386 1187.07 975.408 1199.35C980.848 1221.45 984.243 1244.19 986.785 1266.79C989.452 1290.53 990.849 1314.52 990.462 1338.41C990.413 1341.41 990.236 1344.41 990.07 1347.4C990.027 1348.18 988.871 1348.29 988.836 1347.47C988.313 1335.64 988.005 1323.79 987.305 1311.97C986.605 1300.12 985.575 1288.32 984.308 1276.53C981.821 1253.39 978.23 1230.28 973.19 1207.56C968.866 1188.06 963.257 1168.43 952.599 1151.34C947.257 1142.78 940.868 1135.2 933.357 1128.46C925.876 1121.74 917.697 1115.86 909.816 1109.64C901.972 1103.46 894.431 1096.73 888.212 1088.88C881.502 1080.41 876.216 1070.91 871.247 1061.35C869.988 1058.93 868.7 1056.52 867.425 1054.12L867.752 1053.9Z" fill="#0C2B34"/>
<path d="M876.96 1061.72C880.382 1068.94 884.499 1075.8 888.844 1082.5L888.599 1082.66C883.951 1076.11 880.085 1069.07 876.59 1061.85L876.96 1061.72Z" fill="#0C2B34"/>
<path d="M1163.49 1156.69C1163.49 1156.69 1164.34 1232.49 1119.01 1254.37C1091.33 1267.76 1071.49 1266.15 1053.22 1264.55C1041.57 1263.53 1030.57 1262.51 1018.59 1265.36L1018.64 1265.32C1019.84 1263.51 1041.82 1231.92 1076.78 1223.22C1112.74 1214.25 1152.59 1188.27 1163.49 1156.69Z" fill="#FEC130"/>
<path d="M1071.87 1265.6C1065.34 1265.6 1059.19 1265.07 1053.22 1264.55C1047.24 1264.03 1041.43 1263.5 1035.57 1263.5C1030.02 1263.5 1024.42 1263.97 1018.59 1265.36L1018.64 1265.32C1019.92 1264.7 1042.41 1253.45 1070.17 1250.12C1098.75 1246.68 1153.35 1228.05 1163.49 1156.69C1163.49 1156.69 1163.49 1156.78 1163.49 1156.96C1163.49 1161.95 1162.75 1233.26 1119.01 1254.37C1100.39 1263.38 1085.31 1265.6 1071.87 1265.6Z" fill="#F7B31F"/>
<path d="M1015.6 1266.71C1021.01 1261.83 1027.06 1257.65 1033.63 1254.5C1034.6 1254.04 1035.6 1253.66 1036.59 1253.24C1037.07 1252.63 1037.58 1252.06 1038.11 1251.5C1039.47 1250.08 1040.89 1248.72 1042.38 1247.44C1045.23 1245 1048.26 1242.77 1051.5 1240.87C1059.01 1236.45 1067.23 1233.36 1074.91 1229.26L1075.1 1229.61C1071.31 1231.58 1067.63 1233.75 1063.94 1235.9C1060.35 1238 1056.67 1240 1053.18 1242.26C1050.04 1244.28 1047.02 1246.52 1044.21 1248.98C1043.42 1249.68 1042.65 1250.44 1041.88 1251.21C1046.88 1249.5 1052.02 1248.19 1057.2 1247.14C1065.5 1245.46 1073.89 1244.27 1082.17 1242.51C1086.24 1241.64 1090.26 1240.56 1094.2 1239.26C1097.96 1236.24 1101.71 1233.22 1105.27 1229.94C1109.58 1225.98 1113.52 1221.67 1116.99 1216.95L1117.32 1217.16C1111.73 1224.38 1105.74 1231.65 1098.74 1237.66C1100.7 1236.92 1102.63 1236.13 1104.54 1235.26C1119.94 1228.26 1133.64 1217.15 1143.16 1203.12L1143.49 1203.33C1135.2 1215.34 1124.67 1225.63 1112.25 1233.33C1106.02 1237.19 1099.46 1240.35 1092.51 1242.67C1084.52 1245.34 1076.24 1246.92 1067.98 1248.47C1059.88 1249.98 1051.76 1251.53 1043.95 1254.18C1036.72 1256.64 1029.92 1260.2 1023.81 1264.78C1012.14 1273.52 1003.12 1285.48 996.646 1298.46C988.07 1315.67 983.967 1334.91 981.689 1353.89C981.591 1354.7 980.338 1354.7 980.395 1353.86C982.523 1321.99 991.04 1288.84 1015.6 1266.71Z" fill="#0C2B34"/>
<path d="M1068.21 1241.99C1070.47 1238.37 1073.86 1235.66 1077.52 1233.54C1081.8 1231.07 1085.64 1228.4 1088.61 1224.38L1088.94 1224.58C1086.2 1228.1 1082.92 1230.98 1079.15 1233.34C1075.2 1235.83 1071.2 1238.26 1068.49 1242.17L1068.21 1241.99Z" fill="#0C2B34"/>
<path d="M1044.16 1322.66L1042.09 1364.34L1035.77 1491.7H940.688L934.365 1364.34L932.303 1322.66H1044.16Z" fill="#23434C"/>
<path d="M1044.16 1322.66L1042.69 1352.39L933.97 1356.35L932.303 1322.66H1044.16Z" fill="#0C2B34"/>
<path d="M1050.82 1305.26H925.639V1345.02H1050.82V1305.26Z" fill="#23434C"/>
<path d="M1423.71 1065.98L1414.62 1120.52L1353.02 1491.51H1343.08L1387.88 1120.52L1394.5 1065.98H1423.71Z" fill="#335863"/>
<path d="M1414.62 1120.52H1387.88L1391.39 1091.61H1419.44L1414.62 1120.52Z" fill="#2B4F58"/>
<path d="M1617.16 1491.51H1607.23L1545.63 1120.52L1536.54 1065.98H1565.75L1572.37 1120.52L1617.16 1491.51Z" fill="#335863"/>
<path d="M1572.37 1120.52H1545.63L1540.81 1091.61H1568.86L1572.37 1120.52Z" fill="#2B4F58"/>
<path d="M1735.7 1491.51H1725.76L1664.16 1120.52L1655.07 1065.98H1684.28L1690.9 1120.52L1735.7 1491.51Z" fill="#335863"/>
<path d="M1690.9 1120.52H1664.16L1659.34 1091.61H1687.39L1690.9 1120.52Z" fill="#2B4F58"/>
<path d="M1719.95 1091.61H1334.79V1044.04H1503.77L1560.56 713.62H1702.74L1719.95 1091.61Z" fill="#335863"/>
<path d="M1719.95 1091.61H1695.34L1679.3 713.62H1702.74L1719.95 1091.61Z" fill="#2B4F58"/>
<path d="M1052.18 1380C1059.9 1384.51 1297.58 1434.19 1307.84 1430.36C1311.74 1428.93 1321 1394.74 1331.01 1353.1C1333.17 1344.11 1335.35 1334.82 1337.5 1325.36C1351.6 1264 1365.11 1198.56 1365.11 1198.56L1206.22 1164.86L1182.98 1292.59L1177.86 1320.63C1177.86 1320.63 1078.36 1342.3 1067.55 1347.72C1056.8 1353.14 1044.46 1375.48 1052.18 1380Z" fill="#F69081"/>
<path d="M1327.15 1368.99C1318.69 1403.13 1311.23 1429.11 1307.84 1430.37C1297.6 1434.21 1059.9 1384.49 1052.18 1379.98C1044.46 1375.47 1056.8 1353.15 1067.53 1347.71C1074.21 1344.39 1114.64 1334.85 1144.64 1328.03C1118.44 1334.29 1069.55 1352.07 1170.66 1359.38C1254.25 1365.45 1309.41 1368.21 1327.15 1368.99Z" fill="#0C2B34"/>
<path d="M1266.69 1493.87C1275.31 1496.27 1517.8 1483.75 1526.74 1477.42C1530.15 1475.04 1524.43 1421.83 1521.89 1412.47C1513.29 1380.75 1468.7 1241.08 1468.7 1241.08L1306.46 1248.99L1373.09 1404.43C1373.09 1404.43 1282.39 1450.75 1273.33 1458.74C1264.31 1466.72 1258.07 1491.48 1266.69 1493.87Z" fill="#F69081"/>
<path d="M1526.74 1477.41C1517.79 1483.75 1275.32 1496.27 1266.68 1493.89C1258.07 1491.47 1264.29 1466.72 1273.31 1458.74C1277.56 1455.02 1299.48 1443.02 1321.69 1431.24C1293.81 1446.93 1249.68 1481.92 1524.21 1419.54C1526.7 1447.3 1528.57 1476.15 1526.74 1477.41Z" fill="#0C2B34"/>
<path d="M1642.88 1021.96C1594.55 1075.8 1432.16 1033.28 1422.45 1054.7C1413.9 1073.6 1524.71 1377.05 1524.71 1377.05L1347.39 1396.17C1347.39 1396.17 1194.31 1061.03 1249.03 964.207C1278.59 911.91 1408.82 932.762 1487.41 923.192C1511.12 920.304 1522.25 871.415 1522.25 871.415H1662.69C1662.69 871.415 1698.12 960.425 1642.88 1021.96Z" fill="#0C2B34"/>
<path d="M1298.32 934.206L1447.23 1048.16C1496.69 1047.11 1604.93 1064.24 1642.87 1021.95C1698.13 960.409 1662.69 871.426 1662.69 871.426H1522.26C1522.26 871.426 1511.12 920.312 1487.42 923.2C1432.26 929.893 1351.71 921.644 1298.32 934.206Z" fill="#23434C"/>
<path d="M1340.61 1356.6C1345.51 1355.07 1391.49 1349.94 1401.63 1348.85C1421.93 1346.65 1485.83 1340.68 1497.41 1340.71C1497.72 1340.72 1497.77 1341.19 1497.47 1341.26C1487.41 1343.36 1446.63 1348.12 1436.49 1349.16C1416.16 1351.25 1346.35 1358.03 1340.7 1357.47C1340.2 1357.42 1340.13 1356.75 1340.61 1356.6Z" fill="#23434C"/>
<path d="M1400.95 1036.93C1412.35 1031.26 1498.78 1034.06 1560.79 1028.26C1581 1026.36 1601.27 1022.06 1616.69 1008.81C1630.58 996.885 1639.51 980.367 1644.3 963.351C1650.26 942.161 1649.64 920.064 1648.62 898.356C1648.37 893.016 1648 887.679 1647.67 882.342C1647.65 882.037 1648.2 881.974 1648.24 882.282C1652.95 921.159 1656.56 964.591 1631.27 998.286C1620.16 1013.1 1604.52 1023.08 1586.07 1027.94C1548.66 1037.78 1408.04 1035.34 1403.08 1039.13C1397.17 1043.65 1488.08 1320.44 1489.88 1325.71C1490.22 1326.7 1488.49 1327.37 1488.07 1326.39C1479.1 1305.14 1391.02 1041.87 1400.95 1036.93Z" fill="#23434C"/>
<path d="M1242.67 973.573C1251.03 952.351 1270.1 939.138 1298.16 934.078C1298.63 933.994 1298.6 934.686 1298.14 934.819C1273.66 941.976 1256.16 951.822 1246.53 972.484C1242.04 982.128 1239.71 995.684 1238.54 1013.86C1232.73 1104.48 1311.81 1310.19 1313.42 1313.77C1313.56 1314.09 1313.11 1314.34 1312.93 1314.04C1301.79 1295.27 1208.15 1061.18 1242.67 973.573Z" fill="#23434C"/>
<path d="M1178.56 1284.47L1312.84 1313.02C1312.84 1313.02 1206.9 996.859 1256.65 956.069C1270.45 944.763 1300.51 940.813 1336.25 956.247C1389.6 979.284 1451.35 1026.27 1509.57 1043.45C1564.09 1059.54 1628.81 1044.74 1651.08 1020.23C1697.88 968.719 1662.68 871.377 1662.68 871.377L1498.59 869.813C1498.59 869.813 1501.47 872.156 1492.26 880.33C1492.26 880.33 1349.74 861.689 1300.43 891.818C1211.47 946.169 1178.56 1284.47 1178.56 1284.47Z" fill="#0C2B34"/>
<path d="M1579.26 882.664C1579.39 882.294 1579.92 882.386 1579.93 882.773C1580.21 890.088 1579.89 897.226 1581.6 904.429C1583.24 911.267 1586.36 917.397 1591.32 922.418C1601.9 933.128 1617.09 936.77 1630.97 941.148C1631.71 941.38 1631.57 942.668 1630.75 942.543C1615.35 940.178 1599.15 936.274 1587.9 924.723C1582.74 919.416 1579.26 912.621 1577.94 905.342C1576.61 898.032 1576.82 889.731 1579.26 882.664Z" fill="#23434C"/>
<path d="M1259.99 950.032C1280.63 937.075 1312.9 946.918 1328.35 952.838C1328.68 952.961 1328.53 953.484 1328.19 953.361C1313.98 948.25 1278.61 940.513 1259.71 953.906C1216.02 984.858 1274.49 1196.53 1312.84 1313.02C1313.43 1314.84 1311.99 1314.36 1311.19 1312.6C1304.86 1298.79 1255.44 1151.59 1242.54 1054.2C1240.56 1039.23 1230.22 968.707 1259.99 950.032Z" fill="#23434C"/>
<path d="M1193.87 1248.76C1197.93 1248.66 1232.73 1256.33 1240.39 1258.05C1255.73 1261.51 1291.26 1270.71 1299.55 1273.87L1299.4 1274.39C1291.43 1273.64 1272.91 1269.57 1265.27 1267.8C1249.94 1264.24 1197.46 1251.65 1193.62 1249.59C1193.28 1249.41 1193.47 1248.77 1193.87 1248.76Z" fill="#23434C"/>
<path d="M1266.55 944.54C1280.45 936.939 1296.98 935.702 1312.41 937.601C1328.75 939.614 1344.3 945.42 1359.25 952.258C1390.66 966.624 1420.58 984.171 1452.03 998.455C1483.3 1012.65 1516.68 1023.77 1551.15 1024.83C1580.6 1025.74 1617.89 1020.55 1636.83 994.05C1666.01 953.222 1649.01 882.828 1648.67 878.278C1648.65 877.927 1649.12 877.946 1649.21 878.286C1671.85 964.817 1642.72 998.411 1623.06 1012.55C1607.45 1023.77 1585.02 1026.59 1570.2 1027.85C1535.92 1030.74 1501.56 1022.35 1469.78 1009.69C1437.21 996.722 1406.67 979.259 1375.47 963.3C1345.56 947.997 1312.21 932.215 1278.05 940.979C1274.19 941.968 1270.37 943.333 1266.69 944.867L1266.55 944.54Z" fill="#23434C"/>
<path d="M1607.09 754.085L1594.66 753.551C1594.3 750.075 1593.51 746.718 1592.3 743.746C1587.36 731.53 1577.4 721.807 1569.65 711.988L1569.59 712.062C1576.83 721.687 1583.69 733.619 1587.51 745.688C1588.32 748.238 1588.76 750.797 1588.95 753.303L1581.2 752.976C1580.77 745.356 1578.91 738.033 1575.08 731.366L1574.76 731.644C1577.88 738.33 1578.59 745.498 1578.4 752.864L1511.19 749.96C1510.16 743.79 1509.53 737.491 1509.5 731.015C1509.5 730.29 1508.48 730.378 1508.51 731.108C1508.5 737.445 1508.76 743.713 1509.46 749.898L1503.85 749.631C1503.15 739.057 1503.36 728.509 1505.39 717.099C1505.46 716.731 1504.97 716.628 1504.89 716.995C1502.61 727.46 1501.01 738.575 1500.98 749.503L1454.45 747.522C1457.4 740.643 1459.51 733.295 1461.27 726.256C1461.43 725.651 1460.58 725.474 1460.41 726.078C1458.31 733.897 1455.22 740.746 1451.76 747.391L1444.86 747.111C1450.33 735.053 1454.47 722.463 1455.59 709.335C1455.63 708.79 1454.82 708.749 1454.74 709.288C1452.85 723.447 1445.92 735.161 1439.04 746.841L1421.52 746.105C1427.77 735.186 1438.45 725.272 1440.12 712.383C1441.92 697.909 1429.11 690.997 1425.38 678.822C1419.12 658.419 1429.36 643.307 1442.14 629.361C1453.88 616.477 1452.85 601.711 1455.89 585.275C1458.09 573.182 1461.61 559.783 1467.96 549.267C1487.45 516.758 1521.58 521.359 1521.59 521.83C1529.84 522.048 1537.31 524.405 1543.86 528.739L1543.95 528.802C1544.42 529.069 1544.83 529.41 1545.28 529.758C1552.31 534.79 1558.25 542.19 1562.87 551.698L1562.92 551.796C1564.26 554.498 1565.45 557.383 1566.57 560.421C1568.47 565.755 1568.8 573.141 1570.36 581.633L1570.44 582.118C1572.72 594.08 1577.62 607.986 1593.09 620.553C1611.55 635.439 1606.25 659.362 1590.98 683.347C1584.53 693.498 1584.24 700.077 1586.72 705.698L1586.74 705.785C1587.11 706.542 1587.45 707.21 1587.86 707.931C1591.45 714.121 1597.99 719.521 1602.45 727.975C1606.6 735.772 1607.51 744.893 1607.09 754.085Z" fill="#0C2B34"/>
<path d="M1493.14 526.655C1479.02 534.131 1468.17 546.657 1462.93 563.017C1458.94 575.519 1458.49 589.117 1453.2 601.202C1448.2 612.614 1439.44 621.226 1432.4 631.08C1423.09 644.113 1417.15 660.097 1424.83 675.032C1429.6 684.292 1440.18 693.498 1439.62 705.262C1438.97 719.011 1427.05 732.263 1420.65 743.61C1420.34 744.157 1421.12 744.757 1421.47 744.228C1430.19 731.399 1445.44 714.524 1440.28 697.671C1437.92 689.945 1432.79 684.058 1428.72 677.47C1420.83 664.696 1422.47 651.025 1430.25 637.932C1440.78 620.204 1454.7 608.819 1459.37 587.468C1462.04 575.269 1463.19 562.734 1469.33 551.681C1475.16 541.198 1483.56 532.962 1493.48 527.456C1493.9 527.222 1493.57 526.426 1493.14 526.655Z" fill="#0C2B34"/>
<path d="M1597.01 724.615C1591.94 717.404 1585.67 712.105 1588.44 701.164C1590.36 693.563 1595.49 687.044 1599.03 680.301C1607.85 663.467 1612.9 642.307 1604.27 625.035C1599.4 615.3 1591.07 612.941 1584.06 605.836C1575.55 597.216 1572.42 583.913 1569.68 571.651C1565.56 553.272 1560.36 532.325 1541.77 528.17L1541.71 528.456C1565.38 535.335 1565.25 566.415 1572.06 587.904C1574.38 595.214 1577.68 602.224 1582.79 607.411C1590.9 615.633 1600.76 618.354 1604.95 631.126C1608.89 643.097 1607.19 656.384 1602.83 668.396C1599.05 678.824 1592.04 687.548 1588.44 697.933C1586.28 704.153 1585.76 710.571 1588.76 716.208C1591.12 720.627 1595.13 723.572 1597.65 727.855C1601.04 733.606 1602.35 740.297 1602.14 747.309C1602.12 748.02 1603.09 747.917 1603.11 747.211C1603.44 738.709 1601.6 731.148 1597.01 724.615Z" fill="#0C2B34"/>
<path d="M1542.19 681.933C1534.18 715.197 1482.93 858.834 1408.35 871.415C1383.03 875.687 1339.87 786.374 1365.3 676.506C1366.05 673.25 1440.13 674.076 1443.73 692.19C1444.12 694.138 1442.41 744.479 1440.34 743.648C1437.76 742.618 1472.19 705.64 1515.67 670.079C1536.23 653.259 1546.98 662.056 1542.19 681.933Z" fill="#F69081"/>
<path d="M1542.19 681.933C1534.18 715.197 1482.93 858.834 1408.35 871.415C1383.03 875.687 1340.31 793.174 1357.55 695.606L1447.09 708.291C1447.48 710.236 1444.48 736.665 1444.48 736.665C1444.48 736.665 1472.19 705.64 1515.67 670.079C1536.23 653.259 1546.98 662.056 1542.19 681.933Z" fill="#FEC130"/>
<path d="M1444.35 736.949C1442.74 762.688 1440.61 788.409 1437.78 814.042C1436.99 821.188 1436.27 828.343 1435.51 835.491C1435.49 835.739 1435.9 835.777 1435.95 835.538C1438.72 822.918 1440.74 810.179 1442.19 797.345C1443.61 784.647 1444.77 771.769 1444.94 758.986C1445.04 751.636 1445.03 744.288 1444.84 736.938C1444.83 736.622 1444.38 736.643 1444.35 736.949Z" fill="#0C2B34"/>
<path d="M1362.89 690.7C1362.89 690.7 1366.21 655.395 1380.29 632.625C1390.03 616.875 1403.04 592.236 1458.28 593.375C1471.39 593.645 1496.82 608.512 1491.21 617.742C1485.87 626.52 1463.9 609.934 1445.57 612.96C1445.57 612.96 1467.38 627.032 1466.59 640.15C1466.24 646.012 1464.91 661.988 1462.1 674.28C1462.1 674.28 1459.26 674.389 1455.64 674.013C1455.64 674.013 1454.52 686.27 1440.01 698.132L1362.89 690.7Z" fill="#F69081"/>
<path d="M1391.98 619.076C1401.25 616.216 1421 610.475 1438.79 611.402C1458.55 612.432 1496.34 619.738 1495.43 634.316C1494.77 645.007 1480.09 643.484 1480.09 643.484C1480.09 643.484 1495.08 649.796 1492.36 659.323C1489.88 668.003 1478.61 666.145 1478.61 666.145C1478.61 666.145 1487.04 671.537 1483.04 679.437C1478.24 688.943 1455.93 673.817 1442.74 679.238C1439.79 680.456 1391.98 619.076 1391.98 619.076Z" fill="#F69081"/>
<path d="M1434.23 632.099C1443.39 630.838 1464.93 633.309 1479.92 643.116C1480.25 643.337 1480.27 643.713 1479.92 643.577C1461.12 636.284 1442.29 633.14 1434.21 632.287L1434.23 632.099Z" fill="#0C2B34"/>
<path d="M1437.3 609.881C1446.47 608.617 1468 611.088 1482.99 620.896C1483.33 621.117 1483.35 621.493 1482.99 621.356C1464.2 614.063 1445.37 610.922 1437.29 610.067L1437.3 609.881Z" fill="#0C2B34"/>
<path d="M1433.77 652.076C1441.78 651.801 1463.87 655.337 1478.72 665.799C1479.05 666.03 1479.04 666.409 1478.69 666.257C1459.37 657.827 1441.75 653.596 1433.75 652.262L1433.77 652.076Z" fill="#0C2B34"/>
<path d="M1455.44 678.236C1454.07 677.236 1442.8 674.888 1432.36 678.353C1432.11 678.435 1432.17 678.827 1432.43 678.811C1438.95 678.446 1444.33 678.435 1444.45 678.44C1439.31 690.054 1426.61 697.829 1421.01 700.616C1420.66 700.794 1420.94 701.325 1421.3 701.229C1432.18 698.271 1442.78 689.795 1445.31 678.481C1446.78 678.552 1454.48 678.852 1455.37 678.574L1455.44 678.236Z" fill="#0C2B34"/>
<path d="M1486.05 807.845C1496.35 792.319 1505.44 775.504 1513.17 759.229H1513.17C1505.45 775.504 1496.35 792.319 1486.05 807.845Z" fill="#DEDFDE"/>
<path d="M1513.17 759.229H1513.17C1514.61 756.202 1515.99 753.202 1517.34 750.225H1517.34C1516 753.197 1514.61 756.207 1513.17 759.229Z" fill="#BCBFBF"/>
<path d="M1517.34 750.224H1517.34C1530.68 720.619 1539.29 694.005 1542.19 681.933C1542.44 680.903 1542.65 679.901 1542.81 678.931C1542.65 679.901 1542.44 680.9 1542.2 681.93C1539.29 694.005 1530.69 720.613 1517.34 750.224Z" fill="#05252D"/>
<path d="M1406.44 871.565C1402.9 871.565 1399.05 869.996 1395.11 867.023L1438.81 804.42C1438.48 807.629 1438.14 810.836 1437.78 814.043C1436.99 821.189 1436.27 828.343 1435.51 835.491C1435.5 835.625 1435.62 835.699 1435.73 835.699C1435.82 835.699 1435.92 835.647 1435.95 835.538C1438.52 823.799 1440.46 811.956 1441.88 800.026L1538.14 662.124C1542.52 664.301 1544.26 670.371 1542.81 678.931C1542.65 679.9 1542.44 680.903 1542.19 681.933C1539.29 694.005 1530.68 720.619 1517.34 750.224C1515.99 753.202 1514.61 756.202 1513.17 759.228C1505.44 775.504 1496.35 792.319 1486.05 807.845C1464.84 839.818 1438.51 866.32 1408.35 871.409C1407.73 871.513 1407.09 871.565 1406.44 871.565Z" fill="#F7B31F"/>
<path d="M1435.73 835.698C1435.61 835.698 1435.5 835.625 1435.51 835.491C1436.27 828.342 1436.99 821.188 1437.78 814.042C1438.13 810.836 1438.48 807.629 1438.81 804.42L1441.88 800.025C1440.46 811.955 1438.52 823.798 1435.95 835.537C1435.92 835.646 1435.82 835.698 1435.73 835.698Z" fill="#05252D"/>
<path d="M1477.3 883.903L1483.02 814.383C1483.02 814.383 1462.34 792.076 1473.71 764.16C1479.45 750.02 1506.52 690.09 1528.23 665.767C1546.46 645.347 1574.09 658.697 1585.05 672.185C1616.58 710.966 1633.18 758.912 1669.45 875.959L1477.3 883.903Z" fill="#FEC130"/>
<path d="M1533.96 801.856C1526.13 802.543 1518.24 803.63 1510.48 806.06C1506.61 807.27 1502.8 808.738 1498.98 810.335C1497.07 811.13 1495.17 811.827 1493.25 812.511C1491.28 813.214 1489.18 813.852 1487.19 813.814L1487.16 814.236C1489.09 814.448 1490.93 814.644 1492.89 814.465C1494.74 814.293 1496.61 813.819 1498.46 813.269C1502.38 812.097 1506.28 810.656 1510.2 809.425C1518.11 806.943 1526.01 804.461 1533.98 802.837C1534.34 802.764 1534.33 801.824 1533.96 801.856Z" fill="#0C2B34"/>
<path d="M1552.33 813.629C1546.05 812.209 1539.6 811.229 1533.19 810.912C1529.97 810.752 1526.76 810.877 1523.52 811.133C1521.97 811.253 1520.42 811.416 1518.88 811.61C1517.18 811.82 1515.48 812.375 1513.78 812.55L1513.75 812.972C1515.35 812.882 1516.95 813.193 1518.55 813.244C1520.16 813.296 1521.76 813.326 1523.37 813.375C1526.58 813.473 1529.79 813.629 1533.01 813.68C1539.45 813.784 1545.86 813.988 1552.28 814.432C1552.63 814.457 1552.66 813.702 1552.33 813.629Z" fill="#0C2B34"/>
<path d="M1592.89 690.215C1627.19 763.133 1652 897.812 1631.35 916.471C1608.35 937.252 1560.76 835.209 1562.61 830.88C1564.01 827.61 1564.45 752.061 1562.34 694.792C1560.23 637.575 1584.41 672.186 1592.89 690.215Z" fill="#F3705E"/>
<path d="M1562.09 830.787C1562.42 822.597 1561.19 721.695 1561.18 689.286C1561.18 660.193 1569.72 651.265 1585.57 674.885C1614.76 718.374 1648.83 834.026 1646.86 885.958C1644.96 935.988 1616.49 926.183 1593.18 894.597C1574.1 868.737 1562.09 830.787 1562.09 830.787Z" fill="#FEC130"/>
<path d="M1562.47 844.172C1559.68 805.551 1558.73 766.571 1559.65 727.85C1562.45 766.484 1563.39 805.456 1562.47 844.172Z" fill="#0C2B34"/>
<path d="M1559.8 750.366C1557.65 745.689 1556.26 740.646 1556.25 735.494C1558.1 740.316 1559.44 745.196 1559.8 750.366Z" fill="#0C2B34"/>
<path d="M1625.57 915.531C1605.46 925.022 1573.64 910.823 1490.15 882.593C1478.6 878.686 1484.23 789.741 1496.78 793.277C1512.59 797.735 1572.98 818.451 1577.2 820.524C1612.84 838.003 1639.2 909.093 1625.57 915.531Z" fill="#F69081"/>
<path d="M1510.54 797.171C1510.54 797.171 1482.46 783.282 1464.29 777.689C1439.96 770.202 1415.87 773.752 1405.87 775.85C1384.98 780.23 1337.51 805.256 1342.33 820.186C1346.7 833.702 1393.93 805.668 1393.93 805.668C1393.93 805.668 1341.06 826.305 1349.31 841.61C1357.56 856.916 1410.53 821.254 1410.53 821.254C1410.53 821.254 1356.68 843.675 1367.69 858.115C1376 869.026 1425.8 839.428 1425.8 839.428C1425.8 839.428 1379.65 859.019 1387.72 870.611C1396.63 883.418 1444.32 858.981 1444.32 858.981C1469.78 884.99 1492.43 889.477 1508.79 888.949L1525.92 894.855L1516.57 799.497L1510.54 797.171Z" fill="#F69081"/>
<path d="M1411.76 797.358C1405.46 799.557 1399.07 801.742 1392.99 804.494C1386.91 807.245 1380.92 810.212 1375.12 813.517C1360.9 821.624 1353.26 828.923 1353.79 828.525C1366.1 819.074 1387.72 808.888 1393.8 806.134C1399.87 803.39 1405.8 800.339 1411.87 797.587L1411.76 797.358Z" fill="#0C2B34"/>
<path d="M1422.09 819.138C1414.17 822.293 1406.19 825.137 1398.41 828.643C1390.67 832.133 1383.62 836.124 1376.14 840.137C1375.56 840.448 1375.92 840.655 1376.51 840.366C1384.15 836.655 1391.49 833.814 1399.18 830.19C1406.83 826.583 1414.4 822.647 1422.18 819.32L1422.09 819.138Z" fill="#0C2B34"/>
<path d="M1434.32 836.233C1421.97 840.436 1410.41 846.915 1399.22 853.54C1398.66 853.87 1399.15 854.088 1399.74 853.783C1411.3 847.811 1420.33 843.044 1434.47 836.663C1434.69 836.562 1434.59 836.145 1434.32 836.233Z" fill="#0C2B34"/>
<path d="M1516.84 786.205L1531.26 914.623C1531.26 914.623 1618.54 931.024 1635.26 918.522C1647.2 909.586 1618.42 839.875 1579.94 818.568L1516.84 786.205Z" fill="#FEC130"/>
<path d="M1616.37 859.776C1613.82 851.483 1601.99 831.116 1579.94 818.478L1579.71 818.783C1595.22 829.786 1612.91 852.153 1616.05 859.926L1616.37 859.776Z" fill="#0C2B34"/>
<path d="M1555.55 902.511C1554.89 890.039 1553.57 877.616 1552.21 865.198C1550.85 852.77 1549.53 840.336 1547.86 827.94C1546.92 820.938 1546.01 813.926 1544.83 806.957L1544.5 806.973C1545.15 819.424 1546.42 831.869 1547.69 844.275C1548.96 856.712 1550.37 869.149 1551.89 881.561C1552.75 888.573 1553.74 895.572 1554.92 902.544C1554.98 902.887 1555.57 902.876 1555.55 902.511Z" fill="#0C2B34"/>
<path d="M1515.99 784.331C1520.61 785.887 1570.86 810.992 1584.93 821.636L1583.57 821.786C1577.13 816.372 1521.84 789.747 1517.68 787.058C1517.63 787.431 1518.58 799.438 1518.49 799.816C1518.42 800.07 1518.04 800.176 1517.93 799.879C1517.69 799.173 1515.4 784.13 1515.99 784.331Z" fill="#0C2B34"/>
<path d="M1531.26 914.623C1559.13 919.522 1587.51 924.243 1615.85 922.431C1639.09 920.739 1642.96 912.487 1644.85 890.619C1646.83 845.332 1636.29 799.985 1624.07 756.569C1631.64 778.065 1637.39 800.195 1641.7 822.602C1645.34 843.626 1657.74 911.839 1633.08 921.219C1622.1 925.442 1610.34 925.319 1598.84 924.913C1575.99 923.723 1553.44 919.821 1531.26 914.623Z" fill="#0C2B34"/>
<path d="M1564.08 662.167C1564.26 666.055 1538.45 694.824 1521.57 698.805C1516.07 700.09 1522.89 670.24 1522.89 670.24L1521.77 668.188L1506.14 639.463L1535.58 606.029L1539.92 601.479C1539.92 601.479 1543.67 609.62 1548.25 619.804C1548.47 620.275 1548.68 620.746 1548.91 621.253C1549.18 621.822 1549.45 622.359 1549.68 622.901C1550.38 624.413 1551.09 625.961 1551.77 627.516C1552.29 628.699 1552.8 629.848 1553.3 631.11C1553.84 632.36 1554.33 633.586 1554.86 634.839C1559.87 647.303 1563.97 660.522 1564.08 662.167Z" fill="#F69081"/>
<path d="M1548.25 619.804C1546.44 646.742 1529.78 662.274 1521.77 668.188L1506.14 639.463L1535.58 606.029L1539.92 601.479C1539.92 601.479 1543.67 609.62 1548.25 619.804Z" fill="#0C2B34"/>
<path d="M1449.66 595.396C1451.23 652.774 1485.78 658.31 1498.15 657.958C1509.38 657.637 1547.58 655.119 1551.95 597.889C1556.31 540.655 1529.14 523.247 1503.41 522.62C1477.68 521.993 1448.09 538.018 1449.66 595.396Z" fill="#F69081"/>
<path d="M1455.43 585.979C1456.77 585.755 1457.96 585.328 1459.26 584.968C1460.73 584.567 1461.94 584.396 1462.98 583.194C1463.53 582.549 1463.43 581.304 1462.85 580.704C1461.51 579.309 1459.59 579.356 1457.8 579.77C1455.87 580.219 1454.49 581.058 1453.27 582.628C1452.09 584.148 1453.66 586.273 1455.43 585.979Z" fill="#0C2B34"/>
<path d="M1494.85 585.567C1493.49 585.477 1492.26 585.166 1490.93 584.94C1489.43 584.684 1488.21 584.632 1487.06 583.54C1486.44 582.954 1486.43 581.704 1486.94 581.05C1488.14 579.529 1490.05 579.388 1491.87 579.622C1493.84 579.878 1495.29 580.578 1496.66 582.02C1497.99 583.414 1496.63 585.684 1494.85 585.567Z" fill="#0C2B34"/>
<path d="M1486.44 597.928L1486.75 598.266C1486.73 602.175 1487.36 606.657 1490.93 607.861L1490.91 608.079C1486.58 607.586 1485.79 601.627 1486.44 597.928Z" fill="#0C2B34"/>
<path d="M1489.83 593.756C1496.1 593.113 1496.92 605.703 1491.11 606.296C1485.39 606.882 1484.57 594.293 1489.83 593.756Z" fill="#0C2B34"/>
<path d="M1492.34 594.261C1493.49 594.901 1494.65 596.089 1495.98 596.132C1497.52 596.184 1498.6 594.789 1499.52 593.457L1499.74 593.588C1499.93 595.999 1499.17 598.535 1496.6 599.061C1494.27 599.543 1492.43 597.519 1491.67 595.133C1491.53 594.691 1491.88 594.002 1492.34 594.261Z" fill="#0C2B34"/>
<path d="M1464.71 598.519L1464.44 598.886C1464.84 602.774 1464.66 607.296 1461.23 608.847L1461.27 609.062C1465.53 608.141 1465.72 602.137 1464.71 598.519Z" fill="#0C2B34"/>
<path d="M1460.93 594.701C1454.63 594.685 1455.06 607.29 1460.89 607.31C1466.64 607.326 1466.22 594.718 1460.93 594.701Z" fill="#0C2B34"/>
<path d="M1458.33 595.62C1457.36 596.323 1456.41 597.571 1455.23 597.688C1453.85 597.827 1452.78 596.497 1451.86 595.22L1451.67 595.364C1451.68 597.775 1452.57 600.26 1454.9 600.644C1457.02 600.995 1458.5 598.873 1459 596.454C1459.09 596.004 1458.72 595.337 1458.33 595.62Z" fill="#0C2B34"/>
<path d="M1492.16 628.048C1491.48 629.168 1490.88 630.62 1489.54 631.086C1488.25 631.532 1486.55 631.333 1485.22 631.173L1485.11 631.41C1486.47 632.611 1488.76 632.993 1490.44 632.238C1492.08 631.5 1492.55 629.8 1492.56 628.127L1492.16 628.048Z" fill="#0C2B34"/>
<path d="M1473.4 617.319C1473.4 617.319 1473.74 623.204 1474.26 625.906C1474.31 626.157 1474.99 626.151 1475.92 626.023L1476.03 626.007C1480.94 625.819 1485.43 623.231 1487.56 618.771C1487.7 618.469 1487.3 618.256 1487.09 618.474C1484.04 621.787 1480.23 623.231 1476.01 624.13C1475.68 623.419 1475.79 614.033 1475.36 614.085C1473.85 614.249 1471.14 615.821 1469.49 616.676C1468.45 604.441 1469.38 592.138 1468.16 579.971C1468.11 579.535 1467.47 579.529 1467.42 579.933C1465.53 592.759 1466.42 606.863 1467.17 619.528C1467.25 621.109 1472.42 617.989 1473.4 617.319Z" fill="#0C2B34"/>
<path d="M1551.2 605.329C1537.84 601.041 1535.56 587.937 1535.56 587.937C1519.05 583.292 1509 572.231 1507.97 571.111C1508.5 572.233 1512.37 580.347 1514.47 584.422C1477.46 582.398 1462.66 556.217 1462.66 556.217C1452.47 569.441 1451.11 577.227 1449.9 581.18C1449.9 581.18 1446.74 559.053 1456.19 542.72C1467.76 522.721 1487.24 523.68 1487.24 523.68C1487.24 523.68 1514.22 511.649 1539.12 532.499C1565.93 554.991 1551.2 605.329 1551.2 605.329Z" fill="#0C2B34"/>
<path d="M1486.22 582.033C1492.4 584.52 1499.09 585.869 1505.65 586.414L1505.65 586.329C1495.09 584.779 1485.26 580.641 1477.03 573.767C1473.56 570.86 1470.46 567.567 1467.81 563.891C1465.04 560.05 1462.21 555.413 1461.21 550.746C1461.13 550.392 1460.58 550.512 1460.65 550.866C1461.72 555.8 1462.77 560.342 1465.39 564.728C1467.87 568.893 1471.15 572.645 1474.98 575.636C1478.39 578.314 1482.2 580.415 1486.22 582.033Z" fill="#0C2B34"/>
<path d="M1546.35 620C1545.45 620.466 1544.61 620.779 1543.79 620.984C1542.84 621.272 1541.94 621.373 1541.11 621.362C1539.81 621.387 1538.67 621.109 1537.7 620.676C1536.81 620.308 1536.01 619.79 1535.36 619.259C1533.67 617.87 1532.83 616.306 1532.83 616.306L1534.24 600.709C1534.24 600.709 1544.67 581.486 1553.23 585.006C1561.83 588.526 1555.44 615.393 1546.35 620Z" fill="#F69081"/>
<path d="M1551.22 592.65L1551.3 592.898C1544.96 596.353 1542.16 602.919 1540.44 609.59C1542.14 606.904 1544.68 605.251 1548.24 607.226L1548.1 607.602C1545.31 607.329 1543.4 608.027 1541.81 610.419C1540.69 612.111 1540.02 614.167 1539.29 616.058C1539.05 616.687 1537.94 616.491 1538.08 615.78L1538.12 615.619C1536.98 607.163 1542.21 594.547 1551.22 592.65Z" fill="#0C2B34"/>
<path d="M1545.29 617.69C1545.16 619.155 1543.88 620.24 1542.41 620.114C1540.95 619.989 1539.87 618.703 1539.99 617.237C1540.11 615.777 1541.4 614.69 1542.86 614.815C1544.33 614.941 1545.41 616.227 1545.29 617.69Z" fill="white"/>
<path d="M1550.26 613.083C1550.17 614.115 1549.26 614.884 1548.23 614.796C1547.19 614.707 1546.43 613.797 1546.51 612.761C1546.6 611.729 1547.51 610.961 1548.55 611.048C1549.58 611.138 1550.35 612.048 1550.26 613.083Z" fill="white"/>
<path d="M1449.6 591.874C1450.21 615.985 1458.58 644.056 1482.44 654.423C1485.64 656.019 1489.11 656.967 1492.56 657.972C1461 654.439 1446.86 620.335 1449.6 591.874Z" fill="#0C2B34"/>
<path d="M397.772 1065.98L406.866 1120.52L468.467 1491.51H478.397L433.601 1120.52L426.98 1065.98H397.772Z" fill="#335863"/>
<path d="M433.6 1120.52H406.866L402.161 1092.3L402.044 1091.61H430.091L433.6 1120.52Z" fill="#2B4F58"/>
<path d="M204.318 1491.51H214.249L275.852 1120.52L284.946 1065.98H255.735L249.115 1120.52L204.318 1491.51Z" fill="#335863"/>
<path d="M275.851 1120.52H249.114L252.623 1091.61H280.671L275.851 1120.52Z" fill="#2B4F58"/>
<path d="M85.7861 1491.51H95.7137L157.317 1120.52L166.411 1065.98H137.2L130.58 1120.52L85.7861 1491.51Z" fill="#335863"/>
<path d="M157.317 1120.52H130.58L134.089 1091.61H162.136L157.317 1120.52Z" fill="#2B4F58"/>
<path d="M101.533 1091.61H486.695V1044.04H317.711L260.919 713.62H118.743L101.533 1091.61Z" fill="#335863"/>
<path d="M126.14 1091.61H101.533L118.743 713.62H142.178L126.14 1091.61Z" fill="#2B4F58"/>
<path d="M546.032 1488.39C537.434 1489.47 300.956 1440.52 293.331 1433.12C292.402 1432.31 296.382 1410.82 302.299 1381.52L302.414 1380.94C306.1 1362.37 370.065 1211.1 370.065 1211.1L523.52 1249.01L458.492 1389.53C458.492 1389.53 487.752 1409.36 512.895 1428.26L512.95 1428.34C528.476 1439.95 541.871 1450.39 544.751 1453.82C552.208 1462.77 554.619 1487.38 546.032 1488.39Z" fill="#BF665C"/>
<path d="M546.021 1488.38C537.444 1489.46 300.97 1440.51 293.317 1433.13C292.394 1432.29 296.39 1410.84 302.297 1381.52L302.417 1380.96C303.768 1374.04 313.559 1348.65 325.244 1319.53C350.493 1325.52 440.999 1347.11 473.91 1356.23L458.509 1389.53C458.509 1389.53 487.763 1409.37 512.909 1428.27L512.947 1428.33C528.47 1439.94 541.885 1450.4 544.751 1453.8C552.21 1462.78 554.635 1487.4 546.021 1488.38Z" fill="#E5E5E4"/>
<path d="M546.835 1489.49C537.989 1490.52 301.329 1440.93 293.497 1433.33C290.514 1430.47 294.608 1393.24 306.304 1353.57L458.844 1385.72C458.844 1385.72 538.011 1444.65 545.705 1453.9C553.349 1463.14 555.681 1488.45 546.835 1489.49Z" fill="#FEC130"/>
<path d="M545.424 1479.31C505.959 1470.02 345.898 1436.29 306.177 1430.11C305.855 1430.06 305.809 1430.27 306.125 1430.36C345.045 1440.42 505.374 1472.85 545.291 1479.96C546.133 1480.11 546.258 1479.5 545.424 1479.31Z" fill="#0C2B34"/>
<path d="M470.455 1392.3C454.621 1388.76 435.038 1390.5 422.449 1401.42C421.961 1401.85 422.572 1402.53 423.092 1402.39C439 1398 453.798 1395.34 470.319 1394.32C471.482 1394.24 471.588 1392.56 470.455 1392.3Z" fill="#0C2B34"/>
<path d="M481.709 1399.65C465.878 1396.1 446.295 1397.85 433.706 1408.77C433.218 1409.19 433.829 1409.88 434.349 1409.73C450.254 1405.34 465.055 1402.69 481.576 1401.66C482.739 1401.59 482.845 1399.91 481.709 1399.65Z" fill="#0C2B34"/>
<path d="M492.966 1407C477.135 1403.45 457.55 1405.2 444.963 1416.12C444.476 1416.54 445.083 1417.23 445.606 1417.08C461.511 1412.69 476.31 1410.04 492.833 1409.01C493.996 1408.94 494.102 1407.25 492.966 1407Z" fill="#0C2B34"/>
<path d="M504.223 1414.34C488.392 1410.8 468.807 1412.55 456.22 1423.46C455.732 1423.89 456.34 1424.57 456.863 1424.43C472.768 1420.04 487.567 1417.38 504.087 1416.36C505.253 1416.28 505.357 1414.6 504.223 1414.34Z" fill="#0C2B34"/>
<path d="M540.976 1449.37C537.145 1446.01 531.517 1441.41 524.973 1436.22V1436.22C531.517 1441.41 537.145 1446 540.976 1449.37ZM523.611 1435.14C518.557 1431.14 513.007 1426.82 507.352 1422.46L507.354 1422.45C513.007 1426.81 518.557 1431.14 523.611 1435.14V1435.14Z" fill="#BCBFBF"/>
<path d="M524.973 1436.22C524.523 1435.86 524.071 1435.5 523.61 1435.14V1435.14C524.071 1435.5 524.523 1435.86 524.973 1436.22V1436.22Z" fill="#CBCDCD"/>
<path d="M546.498 1489.49C542.479 1489.49 518.134 1485 485.992 1478.49L489.52 1469.23C513.928 1474.07 534.23 1477.99 545.291 1479.96C545.381 1479.97 545.465 1479.98 545.539 1479.98C546.149 1479.98 546.168 1479.48 545.424 1479.31C534.54 1476.75 514.489 1472.33 490.318 1467.14L507.351 1422.46C513.007 1426.82 518.556 1431.14 523.61 1435.14C524.071 1435.5 524.523 1435.86 524.972 1436.22C531.516 1441.41 537.145 1446.01 540.975 1449.37C543.245 1451.36 544.885 1452.92 545.707 1453.91C553.333 1463.12 555.692 1488.43 546.83 1489.48C546.743 1489.49 546.631 1489.49 546.498 1489.49Z" fill="#F7B31F"/>
<path d="M545.539 1479.98C545.465 1479.98 545.381 1479.97 545.291 1479.96C534.23 1477.99 513.928 1474.07 489.521 1469.23L490.319 1467.14C514.489 1472.33 534.541 1476.75 545.424 1479.31C546.168 1479.48 546.149 1479.98 545.539 1479.98Z" fill="#05252D"/>
<path d="M464.592 1393.29L301.7 1354.83C301.7 1354.83 438.477 1053.74 426.528 1037.88C420.556 1029.95 268.891 1027.61 220.656 986.691C158.001 933.531 200.035 852.309 200.035 852.309L369.411 847.277C369.411 847.277 367.371 882.708 373.977 888.045C378.334 891.605 580.152 908.592 602.317 976.698C629.495 1060.21 464.592 1393.29 464.592 1393.29Z" fill="#0C2B34"/>
<path d="M455.501 1023.84C452.096 1020.92 446.982 1020.57 442.719 1019.86C418.268 1015.76 393.825 1011.63 369.373 1007.54C346.492 1003.71 323.493 1000.28 300.72 995.886C281.864 992.246 262.687 987.334 246.377 977.102C230.044 966.855 218.763 951.457 213.069 933.482C207.375 915.512 206.972 896.191 208.761 877.583C209.197 873.031 210.034 868.487 210.884 863.992C210.949 863.651 210.404 863.537 210.342 863.877C204.141 898.61 203.585 938.928 229.6 966.613C242.282 980.107 259.704 988.034 277.481 993.173C297.538 998.967 318.496 1001.71 339.079 1005.15C363.53 1009.25 387.981 1013.34 412.437 1017.41C424.201 1019.37 436.148 1020.9 447.816 1023.34C450.053 1023.81 452.581 1024.46 454.188 1026.16C456.403 1028.5 455.801 1031.82 455.221 1034.65C454.044 1040.41 452.491 1046.12 450.835 1051.77C437.488 1097.37 341.52 1311.3 338.874 1316.31C338.596 1316.84 339.425 1317.25 339.713 1316.73C362.146 1276.73 433.314 1112.34 448.127 1069.2C451.911 1058.18 455.401 1047.03 457.741 1035.63C458.585 1031.52 459.079 1026.89 455.501 1023.84Z" fill="#23434C"/>
<path d="M472.109 1353.79C467.668 1351.73 424.893 1341.53 415.459 1339.32C396.568 1334.89 336.983 1321.87 326.059 1320.62C325.767 1320.59 325.664 1321.05 325.944 1321.15C335.188 1324.36 373.1 1333.61 382.543 1335.77C401.472 1340.1 466.538 1354.57 471.924 1354.64C472.4 1354.65 472.542 1353.99 472.109 1353.79Z" fill="#23434C"/>
<path d="M785.005 1492.04C776.794 1494.81 535.306 1493.92 526.362 1488.19C525.289 1487.57 524.91 1465.73 524.875 1435.84L524.872 1435.25C524.785 1416.31 518.974 1254.48 518.974 1254.48L670.11 1253.23L679.534 1412.59C679.534 1412.59 712.155 1426.19 740.56 1439.71L740.628 1439.78C758.153 1448.06 773.364 1455.63 776.867 1458.41C785.956 1465.7 793.219 1489.34 785.005 1492.04Z" fill="#BF665C"/>
<path d="M785.013 1492.03C776.796 1494.8 535.306 1493.92 526.351 1488.18C525.278 1487.58 524.907 1465.72 524.867 1435.85V1435.26C524.858 1433.95 524.85 1432.6 524.807 1431.25C524.817 1430.28 524.796 1429.31 524.741 1428.35C524.728 1426.93 524.679 1425.47 524.627 1424.02C524.311 1411.44 523.676 1391.02 522.927 1368.63L676.894 1367.63L679.545 1412.59C679.545 1412.59 712.153 1426.2 740.565 1439.71L740.636 1439.77C758.154 1448.07 773.375 1455.63 776.859 1458.41C785.939 1465.7 793.235 1489.34 785.013 1492.03Z" fill="#E5E5E4"/>
<path d="M786.01 1492.95C777.545 1495.72 535.753 1494.25 526.566 1488.36C523.071 1486.15 519.671 1448.85 523.234 1407.64L679.119 1408.78C679.119 1408.78 768.435 1450.77 777.815 1458.3C787.148 1465.84 794.472 1490.18 786.01 1492.95Z" fill="#FEC130"/>
<path d="M782.599 1483.26C742.074 1482.02 578.503 1480.83 538.349 1482.68C538.022 1482.69 538.019 1482.91 538.346 1482.93C578.487 1485.04 742.066 1484.91 782.599 1483.92C783.454 1483.9 783.457 1483.28 782.599 1483.26Z" fill="#0C2B34"/>
<path d="M691.81 1412.92C675.586 1412.6 656.744 1418.21 646.582 1431.42C646.187 1431.93 646.92 1432.48 647.405 1432.24C662.117 1424.77 676.09 1419.22 692.076 1414.92C693.204 1414.62 692.97 1412.95 691.81 1412.92Z" fill="#0C2B34"/>
<path d="M704.303 1417.88C688.08 1417.56 669.238 1423.17 659.073 1436.37C658.681 1436.89 659.414 1437.44 659.896 1437.19C674.608 1429.72 688.584 1424.17 704.57 1419.88C705.695 1419.58 705.464 1417.91 704.303 1417.88Z" fill="#0C2B34"/>
<path d="M716.797 1422.84C700.574 1422.52 681.732 1428.13 671.567 1441.34C671.175 1441.85 671.908 1442.4 672.393 1442.15C687.102 1434.68 701.078 1429.14 717.064 1424.84C718.189 1424.54 717.958 1422.86 716.797 1422.84Z" fill="#0C2B34"/>
<path d="M729.291 1427.8C713.067 1427.48 694.226 1433.09 684.064 1446.29C683.669 1446.81 684.402 1447.36 684.887 1447.11C699.595 1439.64 713.571 1434.09 729.558 1429.8C730.683 1429.49 730.452 1427.82 729.291 1427.8Z" fill="#0C2B34"/>
<path d="M694.629 1407.64L517.524 1406.06C517.524 1406.06 519.635 1125.69 506.275 1108.61C488.468 1085.83 239.246 1086.35 185.792 1012.07C137.783 945.351 178.308 850.933 178.308 850.933L367.041 845.326C367.041 845.326 361.151 875.294 349.548 904.764C349.548 904.764 576.901 946.724 640.591 1016.47C683.576 1063.53 694.629 1407.64 694.629 1407.64Z" fill="#0C2B34"/>
<path d="M382.739 891.829C377.287 892.79 371.904 894.995 366.747 896.959C361.328 899.024 355.991 901.372 350.779 903.911C340.462 908.943 330.624 914.697 320.92 920.805C320.62 920.993 320.915 921.413 321.217 921.255C331.423 915.95 341.974 911.18 352.536 906.625C357.617 904.434 362.704 902.249 367.785 900.056C372.895 897.85 378.347 895.97 383.204 893.24C383.842 892.88 383.493 891.695 382.739 891.829Z" fill="#23434C"/>
<path d="M371.427 845.244C369.267 853.859 367.37 862.541 364.908 871.079C363.777 874.994 362.663 878.98 361.181 882.781C359.933 885.987 358.04 889.649 354.329 890.365C350.049 891.193 348.828 887.529 349.177 883.996C349.564 880.054 350.572 876.1 351.351 872.221C352.248 867.748 353.155 863.277 353.969 858.787C354.375 856.542 354.798 854.3 355.179 852.05C355.274 851.483 355.694 847.184 356.002 845.953L356.239 846.138L356.386 846.116L356.65 845.893C356.694 845.555 356.688 845.484 356.435 845.247L356.043 845.217C355.225 845.667 355.165 846.789 354.901 847.615C354.206 849.794 353.498 851.971 352.861 854.169C351.67 858.283 350.507 862.408 349.461 866.557C348.417 870.706 347.398 874.861 346.377 879.016C345.614 882.121 344.707 885.393 345.546 888.586C346.461 892.073 349.248 893.831 352.313 894.095C352.163 894.378 351.986 894.645 351.858 894.937C351.482 895.781 351.207 896.688 350.885 897.558C350.558 898.448 350.261 899.337 350.005 900.252C349.883 900.685 349.804 901.135 349.755 901.584C349.7 902.083 349.801 902.57 349.738 903.072C349.64 903.84 350.687 904.314 351.073 903.551C351.299 903.107 351.629 902.769 351.88 902.344C352.144 901.903 352.332 901.388 352.495 900.903C352.79 900.042 353.038 899.181 353.256 898.299C353.474 897.427 353.741 896.552 353.904 895.67C353.999 895.146 354.018 894.613 354.065 894.081C355.814 893.904 357.563 893.302 359.031 892.191C361.603 890.248 363.104 887.281 364.178 884.32C365.477 880.735 366.485 877.021 367.493 873.343C369.989 864.244 372.114 854.995 372.983 845.582C373.075 844.588 371.683 844.223 371.427 845.244Z" fill="#23434C"/>
<path d="M259.187 866.328C258.405 870.605 257.912 874.924 256.925 879.163C255.961 883.309 254.836 887.456 253.471 891.49C252.166 895.348 250.556 899.241 248.218 902.595C245.949 905.851 242.949 908.657 239.854 911.114C233.785 915.931 226.916 919.764 219.623 922.382C215.948 923.701 212.191 924.82 208.383 925.676C206.397 926.12 204.389 926.466 202.373 926.725C200.692 926.942 199.03 927.002 197.532 927.847C196.891 928.209 196.998 929.217 197.621 929.522C200.199 930.789 203.822 930.092 206.571 929.809C209.794 929.476 212.992 928.931 216.133 928.128C222.457 926.509 228.592 923.845 234.201 920.51C239.705 917.236 245.243 913.146 249.305 908.153C253.517 902.971 255.874 896.887 257.383 890.444C259.189 882.723 260.437 874.335 260.012 866.396C259.988 865.93 259.271 865.857 259.187 866.328Z" fill="#23434C"/>
<path d="M533.171 1119.97C532.718 1114.88 531.727 1109.74 529.855 1104.96C525.929 1094.92 517.571 1089.85 507.472 1087.29C495.547 1084.27 483.211 1082.48 471.08 1080.51C458.678 1078.5 446.242 1076.7 433.799 1074.97C408.599 1071.45 383.355 1068.21 358.264 1063.98C333.287 1059.77 308.413 1054.62 284.15 1047.29C261.854 1040.56 238.989 1032.24 221.144 1016.76C182.736 983.47 181.33 927.673 186.024 880.985C186.686 874.392 187.495 867.818 188.291 861.242C188.332 860.899 187.803 860.781 187.762 861.127C184.722 887.412 181.186 913.868 183.798 940.352C185.934 961.994 192.271 983.732 204.801 1001.72C217.801 1020.37 237.065 1032.43 257.852 1040.83C280.576 1050 304.599 1056.19 328.546 1061.2C378.361 1071.64 429.173 1076.05 479.296 1084.64C485.478 1085.7 491.651 1086.82 497.808 1088.02C503.442 1089.12 509.229 1090.13 514.503 1092.49C525.886 1097.59 529.125 1108.65 530.43 1120.12C535.192 1161.96 542.281 1352.43 542.221 1359.09C542.215 1359.69 543.125 1359.63 543.136 1359.05C544.498 1288.62 537.944 1173.8 533.171 1119.97Z" fill="#23434C"/>
<path d="M517.007 1204.38C516.754 1185.97 516.228 1194.06 515.822 1175.65C515.438 1158.29 515.835 1140.61 512.444 1123.49C511.076 1116.57 509.842 1107.44 502.426 1104.27C498.612 1102.63 494.395 1101.75 490.382 1100.69C486.017 1099.54 481.637 1098.43 477.223 1097.48C456.88 1093.1 436.306 1090.34 415.685 1087.57C415.307 1087.52 415.149 1088.07 415.538 1088.14C432.966 1091.5 450.407 1094.92 467.71 1098.86C476.359 1100.83 485.004 1102.9 493.558 1105.25C497.076 1106.21 501.849 1106.89 504.306 1109.78C506.867 1112.8 507.624 1117.7 508.504 1121.42C512.474 1138.23 512.19 1155.77 512.645 1172.92C513.119 1190.7 513.552 1181.99 514.065 1199.77C514.639 1219.72 515.157 1239.72 516.536 1259.64C516.574 1260.17 517.372 1260.15 517.383 1259.62C517.759 1241.21 517.263 1222.79 517.007 1204.38Z" fill="#23434C"/>
<path d="M677.801 1371.52C673.017 1370.47 629.051 1369.84 619.361 1369.73C599.958 1369.53 538.97 1369.79 528.035 1370.95C527.743 1370.98 527.743 1371.46 528.037 1371.49C537.758 1372.61 576.776 1373.38 586.459 1373.44C605.881 1373.54 672.535 1373.5 677.806 1372.39C678.272 1372.29 678.27 1371.62 677.801 1371.52Z" fill="#23434C"/>
<path d="M350.728 905.241C385.504 909.05 420.06 916.868 453.687 926.374C487.597 935.958 520.891 947.891 553.033 962.346C571.088 970.465 588.567 979.537 605.905 989.075C606.248 989.263 605.93 989.767 605.589 989.587C574.485 973.374 541.921 959.393 508.972 947.403C476.13 935.449 442.517 925.616 408.364 918.187C389.133 914.002 369.768 910.747 350.363 907.518C349.08 907.306 349.426 905.099 350.728 905.241Z" fill="#23434C"/>
<path d="M158.058 906.69C158.592 907.292 379.943 891.068 379.943 891.068L378.374 876.893C378.374 876.893 388.907 865.865 380.772 836.616C363.565 774.754 329.172 651.3 317.588 637.735C303.511 621.25 279.047 616.158 261.041 626.756C223.26 648.989 167.378 809.528 152.604 847.495C145.319 866.222 159.18 878.097 161.39 886.881C161.39 886.881 157.379 905.916 158.058 906.69Z" fill="#FEC130"/>
<path d="M369.202 875.96C277.116 879.82 177.047 886.928 169.002 887.336C168.615 887.358 168.615 887.949 169.008 887.944C265.565 886.614 361.233 877.954 369.207 876.842C369.75 876.766 369.788 875.935 369.202 875.96Z" fill="#0C2B34"/>
<path d="M305.708 677.765C292.16 675.381 277.1 644.786 275.315 625.966C275.198 624.678 281.535 614.361 288.64 601.458C292.923 593.612 297.502 584.777 301.101 576.41L348.091 611.729C348.091 611.729 335.387 627.045 329.203 641.669C328.699 642.898 328.331 644.083 328.086 645.257L327.917 645.86C326.176 652.839 318.807 680.058 305.708 677.765Z" fill="#F9B7B9"/>
<path d="M328.075 645.263L327.912 645.84C326.165 645.391 324.335 644.699 322.395 643.843C292.323 630.096 301.158 589.857 304.27 578.805L316.012 587.623L348.088 611.737C348.088 611.737 335.376 627.053 329.217 641.686C328.699 642.901 328.323 644.08 328.075 645.263Z" fill="#0C2B34"/>
<path d="M384.352 518.913C384.352 518.913 400.229 530.252 399.33 548.827C398.431 567.404 390.051 585.17 388.296 585.728C386.545 586.287 384.352 518.913 384.352 518.913Z" fill="#0C2B34"/>
<path d="M301.602 523.155C292.402 542.228 294.039 601.685 306.285 616.775C324.034 638.654 357.552 645.661 377.263 623.302C396.371 601.636 392.865 524.187 378.772 510.015C358.015 489.141 315.191 494.982 301.602 523.155Z" fill="#F9B7B9"/>
<path d="M352.739 569.485L352.439 569.848C352.657 573.847 352.232 578.47 348.639 579.881L348.677 580.105C353.085 579.383 353.586 573.242 352.739 569.485Z" fill="#0C2B34"/>
<path d="M349.066 565.385C342.615 565.041 342.403 577.971 348.383 578.29C354.264 578.601 354.477 565.671 349.066 565.385Z" fill="#0C2B34"/>
<path d="M375.909 570.436L376.211 570.795C376.018 574.797 376.47 579.415 380.074 580.804L380.036 581.028C375.625 580.333 375.083 574.198 375.909 570.436Z" fill="#0C2B34"/>
<path d="M379.554 566.311C386.005 565.93 386.297 578.859 380.322 579.214C374.441 579.562 374.146 566.632 379.554 566.311Z" fill="#0C2B34"/>
<path d="M343.944 556.991C345.726 556.626 347.306 555.994 349.028 555.454C350.973 554.844 352.583 554.558 353.915 552.899C354.626 552.011 354.422 550.346 353.624 549.572C351.763 547.769 349.196 547.924 346.826 548.564C344.254 549.259 342.451 550.45 340.898 552.61C339.391 554.702 341.598 557.468 343.944 556.991Z" fill="#0C2B34"/>
<path d="M384.426 555.394C382.638 555.075 381.042 554.479 379.309 553.977C377.351 553.414 375.735 553.163 374.367 551.536C373.632 550.665 373.798 548.997 374.577 548.205C376.394 546.357 378.963 546.455 381.35 547.039C383.935 547.673 385.769 548.823 387.371 550.945C388.924 553.002 386.785 555.819 384.426 555.394Z" fill="#0C2B34"/>
<path d="M345.56 604.231C346.451 605.234 347.314 606.588 348.758 606.811C350.14 607.027 351.815 606.512 353.123 606.109L353.283 606.326C352.136 607.784 349.886 608.593 348.058 608.138C346.271 607.694 345.486 606.068 345.162 604.384L345.56 604.231Z" fill="#0C2B34"/>
<path d="M350.599 592.56C352.594 596.186 355.748 598.311 359.257 599.251C360.824 599.682 362.488 599.853 364.137 599.82C364.458 599.837 364.782 599.823 365.079 599.777C365.374 599.763 365.638 599.747 365.965 599.703C366.436 599.671 366.719 599.303 366.828 598.867L366.831 598.837L366.82 598.426L366.823 598.396L366.839 598.044C367.142 594.974 367.169 590.274 367.169 590.274C368.256 590.915 373.805 593.898 373.827 592.282C373.969 578.919 374.124 564.058 371.441 550.73C371.375 550.286 370.697 550.341 370.702 550.782C370.062 563.619 371.68 576.484 371.239 589.389C369.46 588.566 366.567 587.07 364.954 586.989C364.507 587.084 365.057 596.074 364.812 597.445L364.777 597.589C359.56 597.886 355.773 596.05 351 592.228C350.716 591.977 350.381 592.225 350.599 592.56Z" fill="#0C2B34"/>
<path d="M362.372 598.121C362.372 598.121 359.443 601.515 355.692 602.54C354.31 602.921 352.847 603.006 351.355 602.485C348.29 601.434 348.418 598.568 349.167 596.162C349.777 594.184 350.837 592.52 350.837 592.52C350.837 592.52 355.092 597.121 362.372 598.121Z" fill="#0C2B34"/>
<path d="M355.692 602.54C354.31 602.921 352.847 603.006 351.355 602.485C348.29 601.434 348.418 598.568 349.167 596.162C352.491 596.756 355.643 599.271 355.692 602.54Z" fill="#F493B6"/>
<path d="M301.564 576.599C308.01 578.732 315.916 559.375 318.194 551.913C320.204 545.337 322.814 524.4 323.163 522.975C323.512 521.55 351.06 542.174 367.532 537.755C384.006 533.333 395.269 518.888 395.645 512.039C396.021 505.19 376.089 487.335 358.525 486.057C340.958 484.777 316.663 506.596 316.663 506.596C316.663 506.596 324.961 497.121 324.705 496.323C324.446 495.524 312.985 499.812 310.715 507.857C310.715 507.857 313.189 497.75 312.334 497.54C311.481 497.331 302.458 505.839 304.305 512.475C304.305 512.475 293.895 521.095 292.737 530.772C291.577 540.446 293.988 574.089 301.564 576.599Z" fill="#0C2B34"/>
<path d="M379.239 534.591C374.212 536.77 369.172 539.176 363.655 539.781C357.694 540.435 351.559 538.805 346.072 536.561C340.46 534.267 335.387 531.011 330.799 527.058C326.781 523.598 323.239 519.452 318.937 516.354C317.861 515.578 316.559 517.125 317.208 518.147C323.623 528.251 335.183 536.825 346.421 540.663C358.245 544.701 369.496 542.295 379.298 534.722L379.239 534.591Z" fill="#0C2B34"/>
<path d="M311.647 572.296C311.647 572.296 302.542 551.079 293.179 553.953C283.81 556.827 287.975 585.703 297.08 591.427C306.185 597.151 311.65 588.825 311.65 588.825L311.647 572.296Z" fill="#F9B7B9"/>
<path d="M294.576 562.2L294.47 562.454C300.807 566.695 303.117 573.869 304.286 581.05C302.76 578.061 300.248 576.078 296.309 577.814L296.42 578.222C299.382 578.203 301.324 579.121 302.768 581.788C303.79 583.676 304.294 585.902 304.88 587.959C305.076 588.646 306.261 588.547 306.174 587.785L306.149 587.613C308.157 578.827 303.863 565.055 294.576 562.2Z" fill="#0C2B34"/>
<path d="M325.98 653.949L311.157 676.615L281.717 611.064L272.539 623.509L298.401 696.13L310.871 679.83L318.262 695.52L327.541 667.113L325.98 653.949Z" fill="#E5E5E4"/>
<path d="M272.539 623.509C280.644 648.458 289.299 673.217 298.129 697.919L299.088 696.652L311.481 680.298L310.176 680.159L317.733 695.77L318.376 697.097C321.548 687.139 324.525 677.119 327.541 667.112C324.231 676.511 320.883 685.897 317.706 695.339L318.791 695.271L311.568 679.503L311.04 678.353L310.261 679.364L297.718 695.606L299.213 695.841C290.607 671.626 281.84 647.47 272.539 623.509Z" fill="#0C2B34"/>
<path d="M252.016 669.474C267.637 733.979 314.769 845.43 333.556 859.872C350.196 872.66 433.115 857.834 469.847 851.911C483.592 849.696 467.221 756.073 452.575 758.738C435 761.931 377.216 766.508 373.699 763.386C369.833 759.961 323.339 692.446 289.519 652.082C258.859 615.494 246.107 645.078 252.016 669.474Z" fill="#F9B7B9"/>
<path d="M503.919 753.736C532.364 755.325 539.423 760.1 564.141 748.694C580.359 741.207 592.101 748.353 580.787 763.089C562.286 787.194 525.155 792.853 511.719 791.106L503.919 753.736Z" fill="#F9B7B9"/>
<path d="M425.139 765.925C425.139 765.925 459.643 754.769 490.123 753.464C511.201 752.559 557.276 755.709 591.564 808.526C599.697 821.052 602.402 844.673 581.686 829.035C566.974 817.928 561 806.439 551.263 801.538C551.263 801.538 551.138 831.988 538.27 839.646C532.519 843.068 516.604 852.042 503.216 857.259C503.216 857.259 501.298 854.649 499.334 850.996C499.334 850.996 486.638 857.014 466.165 850.922L425.139 765.925Z" fill="#F9B7B9"/>
<path d="M510.375 755.814C519.011 762.723 537.063 777.669 547.576 795.037C559.256 814.323 576.555 854.627 562.228 863.1C551.723 869.314 543.765 854.507 543.765 854.507C543.765 854.507 547.405 872.673 536.687 876.212C526.92 879.435 521.45 867.611 521.45 867.611C521.45 867.611 521.763 879.01 511.756 880.301C499.723 881.86 501.042 857.714 487.491 848.756C484.447 846.745 510.375 755.814 510.375 755.814Z" fill="#F9B7B9"/>
<path d="M525.139 803.977C532.195 811.806 543.653 833.697 543.999 854.102C544.007 854.565 543.664 854.819 543.566 854.399C538.412 832.01 529.318 812.245 524.956 804.088L525.139 803.977Z" fill="#0C2B34"/>
<path d="M506.011 816.331C511.405 823.711 522.208 846.8 521.848 867.495C521.84 867.955 521.477 868.187 521.398 867.764C516.977 844.15 509.692 824.834 505.823 816.432L506.011 816.331Z" fill="#0C2B34"/>
<path d="M461.484 869.206L443.555 753.083L375.765 760.068C351.733 727.836 303.656 663.397 283.69 643.607C260.263 620.39 242.614 635.137 249.33 668.061C264.69 743.365 317.458 856.129 332.766 867.738C354.703 884.37 461.484 869.206 461.484 869.206Z" fill="#FEC130"/>
<path d="M434.45 864.389C431.932 856.883 426.808 824.572 425.62 816.508C424.454 808.613 420.763 775.95 419.569 767.666C419.504 767.213 420.128 766.987 420.201 767.445C421.52 775.624 435 856.273 434.867 864.307C434.864 864.585 434.529 864.628 434.45 864.389Z" fill="#0C2B34"/>
<path d="M379.391 875.532C369.875 875.793 360.331 875.467 350.842 874.284C344.96 873.442 338.741 872.456 333.493 869.31C330.429 867.201 328.126 864.283 325.892 861.403C304.422 829.942 291.296 793.232 277.339 758.019C270.681 740.18 264.297 722.238 258.538 704.088C264.752 719.968 273.04 741.725 279.336 757.246C293.873 792.161 306.909 828.354 327.464 860.251C330.271 864 333.066 867.896 337.422 869.527C341.686 871.353 346.374 872.284 351.019 873.11C360.367 874.663 369.885 875.251 379.391 875.532Z" fill="#0C2B34"/>
<path d="M264.67 721.959C262.093 718.695 259.609 715.181 258.47 711.138C260.412 714.756 262.9 718.243 264.67 721.959Z" fill="#0C2B34"/>
<path d="M323.023 691.681C341.372 713.021 356.868 736.714 375.053 758.161C375.337 758.509 375.756 758.825 376.007 759.092C379.025 759.223 382.545 758.825 385.85 758.577L405.07 756.73L443.544 752.981L443.645 752.973L443.655 753.069L443.999 756.248L443.457 753.096L443.568 753.18C422.844 756.215 402.063 759.046 381.189 760.871C379.235 760.967 377.426 761.288 375.399 760.972C374.604 760.612 374.162 760.087 373.62 759.547C355.517 738.314 339.939 713.838 323.023 691.681Z" fill="#0C2B34"/>
<path d="M327.693 693.037C329.881 696.592 331.943 700.387 332.608 704.545C331.096 700.714 329.028 696.949 327.693 693.037Z" fill="#0C2B34"/>
<path d="M62 1491.7C605.758 1490.03 1215.73 1490.02 1759.48 1491.7C1215.72 1493.38 605.755 1493.37 62 1491.7Z" fill="#0C2B34"/>
<path d="M1027.52 449.698C1027.52 514.191 975.239 566.477 910.742 566.477C846.246 566.477 793.96 514.191 793.96 449.698C793.96 385.201 846.246 332.915 910.742 332.915C975.239 332.915 1027.52 385.201 1027.52 449.698Z" fill="#FEC130"/>
<path d="M983.84 540.776C1010.15 519.627 1027.11 487.302 1027.51 451.014C1027.52 451.441 1027.52 451.869 1027.52 452.297C1027.52 488.354 1010.4 520.409 983.84 540.776Z" fill="#DEDFDE"/>
<path d="M916.09 563.731C854.547 563.731 804.658 513.84 804.658 452.296C804.658 390.756 854.547 340.867 916.09 340.867C977.203 340.867 1026.83 390.061 1027.51 451.013C1027.11 487.302 1010.15 519.626 983.839 540.775C965.066 555.171 941.576 563.731 916.09 563.731ZM883.305 551.441C893.614 554.849 904.64 556.694 916.09 556.694C973.746 556.694 1020.48 509.955 1020.48 452.296C1020.48 394.641 973.746 347.901 916.09 347.901C858.432 347.901 811.693 394.641 811.693 452.296C811.693 474.44 818.585 494.971 830.344 511.864C830.36 511.886 830.376 511.908 830.39 511.93C830.403 511.949 830.414 511.963 830.425 511.982C834.149 517.319 838.359 522.288 842.99 526.829C843.017 526.857 843.047 526.887 843.072 526.911C843.083 526.919 843.091 526.927 843.099 526.938C854.135 537.73 867.556 546.096 882.496 551.172C882.766 551.261 883.035 551.351 883.305 551.441Z" fill="#F7B31F"/>
<path d="M1020.48 452.296C1020.48 509.955 973.746 556.694 916.09 556.694C858.432 556.694 811.692 509.955 811.692 452.296C811.692 394.641 858.432 347.901 916.09 347.901C973.746 347.901 1020.48 394.641 1020.48 452.296Z" fill="white"/>
<path d="M842.99 526.829C838.359 522.288 834.15 517.318 830.425 511.981C834.15 517.316 838.359 522.288 842.99 526.829ZM830.39 511.93C830.376 511.908 830.36 511.886 830.344 511.864C830.36 511.886 830.376 511.911 830.39 511.93Z" fill="#EFCC84"/>
<path d="M848.779 532.099C846.823 530.448 844.929 528.726 843.098 526.939C843.09 526.928 843.082 526.92 843.071 526.912C843.044 526.884 843.017 526.857 842.989 526.83C838.358 522.288 834.149 517.316 830.425 511.982C830.414 511.966 830.403 511.949 830.389 511.93C830.376 511.911 830.359 511.887 830.343 511.865C826.406 506.207 823.017 500.142 820.252 493.743L964.684 359.884C991.579 374.045 1011.52 399.613 1018.12 430.142C970.582 458.947 892.45 506.196 848.779 532.099Z" fill="#F0F0F0"/>
<path d="M883.305 551.444C883.036 551.354 882.766 551.262 882.496 551.172C882.769 551.265 883.033 551.354 883.305 551.444Z" fill="#EFCC84"/>
<path d="M883.305 551.441C883.032 551.351 882.768 551.264 882.496 551.171C877.074 549.327 871.846 547.052 866.863 544.377C906.192 521.648 978.066 480.294 1020.41 455.941C1020.01 467.869 1017.6 479.284 1013.51 489.865L883.305 551.441Z" fill="#F0F0F0"/>
<path d="M917.098 355.48H915.079V371.304H917.098V355.48Z" fill="#0C2B34"/>
<path d="M874.721 382.659L866.807 368.955L868.558 367.947L876.47 381.651L874.721 382.659Z" fill="#0C2B34"/>
<path d="M845.442 412.676L831.738 404.762L832.746 403.016L846.453 410.927L845.442 412.676Z" fill="#0C2B34"/>
<path d="M835.095 451.288H819.274V453.307H835.095V451.288Z" fill="#0C2B34"/>
<path d="M832.746 501.58L831.738 499.834L845.442 491.92L846.453 493.669L832.746 501.58Z" fill="#0C2B34"/>
<path d="M868.558 536.648L866.807 535.64L874.721 521.937L876.47 522.945L868.558 536.648Z" fill="#0C2B34"/>
<path d="M917.098 533.292H915.079V549.118H917.098V533.292Z" fill="#0C2B34"/>
<path d="M963.621 536.648L955.71 522.945L957.462 521.937L965.373 535.64L963.621 536.648Z" fill="#0C2B34"/>
<path d="M999.434 501.58L985.73 493.669L986.739 491.92L1000.44 499.834L999.434 501.58Z" fill="#0C2B34"/>
<path d="M1012.91 451.288H997.085V453.307H1012.91V451.288Z" fill="#0C2B34"/>
<path d="M986.739 412.676L985.73 410.927L999.434 403.016L1000.44 404.762L986.739 412.676Z" fill="#0C2B34"/>
<path d="M957.462 382.659L955.71 381.651L963.621 367.947L965.373 368.955L957.462 382.659Z" fill="#0C2B34"/>
<path d="M917.607 362.646L921.04 459.342L911.137 459.222L914.918 362.613L917.607 362.646Z" fill="#335863"/>
<path d="M977.84 418.577L912.78 460.101L908.053 451.397L976.554 416.212L977.84 418.577Z" fill="#0C2B34"/>
<path d="M919.468 452.296C919.468 454.165 917.956 455.677 916.09 455.677C914.224 455.677 912.709 454.165 912.709 452.296C912.709 450.43 914.224 448.918 916.09 448.918C917.956 448.918 919.468 450.43 919.468 452.296Z" fill="#FEC130"/>
<path d="M853.544 869.127H344.593V884.887H853.544V869.127Z" fill="#335863"/>
<path d="M840.217 1240.88H357.923V1256.64H840.217V1240.88Z" fill="#335863"/>
<path d="M825.099 884.887H373.04V917.713H825.099V884.887Z" fill="#23434C"/>
<path d="M325.915 1491.51H314.312L396.042 917.713H428.19L325.915 1491.51Z" fill="#335863"/>
<path d="M872.222 1491.51H883.826L802.095 917.713H769.947L872.222 1491.51Z" fill="#335863"/>
<path d="M1476.89 869.127H967.938V884.887H1476.89V869.127Z" fill="#335863"/>
<path d="M1463.56 1240.88H981.265V1256.64H1463.56V1240.88Z" fill="#335863"/>
<path d="M1448.44 884.887H996.385V917.713H1448.44V884.887Z" fill="#23434C"/>
<path d="M1495.56 1491.51H1507.17L1425.44 917.713H1393.29L1495.56 1491.51Z" fill="#335863"/>
<path d="M949.259 1491.51H937.656L1019.39 917.713H1051.53L949.259 1491.51Z" fill="#335863"/>
<path d="M767.024 869.126H614.778V859.354L745.313 852.639L700.906 693.304H682.228V676.816H713.425L767.024 869.126Z" fill="#D3D5D4"/>
<path d="M698.531 676.825L692.652 693.313H682.236V676.825H698.531Z" fill="#BEC0C1"/>
<path d="M631.282 828.978L614.552 825.943L672.21 508.01L688.94 511.045L631.282 828.978Z" fill="#BEC0C1"/>
<path d="M706.426 590.46L675.561 760.64L631.282 828.978L688.941 511.045L706.426 590.46Z" fill="#D3D5D4"/>
<path d="M583.361 869.126V851.821L431.112 859.354V869.126H583.361Z" fill="#D3D5D4"/>
<path d="M1054.46 869.126H1206.7V859.354L1076.17 852.639L1120.58 693.304H1139.25V676.816H1108.06L1054.46 869.126Z" fill="#D3D5D4"/>
<path d="M1122.95 676.825L1128.83 693.313H1139.25V676.825H1122.95Z" fill="#BEC0C1"/>
<path d="M1190.2 828.978L1206.93 825.943L1149.27 508.01L1132.54 511.045L1190.2 828.978Z" fill="#BEC0C1"/>
<path d="M1115.06 590.46L1145.92 760.64L1190.2 828.978L1132.54 511.045L1115.06 590.46Z" fill="#D3D5D4"/>
<path d="M1238.12 869.126V851.821L1390.37 859.354V869.126H1238.12Z" fill="#D3D5D4"/>
<path d="M1149.46 847.168H1052.65V869.306H1149.46V847.168Z" fill="#0C2B34"/>
<path d="M1052.65 847.168H999.854V869.306H1052.65V847.168Z" fill="#0C2B34"/>
<path d="M1149.46 849.465H1052.65V867.007H1149.46V849.465Z" fill="white"/>
<path d="M1143.2 863.4C1135.65 863.49 1128.11 863.556 1120.56 863.588L1097.92 863.645L1075.29 863.588C1067.74 863.556 1060.19 863.49 1052.65 863.4C1060.19 863.308 1067.74 863.242 1075.29 863.21L1097.92 863.152L1120.56 863.212C1128.11 863.245 1135.65 863.31 1143.2 863.4Z" fill="#D3D5D4"/>
<path d="M1143.2 859.956C1135.65 860.049 1128.11 860.114 1120.56 860.147L1097.92 860.204L1075.29 860.147C1067.74 860.114 1060.19 860.049 1052.65 859.956C1060.19 859.866 1067.74 859.801 1075.29 859.768L1097.92 859.711L1120.56 859.768C1128.11 859.801 1135.65 859.866 1143.2 859.956Z" fill="#D3D5D4"/>
<path d="M1143.2 856.516C1135.65 856.606 1128.11 856.671 1120.56 856.704L1097.92 856.761L1075.29 856.706C1067.74 856.671 1060.19 856.608 1052.65 856.516C1060.19 856.426 1067.74 856.36 1075.29 856.328L1097.92 856.271L1120.56 856.328C1128.11 856.36 1135.65 856.426 1143.2 856.516Z" fill="#D3D5D4"/>
<path d="M1143.2 853.074C1135.65 853.164 1128.11 853.23 1120.56 853.262L1097.92 853.319L1075.29 853.262C1067.74 853.23 1060.19 853.164 1052.65 853.074C1060.19 852.982 1067.74 852.919 1075.29 852.884L1097.92 852.829L1120.56 852.886C1128.11 852.919 1135.65 852.984 1143.2 853.074Z" fill="#D3D5D4"/>
<path d="M1133.04 855.197V869.966L1124.23 862.621L1115.42 869.966V855.197C1115.42 853.952 1114.41 852.941 1113.17 852.941H1130.78C1132.03 852.941 1133.04 853.952 1133.04 855.197Z" fill="#FEC130"/>
<path d="M1149.95 831.299H988.956V847.168H1149.95V831.299Z" fill="#23434C"/>
<path d="M1132.89 831.299H1117.88V847.168H1132.89V831.299Z" fill="#335863"/>
<path d="M1108.03 831.299H1102.22V847.168H1108.03V831.299Z" fill="#335863"/>
<path d="M1170.51 806.771H1070.32V831.296H1170.51V806.771Z" fill="#FEC130"/>
<path d="M1070.32 806.771H993.783V831.296H1070.32V806.771Z" fill="#FEC130"/>
<path d="M1070.32 806.771H993.783V831.296H1070.32V806.771Z" fill="#D89E25"/>
<path d="M1170.51 809.316H1073.61V828.752H1170.51V809.316Z" fill="white"/>
<path d="M1164.24 824.752C1156.69 824.891 1149.13 824.989 1141.58 825.041L1118.92 825.128L1096.27 825.041C1088.72 824.992 1081.16 824.891 1073.61 824.752C1081.16 824.613 1088.72 824.515 1096.27 824.463L1118.92 824.379L1141.58 824.466C1149.13 824.515 1156.69 824.616 1164.24 824.752Z" fill="#D3D5D4"/>
<path d="M1164.24 820.94C1156.69 821.077 1149.13 821.177 1141.58 821.226L1118.92 821.314L1096.27 821.226C1088.72 821.177 1081.16 821.079 1073.61 820.94C1081.16 820.801 1088.72 820.701 1096.27 820.652L1118.92 820.564L1141.58 820.652C1149.13 820.703 1156.69 820.801 1164.24 820.94Z" fill="#D3D5D4"/>
<path d="M1164.24 817.127C1156.69 817.263 1149.13 817.364 1141.58 817.413L1118.92 817.5L1096.27 817.416C1088.72 817.364 1081.16 817.266 1073.61 817.127C1081.16 816.988 1088.72 816.89 1096.27 816.838L1118.92 816.754L1141.58 816.841C1149.13 816.89 1156.69 816.991 1164.24 817.127Z" fill="#D3D5D4"/>
<path d="M1164.24 813.315C1156.69 813.452 1149.13 813.55 1141.58 813.602L1118.92 813.689L1096.27 813.602C1088.72 813.552 1081.16 813.452 1073.61 813.315C1081.16 813.176 1088.72 813.076 1096.27 813.027L1118.92 812.939L1141.58 813.027C1149.13 813.078 1156.69 813.176 1164.24 813.315Z" fill="#D3D5D4"/>
<path d="M1091.97 782.241H1004.04V806.766H1091.97V782.241Z" fill="#335863"/>
<path d="M1141.83 782.241H1091.97V806.766H1141.83V782.241Z" fill="#335863"/>
<path d="M1091.97 784.786H1004.04V804.222H1091.97V784.786Z" fill="white"/>
<path d="M1009.73 788.785C1016.58 788.646 1023.43 788.548 1030.29 788.496L1050.85 788.409L1071.41 788.496C1078.26 788.545 1085.12 788.646 1091.97 788.785C1085.12 788.921 1078.26 789.022 1071.41 789.071L1050.85 789.158L1030.29 789.071C1023.43 789.019 1016.58 788.921 1009.73 788.785Z" fill="#D3D5D4"/>
<path d="M1009.73 792.597C1016.58 792.461 1023.43 792.36 1030.29 792.311L1050.85 792.224L1071.41 792.308C1078.26 792.36 1085.12 792.458 1091.97 792.597C1085.12 792.736 1078.26 792.834 1071.41 792.886L1050.85 792.97L1030.29 792.883C1023.43 792.834 1016.58 792.736 1009.73 792.597Z" fill="#D3D5D4"/>
<path d="M1009.73 796.41C1016.58 796.271 1023.43 796.173 1030.29 796.121L1050.85 796.034L1071.41 796.121C1078.26 796.17 1085.12 796.271 1091.97 796.41C1085.12 796.549 1078.26 796.647 1071.41 796.696L1050.85 796.783L1030.29 796.696C1023.43 796.647 1016.58 796.546 1009.73 796.41Z" fill="#D3D5D4"/>
<path d="M1009.73 800.222C1016.58 800.086 1023.43 799.985 1030.29 799.936L1050.85 799.849L1071.41 799.933C1078.26 799.985 1085.12 800.083 1091.97 800.222C1085.12 800.361 1078.26 800.462 1071.41 800.511L1050.85 800.598L1030.29 800.511C1023.43 800.459 1016.58 800.361 1009.73 800.222Z" fill="#D3D5D4"/>
<path d="M1022.12 791.041V812.988L1030.92 805.644L1039.73 812.988V791.041C1039.73 789.793 1040.74 788.785 1041.99 788.785H1024.37C1023.13 788.785 1022.12 789.793 1022.12 791.041Z" fill="#0C2B34"/>
<path d="M600.813 577.197H429.682V598.483H407.026L429.682 621.138V677.113H600.813V577.197Z" fill="white"/>
<path d="M600.814 577.198C601.14 602.654 601.773 652.725 601.895 678.187C558.665 678.304 472.899 678.454 429.683 678.419L428.375 678.421L428.378 677.114L428.519 621.142L428.86 621.962L406.31 599.2L404.586 597.459L407.027 597.472L429.683 597.598L428.797 598.483L428.98 577.198L428.985 576.492C429.413 576.288 600.266 577.345 600.814 577.198ZM600.814 577.198C600.77 576.852 426.825 578.963 430.386 577.2L430.571 598.483L430.576 599.366L429.683 599.371L407.027 599.497L407.741 597.769L430.506 620.319L430.843 620.654L430.846 621.142L430.988 677.114L429.683 675.809C472.319 675.765 558.183 675.92 600.814 676.04L599.737 677.114C599.849 652.213 600.478 602.098 600.814 577.198Z" fill="#0C2B34"/>
<path d="M543.983 627.157C543.983 631.344 547.381 634.741 551.571 634.741C555.761 634.741 559.155 631.344 559.155 627.157C559.155 622.967 555.761 619.569 551.571 619.569C547.381 619.569 543.983 622.967 543.983 627.157Z" fill="#0C2B34"/>
<path d="M506.128 627.157C506.128 631.344 509.525 634.741 513.715 634.741C517.903 634.741 521.3 631.344 521.3 627.157C521.3 622.967 517.903 619.569 513.715 619.569C509.525 619.569 506.128 622.967 506.128 627.157Z" fill="#0C2B34"/>
<path d="M468.273 627.157C468.273 631.344 471.668 634.741 475.858 634.741C480.048 634.741 483.445 631.344 483.445 627.157C483.445 622.967 480.048 619.569 475.858 619.569C471.668 619.569 468.273 622.967 468.273 627.157Z" fill="#0C2B34"/>
</g>
<defs>
<clipPath id="clip0_3290_2718">
<rect width="1700" height="1163.85" fill="white" transform="translate(62 331)"/>
</clipPath>
</defs>
</svg>
